%TF.GenerationSoftware,KiCad,Pcbnew,(5.1.8-0-10_14)*%
%TF.CreationDate,2020-11-27T10:39:21+01:00*%
%TF.ProjectId,SH-ESP32-Ethernet,53482d45-5350-4333-922d-45746865726e,0.1.0*%
%TF.SameCoordinates,Original*%
%TF.FileFunction,Soldermask,Bot*%
%TF.FilePolarity,Negative*%
%FSLAX46Y46*%
G04 Gerber Fmt 4.6, Leading zero omitted, Abs format (unit mm)*
G04 Created by KiCad (PCBNEW (5.1.8-0-10_14)) date 2020-11-27 10:39:21*
%MOMM*%
%LPD*%
G01*
G04 APERTURE LIST*
%TA.AperFunction,Profile*%
%ADD10C,0.050000*%
%TD*%
%ADD11C,1.900000*%
%ADD12C,3.100000*%
%ADD13C,3.300000*%
%ADD14C,2.100000*%
%ADD15O,1.800000X1.800000*%
%ADD16C,6.400000*%
G04 APERTURE END LIST*
D10*
X165000000Y-108500000D02*
X172000000Y-108500000D01*
X161000000Y-112500000D02*
G75*
G02*
X165000000Y-108500000I4000000J0D01*
G01*
X148500000Y-108500000D02*
G75*
G02*
X152500000Y-112500000I0J-4000000D01*
G01*
X169500000Y-57000000D02*
X148500000Y-57000000D01*
X152500000Y-112500000D02*
X161000000Y-112499765D01*
X148500000Y-57000000D02*
X148500000Y-108500000D01*
X171989592Y-63010408D02*
X172000000Y-108500000D01*
X153000000Y-112500000D02*
X153000000Y-112500000D01*
X171989592Y-63010408D02*
G75*
G02*
X169500000Y-57000000I6010408J6010408D01*
G01*
D11*
%TO.C,J301*%
X166835000Y-99415000D03*
D12*
X163535000Y-103985000D03*
X163535000Y-88485000D03*
D13*
X160485000Y-101955000D03*
X160485000Y-90525000D03*
D14*
X156425000Y-102865000D03*
X156425000Y-100325000D03*
X156425000Y-92145000D03*
D11*
X166835000Y-101955000D03*
X169375000Y-100685000D03*
X169375000Y-98145000D03*
X166835000Y-96875000D03*
X169375000Y-95605000D03*
X166835000Y-94335000D03*
X169375000Y-93065000D03*
X166835000Y-91795000D03*
D14*
X156425000Y-89605000D03*
G36*
G01*
X168475000Y-89575000D02*
X170275000Y-89575000D01*
G75*
G02*
X170325000Y-89625000I0J-50000D01*
G01*
X170325000Y-91425000D01*
G75*
G02*
X170275000Y-91475000I-50000J0D01*
G01*
X168475000Y-91475000D01*
G75*
G02*
X168425000Y-91425000I0J50000D01*
G01*
X168425000Y-89625000D01*
G75*
G02*
X168475000Y-89575000I50000J0D01*
G01*
G37*
%TD*%
D15*
%TO.C,J303*%
X169920000Y-106690000D03*
G36*
G01*
X168230000Y-107590000D02*
X166530000Y-107590000D01*
G75*
G02*
X166480000Y-107540000I0J50000D01*
G01*
X166480000Y-105840000D01*
G75*
G02*
X166530000Y-105790000I50000J0D01*
G01*
X168230000Y-105790000D01*
G75*
G02*
X168280000Y-105840000I0J-50000D01*
G01*
X168280000Y-107540000D01*
G75*
G02*
X168230000Y-107590000I-50000J0D01*
G01*
G37*
%TD*%
%TO.C,J302*%
X150540000Y-61340000D03*
X150540000Y-58800000D03*
X153080000Y-61340000D03*
X153080000Y-58800000D03*
X155620000Y-61340000D03*
X155620000Y-58800000D03*
X158160000Y-61340000D03*
X158160000Y-58800000D03*
X160700000Y-61340000D03*
X160700000Y-58800000D03*
X163240000Y-61340000D03*
X163240000Y-58800000D03*
X165780000Y-61340000D03*
G36*
G01*
X164930000Y-57900000D02*
X166630000Y-57900000D01*
G75*
G02*
X166680000Y-57950000I0J-50000D01*
G01*
X166680000Y-59650000D01*
G75*
G02*
X166630000Y-59700000I-50000J0D01*
G01*
X164930000Y-59700000D01*
G75*
G02*
X164880000Y-59650000I0J50000D01*
G01*
X164880000Y-57950000D01*
G75*
G02*
X164930000Y-57900000I50000J0D01*
G01*
G37*
%TD*%
D16*
%TO.C,H1002*%
X156250000Y-109000000D03*
%TD*%
M02*
