%TF.GenerationSoftware,KiCad,Pcbnew,(5.1.8-0-10_14)*%
%TF.CreationDate,2020-11-27T10:39:21+01:00*%
%TF.ProjectId,SH-ESP32-Ethernet,53482d45-5350-4333-922d-45746865726e,0.1.0*%
%TF.SameCoordinates,Original*%
%TF.FileFunction,Copper,L1,Top*%
%TF.FilePolarity,Positive*%
%FSLAX46Y46*%
G04 Gerber Fmt 4.6, Leading zero omitted, Abs format (unit mm)*
G04 Created by KiCad (PCBNEW (5.1.8-0-10_14)) date 2020-11-27 10:39:21*
%MOMM*%
%LPD*%
G01*
G04 APERTURE LIST*
%TA.AperFunction,Profile*%
%ADD10C,0.050000*%
%TD*%
%TA.AperFunction,ComponentPad*%
%ADD11C,1.800000*%
%TD*%
%TA.AperFunction,ComponentPad*%
%ADD12C,3.000000*%
%TD*%
%TA.AperFunction,ComponentPad*%
%ADD13C,2.000000*%
%TD*%
%TA.AperFunction,ComponentPad*%
%ADD14R,1.800000X1.800000*%
%TD*%
%TA.AperFunction,ComponentPad*%
%ADD15O,1.700000X1.700000*%
%TD*%
%TA.AperFunction,ComponentPad*%
%ADD16R,1.700000X1.700000*%
%TD*%
%TA.AperFunction,SMDPad,CuDef*%
%ADD17R,1.400000X1.200000*%
%TD*%
%TA.AperFunction,SMDPad,CuDef*%
%ADD18C,0.100000*%
%TD*%
%TA.AperFunction,SMDPad,CuDef*%
%ADD19R,2.600000X2.600000*%
%TD*%
%TA.AperFunction,ViaPad*%
%ADD20C,0.600000*%
%TD*%
%TA.AperFunction,ViaPad*%
%ADD21C,0.800000*%
%TD*%
%TA.AperFunction,ViaPad*%
%ADD22C,0.450000*%
%TD*%
%TA.AperFunction,ViaPad*%
%ADD23C,1.000000*%
%TD*%
%TA.AperFunction,Conductor*%
%ADD24C,0.400000*%
%TD*%
%TA.AperFunction,Conductor*%
%ADD25C,0.200000*%
%TD*%
%TA.AperFunction,Conductor*%
%ADD26C,0.250000*%
%TD*%
%TA.AperFunction,Conductor*%
%ADD27C,0.800000*%
%TD*%
%TA.AperFunction,Conductor*%
%ADD28C,0.600000*%
%TD*%
%TA.AperFunction,Conductor*%
%ADD29C,1.000000*%
%TD*%
%TA.AperFunction,Conductor*%
%ADD30C,0.261112*%
%TD*%
%TA.AperFunction,Conductor*%
%ADD31C,0.100000*%
%TD*%
G04 APERTURE END LIST*
D10*
X165000000Y-108500000D02*
X172000000Y-108500000D01*
X161000000Y-112500000D02*
G75*
G02*
X165000000Y-108500000I4000000J0D01*
G01*
X148500000Y-108500000D02*
G75*
G02*
X152500000Y-112500000I0J-4000000D01*
G01*
X169500000Y-57000000D02*
X148500000Y-57000000D01*
X152500000Y-112500000D02*
X161000000Y-112499765D01*
X148500000Y-57000000D02*
X148500000Y-108500000D01*
X171989592Y-63010408D02*
X172000000Y-108500000D01*
X153000000Y-112500000D02*
X153000000Y-112500000D01*
X171989592Y-63010408D02*
G75*
G02*
X169500000Y-57000000I6010408J6010408D01*
G01*
D11*
%TO.P,J301,8*%
%TO.N,N/C*%
X166835000Y-99415000D03*
D12*
%TO.P,J301,15*%
%TO.N,GND*%
X163535000Y-103985000D03*
X163535000Y-88485000D03*
D13*
%TO.P,J301,14*%
%TO.N,VDDA*%
X156425000Y-102865000D03*
%TO.P,J301,13*%
%TO.N,/IOHeader/LED_R_AN*%
X156425000Y-100325000D03*
%TO.P,J301,12*%
%TO.N,/IOHeader/LED_Y_CA*%
X156425000Y-92145000D03*
D11*
%TO.P,J301,10*%
%TO.N,Net-(J301-Pad10)*%
X166835000Y-101955000D03*
%TO.P,J301,9*%
%TO.N,Net-(J301-Pad9)*%
X169375000Y-100685000D03*
%TO.P,J301,7*%
%TO.N,GND*%
X169375000Y-98145000D03*
%TO.P,J301,6*%
%TO.N,/IOHeader/TX-*%
X166835000Y-96875000D03*
%TO.P,J301,5*%
%TO.N,/IOHeader/TX+*%
X169375000Y-95605000D03*
%TO.P,J301,4*%
%TO.N,Net-(C308-Pad2)*%
X166835000Y-94335000D03*
%TO.P,J301,3*%
X169375000Y-93065000D03*
%TO.P,J301,2*%
%TO.N,/IOHeader/RX-*%
X166835000Y-91795000D03*
D13*
%TO.P,J301,11*%
%TO.N,/IOHeader/LED_Y_AN*%
X156425000Y-89605000D03*
D14*
%TO.P,J301,1*%
%TO.N,/IOHeader/RX+*%
X169375000Y-90525000D03*
%TD*%
D15*
%TO.P,J303,2*%
%TO.N,Net-(J301-Pad9)*%
X169920000Y-106690000D03*
D16*
%TO.P,J303,1*%
%TO.N,Net-(J301-Pad10)*%
X167380000Y-106690000D03*
%TD*%
%TO.P,C305,2*%
%TO.N,VDDA*%
%TA.AperFunction,SMDPad,CuDef*%
G36*
G01*
X161590000Y-70150000D02*
X161590000Y-70490000D01*
G75*
G02*
X161450000Y-70630000I-140000J0D01*
G01*
X161170000Y-70630000D01*
G75*
G02*
X161030000Y-70490000I0J140000D01*
G01*
X161030000Y-70150000D01*
G75*
G02*
X161170000Y-70010000I140000J0D01*
G01*
X161450000Y-70010000D01*
G75*
G02*
X161590000Y-70150000I0J-140000D01*
G01*
G37*
%TD.AperFunction*%
%TO.P,C305,1*%
%TO.N,GND*%
%TA.AperFunction,SMDPad,CuDef*%
G36*
G01*
X162550000Y-70150000D02*
X162550000Y-70490000D01*
G75*
G02*
X162410000Y-70630000I-140000J0D01*
G01*
X162130000Y-70630000D01*
G75*
G02*
X161990000Y-70490000I0J140000D01*
G01*
X161990000Y-70150000D01*
G75*
G02*
X162130000Y-70010000I140000J0D01*
G01*
X162410000Y-70010000D01*
G75*
G02*
X162550000Y-70150000I0J-140000D01*
G01*
G37*
%TD.AperFunction*%
%TD*%
D17*
%TO.P,X301,4*%
%TO.N,+3V3*%
X150900000Y-65180000D03*
%TO.P,X301,3*%
%TO.N,Net-(R307-Pad2)*%
X153300000Y-65180000D03*
%TO.P,X301,2*%
%TO.N,GND*%
X153300000Y-67080000D03*
%TO.P,X301,1*%
%TO.N,/IOHeader/PHY_RESET_N*%
X150900000Y-67080000D03*
%TD*%
%TO.P,R306,2*%
%TO.N,/IOHeader/RMI_CRS_DV*%
%TA.AperFunction,SMDPad,CuDef*%
G36*
G01*
X155215000Y-63860000D02*
X154845000Y-63860000D01*
G75*
G02*
X154710000Y-63725000I0J135000D01*
G01*
X154710000Y-63455000D01*
G75*
G02*
X154845000Y-63320000I135000J0D01*
G01*
X155215000Y-63320000D01*
G75*
G02*
X155350000Y-63455000I0J-135000D01*
G01*
X155350000Y-63725000D01*
G75*
G02*
X155215000Y-63860000I-135000J0D01*
G01*
G37*
%TD.AperFunction*%
%TO.P,R306,1*%
%TO.N,Net-(R306-Pad1)*%
%TA.AperFunction,SMDPad,CuDef*%
G36*
G01*
X155215000Y-64880000D02*
X154845000Y-64880000D01*
G75*
G02*
X154710000Y-64745000I0J135000D01*
G01*
X154710000Y-64475000D01*
G75*
G02*
X154845000Y-64340000I135000J0D01*
G01*
X155215000Y-64340000D01*
G75*
G02*
X155350000Y-64475000I0J-135000D01*
G01*
X155350000Y-64745000D01*
G75*
G02*
X155215000Y-64880000I-135000J0D01*
G01*
G37*
%TD.AperFunction*%
%TD*%
%TO.P,R308,2*%
%TO.N,Net-(R307-Pad2)*%
%TA.AperFunction,SMDPad,CuDef*%
G36*
G01*
X153040000Y-63885000D02*
X153040000Y-63515000D01*
G75*
G02*
X153175000Y-63380000I135000J0D01*
G01*
X153445000Y-63380000D01*
G75*
G02*
X153580000Y-63515000I0J-135000D01*
G01*
X153580000Y-63885000D01*
G75*
G02*
X153445000Y-64020000I-135000J0D01*
G01*
X153175000Y-64020000D01*
G75*
G02*
X153040000Y-63885000I0J135000D01*
G01*
G37*
%TD.AperFunction*%
%TO.P,R308,1*%
%TO.N,/IOHeader/PHY_CLK*%
%TA.AperFunction,SMDPad,CuDef*%
G36*
G01*
X152020000Y-63885000D02*
X152020000Y-63515000D01*
G75*
G02*
X152155000Y-63380000I135000J0D01*
G01*
X152425000Y-63380000D01*
G75*
G02*
X152560000Y-63515000I0J-135000D01*
G01*
X152560000Y-63885000D01*
G75*
G02*
X152425000Y-64020000I-135000J0D01*
G01*
X152155000Y-64020000D01*
G75*
G02*
X152020000Y-63885000I0J135000D01*
G01*
G37*
%TD.AperFunction*%
%TD*%
%TO.P,R307,2*%
%TO.N,Net-(R307-Pad2)*%
%TA.AperFunction,SMDPad,CuDef*%
G36*
G01*
X157655000Y-68850000D02*
X157285000Y-68850000D01*
G75*
G02*
X157150000Y-68715000I0J135000D01*
G01*
X157150000Y-68445000D01*
G75*
G02*
X157285000Y-68310000I135000J0D01*
G01*
X157655000Y-68310000D01*
G75*
G02*
X157790000Y-68445000I0J-135000D01*
G01*
X157790000Y-68715000D01*
G75*
G02*
X157655000Y-68850000I-135000J0D01*
G01*
G37*
%TD.AperFunction*%
%TO.P,R307,1*%
%TO.N,/IOHeader/CLKIN*%
%TA.AperFunction,SMDPad,CuDef*%
G36*
G01*
X157655000Y-69870000D02*
X157285000Y-69870000D01*
G75*
G02*
X157150000Y-69735000I0J135000D01*
G01*
X157150000Y-69465000D01*
G75*
G02*
X157285000Y-69330000I135000J0D01*
G01*
X157655000Y-69330000D01*
G75*
G02*
X157790000Y-69465000I0J-135000D01*
G01*
X157790000Y-69735000D01*
G75*
G02*
X157655000Y-69870000I-135000J0D01*
G01*
G37*
%TD.AperFunction*%
%TD*%
%TO.P,R305,2*%
%TO.N,/IOHeader/RMII_RXD1*%
%TA.AperFunction,SMDPad,CuDef*%
G36*
G01*
X156955000Y-63920000D02*
X156585000Y-63920000D01*
G75*
G02*
X156450000Y-63785000I0J135000D01*
G01*
X156450000Y-63515000D01*
G75*
G02*
X156585000Y-63380000I135000J0D01*
G01*
X156955000Y-63380000D01*
G75*
G02*
X157090000Y-63515000I0J-135000D01*
G01*
X157090000Y-63785000D01*
G75*
G02*
X156955000Y-63920000I-135000J0D01*
G01*
G37*
%TD.AperFunction*%
%TO.P,R305,1*%
%TO.N,Net-(R305-Pad1)*%
%TA.AperFunction,SMDPad,CuDef*%
G36*
G01*
X156955000Y-64940000D02*
X156585000Y-64940000D01*
G75*
G02*
X156450000Y-64805000I0J135000D01*
G01*
X156450000Y-64535000D01*
G75*
G02*
X156585000Y-64400000I135000J0D01*
G01*
X156955000Y-64400000D01*
G75*
G02*
X157090000Y-64535000I0J-135000D01*
G01*
X157090000Y-64805000D01*
G75*
G02*
X156955000Y-64940000I-135000J0D01*
G01*
G37*
%TD.AperFunction*%
%TD*%
%TO.P,R304,2*%
%TO.N,/IOHeader/RMII_RXD0*%
%TA.AperFunction,SMDPad,CuDef*%
G36*
G01*
X158305000Y-63900000D02*
X157935000Y-63900000D01*
G75*
G02*
X157800000Y-63765000I0J135000D01*
G01*
X157800000Y-63495000D01*
G75*
G02*
X157935000Y-63360000I135000J0D01*
G01*
X158305000Y-63360000D01*
G75*
G02*
X158440000Y-63495000I0J-135000D01*
G01*
X158440000Y-63765000D01*
G75*
G02*
X158305000Y-63900000I-135000J0D01*
G01*
G37*
%TD.AperFunction*%
%TO.P,R304,1*%
%TO.N,Net-(R304-Pad1)*%
%TA.AperFunction,SMDPad,CuDef*%
G36*
G01*
X158305000Y-64920000D02*
X157935000Y-64920000D01*
G75*
G02*
X157800000Y-64785000I0J135000D01*
G01*
X157800000Y-64515000D01*
G75*
G02*
X157935000Y-64380000I135000J0D01*
G01*
X158305000Y-64380000D01*
G75*
G02*
X158440000Y-64515000I0J-135000D01*
G01*
X158440000Y-64785000D01*
G75*
G02*
X158305000Y-64920000I-135000J0D01*
G01*
G37*
%TD.AperFunction*%
%TD*%
%TO.P,C307,2*%
%TO.N,VDDA*%
%TA.AperFunction,SMDPad,CuDef*%
G36*
G01*
X162280000Y-75430000D02*
X162280000Y-75770000D01*
G75*
G02*
X162140000Y-75910000I-140000J0D01*
G01*
X161860000Y-75910000D01*
G75*
G02*
X161720000Y-75770000I0J140000D01*
G01*
X161720000Y-75430000D01*
G75*
G02*
X161860000Y-75290000I140000J0D01*
G01*
X162140000Y-75290000D01*
G75*
G02*
X162280000Y-75430000I0J-140000D01*
G01*
G37*
%TD.AperFunction*%
%TO.P,C307,1*%
%TO.N,GND*%
%TA.AperFunction,SMDPad,CuDef*%
G36*
G01*
X163240000Y-75430000D02*
X163240000Y-75770000D01*
G75*
G02*
X163100000Y-75910000I-140000J0D01*
G01*
X162820000Y-75910000D01*
G75*
G02*
X162680000Y-75770000I0J140000D01*
G01*
X162680000Y-75430000D01*
G75*
G02*
X162820000Y-75290000I140000J0D01*
G01*
X163100000Y-75290000D01*
G75*
G02*
X163240000Y-75430000I0J-140000D01*
G01*
G37*
%TD.AperFunction*%
%TD*%
%TA.AperFunction,SMDPad,CuDef*%
D18*
%TO.P,JP301,2*%
%TO.N,/IOHeader/nRST*%
G36*
X149520000Y-73140000D02*
G01*
X149520000Y-71990000D01*
X150020000Y-72490000D01*
X150520000Y-71990000D01*
X150520000Y-73140000D01*
X149520000Y-73140000D01*
G37*
%TD.AperFunction*%
%TA.AperFunction,SMDPad,CuDef*%
%TO.P,JP301,1*%
%TO.N,/IOHeader/PHY_RESET_N*%
G36*
X150020000Y-72215000D02*
G01*
X149520000Y-71715000D01*
X149520000Y-70715000D01*
X150520000Y-70715000D01*
X150520000Y-71715000D01*
X150020000Y-72215000D01*
G37*
%TD.AperFunction*%
%TD*%
%TO.P,R317,2*%
%TO.N,/IOHeader/nINTSEL-LED2*%
%TA.AperFunction,SMDPad,CuDef*%
G36*
G01*
X154985000Y-79755000D02*
X154435000Y-79755000D01*
G75*
G02*
X154235000Y-79555000I0J200000D01*
G01*
X154235000Y-79155000D01*
G75*
G02*
X154435000Y-78955000I200000J0D01*
G01*
X154985000Y-78955000D01*
G75*
G02*
X155185000Y-79155000I0J-200000D01*
G01*
X155185000Y-79555000D01*
G75*
G02*
X154985000Y-79755000I-200000J0D01*
G01*
G37*
%TD.AperFunction*%
%TO.P,R317,1*%
%TO.N,/IOHeader/LED_R_AN*%
%TA.AperFunction,SMDPad,CuDef*%
G36*
G01*
X154985000Y-81405000D02*
X154435000Y-81405000D01*
G75*
G02*
X154235000Y-81205000I0J200000D01*
G01*
X154235000Y-80805000D01*
G75*
G02*
X154435000Y-80605000I200000J0D01*
G01*
X154985000Y-80605000D01*
G75*
G02*
X155185000Y-80805000I0J-200000D01*
G01*
X155185000Y-81205000D01*
G75*
G02*
X154985000Y-81405000I-200000J0D01*
G01*
G37*
%TD.AperFunction*%
%TD*%
%TO.P,R316,2*%
%TO.N,GND*%
%TA.AperFunction,SMDPad,CuDef*%
G36*
G01*
X156545000Y-79755000D02*
X155995000Y-79755000D01*
G75*
G02*
X155795000Y-79555000I0J200000D01*
G01*
X155795000Y-79155000D01*
G75*
G02*
X155995000Y-78955000I200000J0D01*
G01*
X156545000Y-78955000D01*
G75*
G02*
X156745000Y-79155000I0J-200000D01*
G01*
X156745000Y-79555000D01*
G75*
G02*
X156545000Y-79755000I-200000J0D01*
G01*
G37*
%TD.AperFunction*%
%TO.P,R316,1*%
%TO.N,/IOHeader/LED_Y_AN*%
%TA.AperFunction,SMDPad,CuDef*%
G36*
G01*
X156545000Y-81405000D02*
X155995000Y-81405000D01*
G75*
G02*
X155795000Y-81205000I0J200000D01*
G01*
X155795000Y-80805000D01*
G75*
G02*
X155995000Y-80605000I200000J0D01*
G01*
X156545000Y-80605000D01*
G75*
G02*
X156745000Y-80805000I0J-200000D01*
G01*
X156745000Y-81205000D01*
G75*
G02*
X156545000Y-81405000I-200000J0D01*
G01*
G37*
%TD.AperFunction*%
%TD*%
%TO.P,R315,2*%
%TO.N,VDDA*%
%TA.AperFunction,SMDPad,CuDef*%
G36*
G01*
X170325000Y-84415000D02*
X169775000Y-84415000D01*
G75*
G02*
X169575000Y-84215000I0J200000D01*
G01*
X169575000Y-83815000D01*
G75*
G02*
X169775000Y-83615000I200000J0D01*
G01*
X170325000Y-83615000D01*
G75*
G02*
X170525000Y-83815000I0J-200000D01*
G01*
X170525000Y-84215000D01*
G75*
G02*
X170325000Y-84415000I-200000J0D01*
G01*
G37*
%TD.AperFunction*%
%TO.P,R315,1*%
%TO.N,Net-(C308-Pad2)*%
%TA.AperFunction,SMDPad,CuDef*%
G36*
G01*
X170325000Y-86065000D02*
X169775000Y-86065000D01*
G75*
G02*
X169575000Y-85865000I0J200000D01*
G01*
X169575000Y-85465000D01*
G75*
G02*
X169775000Y-85265000I200000J0D01*
G01*
X170325000Y-85265000D01*
G75*
G02*
X170525000Y-85465000I0J-200000D01*
G01*
X170525000Y-85865000D01*
G75*
G02*
X170325000Y-86065000I-200000J0D01*
G01*
G37*
%TD.AperFunction*%
%TD*%
%TO.P,R314,2*%
%TO.N,/IOHeader/RX-*%
%TA.AperFunction,SMDPad,CuDef*%
G36*
G01*
X168000000Y-75525000D02*
X168000000Y-75155000D01*
G75*
G02*
X168135000Y-75020000I135000J0D01*
G01*
X168405000Y-75020000D01*
G75*
G02*
X168540000Y-75155000I0J-135000D01*
G01*
X168540000Y-75525000D01*
G75*
G02*
X168405000Y-75660000I-135000J0D01*
G01*
X168135000Y-75660000D01*
G75*
G02*
X168000000Y-75525000I0J135000D01*
G01*
G37*
%TD.AperFunction*%
%TO.P,R314,1*%
%TO.N,VDDA*%
%TA.AperFunction,SMDPad,CuDef*%
G36*
G01*
X166980000Y-75525000D02*
X166980000Y-75155000D01*
G75*
G02*
X167115000Y-75020000I135000J0D01*
G01*
X167385000Y-75020000D01*
G75*
G02*
X167520000Y-75155000I0J-135000D01*
G01*
X167520000Y-75525000D01*
G75*
G02*
X167385000Y-75660000I-135000J0D01*
G01*
X167115000Y-75660000D01*
G75*
G02*
X166980000Y-75525000I0J135000D01*
G01*
G37*
%TD.AperFunction*%
%TD*%
%TO.P,R313,2*%
%TO.N,GND*%
%TA.AperFunction,SMDPad,CuDef*%
G36*
G01*
X162050000Y-71495000D02*
X162050000Y-71125000D01*
G75*
G02*
X162185000Y-70990000I135000J0D01*
G01*
X162455000Y-70990000D01*
G75*
G02*
X162590000Y-71125000I0J-135000D01*
G01*
X162590000Y-71495000D01*
G75*
G02*
X162455000Y-71630000I-135000J0D01*
G01*
X162185000Y-71630000D01*
G75*
G02*
X162050000Y-71495000I0J135000D01*
G01*
G37*
%TD.AperFunction*%
%TO.P,R313,1*%
%TO.N,Net-(R313-Pad1)*%
%TA.AperFunction,SMDPad,CuDef*%
G36*
G01*
X161030000Y-71495000D02*
X161030000Y-71125000D01*
G75*
G02*
X161165000Y-70990000I135000J0D01*
G01*
X161435000Y-70990000D01*
G75*
G02*
X161570000Y-71125000I0J-135000D01*
G01*
X161570000Y-71495000D01*
G75*
G02*
X161435000Y-71630000I-135000J0D01*
G01*
X161165000Y-71630000D01*
G75*
G02*
X161030000Y-71495000I0J135000D01*
G01*
G37*
%TD.AperFunction*%
%TD*%
%TO.P,R312,2*%
%TO.N,/IOHeader/RX+*%
%TA.AperFunction,SMDPad,CuDef*%
G36*
G01*
X169440000Y-75155000D02*
X169440000Y-75525000D01*
G75*
G02*
X169305000Y-75660000I-135000J0D01*
G01*
X169035000Y-75660000D01*
G75*
G02*
X168900000Y-75525000I0J135000D01*
G01*
X168900000Y-75155000D01*
G75*
G02*
X169035000Y-75020000I135000J0D01*
G01*
X169305000Y-75020000D01*
G75*
G02*
X169440000Y-75155000I0J-135000D01*
G01*
G37*
%TD.AperFunction*%
%TO.P,R312,1*%
%TO.N,VDDA*%
%TA.AperFunction,SMDPad,CuDef*%
G36*
G01*
X170460000Y-75155000D02*
X170460000Y-75525000D01*
G75*
G02*
X170325000Y-75660000I-135000J0D01*
G01*
X170055000Y-75660000D01*
G75*
G02*
X169920000Y-75525000I0J135000D01*
G01*
X169920000Y-75155000D01*
G75*
G02*
X170055000Y-75020000I135000J0D01*
G01*
X170325000Y-75020000D01*
G75*
G02*
X170460000Y-75155000I0J-135000D01*
G01*
G37*
%TD.AperFunction*%
%TD*%
%TO.P,R311,2*%
%TO.N,/IOHeader/TX-*%
%TA.AperFunction,SMDPad,CuDef*%
G36*
G01*
X165580000Y-76505000D02*
X165580000Y-76135000D01*
G75*
G02*
X165715000Y-76000000I135000J0D01*
G01*
X165985000Y-76000000D01*
G75*
G02*
X166120000Y-76135000I0J-135000D01*
G01*
X166120000Y-76505000D01*
G75*
G02*
X165985000Y-76640000I-135000J0D01*
G01*
X165715000Y-76640000D01*
G75*
G02*
X165580000Y-76505000I0J135000D01*
G01*
G37*
%TD.AperFunction*%
%TO.P,R311,1*%
%TO.N,VDDA*%
%TA.AperFunction,SMDPad,CuDef*%
G36*
G01*
X164560000Y-76505000D02*
X164560000Y-76135000D01*
G75*
G02*
X164695000Y-76000000I135000J0D01*
G01*
X164965000Y-76000000D01*
G75*
G02*
X165100000Y-76135000I0J-135000D01*
G01*
X165100000Y-76505000D01*
G75*
G02*
X164965000Y-76640000I-135000J0D01*
G01*
X164695000Y-76640000D01*
G75*
G02*
X164560000Y-76505000I0J135000D01*
G01*
G37*
%TD.AperFunction*%
%TD*%
%TO.P,R310,2*%
%TO.N,/IOHeader/TX+*%
%TA.AperFunction,SMDPad,CuDef*%
G36*
G01*
X167060000Y-76145000D02*
X167060000Y-76515000D01*
G75*
G02*
X166925000Y-76650000I-135000J0D01*
G01*
X166655000Y-76650000D01*
G75*
G02*
X166520000Y-76515000I0J135000D01*
G01*
X166520000Y-76145000D01*
G75*
G02*
X166655000Y-76010000I135000J0D01*
G01*
X166925000Y-76010000D01*
G75*
G02*
X167060000Y-76145000I0J-135000D01*
G01*
G37*
%TD.AperFunction*%
%TO.P,R310,1*%
%TO.N,VDDA*%
%TA.AperFunction,SMDPad,CuDef*%
G36*
G01*
X168080000Y-76145000D02*
X168080000Y-76515000D01*
G75*
G02*
X167945000Y-76650000I-135000J0D01*
G01*
X167675000Y-76650000D01*
G75*
G02*
X167540000Y-76515000I0J135000D01*
G01*
X167540000Y-76145000D01*
G75*
G02*
X167675000Y-76010000I135000J0D01*
G01*
X167945000Y-76010000D01*
G75*
G02*
X168080000Y-76145000I0J-135000D01*
G01*
G37*
%TD.AperFunction*%
%TD*%
%TO.P,R309,2*%
%TO.N,+3V3*%
%TA.AperFunction,SMDPad,CuDef*%
G36*
G01*
X157110000Y-76205000D02*
X157110000Y-76575000D01*
G75*
G02*
X156975000Y-76710000I-135000J0D01*
G01*
X156705000Y-76710000D01*
G75*
G02*
X156570000Y-76575000I0J135000D01*
G01*
X156570000Y-76205000D01*
G75*
G02*
X156705000Y-76070000I135000J0D01*
G01*
X156975000Y-76070000D01*
G75*
G02*
X157110000Y-76205000I0J-135000D01*
G01*
G37*
%TD.AperFunction*%
%TO.P,R309,1*%
%TO.N,/IOHeader/nRST*%
%TA.AperFunction,SMDPad,CuDef*%
G36*
G01*
X158130000Y-76205000D02*
X158130000Y-76575000D01*
G75*
G02*
X157995000Y-76710000I-135000J0D01*
G01*
X157725000Y-76710000D01*
G75*
G02*
X157590000Y-76575000I0J135000D01*
G01*
X157590000Y-76205000D01*
G75*
G02*
X157725000Y-76070000I135000J0D01*
G01*
X157995000Y-76070000D01*
G75*
G02*
X158130000Y-76205000I0J-135000D01*
G01*
G37*
%TD.AperFunction*%
%TD*%
%TO.P,R303,2*%
%TO.N,GND*%
%TA.AperFunction,SMDPad,CuDef*%
G36*
G01*
X151785000Y-69215000D02*
X151785000Y-68665000D01*
G75*
G02*
X151985000Y-68465000I200000J0D01*
G01*
X152385000Y-68465000D01*
G75*
G02*
X152585000Y-68665000I0J-200000D01*
G01*
X152585000Y-69215000D01*
G75*
G02*
X152385000Y-69415000I-200000J0D01*
G01*
X151985000Y-69415000D01*
G75*
G02*
X151785000Y-69215000I0J200000D01*
G01*
G37*
%TD.AperFunction*%
%TO.P,R303,1*%
%TO.N,/IOHeader/PHY_RESET_N*%
%TA.AperFunction,SMDPad,CuDef*%
G36*
G01*
X150135000Y-69215000D02*
X150135000Y-68665000D01*
G75*
G02*
X150335000Y-68465000I200000J0D01*
G01*
X150735000Y-68465000D01*
G75*
G02*
X150935000Y-68665000I0J-200000D01*
G01*
X150935000Y-69215000D01*
G75*
G02*
X150735000Y-69415000I-200000J0D01*
G01*
X150335000Y-69415000D01*
G75*
G02*
X150135000Y-69215000I0J200000D01*
G01*
G37*
%TD.AperFunction*%
%TD*%
%TO.P,R302,2*%
%TO.N,Net-(R302-Pad2)*%
%TA.AperFunction,SMDPad,CuDef*%
G36*
G01*
X151525000Y-72195000D02*
X152075000Y-72195000D01*
G75*
G02*
X152275000Y-72395000I0J-200000D01*
G01*
X152275000Y-72795000D01*
G75*
G02*
X152075000Y-72995000I-200000J0D01*
G01*
X151525000Y-72995000D01*
G75*
G02*
X151325000Y-72795000I0J200000D01*
G01*
X151325000Y-72395000D01*
G75*
G02*
X151525000Y-72195000I200000J0D01*
G01*
G37*
%TD.AperFunction*%
%TO.P,R302,1*%
%TO.N,+3V3*%
%TA.AperFunction,SMDPad,CuDef*%
G36*
G01*
X151525000Y-70545000D02*
X152075000Y-70545000D01*
G75*
G02*
X152275000Y-70745000I0J-200000D01*
G01*
X152275000Y-71145000D01*
G75*
G02*
X152075000Y-71345000I-200000J0D01*
G01*
X151525000Y-71345000D01*
G75*
G02*
X151325000Y-71145000I0J200000D01*
G01*
X151325000Y-70745000D01*
G75*
G02*
X151525000Y-70545000I200000J0D01*
G01*
G37*
%TD.AperFunction*%
%TD*%
%TO.P,R301,2*%
%TO.N,/IOHeader/PHY_MDIO*%
%TA.AperFunction,SMDPad,CuDef*%
G36*
G01*
X153825000Y-74305000D02*
X153825000Y-73755000D01*
G75*
G02*
X154025000Y-73555000I200000J0D01*
G01*
X154425000Y-73555000D01*
G75*
G02*
X154625000Y-73755000I0J-200000D01*
G01*
X154625000Y-74305000D01*
G75*
G02*
X154425000Y-74505000I-200000J0D01*
G01*
X154025000Y-74505000D01*
G75*
G02*
X153825000Y-74305000I0J200000D01*
G01*
G37*
%TD.AperFunction*%
%TO.P,R301,1*%
%TO.N,+3V3*%
%TA.AperFunction,SMDPad,CuDef*%
G36*
G01*
X152175000Y-74305000D02*
X152175000Y-73755000D01*
G75*
G02*
X152375000Y-73555000I200000J0D01*
G01*
X152775000Y-73555000D01*
G75*
G02*
X152975000Y-73755000I0J-200000D01*
G01*
X152975000Y-74305000D01*
G75*
G02*
X152775000Y-74505000I-200000J0D01*
G01*
X152375000Y-74505000D01*
G75*
G02*
X152175000Y-74305000I0J200000D01*
G01*
G37*
%TD.AperFunction*%
%TD*%
D15*
%TO.P,J302,14*%
%TO.N,GND*%
X150540000Y-61340000D03*
%TO.P,J302,13*%
%TO.N,+3V3*%
X150540000Y-58800000D03*
%TO.P,J302,12*%
%TO.N,/IOHeader/PHY_CLK*%
X153080000Y-61340000D03*
%TO.P,J302,11*%
%TO.N,GND*%
X153080000Y-58800000D03*
%TO.P,J302,10*%
X155620000Y-61340000D03*
%TO.P,J302,9*%
%TO.N,/IOHeader/RMI_CRS_DV*%
X155620000Y-58800000D03*
%TO.P,J302,8*%
%TO.N,/IOHeader/RMII_RXD0*%
X158160000Y-61340000D03*
%TO.P,J302,7*%
%TO.N,/IOHeader/RMII_RXD1*%
X158160000Y-58800000D03*
%TO.P,J302,6*%
%TO.N,/IOHeader/PHY_RESET_N*%
X160700000Y-61340000D03*
%TO.P,J302,5*%
%TO.N,/IOHeader/PHY_MDIO*%
X160700000Y-58800000D03*
%TO.P,J302,4*%
%TO.N,/IOHeader/RMII_TXD0*%
X163240000Y-61340000D03*
%TO.P,J302,3*%
%TO.N,/IOHeader/RMII_EN*%
X163240000Y-58800000D03*
%TO.P,J302,2*%
%TO.N,/IOHeader/RMII_TXD1*%
X165780000Y-61340000D03*
D16*
%TO.P,J302,1*%
%TO.N,/IOHeader/PHY_MDC*%
X165780000Y-58800000D03*
%TD*%
%TO.P,FB301,2*%
%TO.N,+3V3*%
%TA.AperFunction,SMDPad,CuDef*%
G36*
G01*
X164021250Y-67865000D02*
X163258750Y-67865000D01*
G75*
G02*
X163040000Y-67646250I0J218750D01*
G01*
X163040000Y-67208750D01*
G75*
G02*
X163258750Y-66990000I218750J0D01*
G01*
X164021250Y-66990000D01*
G75*
G02*
X164240000Y-67208750I0J-218750D01*
G01*
X164240000Y-67646250D01*
G75*
G02*
X164021250Y-67865000I-218750J0D01*
G01*
G37*
%TD.AperFunction*%
%TO.P,FB301,1*%
%TO.N,VDDA*%
%TA.AperFunction,SMDPad,CuDef*%
G36*
G01*
X164021250Y-69990000D02*
X163258750Y-69990000D01*
G75*
G02*
X163040000Y-69771250I0J218750D01*
G01*
X163040000Y-69333750D01*
G75*
G02*
X163258750Y-69115000I218750J0D01*
G01*
X164021250Y-69115000D01*
G75*
G02*
X164240000Y-69333750I0J-218750D01*
G01*
X164240000Y-69771250D01*
G75*
G02*
X164021250Y-69990000I-218750J0D01*
G01*
G37*
%TD.AperFunction*%
%TD*%
%TO.P,C308,2*%
%TO.N,Net-(C308-Pad2)*%
%TA.AperFunction,SMDPad,CuDef*%
G36*
G01*
X170070000Y-86830000D02*
X170070000Y-87170000D01*
G75*
G02*
X169930000Y-87310000I-140000J0D01*
G01*
X169650000Y-87310000D01*
G75*
G02*
X169510000Y-87170000I0J140000D01*
G01*
X169510000Y-86830000D01*
G75*
G02*
X169650000Y-86690000I140000J0D01*
G01*
X169930000Y-86690000D01*
G75*
G02*
X170070000Y-86830000I0J-140000D01*
G01*
G37*
%TD.AperFunction*%
%TO.P,C308,1*%
%TO.N,GND*%
%TA.AperFunction,SMDPad,CuDef*%
G36*
G01*
X171030000Y-86830000D02*
X171030000Y-87170000D01*
G75*
G02*
X170890000Y-87310000I-140000J0D01*
G01*
X170610000Y-87310000D01*
G75*
G02*
X170470000Y-87170000I0J140000D01*
G01*
X170470000Y-86830000D01*
G75*
G02*
X170610000Y-86690000I140000J0D01*
G01*
X170890000Y-86690000D01*
G75*
G02*
X171030000Y-86830000I0J-140000D01*
G01*
G37*
%TD.AperFunction*%
%TD*%
%TO.P,C306,2*%
%TO.N,GND*%
%TA.AperFunction,SMDPad,CuDef*%
G36*
G01*
X157170000Y-77210000D02*
X157170000Y-77550000D01*
G75*
G02*
X157030000Y-77690000I-140000J0D01*
G01*
X156750000Y-77690000D01*
G75*
G02*
X156610000Y-77550000I0J140000D01*
G01*
X156610000Y-77210000D01*
G75*
G02*
X156750000Y-77070000I140000J0D01*
G01*
X157030000Y-77070000D01*
G75*
G02*
X157170000Y-77210000I0J-140000D01*
G01*
G37*
%TD.AperFunction*%
%TO.P,C306,1*%
%TO.N,/IOHeader/nRST*%
%TA.AperFunction,SMDPad,CuDef*%
G36*
G01*
X158130000Y-77210000D02*
X158130000Y-77550000D01*
G75*
G02*
X157990000Y-77690000I-140000J0D01*
G01*
X157710000Y-77690000D01*
G75*
G02*
X157570000Y-77550000I0J140000D01*
G01*
X157570000Y-77210000D01*
G75*
G02*
X157710000Y-77070000I140000J0D01*
G01*
X157990000Y-77070000D01*
G75*
G02*
X158130000Y-77210000I0J-140000D01*
G01*
G37*
%TD.AperFunction*%
%TD*%
%TO.P,C304,2*%
%TO.N,VDDA*%
%TA.AperFunction,SMDPad,CuDef*%
G36*
G01*
X162445000Y-74130000D02*
X162445000Y-74630000D01*
G75*
G02*
X162220000Y-74855000I-225000J0D01*
G01*
X161770000Y-74855000D01*
G75*
G02*
X161545000Y-74630000I0J225000D01*
G01*
X161545000Y-74130000D01*
G75*
G02*
X161770000Y-73905000I225000J0D01*
G01*
X162220000Y-73905000D01*
G75*
G02*
X162445000Y-74130000I0J-225000D01*
G01*
G37*
%TD.AperFunction*%
%TO.P,C304,1*%
%TO.N,GND*%
%TA.AperFunction,SMDPad,CuDef*%
G36*
G01*
X163995000Y-74130000D02*
X163995000Y-74630000D01*
G75*
G02*
X163770000Y-74855000I-225000J0D01*
G01*
X163320000Y-74855000D01*
G75*
G02*
X163095000Y-74630000I0J225000D01*
G01*
X163095000Y-74130000D01*
G75*
G02*
X163320000Y-73905000I225000J0D01*
G01*
X163770000Y-73905000D01*
G75*
G02*
X163995000Y-74130000I0J-225000D01*
G01*
G37*
%TD.AperFunction*%
%TD*%
%TO.P,C303,2*%
%TO.N,/IOHeader/VDDCR*%
%TA.AperFunction,SMDPad,CuDef*%
G36*
G01*
X154020000Y-70365000D02*
X154520000Y-70365000D01*
G75*
G02*
X154745000Y-70590000I0J-225000D01*
G01*
X154745000Y-71040000D01*
G75*
G02*
X154520000Y-71265000I-225000J0D01*
G01*
X154020000Y-71265000D01*
G75*
G02*
X153795000Y-71040000I0J225000D01*
G01*
X153795000Y-70590000D01*
G75*
G02*
X154020000Y-70365000I225000J0D01*
G01*
G37*
%TD.AperFunction*%
%TO.P,C303,1*%
%TO.N,GND*%
%TA.AperFunction,SMDPad,CuDef*%
G36*
G01*
X154020000Y-68815000D02*
X154520000Y-68815000D01*
G75*
G02*
X154745000Y-69040000I0J-225000D01*
G01*
X154745000Y-69490000D01*
G75*
G02*
X154520000Y-69715000I-225000J0D01*
G01*
X154020000Y-69715000D01*
G75*
G02*
X153795000Y-69490000I0J225000D01*
G01*
X153795000Y-69040000D01*
G75*
G02*
X154020000Y-68815000I225000J0D01*
G01*
G37*
%TD.AperFunction*%
%TD*%
%TO.P,C302,2*%
%TO.N,GND*%
%TA.AperFunction,SMDPad,CuDef*%
G36*
G01*
X155820000Y-69400000D02*
X155820000Y-69740000D01*
G75*
G02*
X155680000Y-69880000I-140000J0D01*
G01*
X155400000Y-69880000D01*
G75*
G02*
X155260000Y-69740000I0J140000D01*
G01*
X155260000Y-69400000D01*
G75*
G02*
X155400000Y-69260000I140000J0D01*
G01*
X155680000Y-69260000D01*
G75*
G02*
X155820000Y-69400000I0J-140000D01*
G01*
G37*
%TD.AperFunction*%
%TO.P,C302,1*%
%TO.N,/IOHeader/VDDCR*%
%TA.AperFunction,SMDPad,CuDef*%
G36*
G01*
X156780000Y-69400000D02*
X156780000Y-69740000D01*
G75*
G02*
X156640000Y-69880000I-140000J0D01*
G01*
X156360000Y-69880000D01*
G75*
G02*
X156220000Y-69740000I0J140000D01*
G01*
X156220000Y-69400000D01*
G75*
G02*
X156360000Y-69260000I140000J0D01*
G01*
X156640000Y-69260000D01*
G75*
G02*
X156780000Y-69400000I0J-140000D01*
G01*
G37*
%TD.AperFunction*%
%TD*%
%TO.P,C301,2*%
%TO.N,GND*%
%TA.AperFunction,SMDPad,CuDef*%
G36*
G01*
X155820000Y-68420000D02*
X155820000Y-68760000D01*
G75*
G02*
X155680000Y-68900000I-140000J0D01*
G01*
X155400000Y-68900000D01*
G75*
G02*
X155260000Y-68760000I0J140000D01*
G01*
X155260000Y-68420000D01*
G75*
G02*
X155400000Y-68280000I140000J0D01*
G01*
X155680000Y-68280000D01*
G75*
G02*
X155820000Y-68420000I0J-140000D01*
G01*
G37*
%TD.AperFunction*%
%TO.P,C301,1*%
%TO.N,/IOHeader/VDDCR*%
%TA.AperFunction,SMDPad,CuDef*%
G36*
G01*
X156780000Y-68420000D02*
X156780000Y-68760000D01*
G75*
G02*
X156640000Y-68900000I-140000J0D01*
G01*
X156360000Y-68900000D01*
G75*
G02*
X156220000Y-68760000I0J140000D01*
G01*
X156220000Y-68420000D01*
G75*
G02*
X156360000Y-68280000I140000J0D01*
G01*
X156640000Y-68280000D01*
G75*
G02*
X156780000Y-68420000I0J-140000D01*
G01*
G37*
%TD.AperFunction*%
%TD*%
D19*
%TO.P,U301,25*%
%TO.N,GND*%
X158175000Y-72675000D03*
%TO.P,U301,24*%
%TO.N,Net-(R313-Pad1)*%
%TA.AperFunction,SMDPad,CuDef*%
G36*
G01*
X159762500Y-71300000D02*
X160462500Y-71300000D01*
G75*
G02*
X160525000Y-71362500I0J-62500D01*
G01*
X160525000Y-71487500D01*
G75*
G02*
X160462500Y-71550000I-62500J0D01*
G01*
X159762500Y-71550000D01*
G75*
G02*
X159700000Y-71487500I0J62500D01*
G01*
X159700000Y-71362500D01*
G75*
G02*
X159762500Y-71300000I62500J0D01*
G01*
G37*
%TD.AperFunction*%
%TO.P,U301,23*%
%TO.N,/IOHeader/RX+*%
%TA.AperFunction,SMDPad,CuDef*%
G36*
G01*
X159762500Y-71800000D02*
X160462500Y-71800000D01*
G75*
G02*
X160525000Y-71862500I0J-62500D01*
G01*
X160525000Y-71987500D01*
G75*
G02*
X160462500Y-72050000I-62500J0D01*
G01*
X159762500Y-72050000D01*
G75*
G02*
X159700000Y-71987500I0J62500D01*
G01*
X159700000Y-71862500D01*
G75*
G02*
X159762500Y-71800000I62500J0D01*
G01*
G37*
%TD.AperFunction*%
%TO.P,U301,22*%
%TO.N,/IOHeader/RX-*%
%TA.AperFunction,SMDPad,CuDef*%
G36*
G01*
X159762500Y-72300000D02*
X160462500Y-72300000D01*
G75*
G02*
X160525000Y-72362500I0J-62500D01*
G01*
X160525000Y-72487500D01*
G75*
G02*
X160462500Y-72550000I-62500J0D01*
G01*
X159762500Y-72550000D01*
G75*
G02*
X159700000Y-72487500I0J62500D01*
G01*
X159700000Y-72362500D01*
G75*
G02*
X159762500Y-72300000I62500J0D01*
G01*
G37*
%TD.AperFunction*%
%TO.P,U301,21*%
%TO.N,/IOHeader/TX+*%
%TA.AperFunction,SMDPad,CuDef*%
G36*
G01*
X159762500Y-72800000D02*
X160462500Y-72800000D01*
G75*
G02*
X160525000Y-72862500I0J-62500D01*
G01*
X160525000Y-72987500D01*
G75*
G02*
X160462500Y-73050000I-62500J0D01*
G01*
X159762500Y-73050000D01*
G75*
G02*
X159700000Y-72987500I0J62500D01*
G01*
X159700000Y-72862500D01*
G75*
G02*
X159762500Y-72800000I62500J0D01*
G01*
G37*
%TD.AperFunction*%
%TO.P,U301,20*%
%TO.N,/IOHeader/TX-*%
%TA.AperFunction,SMDPad,CuDef*%
G36*
G01*
X159762500Y-73300000D02*
X160462500Y-73300000D01*
G75*
G02*
X160525000Y-73362500I0J-62500D01*
G01*
X160525000Y-73487500D01*
G75*
G02*
X160462500Y-73550000I-62500J0D01*
G01*
X159762500Y-73550000D01*
G75*
G02*
X159700000Y-73487500I0J62500D01*
G01*
X159700000Y-73362500D01*
G75*
G02*
X159762500Y-73300000I62500J0D01*
G01*
G37*
%TD.AperFunction*%
%TO.P,U301,19*%
%TO.N,VDDA*%
%TA.AperFunction,SMDPad,CuDef*%
G36*
G01*
X159762500Y-73800000D02*
X160462500Y-73800000D01*
G75*
G02*
X160525000Y-73862500I0J-62500D01*
G01*
X160525000Y-73987500D01*
G75*
G02*
X160462500Y-74050000I-62500J0D01*
G01*
X159762500Y-74050000D01*
G75*
G02*
X159700000Y-73987500I0J62500D01*
G01*
X159700000Y-73862500D01*
G75*
G02*
X159762500Y-73800000I62500J0D01*
G01*
G37*
%TD.AperFunction*%
%TO.P,U301,18*%
%TO.N,/IOHeader/RMII_TXD1*%
%TA.AperFunction,SMDPad,CuDef*%
G36*
G01*
X159362500Y-74200000D02*
X159487500Y-74200000D01*
G75*
G02*
X159550000Y-74262500I0J-62500D01*
G01*
X159550000Y-74962500D01*
G75*
G02*
X159487500Y-75025000I-62500J0D01*
G01*
X159362500Y-75025000D01*
G75*
G02*
X159300000Y-74962500I0J62500D01*
G01*
X159300000Y-74262500D01*
G75*
G02*
X159362500Y-74200000I62500J0D01*
G01*
G37*
%TD.AperFunction*%
%TO.P,U301,17*%
%TO.N,/IOHeader/RMII_TXD0*%
%TA.AperFunction,SMDPad,CuDef*%
G36*
G01*
X158862500Y-74200000D02*
X158987500Y-74200000D01*
G75*
G02*
X159050000Y-74262500I0J-62500D01*
G01*
X159050000Y-74962500D01*
G75*
G02*
X158987500Y-75025000I-62500J0D01*
G01*
X158862500Y-75025000D01*
G75*
G02*
X158800000Y-74962500I0J62500D01*
G01*
X158800000Y-74262500D01*
G75*
G02*
X158862500Y-74200000I62500J0D01*
G01*
G37*
%TD.AperFunction*%
%TO.P,U301,16*%
%TO.N,/IOHeader/RMII_EN*%
%TA.AperFunction,SMDPad,CuDef*%
G36*
G01*
X158362500Y-74200000D02*
X158487500Y-74200000D01*
G75*
G02*
X158550000Y-74262500I0J-62500D01*
G01*
X158550000Y-74962500D01*
G75*
G02*
X158487500Y-75025000I-62500J0D01*
G01*
X158362500Y-75025000D01*
G75*
G02*
X158300000Y-74962500I0J62500D01*
G01*
X158300000Y-74262500D01*
G75*
G02*
X158362500Y-74200000I62500J0D01*
G01*
G37*
%TD.AperFunction*%
%TO.P,U301,15*%
%TO.N,/IOHeader/nRST*%
%TA.AperFunction,SMDPad,CuDef*%
G36*
G01*
X157862500Y-74200000D02*
X157987500Y-74200000D01*
G75*
G02*
X158050000Y-74262500I0J-62500D01*
G01*
X158050000Y-74962500D01*
G75*
G02*
X157987500Y-75025000I-62500J0D01*
G01*
X157862500Y-75025000D01*
G75*
G02*
X157800000Y-74962500I0J62500D01*
G01*
X157800000Y-74262500D01*
G75*
G02*
X157862500Y-74200000I62500J0D01*
G01*
G37*
%TD.AperFunction*%
%TO.P,U301,14*%
%TO.N,N/C*%
%TA.AperFunction,SMDPad,CuDef*%
G36*
G01*
X157362500Y-74200000D02*
X157487500Y-74200000D01*
G75*
G02*
X157550000Y-74262500I0J-62500D01*
G01*
X157550000Y-74962500D01*
G75*
G02*
X157487500Y-75025000I-62500J0D01*
G01*
X157362500Y-75025000D01*
G75*
G02*
X157300000Y-74962500I0J62500D01*
G01*
X157300000Y-74262500D01*
G75*
G02*
X157362500Y-74200000I62500J0D01*
G01*
G37*
%TD.AperFunction*%
%TO.P,U301,13*%
%TO.N,/IOHeader/PHY_MDC*%
%TA.AperFunction,SMDPad,CuDef*%
G36*
G01*
X156862500Y-74200000D02*
X156987500Y-74200000D01*
G75*
G02*
X157050000Y-74262500I0J-62500D01*
G01*
X157050000Y-74962500D01*
G75*
G02*
X156987500Y-75025000I-62500J0D01*
G01*
X156862500Y-75025000D01*
G75*
G02*
X156800000Y-74962500I0J62500D01*
G01*
X156800000Y-74262500D01*
G75*
G02*
X156862500Y-74200000I62500J0D01*
G01*
G37*
%TD.AperFunction*%
%TO.P,U301,12*%
%TO.N,/IOHeader/PHY_MDIO*%
%TA.AperFunction,SMDPad,CuDef*%
G36*
G01*
X155887500Y-73800000D02*
X156587500Y-73800000D01*
G75*
G02*
X156650000Y-73862500I0J-62500D01*
G01*
X156650000Y-73987500D01*
G75*
G02*
X156587500Y-74050000I-62500J0D01*
G01*
X155887500Y-74050000D01*
G75*
G02*
X155825000Y-73987500I0J62500D01*
G01*
X155825000Y-73862500D01*
G75*
G02*
X155887500Y-73800000I62500J0D01*
G01*
G37*
%TD.AperFunction*%
%TO.P,U301,11*%
%TO.N,Net-(R306-Pad1)*%
%TA.AperFunction,SMDPad,CuDef*%
G36*
G01*
X155887500Y-73300000D02*
X156587500Y-73300000D01*
G75*
G02*
X156650000Y-73362500I0J-62500D01*
G01*
X156650000Y-73487500D01*
G75*
G02*
X156587500Y-73550000I-62500J0D01*
G01*
X155887500Y-73550000D01*
G75*
G02*
X155825000Y-73487500I0J62500D01*
G01*
X155825000Y-73362500D01*
G75*
G02*
X155887500Y-73300000I62500J0D01*
G01*
G37*
%TD.AperFunction*%
%TO.P,U301,10*%
%TO.N,Net-(R302-Pad2)*%
%TA.AperFunction,SMDPad,CuDef*%
G36*
G01*
X155887500Y-72800000D02*
X156587500Y-72800000D01*
G75*
G02*
X156650000Y-72862500I0J-62500D01*
G01*
X156650000Y-72987500D01*
G75*
G02*
X156587500Y-73050000I-62500J0D01*
G01*
X155887500Y-73050000D01*
G75*
G02*
X155825000Y-72987500I0J62500D01*
G01*
X155825000Y-72862500D01*
G75*
G02*
X155887500Y-72800000I62500J0D01*
G01*
G37*
%TD.AperFunction*%
%TO.P,U301,9*%
%TO.N,+3V3*%
%TA.AperFunction,SMDPad,CuDef*%
G36*
G01*
X155887500Y-72300000D02*
X156587500Y-72300000D01*
G75*
G02*
X156650000Y-72362500I0J-62500D01*
G01*
X156650000Y-72487500D01*
G75*
G02*
X156587500Y-72550000I-62500J0D01*
G01*
X155887500Y-72550000D01*
G75*
G02*
X155825000Y-72487500I0J62500D01*
G01*
X155825000Y-72362500D01*
G75*
G02*
X155887500Y-72300000I62500J0D01*
G01*
G37*
%TD.AperFunction*%
%TO.P,U301,8*%
%TO.N,Net-(R304-Pad1)*%
%TA.AperFunction,SMDPad,CuDef*%
G36*
G01*
X155887500Y-71800000D02*
X156587500Y-71800000D01*
G75*
G02*
X156650000Y-71862500I0J-62500D01*
G01*
X156650000Y-71987500D01*
G75*
G02*
X156587500Y-72050000I-62500J0D01*
G01*
X155887500Y-72050000D01*
G75*
G02*
X155825000Y-71987500I0J62500D01*
G01*
X155825000Y-71862500D01*
G75*
G02*
X155887500Y-71800000I62500J0D01*
G01*
G37*
%TD.AperFunction*%
%TO.P,U301,7*%
%TO.N,Net-(R305-Pad1)*%
%TA.AperFunction,SMDPad,CuDef*%
G36*
G01*
X155887500Y-71300000D02*
X156587500Y-71300000D01*
G75*
G02*
X156650000Y-71362500I0J-62500D01*
G01*
X156650000Y-71487500D01*
G75*
G02*
X156587500Y-71550000I-62500J0D01*
G01*
X155887500Y-71550000D01*
G75*
G02*
X155825000Y-71487500I0J62500D01*
G01*
X155825000Y-71362500D01*
G75*
G02*
X155887500Y-71300000I62500J0D01*
G01*
G37*
%TD.AperFunction*%
%TO.P,U301,6*%
%TO.N,/IOHeader/VDDCR*%
%TA.AperFunction,SMDPad,CuDef*%
G36*
G01*
X156862500Y-70325000D02*
X156987500Y-70325000D01*
G75*
G02*
X157050000Y-70387500I0J-62500D01*
G01*
X157050000Y-71087500D01*
G75*
G02*
X156987500Y-71150000I-62500J0D01*
G01*
X156862500Y-71150000D01*
G75*
G02*
X156800000Y-71087500I0J62500D01*
G01*
X156800000Y-70387500D01*
G75*
G02*
X156862500Y-70325000I62500J0D01*
G01*
G37*
%TD.AperFunction*%
%TO.P,U301,5*%
%TO.N,/IOHeader/CLKIN*%
%TA.AperFunction,SMDPad,CuDef*%
G36*
G01*
X157362500Y-70325000D02*
X157487500Y-70325000D01*
G75*
G02*
X157550000Y-70387500I0J-62500D01*
G01*
X157550000Y-71087500D01*
G75*
G02*
X157487500Y-71150000I-62500J0D01*
G01*
X157362500Y-71150000D01*
G75*
G02*
X157300000Y-71087500I0J62500D01*
G01*
X157300000Y-70387500D01*
G75*
G02*
X157362500Y-70325000I62500J0D01*
G01*
G37*
%TD.AperFunction*%
%TO.P,U301,4*%
%TO.N,N/C*%
%TA.AperFunction,SMDPad,CuDef*%
G36*
G01*
X157862500Y-70325000D02*
X157987500Y-70325000D01*
G75*
G02*
X158050000Y-70387500I0J-62500D01*
G01*
X158050000Y-71087500D01*
G75*
G02*
X157987500Y-71150000I-62500J0D01*
G01*
X157862500Y-71150000D01*
G75*
G02*
X157800000Y-71087500I0J62500D01*
G01*
X157800000Y-70387500D01*
G75*
G02*
X157862500Y-70325000I62500J0D01*
G01*
G37*
%TD.AperFunction*%
%TO.P,U301,3*%
%TO.N,/IOHeader/LED_Y_CA*%
%TA.AperFunction,SMDPad,CuDef*%
G36*
G01*
X158362500Y-70325000D02*
X158487500Y-70325000D01*
G75*
G02*
X158550000Y-70387500I0J-62500D01*
G01*
X158550000Y-71087500D01*
G75*
G02*
X158487500Y-71150000I-62500J0D01*
G01*
X158362500Y-71150000D01*
G75*
G02*
X158300000Y-71087500I0J62500D01*
G01*
X158300000Y-70387500D01*
G75*
G02*
X158362500Y-70325000I62500J0D01*
G01*
G37*
%TD.AperFunction*%
%TO.P,U301,2*%
%TO.N,/IOHeader/nINTSEL-LED2*%
%TA.AperFunction,SMDPad,CuDef*%
G36*
G01*
X158862500Y-70325000D02*
X158987500Y-70325000D01*
G75*
G02*
X159050000Y-70387500I0J-62500D01*
G01*
X159050000Y-71087500D01*
G75*
G02*
X158987500Y-71150000I-62500J0D01*
G01*
X158862500Y-71150000D01*
G75*
G02*
X158800000Y-71087500I0J62500D01*
G01*
X158800000Y-70387500D01*
G75*
G02*
X158862500Y-70325000I62500J0D01*
G01*
G37*
%TD.AperFunction*%
%TO.P,U301,1*%
%TO.N,VDDA*%
%TA.AperFunction,SMDPad,CuDef*%
G36*
G01*
X159362500Y-70325000D02*
X159487500Y-70325000D01*
G75*
G02*
X159550000Y-70387500I0J-62500D01*
G01*
X159550000Y-71087500D01*
G75*
G02*
X159487500Y-71150000I-62500J0D01*
G01*
X159362500Y-71150000D01*
G75*
G02*
X159300000Y-71087500I0J62500D01*
G01*
X159300000Y-70387500D01*
G75*
G02*
X159362500Y-70325000I62500J0D01*
G01*
G37*
%TD.AperFunction*%
%TD*%
%TO.P,C1004,2*%
%TO.N,+3V3*%
%TA.AperFunction,SMDPad,CuDef*%
G36*
G01*
X150460000Y-63870000D02*
X150460000Y-63530000D01*
G75*
G02*
X150600000Y-63390000I140000J0D01*
G01*
X150880000Y-63390000D01*
G75*
G02*
X151020000Y-63530000I0J-140000D01*
G01*
X151020000Y-63870000D01*
G75*
G02*
X150880000Y-64010000I-140000J0D01*
G01*
X150600000Y-64010000D01*
G75*
G02*
X150460000Y-63870000I0J140000D01*
G01*
G37*
%TD.AperFunction*%
%TO.P,C1004,1*%
%TO.N,GND*%
%TA.AperFunction,SMDPad,CuDef*%
G36*
G01*
X149500000Y-63870000D02*
X149500000Y-63530000D01*
G75*
G02*
X149640000Y-63390000I140000J0D01*
G01*
X149920000Y-63390000D01*
G75*
G02*
X150060000Y-63530000I0J-140000D01*
G01*
X150060000Y-63870000D01*
G75*
G02*
X149920000Y-64010000I-140000J0D01*
G01*
X149640000Y-64010000D01*
G75*
G02*
X149500000Y-63870000I0J140000D01*
G01*
G37*
%TD.AperFunction*%
%TD*%
%TO.P,C1003,2*%
%TO.N,+3V3*%
%TA.AperFunction,SMDPad,CuDef*%
G36*
G01*
X152630000Y-75120000D02*
X152630000Y-75460000D01*
G75*
G02*
X152490000Y-75600000I-140000J0D01*
G01*
X152210000Y-75600000D01*
G75*
G02*
X152070000Y-75460000I0J140000D01*
G01*
X152070000Y-75120000D01*
G75*
G02*
X152210000Y-74980000I140000J0D01*
G01*
X152490000Y-74980000D01*
G75*
G02*
X152630000Y-75120000I0J-140000D01*
G01*
G37*
%TD.AperFunction*%
%TO.P,C1003,1*%
%TO.N,GND*%
%TA.AperFunction,SMDPad,CuDef*%
G36*
G01*
X153590000Y-75120000D02*
X153590000Y-75460000D01*
G75*
G02*
X153450000Y-75600000I-140000J0D01*
G01*
X153170000Y-75600000D01*
G75*
G02*
X153030000Y-75460000I0J140000D01*
G01*
X153030000Y-75120000D01*
G75*
G02*
X153170000Y-74980000I140000J0D01*
G01*
X153450000Y-74980000D01*
G75*
G02*
X153590000Y-75120000I0J-140000D01*
G01*
G37*
%TD.AperFunction*%
%TD*%
%TO.P,C1002,2*%
%TO.N,+3V3*%
%TA.AperFunction,SMDPad,CuDef*%
G36*
G01*
X158980000Y-68000000D02*
X159320000Y-68000000D01*
G75*
G02*
X159460000Y-68140000I0J-140000D01*
G01*
X159460000Y-68420000D01*
G75*
G02*
X159320000Y-68560000I-140000J0D01*
G01*
X158980000Y-68560000D01*
G75*
G02*
X158840000Y-68420000I0J140000D01*
G01*
X158840000Y-68140000D01*
G75*
G02*
X158980000Y-68000000I140000J0D01*
G01*
G37*
%TD.AperFunction*%
%TO.P,C1002,1*%
%TO.N,GND*%
%TA.AperFunction,SMDPad,CuDef*%
G36*
G01*
X158980000Y-67040000D02*
X159320000Y-67040000D01*
G75*
G02*
X159460000Y-67180000I0J-140000D01*
G01*
X159460000Y-67460000D01*
G75*
G02*
X159320000Y-67600000I-140000J0D01*
G01*
X158980000Y-67600000D01*
G75*
G02*
X158840000Y-67460000I0J140000D01*
G01*
X158840000Y-67180000D01*
G75*
G02*
X158980000Y-67040000I140000J0D01*
G01*
G37*
%TD.AperFunction*%
%TD*%
%TO.P,C1001,2*%
%TO.N,+3V3*%
%TA.AperFunction,SMDPad,CuDef*%
G36*
G01*
X153980000Y-72540000D02*
X153980000Y-72200000D01*
G75*
G02*
X154120000Y-72060000I140000J0D01*
G01*
X154400000Y-72060000D01*
G75*
G02*
X154540000Y-72200000I0J-140000D01*
G01*
X154540000Y-72540000D01*
G75*
G02*
X154400000Y-72680000I-140000J0D01*
G01*
X154120000Y-72680000D01*
G75*
G02*
X153980000Y-72540000I0J140000D01*
G01*
G37*
%TD.AperFunction*%
%TO.P,C1001,1*%
%TO.N,GND*%
%TA.AperFunction,SMDPad,CuDef*%
G36*
G01*
X153020000Y-72540000D02*
X153020000Y-72200000D01*
G75*
G02*
X153160000Y-72060000I140000J0D01*
G01*
X153440000Y-72060000D01*
G75*
G02*
X153580000Y-72200000I0J-140000D01*
G01*
X153580000Y-72540000D01*
G75*
G02*
X153440000Y-72680000I-140000J0D01*
G01*
X153160000Y-72680000D01*
G75*
G02*
X153020000Y-72540000I0J140000D01*
G01*
G37*
%TD.AperFunction*%
%TD*%
D20*
%TO.N,GND*%
X158610000Y-72490000D03*
X159190000Y-73690000D03*
X159220000Y-71680000D03*
X157150000Y-73660000D03*
X157130000Y-71630000D03*
D21*
X154980000Y-69140000D03*
X164360000Y-74670000D03*
X163560000Y-75870000D03*
X171070000Y-86270000D03*
D20*
X158170000Y-73170000D03*
X156230000Y-77370000D03*
D22*
X154110000Y-67720000D03*
X152500000Y-67050000D03*
X153260000Y-67730000D03*
X153310000Y-66400000D03*
D20*
X157870000Y-72460000D03*
D21*
X154070000Y-75310000D03*
X152840000Y-68960000D03*
X153070000Y-71640000D03*
D22*
X160890000Y-63190000D03*
X150040000Y-78790000D03*
X150200000Y-87110000D03*
X150040000Y-92470000D03*
X149960000Y-98310000D03*
X150040000Y-103030000D03*
X149960000Y-107200000D03*
X151560000Y-108160000D03*
X159720000Y-111120000D03*
X161000000Y-108400000D03*
X170680000Y-103030000D03*
X170900000Y-97100000D03*
X170990000Y-93950000D03*
X160890000Y-79560000D03*
X160730000Y-83900000D03*
X164700000Y-80430000D03*
X169120000Y-69960000D03*
X169210000Y-65960000D03*
X168580000Y-59850000D03*
X155870000Y-63290000D03*
X155780000Y-64630000D03*
X155730000Y-65710000D03*
X153990000Y-76750000D03*
X153930000Y-77990000D03*
X153880000Y-80220000D03*
X165330000Y-78360000D03*
X165190000Y-82400000D03*
X165040000Y-85030000D03*
X165270000Y-87230000D03*
X166540000Y-90030000D03*
X167670000Y-90170000D03*
X167220000Y-77820000D03*
X167930000Y-78020000D03*
X168010000Y-81720000D03*
X167110000Y-80080000D03*
X167170000Y-83560000D03*
X167980000Y-85090000D03*
X167140000Y-86950000D03*
X167960000Y-87830000D03*
X164010000Y-91180000D03*
X164010000Y-93600000D03*
X163800000Y-95630000D03*
X164620000Y-96540000D03*
X163770000Y-100850000D03*
X157080000Y-97910000D03*
X156460000Y-94700000D03*
X158650000Y-92810000D03*
X160920000Y-96420000D03*
X158910000Y-88120000D03*
X165480000Y-75590000D03*
D20*
X159140000Y-66740000D03*
X162270000Y-69720000D03*
X162870000Y-71310000D03*
D22*
%TO.N,+3V3*%
X155400000Y-72425000D03*
D20*
X156210000Y-76400000D03*
D21*
X151790000Y-65160000D03*
X151660000Y-75260000D03*
X152360000Y-70350000D03*
X151820000Y-74010000D03*
D20*
X158799010Y-68800000D03*
D23*
X163730000Y-66480000D03*
D22*
%TO.N,/IOHeader/PHY_RESET_N*%
X149860000Y-66430000D03*
X158820000Y-64150000D03*
%TO.N,/IOHeader/PHY_MDIO*%
X155375000Y-74000000D03*
%TO.N,/IOHeader/RMII_TXD0*%
X159054874Y-75334351D03*
%TO.N,/IOHeader/RMII_EN*%
X158430000Y-75320000D03*
%TO.N,/IOHeader/RMII_TXD1*%
X160353324Y-74993324D03*
%TO.N,/IOHeader/PHY_MDC*%
X157160000Y-75410000D03*
D21*
%TO.N,VDDA*%
X161670000Y-76080000D03*
X165180000Y-76990000D03*
X167640000Y-76920000D03*
X167250000Y-74780000D03*
X170870000Y-75350000D03*
X170570000Y-82980000D03*
D20*
X161422000Y-69690000D03*
D23*
X163630000Y-70410000D03*
D22*
%TO.N,/IOHeader/nRST*%
X158370000Y-77460000D03*
X155210000Y-78220000D03*
%TO.N,/IOHeader/LED_R_AN*%
X154710000Y-86200000D03*
X154710000Y-81005000D03*
%TO.N,/IOHeader/LED_Y_CA*%
X158590000Y-69980000D03*
X155740000Y-74860000D03*
%TO.N,Net-(R304-Pad1)*%
X154920000Y-71880000D03*
X157730000Y-65230000D03*
%TO.N,Net-(R305-Pad1)*%
X155310000Y-71340000D03*
X156710000Y-65400000D03*
%TO.N,Net-(R306-Pad1)*%
X155480000Y-73390000D03*
X155070000Y-65200000D03*
%TO.N,/IOHeader/nINTSEL-LED2*%
X159270000Y-69930000D03*
X154710000Y-78630000D03*
%TD*%
D24*
%TO.N,GND*%
X155410000Y-69570000D02*
X154980000Y-69140000D01*
X155540000Y-69570000D02*
X155410000Y-69570000D01*
X155530000Y-68590000D02*
X154980000Y-69140000D01*
X155540000Y-68590000D02*
X155530000Y-68590000D01*
X154855000Y-69265000D02*
X154980000Y-69140000D01*
X154270000Y-69265000D02*
X154855000Y-69265000D01*
X163545000Y-74380000D02*
X164000000Y-74380000D01*
X164290000Y-74670000D02*
X164360000Y-74670000D01*
X164000000Y-74380000D02*
X164290000Y-74670000D01*
X163290000Y-75600000D02*
X163560000Y-75870000D01*
X162960000Y-75600000D02*
X163290000Y-75600000D01*
X170750000Y-86590000D02*
X171070000Y-86270000D01*
X170750000Y-87000000D02*
X170750000Y-86590000D01*
D25*
X156240000Y-77380000D02*
X156230000Y-77370000D01*
X156890000Y-77380000D02*
X156240000Y-77380000D01*
D26*
X153470000Y-67080000D02*
X154110000Y-67720000D01*
X153300000Y-67080000D02*
X153470000Y-67080000D01*
X152530000Y-67080000D02*
X152500000Y-67050000D01*
X153300000Y-67080000D02*
X152530000Y-67080000D01*
X153300000Y-67690000D02*
X153260000Y-67730000D01*
X153300000Y-67080000D02*
X153300000Y-67690000D01*
X153300000Y-66410000D02*
X153310000Y-66400000D01*
X153300000Y-67080000D02*
X153300000Y-66410000D01*
D27*
X149780000Y-62100000D02*
X149780000Y-63700000D01*
X150540000Y-61340000D02*
X149780000Y-62100000D01*
X154050000Y-75290000D02*
X154070000Y-75310000D01*
X153310000Y-75290000D02*
X154050000Y-75290000D01*
D28*
X152820000Y-68940000D02*
X152840000Y-68960000D01*
X152185000Y-68940000D02*
X152820000Y-68940000D01*
X153300000Y-71870000D02*
X153070000Y-71640000D01*
X153300000Y-72370000D02*
X153300000Y-71870000D01*
D24*
X159150000Y-66750000D02*
X159140000Y-66740000D01*
X159150000Y-67320000D02*
X159150000Y-66750000D01*
X162270000Y-70320000D02*
X162270000Y-69720000D01*
X162320000Y-71310000D02*
X162870000Y-71310000D01*
D25*
%TO.N,+3V3*%
X156220000Y-76390000D02*
X156210000Y-76400000D01*
X156840000Y-76390000D02*
X156220000Y-76390000D01*
D24*
X150900000Y-63730000D02*
X150930000Y-63700000D01*
D27*
X150740000Y-65020000D02*
X150900000Y-65180000D01*
X150740000Y-63700000D02*
X150740000Y-65020000D01*
D24*
X150920000Y-65160000D02*
X150900000Y-65180000D01*
X151790000Y-65160000D02*
X150920000Y-65160000D01*
D27*
X151690000Y-75290000D02*
X151660000Y-75260000D01*
X152350000Y-75290000D02*
X151690000Y-75290000D01*
D25*
X154295000Y-72425000D02*
X154260000Y-72390000D01*
X155400000Y-72425000D02*
X154295000Y-72425000D01*
D28*
X151800000Y-70910000D02*
X152360000Y-70350000D01*
X151800000Y-70945000D02*
X151800000Y-70910000D01*
X151840000Y-74030000D02*
X151820000Y-74010000D01*
X152575000Y-74030000D02*
X151840000Y-74030000D01*
D25*
X156237500Y-72425000D02*
X155400000Y-72425000D01*
X154315000Y-72425000D02*
X154260000Y-72370000D01*
X155400000Y-72425000D02*
X154315000Y-72425000D01*
D24*
X159150000Y-68449010D02*
X158799010Y-68800000D01*
X159150000Y-68280000D02*
X159150000Y-68449010D01*
D29*
X163640000Y-66570000D02*
X163730000Y-66480000D01*
X163640000Y-67427500D02*
X163640000Y-66570000D01*
D26*
%TO.N,/IOHeader/PHY_CLK*%
X152700000Y-61720000D02*
X153080000Y-61340000D01*
D24*
X153510000Y-61770000D02*
X153080000Y-61340000D01*
D25*
X152290000Y-62130000D02*
X153080000Y-61340000D01*
X152290000Y-63700000D02*
X152290000Y-62130000D01*
%TO.N,/IOHeader/RMI_CRS_DV*%
X154542999Y-59877001D02*
X155620000Y-58800000D01*
X154542999Y-63102999D02*
X154542999Y-59877001D01*
X155030000Y-63590000D02*
X154542999Y-63102999D01*
%TO.N,/IOHeader/RMII_RXD0*%
X158120000Y-61380000D02*
X158160000Y-61340000D01*
X158120000Y-63630000D02*
X158120000Y-61380000D01*
%TO.N,/IOHeader/RMII_RXD1*%
X156770000Y-60190000D02*
X158160000Y-58800000D01*
X156770000Y-63650000D02*
X156770000Y-60190000D01*
D26*
%TO.N,/IOHeader/PHY_RESET_N*%
X150900000Y-68575000D02*
X150535000Y-68940000D01*
X150900000Y-67080000D02*
X150900000Y-68575000D01*
X150535000Y-70700000D02*
X150020000Y-71215000D01*
X150535000Y-68940000D02*
X150535000Y-70700000D01*
D25*
X150900000Y-67080000D02*
X150360000Y-67080000D01*
X149860000Y-66580000D02*
X149860000Y-66430000D01*
X150360000Y-67080000D02*
X149860000Y-66580000D01*
X160700000Y-62270000D02*
X160700000Y-61340000D01*
X158820000Y-64150000D02*
X160700000Y-62270000D01*
%TO.N,/IOHeader/PHY_MDIO*%
X156237500Y-73925000D02*
X155450000Y-73925000D01*
X155450000Y-73925000D02*
X155375000Y-74000000D01*
D26*
X154330000Y-73925000D02*
X154225000Y-74030000D01*
X156237500Y-73925000D02*
X154330000Y-73925000D01*
D25*
%TO.N,/IOHeader/RMII_TXD0*%
X158925000Y-75204477D02*
X159054874Y-75334351D01*
X158925000Y-74612500D02*
X158925000Y-75204477D01*
%TO.N,/IOHeader/RMII_EN*%
X158425000Y-75315000D02*
X158430000Y-75320000D01*
X158425000Y-74612500D02*
X158425000Y-75315000D01*
%TO.N,/IOHeader/RMII_TXD1*%
X159972500Y-74612500D02*
X160353324Y-74993324D01*
X159425000Y-74612500D02*
X159972500Y-74612500D01*
%TO.N,/IOHeader/PHY_MDC*%
X156925000Y-75175000D02*
X157160000Y-75410000D01*
X156925000Y-74612500D02*
X156925000Y-75175000D01*
%TO.N,/IOHeader/TX-*%
X160112500Y-73425000D02*
X160185531Y-73498031D01*
D30*
X160112500Y-73425000D02*
X160130344Y-73407156D01*
X164478836Y-73407156D02*
X166092844Y-75021164D01*
X166092844Y-89078836D02*
X164867844Y-90303836D01*
X164867844Y-90303836D02*
X164867844Y-93966163D01*
D26*
X164867844Y-94907844D02*
X164867844Y-93966163D01*
X166835000Y-96875000D02*
X164867844Y-94907844D01*
D30*
X160130344Y-73407156D02*
X164478836Y-73407156D01*
D26*
X166045688Y-76320000D02*
X166092844Y-76367156D01*
X165850000Y-76320000D02*
X166045688Y-76320000D01*
D30*
X166092844Y-75021164D02*
X166092844Y-76367156D01*
D26*
X166092844Y-76562844D02*
X165850000Y-76320000D01*
X166092844Y-89078836D02*
X166092844Y-76562844D01*
D30*
%TO.N,/IOHeader/TX+*%
X160112500Y-72925000D02*
X160130344Y-72942844D01*
X164671164Y-72942844D02*
X166557156Y-74828836D01*
X166557156Y-89271164D02*
X165332156Y-90496164D01*
X165332156Y-90496164D02*
X165332156Y-93773837D01*
D26*
X165332156Y-94537118D02*
X166400038Y-95605000D01*
X166400038Y-95605000D02*
X169375000Y-95605000D01*
X165332156Y-93773837D02*
X165332156Y-94537118D01*
D30*
X160130344Y-72942844D02*
X164671164Y-72942844D01*
D26*
X166720000Y-76330000D02*
X166557156Y-76492844D01*
X166790000Y-76330000D02*
X166720000Y-76330000D01*
D30*
X166557156Y-74828836D02*
X166557156Y-76492844D01*
D26*
X166557156Y-88687156D02*
X166557156Y-76492844D01*
X166557156Y-89271164D02*
X166557156Y-88687156D01*
D30*
%TO.N,/IOHeader/RX-*%
X160112500Y-72425000D02*
X160130344Y-72407156D01*
X168217443Y-90412557D02*
X166835000Y-91795000D01*
X168507844Y-89128553D02*
X168217443Y-89418954D01*
X165853836Y-72407156D02*
X168507844Y-75061164D01*
X168217443Y-89418954D02*
X168217443Y-90412557D01*
X160130344Y-72407156D02*
X165853836Y-72407156D01*
D26*
X168500000Y-75340000D02*
X168507844Y-75347844D01*
X168270000Y-75340000D02*
X168500000Y-75340000D01*
D30*
X168507844Y-75061164D02*
X168507844Y-75347844D01*
D26*
X168507844Y-75642156D02*
X168507844Y-75347844D01*
X168507844Y-89128553D02*
X168507844Y-75642156D01*
D30*
%TO.N,/IOHeader/RX+*%
X160112500Y-71925000D02*
X160130344Y-71942844D01*
X166046164Y-71942844D02*
X168972156Y-74868836D01*
X160130344Y-71942844D02*
X166046164Y-71942844D01*
D26*
X169034312Y-75340000D02*
X168972156Y-75402156D01*
X169170000Y-75340000D02*
X169034312Y-75340000D01*
D30*
X168972156Y-74868836D02*
X168972156Y-75402156D01*
D26*
X168972156Y-90122156D02*
X169375000Y-90525000D01*
X168972156Y-74868836D02*
X168972156Y-90122156D01*
D24*
%TO.N,/IOHeader/VDDCR*%
X154347500Y-70737500D02*
X154270000Y-70815000D01*
X156925000Y-70737500D02*
X154347500Y-70737500D01*
X156500000Y-70312500D02*
X156925000Y-70737500D01*
X156500000Y-69570000D02*
X156500000Y-70312500D01*
X156500000Y-69570000D02*
X156500000Y-68590000D01*
D26*
%TO.N,VDDA*%
X161540000Y-73925000D02*
X161995000Y-74380000D01*
X160112500Y-73925000D02*
X161540000Y-73925000D01*
D24*
X161995000Y-75595000D02*
X162000000Y-75600000D01*
X161995000Y-74380000D02*
X161995000Y-75595000D01*
X167250000Y-75770000D02*
X167810000Y-76330000D01*
X167250000Y-75340000D02*
X167250000Y-75770000D01*
X162000000Y-75750000D02*
X161670000Y-76080000D01*
X162000000Y-75600000D02*
X162000000Y-75750000D01*
X164830000Y-76640000D02*
X165180000Y-76990000D01*
X164830000Y-76320000D02*
X164830000Y-76640000D01*
X167810000Y-76750000D02*
X167640000Y-76920000D01*
X167810000Y-76330000D02*
X167810000Y-76750000D01*
X167250000Y-75340000D02*
X167250000Y-74780000D01*
X170860000Y-75340000D02*
X170870000Y-75350000D01*
X170190000Y-75340000D02*
X170860000Y-75340000D01*
X170050000Y-83500000D02*
X170570000Y-82980000D01*
X170050000Y-84015000D02*
X170050000Y-83500000D01*
X160892500Y-70737500D02*
X161310000Y-70320000D01*
X159425000Y-70737500D02*
X160892500Y-70737500D01*
X161310000Y-69802000D02*
X161422000Y-69690000D01*
X161310000Y-70320000D02*
X161310000Y-69802000D01*
D29*
X163640000Y-70400000D02*
X163630000Y-70410000D01*
X163640000Y-69552500D02*
X163640000Y-70400000D01*
D26*
%TO.N,/IOHeader/nRST*%
X157922999Y-76252999D02*
X157940000Y-76270000D01*
X157925000Y-75044038D02*
X157922999Y-75046039D01*
X157925000Y-74612500D02*
X157925000Y-75044038D01*
D25*
X157925000Y-76325000D02*
X157860000Y-76390000D01*
X157925000Y-74612500D02*
X157925000Y-76325000D01*
X157860000Y-77370000D02*
X157850000Y-77380000D01*
X157860000Y-76390000D02*
X157860000Y-77370000D01*
X158290000Y-77380000D02*
X158370000Y-77460000D01*
X157850000Y-77380000D02*
X158290000Y-77380000D01*
X150020000Y-73140000D02*
X150020000Y-72640000D01*
X154250000Y-77260000D02*
X155210000Y-78220000D01*
X151670000Y-77260000D02*
X154250000Y-77260000D01*
X150020000Y-75610000D02*
X151670000Y-77260000D01*
X150020000Y-72640000D02*
X150020000Y-75610000D01*
D24*
%TO.N,Net-(C308-Pad2)*%
X169790000Y-85925000D02*
X170050000Y-85665000D01*
X169790000Y-87000000D02*
X169790000Y-85925000D01*
X168105000Y-93065000D02*
X166835000Y-94335000D01*
X169375000Y-93065000D02*
X168105000Y-93065000D01*
X169375000Y-93065000D02*
X170940000Y-91500000D01*
X169790000Y-87310000D02*
X169790000Y-87000000D01*
X170940000Y-88460000D02*
X169790000Y-87310000D01*
X170940000Y-91500000D02*
X170940000Y-88460000D01*
%TO.N,/IOHeader/LED_R_AN*%
X154710000Y-98610000D02*
X156425000Y-100325000D01*
X154710000Y-81005000D02*
X154710000Y-81005000D01*
X154710000Y-86200000D02*
X154710000Y-98610000D01*
X154710000Y-81005000D02*
X154710000Y-86200000D01*
%TO.N,/IOHeader/LED_Y_CA*%
X157752001Y-90817999D02*
X157752001Y-79324002D01*
X155929039Y-77997001D02*
X155370000Y-77437962D01*
X157752001Y-79324002D02*
X156425000Y-77997001D01*
X156425000Y-77997001D02*
X155929039Y-77997001D01*
X156425000Y-92145000D02*
X157752001Y-90817999D01*
D25*
X158425000Y-70145000D02*
X158590000Y-69980000D01*
X158425000Y-70737500D02*
X158425000Y-70145000D01*
D24*
X155370000Y-75230000D02*
X155740000Y-74860000D01*
X155370000Y-77437962D02*
X155370000Y-75230000D01*
D25*
%TO.N,Net-(R302-Pad2)*%
X152130000Y-72925000D02*
X151800000Y-72595000D01*
X156237500Y-72925000D02*
X152130000Y-72925000D01*
%TO.N,Net-(R304-Pad1)*%
X154965000Y-71925000D02*
X154920000Y-71880000D01*
X156237500Y-71925000D02*
X154965000Y-71925000D01*
X157730000Y-65040000D02*
X158120000Y-64650000D01*
X157730000Y-65230000D02*
X157730000Y-65040000D01*
%TO.N,Net-(R305-Pad1)*%
X155395000Y-71425000D02*
X155310000Y-71340000D01*
X156237500Y-71425000D02*
X155395000Y-71425000D01*
X156710000Y-64730000D02*
X156770000Y-64670000D01*
X156710000Y-65400000D02*
X156710000Y-64730000D01*
%TO.N,Net-(R306-Pad1)*%
X155555000Y-73425000D02*
X155480000Y-73350000D01*
X156237500Y-73425000D02*
X155555000Y-73425000D01*
X155070000Y-64650000D02*
X155030000Y-64610000D01*
X155070000Y-65200000D02*
X155070000Y-64650000D01*
%TO.N,Net-(R307-Pad2)*%
X153310000Y-65170000D02*
X153300000Y-65180000D01*
X153310000Y-63700000D02*
X153310000Y-65170000D01*
X154070000Y-65180000D02*
X157470000Y-68580000D01*
X153300000Y-65180000D02*
X154070000Y-65180000D01*
%TO.N,/IOHeader/CLKIN*%
X157425000Y-69645000D02*
X157470000Y-69600000D01*
X157425000Y-70737500D02*
X157425000Y-69645000D01*
%TO.N,Net-(R313-Pad1)*%
X161055000Y-71425000D02*
X161280000Y-71200000D01*
X160112500Y-71425000D02*
X161055000Y-71425000D01*
%TO.N,/IOHeader/nINTSEL-LED2*%
X159270000Y-69980000D02*
X159270000Y-69930000D01*
X158925000Y-70325000D02*
X159270000Y-69980000D01*
X158925000Y-70737500D02*
X158925000Y-70325000D01*
X154710000Y-78630000D02*
X154710000Y-79355000D01*
D24*
%TO.N,/IOHeader/LED_Y_AN*%
X156270000Y-89450000D02*
X156425000Y-89605000D01*
X156270000Y-81005000D02*
X156270000Y-89450000D01*
D29*
%TO.N,Net-(J301-Pad10)*%
X167350000Y-102470000D02*
X166835000Y-101955000D01*
X167350000Y-106640000D02*
X167350000Y-102470000D01*
%TO.N,Net-(J301-Pad9)*%
X169375000Y-106125000D02*
X169375000Y-100685000D01*
X169890000Y-106640000D02*
X169375000Y-106125000D01*
%TD*%
D25*
%TO.N,GND*%
X169122145Y-57910734D02*
X169124950Y-57933909D01*
X169127149Y-57957173D01*
X169127892Y-57961562D01*
X169326687Y-59100605D01*
X169333042Y-59126480D01*
X169339146Y-59152502D01*
X169340477Y-59156749D01*
X169692018Y-60258273D01*
X169701839Y-60283079D01*
X169711405Y-60307999D01*
X169713300Y-60312026D01*
X170211083Y-61355649D01*
X170224165Y-61378866D01*
X170237039Y-61402284D01*
X170239464Y-61406017D01*
X170874277Y-62372427D01*
X170890384Y-62393647D01*
X170906322Y-62415108D01*
X170909231Y-62418478D01*
X171564629Y-63169775D01*
X171567325Y-74953659D01*
X171491401Y-74840030D01*
X171379970Y-74728599D01*
X171248942Y-74641049D01*
X171103351Y-74580743D01*
X170948793Y-74550000D01*
X170791207Y-74550000D01*
X170636649Y-74580743D01*
X170491058Y-74641049D01*
X170484954Y-74645128D01*
X170429751Y-74628382D01*
X170325000Y-74618065D01*
X170055000Y-74618065D01*
X169950249Y-74628382D01*
X169849524Y-74658937D01*
X169756695Y-74708555D01*
X169680000Y-74771497D01*
X169603305Y-74708555D01*
X169510476Y-74658937D01*
X169452085Y-74641224D01*
X169451992Y-74641049D01*
X169415432Y-74572649D01*
X169370076Y-74517383D01*
X169365745Y-74512105D01*
X169365744Y-74512104D01*
X169349131Y-74491861D01*
X169328888Y-74475248D01*
X166439757Y-71586118D01*
X166423139Y-71565869D01*
X166342351Y-71499568D01*
X166250181Y-71450303D01*
X166150171Y-71419965D01*
X166072227Y-71412288D01*
X166046164Y-71409721D01*
X166020101Y-71412288D01*
X161971935Y-71412288D01*
X161971935Y-71125000D01*
X161961618Y-71020249D01*
X161931063Y-70919524D01*
X161881445Y-70826695D01*
X161876411Y-70820561D01*
X161900602Y-70791083D01*
X161950683Y-70697390D01*
X161981522Y-70595726D01*
X161991935Y-70490000D01*
X161991935Y-70150000D01*
X161987386Y-70103808D01*
X162042332Y-70021574D01*
X162095099Y-69894182D01*
X162122000Y-69758944D01*
X162122000Y-69621056D01*
X162095099Y-69485818D01*
X162042332Y-69358426D01*
X162025845Y-69333750D01*
X162638065Y-69333750D01*
X162638065Y-69771250D01*
X162649991Y-69892340D01*
X162685312Y-70008776D01*
X162740000Y-70111091D01*
X162740000Y-70264263D01*
X162738669Y-70277774D01*
X162730000Y-70321358D01*
X162730000Y-70365794D01*
X162725646Y-70410000D01*
X162730000Y-70454206D01*
X162730000Y-70498642D01*
X162738669Y-70542226D01*
X162743023Y-70586430D01*
X162755916Y-70628931D01*
X162764586Y-70672520D01*
X162781596Y-70713586D01*
X162794487Y-70756081D01*
X162815420Y-70795245D01*
X162832430Y-70836310D01*
X162857123Y-70873265D01*
X162878057Y-70912431D01*
X162906230Y-70946759D01*
X162930924Y-70983717D01*
X162962356Y-71015149D01*
X162990526Y-71049474D01*
X163024851Y-71077644D01*
X163056283Y-71109076D01*
X163093241Y-71133770D01*
X163127569Y-71161943D01*
X163166735Y-71182877D01*
X163203690Y-71207570D01*
X163244755Y-71224580D01*
X163283919Y-71245513D01*
X163326414Y-71258404D01*
X163367480Y-71275414D01*
X163411069Y-71284084D01*
X163453570Y-71296977D01*
X163497774Y-71301331D01*
X163541358Y-71310000D01*
X163585794Y-71310000D01*
X163630000Y-71314354D01*
X163674206Y-71310000D01*
X163718642Y-71310000D01*
X163762226Y-71301331D01*
X163806430Y-71296977D01*
X163848931Y-71284084D01*
X163892520Y-71275414D01*
X163933586Y-71258404D01*
X163976081Y-71245513D01*
X164015245Y-71224580D01*
X164056310Y-71207570D01*
X164093265Y-71182877D01*
X164132431Y-71161943D01*
X164166762Y-71133768D01*
X164203717Y-71109076D01*
X164245140Y-71067653D01*
X164279475Y-71039475D01*
X164307653Y-71005140D01*
X164329076Y-70983717D01*
X164345908Y-70958525D01*
X164391943Y-70902432D01*
X164426149Y-70838436D01*
X164427570Y-70836310D01*
X164428549Y-70833947D01*
X164475514Y-70746081D01*
X164526977Y-70576431D01*
X164540000Y-70444207D01*
X164540000Y-70444205D01*
X164544354Y-70400001D01*
X164540000Y-70355797D01*
X164540000Y-70111091D01*
X164594688Y-70008776D01*
X164630009Y-69892340D01*
X164641935Y-69771250D01*
X164641935Y-69333750D01*
X164630009Y-69212660D01*
X164594688Y-69096224D01*
X164537331Y-68988916D01*
X164460141Y-68894859D01*
X164366084Y-68817669D01*
X164258776Y-68760312D01*
X164142340Y-68724991D01*
X164021250Y-68713065D01*
X163973154Y-68713065D01*
X163816430Y-68665523D01*
X163640000Y-68648146D01*
X163463569Y-68665523D01*
X163306845Y-68713065D01*
X163258750Y-68713065D01*
X163137660Y-68724991D01*
X163021224Y-68760312D01*
X162913916Y-68817669D01*
X162819859Y-68894859D01*
X162742669Y-68988916D01*
X162685312Y-69096224D01*
X162649991Y-69212660D01*
X162638065Y-69333750D01*
X162025845Y-69333750D01*
X161965726Y-69243776D01*
X161868224Y-69146274D01*
X161753574Y-69069668D01*
X161626182Y-69016901D01*
X161490944Y-68990000D01*
X161353056Y-68990000D01*
X161217818Y-69016901D01*
X161090426Y-69069668D01*
X160975776Y-69146274D01*
X160878274Y-69243776D01*
X160801668Y-69358426D01*
X160748901Y-69485818D01*
X160722000Y-69621056D01*
X160722000Y-69673441D01*
X160718682Y-69684379D01*
X160712446Y-69747694D01*
X160707097Y-69802000D01*
X160710000Y-69831474D01*
X160710000Y-69866499D01*
X160669317Y-69942610D01*
X160638478Y-70044274D01*
X160629296Y-70137500D01*
X159877954Y-70137500D01*
X159873664Y-70129474D01*
X159867155Y-70121543D01*
X159870981Y-70112306D01*
X159895000Y-69991557D01*
X159895000Y-69868443D01*
X159870981Y-69747694D01*
X159823868Y-69633952D01*
X159755469Y-69531586D01*
X159668414Y-69444531D01*
X159566048Y-69376132D01*
X159452306Y-69329019D01*
X159331557Y-69305000D01*
X159283960Y-69305000D01*
X159342736Y-69246224D01*
X159419342Y-69131574D01*
X159472109Y-69004182D01*
X159479249Y-68968288D01*
X159526621Y-68920916D01*
X159527390Y-68920683D01*
X159621083Y-68870602D01*
X159703206Y-68803206D01*
X159770602Y-68721083D01*
X159820683Y-68627390D01*
X159851522Y-68525726D01*
X159861935Y-68420000D01*
X159861935Y-68140000D01*
X159851522Y-68034274D01*
X159820683Y-67932610D01*
X159770602Y-67838917D01*
X159703206Y-67756794D01*
X159621083Y-67689398D01*
X159527390Y-67639317D01*
X159425726Y-67608478D01*
X159320000Y-67598065D01*
X158980000Y-67598065D01*
X158874274Y-67608478D01*
X158772610Y-67639317D01*
X158678917Y-67689398D01*
X158596794Y-67756794D01*
X158529398Y-67838917D01*
X158479317Y-67932610D01*
X158448478Y-68034274D01*
X158438065Y-68140000D01*
X158438065Y-68199293D01*
X158352786Y-68256274D01*
X158255284Y-68353776D01*
X158191935Y-68448585D01*
X158191935Y-68445000D01*
X158181618Y-68340249D01*
X158151063Y-68239524D01*
X158101445Y-68146695D01*
X158034670Y-68065330D01*
X157953305Y-67998555D01*
X157860476Y-67948937D01*
X157759751Y-67918382D01*
X157655000Y-67908065D01*
X157505171Y-67908065D01*
X156805856Y-67208750D01*
X162638065Y-67208750D01*
X162638065Y-67646250D01*
X162649991Y-67767340D01*
X162685312Y-67883776D01*
X162742669Y-67991084D01*
X162819859Y-68085141D01*
X162913916Y-68162331D01*
X163021224Y-68219688D01*
X163137660Y-68255009D01*
X163258750Y-68266935D01*
X163306845Y-68266935D01*
X163463569Y-68314477D01*
X163640000Y-68331854D01*
X163816430Y-68314477D01*
X163973154Y-68266935D01*
X164021250Y-68266935D01*
X164142340Y-68255009D01*
X164258776Y-68219688D01*
X164366084Y-68162331D01*
X164460141Y-68085141D01*
X164537331Y-67991084D01*
X164594688Y-67883776D01*
X164630009Y-67767340D01*
X164641935Y-67646250D01*
X164641935Y-67208750D01*
X164630009Y-67087660D01*
X164594688Y-66971224D01*
X164541725Y-66872137D01*
X164544580Y-66865244D01*
X164565513Y-66826081D01*
X164578403Y-66783587D01*
X164595414Y-66742520D01*
X164604085Y-66698926D01*
X164616976Y-66656431D01*
X164621329Y-66612232D01*
X164630000Y-66568642D01*
X164630000Y-66524205D01*
X164634354Y-66480001D01*
X164630000Y-66435797D01*
X164630000Y-66391358D01*
X164621329Y-66347767D01*
X164616976Y-66303570D01*
X164604086Y-66261077D01*
X164595414Y-66217480D01*
X164578403Y-66176412D01*
X164565513Y-66133919D01*
X164544581Y-66094758D01*
X164527570Y-66053690D01*
X164502874Y-66016729D01*
X164481942Y-65977569D01*
X164453773Y-65943245D01*
X164429076Y-65906283D01*
X164397642Y-65874849D01*
X164369474Y-65840526D01*
X164335151Y-65812358D01*
X164303717Y-65780924D01*
X164266755Y-65756227D01*
X164232431Y-65728058D01*
X164193271Y-65707126D01*
X164156310Y-65682430D01*
X164115242Y-65665419D01*
X164076081Y-65644487D01*
X164033588Y-65631597D01*
X163992520Y-65614586D01*
X163948923Y-65605914D01*
X163906430Y-65593024D01*
X163862233Y-65588671D01*
X163818642Y-65580000D01*
X163774203Y-65580000D01*
X163729999Y-65575646D01*
X163685795Y-65580000D01*
X163641358Y-65580000D01*
X163597768Y-65588671D01*
X163553569Y-65593024D01*
X163511074Y-65605915D01*
X163467480Y-65614586D01*
X163426413Y-65631597D01*
X163383919Y-65644487D01*
X163344756Y-65665420D01*
X163303690Y-65682430D01*
X163266732Y-65707124D01*
X163227568Y-65728058D01*
X163193239Y-65756231D01*
X163156283Y-65780924D01*
X163034855Y-65902352D01*
X163000526Y-65930525D01*
X162972348Y-65964860D01*
X162972345Y-65964863D01*
X162888057Y-66067569D01*
X162804487Y-66223919D01*
X162753023Y-66393570D01*
X162735646Y-66570000D01*
X162740000Y-66614206D01*
X162740000Y-66868909D01*
X162685312Y-66971224D01*
X162649991Y-67087660D01*
X162638065Y-67208750D01*
X156805856Y-67208750D01*
X155355389Y-65758283D01*
X155366048Y-65753868D01*
X155468414Y-65685469D01*
X155555469Y-65598414D01*
X155623868Y-65496048D01*
X155670981Y-65382306D01*
X155695000Y-65261557D01*
X155695000Y-65138443D01*
X155672107Y-65023357D01*
X155711063Y-64950476D01*
X155741618Y-64849751D01*
X155751935Y-64745000D01*
X155751935Y-64475000D01*
X155741618Y-64370249D01*
X155711063Y-64269524D01*
X155661445Y-64176695D01*
X155598503Y-64100000D01*
X155661445Y-64023305D01*
X155711063Y-63930476D01*
X155741618Y-63829751D01*
X155751935Y-63725000D01*
X155751935Y-63515000D01*
X156048065Y-63515000D01*
X156048065Y-63785000D01*
X156058382Y-63889751D01*
X156088937Y-63990476D01*
X156138555Y-64083305D01*
X156201497Y-64160000D01*
X156138555Y-64236695D01*
X156088937Y-64329524D01*
X156058382Y-64430249D01*
X156048065Y-64535000D01*
X156048065Y-64805000D01*
X156058382Y-64909751D01*
X156088937Y-65010476D01*
X156138555Y-65103305D01*
X156150414Y-65117756D01*
X156109019Y-65217694D01*
X156085000Y-65338443D01*
X156085000Y-65461557D01*
X156109019Y-65582306D01*
X156156132Y-65696048D01*
X156224531Y-65798414D01*
X156311586Y-65885469D01*
X156413952Y-65953868D01*
X156527694Y-66000981D01*
X156648443Y-66025000D01*
X156771557Y-66025000D01*
X156892306Y-66000981D01*
X157006048Y-65953868D01*
X157108414Y-65885469D01*
X157195469Y-65798414D01*
X157263868Y-65696048D01*
X157278014Y-65661897D01*
X157331586Y-65715469D01*
X157433952Y-65783868D01*
X157547694Y-65830981D01*
X157668443Y-65855000D01*
X157791557Y-65855000D01*
X157912306Y-65830981D01*
X158026048Y-65783868D01*
X158128414Y-65715469D01*
X158215469Y-65628414D01*
X158283868Y-65526048D01*
X158330981Y-65412306D01*
X158349836Y-65317519D01*
X158409751Y-65311618D01*
X158510476Y-65281063D01*
X158603305Y-65231445D01*
X158684670Y-65164670D01*
X158751445Y-65083305D01*
X158801063Y-64990476D01*
X158831618Y-64889751D01*
X158841935Y-64785000D01*
X158841935Y-64775000D01*
X158881557Y-64775000D01*
X159002306Y-64750981D01*
X159116048Y-64703868D01*
X159218414Y-64635469D01*
X159305469Y-64548414D01*
X159373868Y-64446048D01*
X159420981Y-64332306D01*
X159439898Y-64237208D01*
X161036187Y-62640920D01*
X161055264Y-62625264D01*
X161117746Y-62549129D01*
X161137775Y-62511657D01*
X161292097Y-62447735D01*
X161496828Y-62310938D01*
X161670938Y-62136828D01*
X161807735Y-61932097D01*
X161901963Y-61704611D01*
X161950000Y-61463114D01*
X161950000Y-61216886D01*
X161990000Y-61216886D01*
X161990000Y-61463114D01*
X162038037Y-61704611D01*
X162132265Y-61932097D01*
X162269062Y-62136828D01*
X162443172Y-62310938D01*
X162647903Y-62447735D01*
X162875389Y-62541963D01*
X163116886Y-62590000D01*
X163363114Y-62590000D01*
X163604611Y-62541963D01*
X163832097Y-62447735D01*
X164036828Y-62310938D01*
X164210938Y-62136828D01*
X164347735Y-61932097D01*
X164441963Y-61704611D01*
X164490000Y-61463114D01*
X164490000Y-61216886D01*
X164530000Y-61216886D01*
X164530000Y-61463114D01*
X164578037Y-61704611D01*
X164672265Y-61932097D01*
X164809062Y-62136828D01*
X164983172Y-62310938D01*
X165187903Y-62447735D01*
X165415389Y-62541963D01*
X165656886Y-62590000D01*
X165903114Y-62590000D01*
X166144611Y-62541963D01*
X166372097Y-62447735D01*
X166576828Y-62310938D01*
X166750938Y-62136828D01*
X166887735Y-61932097D01*
X166981963Y-61704611D01*
X167030000Y-61463114D01*
X167030000Y-61216886D01*
X166981963Y-60975389D01*
X166887735Y-60747903D01*
X166750938Y-60543172D01*
X166576828Y-60369062D01*
X166372097Y-60232265D01*
X166144611Y-60138037D01*
X165903114Y-60090000D01*
X165656886Y-60090000D01*
X165415389Y-60138037D01*
X165187903Y-60232265D01*
X164983172Y-60369062D01*
X164809062Y-60543172D01*
X164672265Y-60747903D01*
X164578037Y-60975389D01*
X164530000Y-61216886D01*
X164490000Y-61216886D01*
X164441963Y-60975389D01*
X164347735Y-60747903D01*
X164210938Y-60543172D01*
X164036828Y-60369062D01*
X163832097Y-60232265D01*
X163604611Y-60138037D01*
X163363114Y-60090000D01*
X163116886Y-60090000D01*
X162875389Y-60138037D01*
X162647903Y-60232265D01*
X162443172Y-60369062D01*
X162269062Y-60543172D01*
X162132265Y-60747903D01*
X162038037Y-60975389D01*
X161990000Y-61216886D01*
X161950000Y-61216886D01*
X161901963Y-60975389D01*
X161807735Y-60747903D01*
X161670938Y-60543172D01*
X161496828Y-60369062D01*
X161292097Y-60232265D01*
X161064611Y-60138037D01*
X160823114Y-60090000D01*
X160576886Y-60090000D01*
X160335389Y-60138037D01*
X160107903Y-60232265D01*
X159903172Y-60369062D01*
X159729062Y-60543172D01*
X159592265Y-60747903D01*
X159498037Y-60975389D01*
X159450000Y-61216886D01*
X159450000Y-61463114D01*
X159498037Y-61704611D01*
X159592265Y-61932097D01*
X159729062Y-62136828D01*
X159903172Y-62310938D01*
X159932416Y-62330478D01*
X158835297Y-63427598D01*
X158831618Y-63390249D01*
X158801063Y-63289524D01*
X158751445Y-63196695D01*
X158684670Y-63115330D01*
X158620000Y-63062256D01*
X158620000Y-62502451D01*
X158752097Y-62447735D01*
X158956828Y-62310938D01*
X159130938Y-62136828D01*
X159267735Y-61932097D01*
X159361963Y-61704611D01*
X159410000Y-61463114D01*
X159410000Y-61216886D01*
X159361963Y-60975389D01*
X159267735Y-60747903D01*
X159130938Y-60543172D01*
X158956828Y-60369062D01*
X158752097Y-60232265D01*
X158524611Y-60138037D01*
X158283114Y-60090000D01*
X158036886Y-60090000D01*
X157795389Y-60138037D01*
X157567903Y-60232265D01*
X157363172Y-60369062D01*
X157270000Y-60462234D01*
X157270000Y-60397105D01*
X157703291Y-59963815D01*
X157795389Y-60001963D01*
X158036886Y-60050000D01*
X158283114Y-60050000D01*
X158524611Y-60001963D01*
X158752097Y-59907735D01*
X158956828Y-59770938D01*
X159130938Y-59596828D01*
X159267735Y-59392097D01*
X159361963Y-59164611D01*
X159410000Y-58923114D01*
X159410000Y-58676886D01*
X159450000Y-58676886D01*
X159450000Y-58923114D01*
X159498037Y-59164611D01*
X159592265Y-59392097D01*
X159729062Y-59596828D01*
X159903172Y-59770938D01*
X160107903Y-59907735D01*
X160335389Y-60001963D01*
X160576886Y-60050000D01*
X160823114Y-60050000D01*
X161064611Y-60001963D01*
X161292097Y-59907735D01*
X161496828Y-59770938D01*
X161670938Y-59596828D01*
X161807735Y-59392097D01*
X161901963Y-59164611D01*
X161950000Y-58923114D01*
X161950000Y-58676886D01*
X161990000Y-58676886D01*
X161990000Y-58923114D01*
X162038037Y-59164611D01*
X162132265Y-59392097D01*
X162269062Y-59596828D01*
X162443172Y-59770938D01*
X162647903Y-59907735D01*
X162875389Y-60001963D01*
X163116886Y-60050000D01*
X163363114Y-60050000D01*
X163604611Y-60001963D01*
X163832097Y-59907735D01*
X164036828Y-59770938D01*
X164210938Y-59596828D01*
X164347735Y-59392097D01*
X164441963Y-59164611D01*
X164490000Y-58923114D01*
X164490000Y-58676886D01*
X164441963Y-58435389D01*
X164347735Y-58207903D01*
X164210938Y-58003172D01*
X164157766Y-57950000D01*
X164528065Y-57950000D01*
X164528065Y-59650000D01*
X164535788Y-59728414D01*
X164558660Y-59803814D01*
X164595803Y-59873303D01*
X164645789Y-59934211D01*
X164706697Y-59984197D01*
X164776186Y-60021340D01*
X164851586Y-60044212D01*
X164930000Y-60051935D01*
X166630000Y-60051935D01*
X166708414Y-60044212D01*
X166783814Y-60021340D01*
X166853303Y-59984197D01*
X166914211Y-59934211D01*
X166964197Y-59873303D01*
X167001340Y-59803814D01*
X167024212Y-59728414D01*
X167031935Y-59650000D01*
X167031935Y-57950000D01*
X167024212Y-57871586D01*
X167001340Y-57796186D01*
X166964197Y-57726697D01*
X166914211Y-57665789D01*
X166853303Y-57615803D01*
X166783814Y-57578660D01*
X166708414Y-57555788D01*
X166630000Y-57548065D01*
X164930000Y-57548065D01*
X164851586Y-57555788D01*
X164776186Y-57578660D01*
X164706697Y-57615803D01*
X164645789Y-57665789D01*
X164595803Y-57726697D01*
X164558660Y-57796186D01*
X164535788Y-57871586D01*
X164528065Y-57950000D01*
X164157766Y-57950000D01*
X164036828Y-57829062D01*
X163832097Y-57692265D01*
X163604611Y-57598037D01*
X163363114Y-57550000D01*
X163116886Y-57550000D01*
X162875389Y-57598037D01*
X162647903Y-57692265D01*
X162443172Y-57829062D01*
X162269062Y-58003172D01*
X162132265Y-58207903D01*
X162038037Y-58435389D01*
X161990000Y-58676886D01*
X161950000Y-58676886D01*
X161901963Y-58435389D01*
X161807735Y-58207903D01*
X161670938Y-58003172D01*
X161496828Y-57829062D01*
X161292097Y-57692265D01*
X161064611Y-57598037D01*
X160823114Y-57550000D01*
X160576886Y-57550000D01*
X160335389Y-57598037D01*
X160107903Y-57692265D01*
X159903172Y-57829062D01*
X159729062Y-58003172D01*
X159592265Y-58207903D01*
X159498037Y-58435389D01*
X159450000Y-58676886D01*
X159410000Y-58676886D01*
X159361963Y-58435389D01*
X159267735Y-58207903D01*
X159130938Y-58003172D01*
X158956828Y-57829062D01*
X158752097Y-57692265D01*
X158524611Y-57598037D01*
X158283114Y-57550000D01*
X158036886Y-57550000D01*
X157795389Y-57598037D01*
X157567903Y-57692265D01*
X157363172Y-57829062D01*
X157189062Y-58003172D01*
X157052265Y-58207903D01*
X156958037Y-58435389D01*
X156910000Y-58676886D01*
X156910000Y-58923114D01*
X156958037Y-59164611D01*
X156996185Y-59256709D01*
X156433819Y-59819076D01*
X156414737Y-59834736D01*
X156352255Y-59910871D01*
X156313061Y-59984197D01*
X156305826Y-59997733D01*
X156277235Y-60091983D01*
X156267581Y-60190000D01*
X156270001Y-60214570D01*
X156270000Y-63082256D01*
X156205330Y-63135330D01*
X156138555Y-63216695D01*
X156088937Y-63309524D01*
X156058382Y-63410249D01*
X156048065Y-63515000D01*
X155751935Y-63515000D01*
X155751935Y-63455000D01*
X155741618Y-63350249D01*
X155711063Y-63249524D01*
X155661445Y-63156695D01*
X155594670Y-63075330D01*
X155513305Y-63008555D01*
X155420476Y-62958937D01*
X155319751Y-62928382D01*
X155215000Y-62918065D01*
X155065171Y-62918065D01*
X155042999Y-62895893D01*
X155042999Y-60084106D01*
X155163291Y-59963815D01*
X155255389Y-60001963D01*
X155496886Y-60050000D01*
X155743114Y-60050000D01*
X155984611Y-60001963D01*
X156212097Y-59907735D01*
X156416828Y-59770938D01*
X156590938Y-59596828D01*
X156727735Y-59392097D01*
X156821963Y-59164611D01*
X156870000Y-58923114D01*
X156870000Y-58676886D01*
X156821963Y-58435389D01*
X156727735Y-58207903D01*
X156590938Y-58003172D01*
X156416828Y-57829062D01*
X156212097Y-57692265D01*
X155984611Y-57598037D01*
X155743114Y-57550000D01*
X155496886Y-57550000D01*
X155255389Y-57598037D01*
X155027903Y-57692265D01*
X154823172Y-57829062D01*
X154649062Y-58003172D01*
X154512265Y-58207903D01*
X154418037Y-58435389D01*
X154370000Y-58676886D01*
X154370000Y-58923114D01*
X154418037Y-59164611D01*
X154456185Y-59256709D01*
X154206818Y-59506077D01*
X154187736Y-59521737D01*
X154125254Y-59597872D01*
X154097391Y-59650000D01*
X154078825Y-59684734D01*
X154050234Y-59778984D01*
X154040580Y-59877001D01*
X154043000Y-59901571D01*
X154043000Y-60535234D01*
X153876828Y-60369062D01*
X153672097Y-60232265D01*
X153444611Y-60138037D01*
X153203114Y-60090000D01*
X152956886Y-60090000D01*
X152715389Y-60138037D01*
X152487903Y-60232265D01*
X152283172Y-60369062D01*
X152109062Y-60543172D01*
X151972265Y-60747903D01*
X151878037Y-60975389D01*
X151830000Y-61216886D01*
X151830000Y-61463114D01*
X151878037Y-61704611D01*
X151916359Y-61797129D01*
X151872255Y-61850871D01*
X151856488Y-61880369D01*
X151825826Y-61937733D01*
X151797235Y-62031983D01*
X151787581Y-62130000D01*
X151790001Y-62154570D01*
X151790000Y-63123290D01*
X151775330Y-63135330D01*
X151708555Y-63216695D01*
X151658937Y-63309524D01*
X151628382Y-63410249D01*
X151618065Y-63515000D01*
X151618065Y-63885000D01*
X151628382Y-63989751D01*
X151658937Y-64090476D01*
X151708555Y-64183305D01*
X151721259Y-64198785D01*
X151678414Y-64185788D01*
X151600000Y-64178065D01*
X151540000Y-64178065D01*
X151540000Y-63660707D01*
X151528424Y-63543173D01*
X151482679Y-63392372D01*
X151408393Y-63253394D01*
X151308422Y-63131578D01*
X151186605Y-63031607D01*
X151047627Y-62957321D01*
X150896826Y-62911576D01*
X150740000Y-62896130D01*
X150583173Y-62911576D01*
X150432372Y-62957321D01*
X150293394Y-63031607D01*
X150171578Y-63131578D01*
X150071607Y-63253395D01*
X149997321Y-63392373D01*
X149951576Y-63543174D01*
X149940000Y-63660708D01*
X149940000Y-64275919D01*
X149915789Y-64295789D01*
X149865803Y-64356697D01*
X149828660Y-64426186D01*
X149805788Y-64501586D01*
X149798065Y-64580000D01*
X149798065Y-65780000D01*
X149800527Y-65805000D01*
X149798443Y-65805000D01*
X149677694Y-65829019D01*
X149563952Y-65876132D01*
X149461586Y-65944531D01*
X149374531Y-66031586D01*
X149306132Y-66133952D01*
X149259019Y-66247694D01*
X149235000Y-66368443D01*
X149235000Y-66491557D01*
X149259019Y-66612306D01*
X149306132Y-66726048D01*
X149374531Y-66828414D01*
X149461586Y-66915469D01*
X149542286Y-66969391D01*
X149798065Y-67225171D01*
X149798065Y-67680000D01*
X149805788Y-67758414D01*
X149828660Y-67833814D01*
X149865803Y-67903303D01*
X149915789Y-67964211D01*
X149976697Y-68014197D01*
X150046186Y-68051340D01*
X150121586Y-68074212D01*
X150195086Y-68081451D01*
X150104649Y-68108885D01*
X150000583Y-68164509D01*
X149909368Y-68239368D01*
X149834509Y-68330583D01*
X149778885Y-68434649D01*
X149744631Y-68547568D01*
X149733065Y-68665000D01*
X149733065Y-69215000D01*
X149744631Y-69332432D01*
X149778885Y-69445351D01*
X149834509Y-69549417D01*
X149909368Y-69640632D01*
X150000583Y-69715491D01*
X150010000Y-69720525D01*
X150010001Y-70313065D01*
X149520000Y-70313065D01*
X149441586Y-70320788D01*
X149366186Y-70343660D01*
X149296697Y-70380803D01*
X149235789Y-70430789D01*
X149185803Y-70491697D01*
X149148660Y-70561186D01*
X149125788Y-70636586D01*
X149118065Y-70715000D01*
X149118065Y-71715000D01*
X149125788Y-71793414D01*
X149143711Y-71852500D01*
X149125788Y-71911586D01*
X149118065Y-71990000D01*
X149118065Y-73140000D01*
X149125788Y-73218414D01*
X149148660Y-73293814D01*
X149185803Y-73363303D01*
X149235789Y-73424211D01*
X149296697Y-73474197D01*
X149366186Y-73511340D01*
X149441586Y-73534212D01*
X149520000Y-73541935D01*
X149520001Y-75585430D01*
X149517581Y-75610000D01*
X149527235Y-75708017D01*
X149552445Y-75791120D01*
X149555826Y-75802267D01*
X149602255Y-75889129D01*
X149664737Y-75965264D01*
X149683819Y-75980924D01*
X151299079Y-77596186D01*
X151314736Y-77615264D01*
X151390871Y-77677746D01*
X151477733Y-77724175D01*
X151571983Y-77752765D01*
X151645440Y-77760000D01*
X151645449Y-77760000D01*
X151669999Y-77762418D01*
X151694549Y-77760000D01*
X154042895Y-77760000D01*
X154381027Y-78098132D01*
X154311586Y-78144531D01*
X154224531Y-78231586D01*
X154156132Y-78333952D01*
X154109019Y-78447694D01*
X154085000Y-78568443D01*
X154085000Y-78667298D01*
X154009368Y-78729368D01*
X153934509Y-78820583D01*
X153878885Y-78924649D01*
X153844631Y-79037568D01*
X153833065Y-79155000D01*
X153833065Y-79555000D01*
X153844631Y-79672432D01*
X153878885Y-79785351D01*
X153934509Y-79889417D01*
X154009368Y-79980632D01*
X154100583Y-80055491D01*
X154204649Y-80111115D01*
X154317568Y-80145369D01*
X154435000Y-80156935D01*
X154985000Y-80156935D01*
X155102432Y-80145369D01*
X155215351Y-80111115D01*
X155319417Y-80055491D01*
X155410632Y-79980632D01*
X155485491Y-79889417D01*
X155541115Y-79785351D01*
X155575369Y-79672432D01*
X155586935Y-79555000D01*
X155586935Y-79155000D01*
X155575369Y-79037568D01*
X155541115Y-78924649D01*
X155485491Y-78820583D01*
X155462094Y-78792074D01*
X155506048Y-78773868D01*
X155608414Y-78705469D01*
X155695469Y-78618414D01*
X155731730Y-78564146D01*
X155811418Y-78588320D01*
X155929039Y-78599904D01*
X155958515Y-78597001D01*
X156176473Y-78597001D01*
X157152002Y-79572531D01*
X157152001Y-88407001D01*
X157088149Y-88364336D01*
X156870000Y-88273976D01*
X156870000Y-81710524D01*
X156879417Y-81705491D01*
X156970632Y-81630632D01*
X157045491Y-81539417D01*
X157101115Y-81435351D01*
X157135369Y-81322432D01*
X157146935Y-81205000D01*
X157146935Y-80805000D01*
X157135369Y-80687568D01*
X157101115Y-80574649D01*
X157045491Y-80470583D01*
X156970632Y-80379368D01*
X156879417Y-80304509D01*
X156775351Y-80248885D01*
X156662432Y-80214631D01*
X156545000Y-80203065D01*
X155995000Y-80203065D01*
X155877568Y-80214631D01*
X155764649Y-80248885D01*
X155660583Y-80304509D01*
X155569368Y-80379368D01*
X155494509Y-80470583D01*
X155490000Y-80479019D01*
X155485491Y-80470583D01*
X155410632Y-80379368D01*
X155319417Y-80304509D01*
X155215351Y-80248885D01*
X155102432Y-80214631D01*
X154985000Y-80203065D01*
X154435000Y-80203065D01*
X154317568Y-80214631D01*
X154204649Y-80248885D01*
X154100583Y-80304509D01*
X154009368Y-80379368D01*
X153934509Y-80470583D01*
X153878885Y-80574649D01*
X153844631Y-80687568D01*
X153833065Y-80805000D01*
X153833065Y-81205000D01*
X153844631Y-81322432D01*
X153878885Y-81435351D01*
X153934509Y-81539417D01*
X154009368Y-81630632D01*
X154100583Y-81705491D01*
X154110000Y-81710525D01*
X154110001Y-86015323D01*
X154109019Y-86017694D01*
X154085000Y-86138443D01*
X154085000Y-86261557D01*
X154109019Y-86382306D01*
X154110000Y-86384674D01*
X154110001Y-98580516D01*
X154107097Y-98610000D01*
X154118682Y-98727620D01*
X154152991Y-98840721D01*
X154208705Y-98944955D01*
X154283684Y-99036317D01*
X154306582Y-99055109D01*
X155104958Y-99853486D01*
X155078801Y-99916635D01*
X155025000Y-100187112D01*
X155025000Y-100462888D01*
X155078801Y-100733365D01*
X155184336Y-100988149D01*
X155337549Y-101217448D01*
X155532552Y-101412451D01*
X155761851Y-101565664D01*
X155832674Y-101595000D01*
X155761851Y-101624336D01*
X155532552Y-101777549D01*
X155337549Y-101972552D01*
X155184336Y-102201851D01*
X155078801Y-102456635D01*
X155025000Y-102727112D01*
X155025000Y-103002888D01*
X155078801Y-103273365D01*
X155184336Y-103528149D01*
X155337549Y-103757448D01*
X155532552Y-103952451D01*
X155761851Y-104105664D01*
X156016635Y-104211199D01*
X156287112Y-104265000D01*
X156562888Y-104265000D01*
X156833365Y-104211199D01*
X157088149Y-104105664D01*
X157317448Y-103952451D01*
X157512451Y-103757448D01*
X157665664Y-103528149D01*
X157771199Y-103273365D01*
X157825000Y-103002888D01*
X157825000Y-102727112D01*
X157771199Y-102456635D01*
X157665664Y-102201851D01*
X157512451Y-101972552D01*
X157317448Y-101777549D01*
X157288217Y-101758017D01*
X158485000Y-101758017D01*
X158485000Y-102151983D01*
X158561859Y-102538378D01*
X158712623Y-102902355D01*
X158931499Y-103229926D01*
X159210074Y-103508501D01*
X159537645Y-103727377D01*
X159901622Y-103878141D01*
X160288017Y-103955000D01*
X160681983Y-103955000D01*
X161068378Y-103878141D01*
X161432355Y-103727377D01*
X161759926Y-103508501D01*
X162038501Y-103229926D01*
X162257377Y-102902355D01*
X162408141Y-102538378D01*
X162485000Y-102151983D01*
X162485000Y-101758017D01*
X162408141Y-101371622D01*
X162257377Y-101007645D01*
X162038501Y-100680074D01*
X161759926Y-100401499D01*
X161432355Y-100182623D01*
X161068378Y-100031859D01*
X160681983Y-99955000D01*
X160288017Y-99955000D01*
X159901622Y-100031859D01*
X159537645Y-100182623D01*
X159210074Y-100401499D01*
X158931499Y-100680074D01*
X158712623Y-101007645D01*
X158561859Y-101371622D01*
X158485000Y-101758017D01*
X157288217Y-101758017D01*
X157088149Y-101624336D01*
X157017326Y-101595000D01*
X157088149Y-101565664D01*
X157317448Y-101412451D01*
X157512451Y-101217448D01*
X157665664Y-100988149D01*
X157771199Y-100733365D01*
X157825000Y-100462888D01*
X157825000Y-100187112D01*
X157771199Y-99916635D01*
X157665664Y-99661851D01*
X157512451Y-99432552D01*
X157317448Y-99237549D01*
X157088149Y-99084336D01*
X156833365Y-98978801D01*
X156562888Y-98925000D01*
X156287112Y-98925000D01*
X156016635Y-98978801D01*
X155953486Y-99004958D01*
X155310000Y-98361473D01*
X155310000Y-92996218D01*
X155337549Y-93037448D01*
X155532552Y-93232451D01*
X155761851Y-93385664D01*
X156016635Y-93491199D01*
X156287112Y-93545000D01*
X156562888Y-93545000D01*
X156833365Y-93491199D01*
X157088149Y-93385664D01*
X157317448Y-93232451D01*
X157512451Y-93037448D01*
X157665664Y-92808149D01*
X157771199Y-92553365D01*
X157825000Y-92282888D01*
X157825000Y-92007112D01*
X157771199Y-91736635D01*
X157745042Y-91673486D01*
X158155421Y-91263107D01*
X158178318Y-91244316D01*
X158253297Y-91152954D01*
X158304292Y-91057549D01*
X158309011Y-91048721D01*
X158343319Y-90935620D01*
X158354904Y-90817999D01*
X158352001Y-90788525D01*
X158352001Y-90328017D01*
X158485000Y-90328017D01*
X158485000Y-90721983D01*
X158561859Y-91108378D01*
X158712623Y-91472355D01*
X158931499Y-91799926D01*
X159210074Y-92078501D01*
X159537645Y-92297377D01*
X159901622Y-92448141D01*
X160288017Y-92525000D01*
X160681983Y-92525000D01*
X161068378Y-92448141D01*
X161432355Y-92297377D01*
X161759926Y-92078501D01*
X162038501Y-91799926D01*
X162257377Y-91472355D01*
X162408141Y-91108378D01*
X162485000Y-90721983D01*
X162485000Y-90328017D01*
X162408141Y-89941622D01*
X162257377Y-89577645D01*
X162038501Y-89250074D01*
X161759926Y-88971499D01*
X161432355Y-88752623D01*
X161068378Y-88601859D01*
X160681983Y-88525000D01*
X160288017Y-88525000D01*
X159901622Y-88601859D01*
X159537645Y-88752623D01*
X159210074Y-88971499D01*
X158931499Y-89250074D01*
X158712623Y-89577645D01*
X158561859Y-89941622D01*
X158485000Y-90328017D01*
X158352001Y-90328017D01*
X158352001Y-79353476D01*
X158354904Y-79324002D01*
X158343319Y-79206381D01*
X158309011Y-79093280D01*
X158274339Y-79028414D01*
X158253297Y-78989047D01*
X158178318Y-78897685D01*
X158155420Y-78878893D01*
X156870113Y-77593587D01*
X156851317Y-77570684D01*
X156759955Y-77495705D01*
X156655721Y-77439991D01*
X156542621Y-77405683D01*
X156454474Y-77397001D01*
X156425000Y-77394098D01*
X156395526Y-77397001D01*
X156177567Y-77397001D01*
X155970000Y-77189435D01*
X155970000Y-77058263D01*
X156005818Y-77073099D01*
X156141056Y-77100000D01*
X156278944Y-77100000D01*
X156414182Y-77073099D01*
X156464410Y-77052294D01*
X156499524Y-77071063D01*
X156600249Y-77101618D01*
X156705000Y-77111935D01*
X156975000Y-77111935D01*
X157079751Y-77101618D01*
X157180476Y-77071063D01*
X157190115Y-77065911D01*
X157178478Y-77104274D01*
X157168065Y-77210000D01*
X157168065Y-77550000D01*
X157178478Y-77655726D01*
X157209317Y-77757390D01*
X157259398Y-77851083D01*
X157326794Y-77933206D01*
X157408917Y-78000602D01*
X157502610Y-78050683D01*
X157604274Y-78081522D01*
X157710000Y-78091935D01*
X157990000Y-78091935D01*
X158095726Y-78081522D01*
X158177441Y-78056734D01*
X158187694Y-78060981D01*
X158308443Y-78085000D01*
X158431557Y-78085000D01*
X158552306Y-78060981D01*
X158666048Y-78013868D01*
X158768414Y-77945469D01*
X158855469Y-77858414D01*
X158923868Y-77756048D01*
X158970981Y-77642306D01*
X158995000Y-77521557D01*
X158995000Y-77398443D01*
X158970981Y-77277694D01*
X158923868Y-77163952D01*
X158855469Y-77061586D01*
X158768414Y-76974531D01*
X158666048Y-76906132D01*
X158552306Y-76859019D01*
X158459001Y-76840459D01*
X158491063Y-76780476D01*
X158521618Y-76679751D01*
X158531935Y-76575000D01*
X158531935Y-76205000D01*
X158521618Y-76100249D01*
X158491063Y-75999524D01*
X158461919Y-75945000D01*
X158491557Y-75945000D01*
X158612306Y-75920981D01*
X158726048Y-75873868D01*
X158731698Y-75870093D01*
X158758826Y-75888219D01*
X158872568Y-75935332D01*
X158993317Y-75959351D01*
X159116431Y-75959351D01*
X159237180Y-75935332D01*
X159350922Y-75888219D01*
X159453288Y-75819820D01*
X159540343Y-75732765D01*
X159608742Y-75630399D01*
X159655855Y-75516657D01*
X159679874Y-75395908D01*
X159679874Y-75383756D01*
X159745526Y-75348664D01*
X159805943Y-75299081D01*
X159867855Y-75391738D01*
X159954910Y-75478793D01*
X160057276Y-75547192D01*
X160171018Y-75594305D01*
X160291767Y-75618324D01*
X160414881Y-75618324D01*
X160535630Y-75594305D01*
X160649372Y-75547192D01*
X160751738Y-75478793D01*
X160838793Y-75391738D01*
X160907192Y-75289372D01*
X160954305Y-75175630D01*
X160978324Y-75054881D01*
X160978324Y-74931767D01*
X160954305Y-74811018D01*
X160907192Y-74697276D01*
X160838793Y-74594910D01*
X160751738Y-74507855D01*
X160665152Y-74450000D01*
X161143065Y-74450000D01*
X161143065Y-74630000D01*
X161155111Y-74752309D01*
X161190788Y-74869918D01*
X161248723Y-74978306D01*
X161326690Y-75073310D01*
X161395001Y-75129371D01*
X161395001Y-75155852D01*
X161359317Y-75222610D01*
X161328478Y-75324274D01*
X161325267Y-75356879D01*
X161291058Y-75371049D01*
X161160030Y-75458599D01*
X161048599Y-75570030D01*
X160961049Y-75701058D01*
X160900743Y-75846649D01*
X160870000Y-76001207D01*
X160870000Y-76158793D01*
X160900743Y-76313351D01*
X160961049Y-76458942D01*
X161048599Y-76589970D01*
X161160030Y-76701401D01*
X161291058Y-76788951D01*
X161436649Y-76849257D01*
X161591207Y-76880000D01*
X161748793Y-76880000D01*
X161903351Y-76849257D01*
X162048942Y-76788951D01*
X162179970Y-76701401D01*
X162291401Y-76589970D01*
X162378951Y-76458942D01*
X162439257Y-76313351D01*
X162460948Y-76204299D01*
X162523206Y-76153206D01*
X162590602Y-76071083D01*
X162640683Y-75977390D01*
X162671522Y-75875726D01*
X162681935Y-75770000D01*
X162681935Y-75430000D01*
X162671522Y-75324274D01*
X162640683Y-75222610D01*
X162595000Y-75137145D01*
X162595000Y-75129370D01*
X162663310Y-75073310D01*
X162741277Y-74978306D01*
X162799212Y-74869918D01*
X162834889Y-74752309D01*
X162846935Y-74630000D01*
X162846935Y-74130000D01*
X162834889Y-74007691D01*
X162813661Y-73937712D01*
X164259073Y-73937712D01*
X165562288Y-75240928D01*
X165562288Y-75622931D01*
X165509524Y-75638937D01*
X165416695Y-75688555D01*
X165340000Y-75751497D01*
X165263305Y-75688555D01*
X165170476Y-75638937D01*
X165069751Y-75608382D01*
X164965000Y-75598065D01*
X164695000Y-75598065D01*
X164590249Y-75608382D01*
X164489524Y-75638937D01*
X164396695Y-75688555D01*
X164315330Y-75755330D01*
X164248555Y-75836695D01*
X164198937Y-75929524D01*
X164168382Y-76030249D01*
X164158065Y-76135000D01*
X164158065Y-76505000D01*
X164168382Y-76609751D01*
X164198937Y-76710476D01*
X164248555Y-76803305D01*
X164254876Y-76811008D01*
X164272990Y-76870721D01*
X164328705Y-76974955D01*
X164380000Y-77037458D01*
X164380000Y-77068793D01*
X164410743Y-77223351D01*
X164471049Y-77368942D01*
X164558599Y-77499970D01*
X164670030Y-77611401D01*
X164801058Y-77698951D01*
X164946649Y-77759257D01*
X165101207Y-77790000D01*
X165258793Y-77790000D01*
X165413351Y-77759257D01*
X165558942Y-77698951D01*
X165567845Y-77693002D01*
X165567844Y-88853516D01*
X164511117Y-89910244D01*
X164490869Y-89926861D01*
X164424568Y-90007649D01*
X164375303Y-90099820D01*
X164363286Y-90139434D01*
X164344965Y-90199829D01*
X164334721Y-90303836D01*
X164337288Y-90329899D01*
X164337289Y-93992226D01*
X164342845Y-94048635D01*
X164342844Y-94882063D01*
X164340305Y-94907844D01*
X164342844Y-94933624D01*
X164342844Y-94933631D01*
X164350441Y-95010761D01*
X164380461Y-95109724D01*
X164429211Y-95200930D01*
X164494817Y-95280871D01*
X164514854Y-95297315D01*
X165622561Y-96405023D01*
X165584958Y-96495804D01*
X165535000Y-96746961D01*
X165535000Y-97003039D01*
X165584958Y-97254196D01*
X165682955Y-97490781D01*
X165825224Y-97703702D01*
X166006298Y-97884776D01*
X166219219Y-98027045D01*
X166455804Y-98125042D01*
X166556140Y-98145000D01*
X166455804Y-98164958D01*
X166219219Y-98262955D01*
X166006298Y-98405224D01*
X165825224Y-98586298D01*
X165682955Y-98799219D01*
X165584958Y-99035804D01*
X165535000Y-99286961D01*
X165535000Y-99543039D01*
X165584958Y-99794196D01*
X165682955Y-100030781D01*
X165825224Y-100243702D01*
X166006298Y-100424776D01*
X166219219Y-100567045D01*
X166455804Y-100665042D01*
X166556140Y-100685000D01*
X166455804Y-100704958D01*
X166219219Y-100802955D01*
X166006298Y-100945224D01*
X165825224Y-101126298D01*
X165682955Y-101339219D01*
X165584958Y-101575804D01*
X165535000Y-101826961D01*
X165535000Y-102083039D01*
X165584958Y-102334196D01*
X165682955Y-102570781D01*
X165825224Y-102783702D01*
X166006298Y-102964776D01*
X166219219Y-103107045D01*
X166450001Y-103202638D01*
X166450000Y-105446269D01*
X166376186Y-105468660D01*
X166306697Y-105505803D01*
X166245789Y-105555789D01*
X166195803Y-105616697D01*
X166158660Y-105686186D01*
X166135788Y-105761586D01*
X166128065Y-105840000D01*
X166128065Y-107540000D01*
X166135788Y-107618414D01*
X166158660Y-107693814D01*
X166195803Y-107763303D01*
X166245789Y-107824211D01*
X166306697Y-107874197D01*
X166376186Y-107911340D01*
X166451586Y-107934212D01*
X166530000Y-107941935D01*
X168230000Y-107941935D01*
X168308414Y-107934212D01*
X168383814Y-107911340D01*
X168453303Y-107874197D01*
X168514211Y-107824211D01*
X168564197Y-107763303D01*
X168601340Y-107693814D01*
X168624212Y-107618414D01*
X168631935Y-107540000D01*
X168631935Y-106638249D01*
X168670000Y-106684632D01*
X168670000Y-106813114D01*
X168718037Y-107054611D01*
X168812265Y-107282097D01*
X168949062Y-107486828D01*
X169123172Y-107660938D01*
X169327903Y-107797735D01*
X169555389Y-107891963D01*
X169796886Y-107940000D01*
X170043114Y-107940000D01*
X170284611Y-107891963D01*
X170512097Y-107797735D01*
X170716828Y-107660938D01*
X170890938Y-107486828D01*
X171027735Y-107282097D01*
X171121963Y-107054611D01*
X171170000Y-106813114D01*
X171170000Y-106566886D01*
X171121963Y-106325389D01*
X171027735Y-106097903D01*
X170890938Y-105893172D01*
X170716828Y-105719062D01*
X170512097Y-105582265D01*
X170284611Y-105488037D01*
X170275000Y-105486125D01*
X170275000Y-101623478D01*
X170384776Y-101513702D01*
X170527045Y-101300781D01*
X170625042Y-101064196D01*
X170675000Y-100813039D01*
X170675000Y-100556961D01*
X170625042Y-100305804D01*
X170527045Y-100069219D01*
X170384776Y-99856298D01*
X170203702Y-99675224D01*
X169990781Y-99532955D01*
X169754196Y-99434958D01*
X169503039Y-99385000D01*
X169246961Y-99385000D01*
X168995804Y-99434958D01*
X168759219Y-99532955D01*
X168546298Y-99675224D01*
X168365224Y-99856298D01*
X168222955Y-100069219D01*
X168124958Y-100305804D01*
X168075000Y-100556961D01*
X168075000Y-100813039D01*
X168124958Y-101064196D01*
X168222955Y-101300781D01*
X168365224Y-101513702D01*
X168475001Y-101623479D01*
X168475000Y-105523609D01*
X168453303Y-105505803D01*
X168383814Y-105468660D01*
X168308414Y-105445788D01*
X168250000Y-105440035D01*
X168250000Y-102514206D01*
X168254354Y-102470000D01*
X168236977Y-102293569D01*
X168185514Y-102123919D01*
X168135000Y-102029414D01*
X168135000Y-101826961D01*
X168085042Y-101575804D01*
X167987045Y-101339219D01*
X167844776Y-101126298D01*
X167663702Y-100945224D01*
X167450781Y-100802955D01*
X167214196Y-100704958D01*
X167113860Y-100685000D01*
X167214196Y-100665042D01*
X167450781Y-100567045D01*
X167663702Y-100424776D01*
X167844776Y-100243702D01*
X167987045Y-100030781D01*
X168085042Y-99794196D01*
X168135000Y-99543039D01*
X168135000Y-99286961D01*
X168085042Y-99035804D01*
X167987045Y-98799219D01*
X167844776Y-98586298D01*
X167663702Y-98405224D01*
X167450781Y-98262955D01*
X167214196Y-98164958D01*
X167113860Y-98145000D01*
X167214196Y-98125042D01*
X167450781Y-98027045D01*
X167663702Y-97884776D01*
X167844776Y-97703702D01*
X167987045Y-97490781D01*
X168085042Y-97254196D01*
X168135000Y-97003039D01*
X168135000Y-96746961D01*
X168085042Y-96495804D01*
X167987045Y-96259219D01*
X167900704Y-96130000D01*
X168185352Y-96130000D01*
X168222955Y-96220781D01*
X168365224Y-96433702D01*
X168546298Y-96614776D01*
X168759219Y-96757045D01*
X168995804Y-96855042D01*
X169246961Y-96905000D01*
X169503039Y-96905000D01*
X169754196Y-96855042D01*
X169990781Y-96757045D01*
X170203702Y-96614776D01*
X170384776Y-96433702D01*
X170527045Y-96220781D01*
X170625042Y-95984196D01*
X170675000Y-95733039D01*
X170675000Y-95476961D01*
X170625042Y-95225804D01*
X170527045Y-94989219D01*
X170384776Y-94776298D01*
X170203702Y-94595224D01*
X169990781Y-94452955D01*
X169754196Y-94354958D01*
X169653860Y-94335000D01*
X169754196Y-94315042D01*
X169990781Y-94217045D01*
X170203702Y-94074776D01*
X170384776Y-93893702D01*
X170527045Y-93680781D01*
X170625042Y-93444196D01*
X170675000Y-93193039D01*
X170675000Y-92936961D01*
X170625042Y-92685804D01*
X170618505Y-92670022D01*
X171343420Y-91945108D01*
X171366317Y-91926317D01*
X171441296Y-91834955D01*
X171497010Y-91730721D01*
X171531318Y-91617621D01*
X171540000Y-91529474D01*
X171540000Y-91529473D01*
X171542903Y-91500001D01*
X171540000Y-91470527D01*
X171540000Y-88489476D01*
X171542903Y-88460000D01*
X171531319Y-88342379D01*
X171497010Y-88229279D01*
X171441296Y-88125045D01*
X171366317Y-88033683D01*
X171343419Y-88014891D01*
X170471935Y-87143408D01*
X170471935Y-86830000D01*
X170461522Y-86724274D01*
X170430683Y-86622610D01*
X170390000Y-86546499D01*
X170390000Y-86460533D01*
X170442432Y-86455369D01*
X170555351Y-86421115D01*
X170659417Y-86365491D01*
X170750632Y-86290632D01*
X170825491Y-86199417D01*
X170881115Y-86095351D01*
X170915369Y-85982432D01*
X170926935Y-85865000D01*
X170926935Y-85465000D01*
X170915369Y-85347568D01*
X170881115Y-85234649D01*
X170825491Y-85130583D01*
X170750632Y-85039368D01*
X170659417Y-84964509D01*
X170555351Y-84908885D01*
X170442432Y-84874631D01*
X170325000Y-84863065D01*
X169775000Y-84863065D01*
X169657568Y-84874631D01*
X169544649Y-84908885D01*
X169497156Y-84934270D01*
X169497156Y-84745730D01*
X169544649Y-84771115D01*
X169657568Y-84805369D01*
X169775000Y-84816935D01*
X170325000Y-84816935D01*
X170442432Y-84805369D01*
X170555351Y-84771115D01*
X170659417Y-84715491D01*
X170750632Y-84640632D01*
X170825491Y-84549417D01*
X170881115Y-84445351D01*
X170915369Y-84332432D01*
X170926935Y-84215000D01*
X170926935Y-83815000D01*
X170915870Y-83702650D01*
X170948942Y-83688951D01*
X171079970Y-83601401D01*
X171191401Y-83489970D01*
X171278951Y-83358942D01*
X171339257Y-83213351D01*
X171370000Y-83058793D01*
X171370000Y-82901207D01*
X171339257Y-82746649D01*
X171278951Y-82601058D01*
X171191401Y-82470030D01*
X171079970Y-82358599D01*
X170948942Y-82271049D01*
X170803351Y-82210743D01*
X170648793Y-82180000D01*
X170491207Y-82180000D01*
X170336649Y-82210743D01*
X170191058Y-82271049D01*
X170060030Y-82358599D01*
X169948599Y-82470030D01*
X169861049Y-82601058D01*
X169800743Y-82746649D01*
X169770000Y-82901207D01*
X169770000Y-82931473D01*
X169646581Y-83054892D01*
X169623684Y-83073683D01*
X169548705Y-83165045D01*
X169497156Y-83261485D01*
X169497156Y-76025104D01*
X169510476Y-76021063D01*
X169603305Y-75971445D01*
X169680000Y-75908503D01*
X169756695Y-75971445D01*
X169849524Y-76021063D01*
X169950249Y-76051618D01*
X170055000Y-76061935D01*
X170325000Y-76061935D01*
X170429751Y-76051618D01*
X170464368Y-76041117D01*
X170491058Y-76058951D01*
X170636649Y-76119257D01*
X170791207Y-76150000D01*
X170948793Y-76150000D01*
X171103351Y-76119257D01*
X171248942Y-76058951D01*
X171379970Y-75971401D01*
X171491401Y-75859970D01*
X171567507Y-75746070D01*
X171574903Y-108075000D01*
X164979126Y-108075000D01*
X164978385Y-108075073D01*
X164970599Y-108075100D01*
X164952129Y-108076976D01*
X164933556Y-108076846D01*
X164927651Y-108077425D01*
X164151263Y-108159027D01*
X164113561Y-108166766D01*
X164075692Y-108173990D01*
X164070014Y-108175705D01*
X164070008Y-108175707D01*
X163324262Y-108406554D01*
X163288758Y-108421478D01*
X163253037Y-108435910D01*
X163247806Y-108438692D01*
X163247797Y-108438696D01*
X163247790Y-108438701D01*
X162561088Y-108809999D01*
X162529170Y-108831528D01*
X162496921Y-108852631D01*
X162492328Y-108856378D01*
X162492322Y-108856382D01*
X162492317Y-108856387D01*
X161890812Y-109353995D01*
X161863711Y-109381285D01*
X161836147Y-109408278D01*
X161832365Y-109412851D01*
X161338964Y-110017822D01*
X161317667Y-110049877D01*
X161295885Y-110081688D01*
X161293063Y-110086908D01*
X160926563Y-110776193D01*
X160911888Y-110811798D01*
X160896710Y-110847211D01*
X160894955Y-110852880D01*
X160669318Y-111600224D01*
X160661836Y-111638010D01*
X160653827Y-111675689D01*
X160653207Y-111681590D01*
X160614655Y-112074776D01*
X157449938Y-112074864D01*
X157813136Y-111924422D01*
X158353627Y-111563277D01*
X158813277Y-111103627D01*
X159174422Y-110563136D01*
X159423183Y-109962574D01*
X159550000Y-109325022D01*
X159550000Y-108674978D01*
X159423183Y-108037426D01*
X159174422Y-107436864D01*
X158813277Y-106896373D01*
X158353627Y-106436723D01*
X157813136Y-106075578D01*
X157212574Y-105826817D01*
X156575022Y-105700000D01*
X155924978Y-105700000D01*
X155287426Y-105826817D01*
X154686864Y-106075578D01*
X154146373Y-106436723D01*
X153686723Y-106896373D01*
X153325578Y-107436864D01*
X153076817Y-108037426D01*
X152950000Y-108674978D01*
X152950000Y-109325022D01*
X153076817Y-109962574D01*
X153325578Y-110563136D01*
X153686723Y-111103627D01*
X154146373Y-111563277D01*
X154686864Y-111924422D01*
X155050222Y-112074930D01*
X152885509Y-112074990D01*
X152840973Y-111651263D01*
X152833234Y-111613561D01*
X152826010Y-111575692D01*
X152824294Y-111570012D01*
X152593446Y-110824262D01*
X152578522Y-110788758D01*
X152564090Y-110753037D01*
X152561304Y-110747798D01*
X152561304Y-110747797D01*
X152561299Y-110747790D01*
X152190001Y-110061088D01*
X152168472Y-110029170D01*
X152147369Y-109996921D01*
X152143622Y-109992328D01*
X152143618Y-109992322D01*
X152143613Y-109992317D01*
X151646005Y-109390812D01*
X151618715Y-109363711D01*
X151591722Y-109336147D01*
X151587149Y-109332365D01*
X150982178Y-108838964D01*
X150950123Y-108817667D01*
X150918312Y-108795885D01*
X150913095Y-108793064D01*
X150913087Y-108793060D01*
X150223807Y-108426563D01*
X150188202Y-108411888D01*
X150152789Y-108396710D01*
X150147120Y-108394955D01*
X149399776Y-108169318D01*
X149361990Y-108161836D01*
X149324311Y-108153827D01*
X149318410Y-108153207D01*
X148925000Y-108114633D01*
X148925000Y-58676886D01*
X149290000Y-58676886D01*
X149290000Y-58923114D01*
X149338037Y-59164611D01*
X149432265Y-59392097D01*
X149569062Y-59596828D01*
X149743172Y-59770938D01*
X149947903Y-59907735D01*
X150175389Y-60001963D01*
X150416886Y-60050000D01*
X150663114Y-60050000D01*
X150904611Y-60001963D01*
X151132097Y-59907735D01*
X151336828Y-59770938D01*
X151510938Y-59596828D01*
X151647735Y-59392097D01*
X151741963Y-59164611D01*
X151790000Y-58923114D01*
X151790000Y-58676886D01*
X151741963Y-58435389D01*
X151647735Y-58207903D01*
X151510938Y-58003172D01*
X151336828Y-57829062D01*
X151132097Y-57692265D01*
X150904611Y-57598037D01*
X150663114Y-57550000D01*
X150416886Y-57550000D01*
X150175389Y-57598037D01*
X149947903Y-57692265D01*
X149743172Y-57829062D01*
X149569062Y-58003172D01*
X149432265Y-58207903D01*
X149338037Y-58435389D01*
X149290000Y-58676886D01*
X148925000Y-58676886D01*
X148925000Y-57425000D01*
X169096689Y-57425000D01*
X169122145Y-57910734D01*
%TA.AperFunction,Conductor*%
D31*
G36*
X169122145Y-57910734D02*
G01*
X169124950Y-57933909D01*
X169127149Y-57957173D01*
X169127892Y-57961562D01*
X169326687Y-59100605D01*
X169333042Y-59126480D01*
X169339146Y-59152502D01*
X169340477Y-59156749D01*
X169692018Y-60258273D01*
X169701839Y-60283079D01*
X169711405Y-60307999D01*
X169713300Y-60312026D01*
X170211083Y-61355649D01*
X170224165Y-61378866D01*
X170237039Y-61402284D01*
X170239464Y-61406017D01*
X170874277Y-62372427D01*
X170890384Y-62393647D01*
X170906322Y-62415108D01*
X170909231Y-62418478D01*
X171564629Y-63169775D01*
X171567325Y-74953659D01*
X171491401Y-74840030D01*
X171379970Y-74728599D01*
X171248942Y-74641049D01*
X171103351Y-74580743D01*
X170948793Y-74550000D01*
X170791207Y-74550000D01*
X170636649Y-74580743D01*
X170491058Y-74641049D01*
X170484954Y-74645128D01*
X170429751Y-74628382D01*
X170325000Y-74618065D01*
X170055000Y-74618065D01*
X169950249Y-74628382D01*
X169849524Y-74658937D01*
X169756695Y-74708555D01*
X169680000Y-74771497D01*
X169603305Y-74708555D01*
X169510476Y-74658937D01*
X169452085Y-74641224D01*
X169451992Y-74641049D01*
X169415432Y-74572649D01*
X169370076Y-74517383D01*
X169365745Y-74512105D01*
X169365744Y-74512104D01*
X169349131Y-74491861D01*
X169328888Y-74475248D01*
X166439757Y-71586118D01*
X166423139Y-71565869D01*
X166342351Y-71499568D01*
X166250181Y-71450303D01*
X166150171Y-71419965D01*
X166072227Y-71412288D01*
X166046164Y-71409721D01*
X166020101Y-71412288D01*
X161971935Y-71412288D01*
X161971935Y-71125000D01*
X161961618Y-71020249D01*
X161931063Y-70919524D01*
X161881445Y-70826695D01*
X161876411Y-70820561D01*
X161900602Y-70791083D01*
X161950683Y-70697390D01*
X161981522Y-70595726D01*
X161991935Y-70490000D01*
X161991935Y-70150000D01*
X161987386Y-70103808D01*
X162042332Y-70021574D01*
X162095099Y-69894182D01*
X162122000Y-69758944D01*
X162122000Y-69621056D01*
X162095099Y-69485818D01*
X162042332Y-69358426D01*
X162025845Y-69333750D01*
X162638065Y-69333750D01*
X162638065Y-69771250D01*
X162649991Y-69892340D01*
X162685312Y-70008776D01*
X162740000Y-70111091D01*
X162740000Y-70264263D01*
X162738669Y-70277774D01*
X162730000Y-70321358D01*
X162730000Y-70365794D01*
X162725646Y-70410000D01*
X162730000Y-70454206D01*
X162730000Y-70498642D01*
X162738669Y-70542226D01*
X162743023Y-70586430D01*
X162755916Y-70628931D01*
X162764586Y-70672520D01*
X162781596Y-70713586D01*
X162794487Y-70756081D01*
X162815420Y-70795245D01*
X162832430Y-70836310D01*
X162857123Y-70873265D01*
X162878057Y-70912431D01*
X162906230Y-70946759D01*
X162930924Y-70983717D01*
X162962356Y-71015149D01*
X162990526Y-71049474D01*
X163024851Y-71077644D01*
X163056283Y-71109076D01*
X163093241Y-71133770D01*
X163127569Y-71161943D01*
X163166735Y-71182877D01*
X163203690Y-71207570D01*
X163244755Y-71224580D01*
X163283919Y-71245513D01*
X163326414Y-71258404D01*
X163367480Y-71275414D01*
X163411069Y-71284084D01*
X163453570Y-71296977D01*
X163497774Y-71301331D01*
X163541358Y-71310000D01*
X163585794Y-71310000D01*
X163630000Y-71314354D01*
X163674206Y-71310000D01*
X163718642Y-71310000D01*
X163762226Y-71301331D01*
X163806430Y-71296977D01*
X163848931Y-71284084D01*
X163892520Y-71275414D01*
X163933586Y-71258404D01*
X163976081Y-71245513D01*
X164015245Y-71224580D01*
X164056310Y-71207570D01*
X164093265Y-71182877D01*
X164132431Y-71161943D01*
X164166762Y-71133768D01*
X164203717Y-71109076D01*
X164245140Y-71067653D01*
X164279475Y-71039475D01*
X164307653Y-71005140D01*
X164329076Y-70983717D01*
X164345908Y-70958525D01*
X164391943Y-70902432D01*
X164426149Y-70838436D01*
X164427570Y-70836310D01*
X164428549Y-70833947D01*
X164475514Y-70746081D01*
X164526977Y-70576431D01*
X164540000Y-70444207D01*
X164540000Y-70444205D01*
X164544354Y-70400001D01*
X164540000Y-70355797D01*
X164540000Y-70111091D01*
X164594688Y-70008776D01*
X164630009Y-69892340D01*
X164641935Y-69771250D01*
X164641935Y-69333750D01*
X164630009Y-69212660D01*
X164594688Y-69096224D01*
X164537331Y-68988916D01*
X164460141Y-68894859D01*
X164366084Y-68817669D01*
X164258776Y-68760312D01*
X164142340Y-68724991D01*
X164021250Y-68713065D01*
X163973154Y-68713065D01*
X163816430Y-68665523D01*
X163640000Y-68648146D01*
X163463569Y-68665523D01*
X163306845Y-68713065D01*
X163258750Y-68713065D01*
X163137660Y-68724991D01*
X163021224Y-68760312D01*
X162913916Y-68817669D01*
X162819859Y-68894859D01*
X162742669Y-68988916D01*
X162685312Y-69096224D01*
X162649991Y-69212660D01*
X162638065Y-69333750D01*
X162025845Y-69333750D01*
X161965726Y-69243776D01*
X161868224Y-69146274D01*
X161753574Y-69069668D01*
X161626182Y-69016901D01*
X161490944Y-68990000D01*
X161353056Y-68990000D01*
X161217818Y-69016901D01*
X161090426Y-69069668D01*
X160975776Y-69146274D01*
X160878274Y-69243776D01*
X160801668Y-69358426D01*
X160748901Y-69485818D01*
X160722000Y-69621056D01*
X160722000Y-69673441D01*
X160718682Y-69684379D01*
X160712446Y-69747694D01*
X160707097Y-69802000D01*
X160710000Y-69831474D01*
X160710000Y-69866499D01*
X160669317Y-69942610D01*
X160638478Y-70044274D01*
X160629296Y-70137500D01*
X159877954Y-70137500D01*
X159873664Y-70129474D01*
X159867155Y-70121543D01*
X159870981Y-70112306D01*
X159895000Y-69991557D01*
X159895000Y-69868443D01*
X159870981Y-69747694D01*
X159823868Y-69633952D01*
X159755469Y-69531586D01*
X159668414Y-69444531D01*
X159566048Y-69376132D01*
X159452306Y-69329019D01*
X159331557Y-69305000D01*
X159283960Y-69305000D01*
X159342736Y-69246224D01*
X159419342Y-69131574D01*
X159472109Y-69004182D01*
X159479249Y-68968288D01*
X159526621Y-68920916D01*
X159527390Y-68920683D01*
X159621083Y-68870602D01*
X159703206Y-68803206D01*
X159770602Y-68721083D01*
X159820683Y-68627390D01*
X159851522Y-68525726D01*
X159861935Y-68420000D01*
X159861935Y-68140000D01*
X159851522Y-68034274D01*
X159820683Y-67932610D01*
X159770602Y-67838917D01*
X159703206Y-67756794D01*
X159621083Y-67689398D01*
X159527390Y-67639317D01*
X159425726Y-67608478D01*
X159320000Y-67598065D01*
X158980000Y-67598065D01*
X158874274Y-67608478D01*
X158772610Y-67639317D01*
X158678917Y-67689398D01*
X158596794Y-67756794D01*
X158529398Y-67838917D01*
X158479317Y-67932610D01*
X158448478Y-68034274D01*
X158438065Y-68140000D01*
X158438065Y-68199293D01*
X158352786Y-68256274D01*
X158255284Y-68353776D01*
X158191935Y-68448585D01*
X158191935Y-68445000D01*
X158181618Y-68340249D01*
X158151063Y-68239524D01*
X158101445Y-68146695D01*
X158034670Y-68065330D01*
X157953305Y-67998555D01*
X157860476Y-67948937D01*
X157759751Y-67918382D01*
X157655000Y-67908065D01*
X157505171Y-67908065D01*
X156805856Y-67208750D01*
X162638065Y-67208750D01*
X162638065Y-67646250D01*
X162649991Y-67767340D01*
X162685312Y-67883776D01*
X162742669Y-67991084D01*
X162819859Y-68085141D01*
X162913916Y-68162331D01*
X163021224Y-68219688D01*
X163137660Y-68255009D01*
X163258750Y-68266935D01*
X163306845Y-68266935D01*
X163463569Y-68314477D01*
X163640000Y-68331854D01*
X163816430Y-68314477D01*
X163973154Y-68266935D01*
X164021250Y-68266935D01*
X164142340Y-68255009D01*
X164258776Y-68219688D01*
X164366084Y-68162331D01*
X164460141Y-68085141D01*
X164537331Y-67991084D01*
X164594688Y-67883776D01*
X164630009Y-67767340D01*
X164641935Y-67646250D01*
X164641935Y-67208750D01*
X164630009Y-67087660D01*
X164594688Y-66971224D01*
X164541725Y-66872137D01*
X164544580Y-66865244D01*
X164565513Y-66826081D01*
X164578403Y-66783587D01*
X164595414Y-66742520D01*
X164604085Y-66698926D01*
X164616976Y-66656431D01*
X164621329Y-66612232D01*
X164630000Y-66568642D01*
X164630000Y-66524205D01*
X164634354Y-66480001D01*
X164630000Y-66435797D01*
X164630000Y-66391358D01*
X164621329Y-66347767D01*
X164616976Y-66303570D01*
X164604086Y-66261077D01*
X164595414Y-66217480D01*
X164578403Y-66176412D01*
X164565513Y-66133919D01*
X164544581Y-66094758D01*
X164527570Y-66053690D01*
X164502874Y-66016729D01*
X164481942Y-65977569D01*
X164453773Y-65943245D01*
X164429076Y-65906283D01*
X164397642Y-65874849D01*
X164369474Y-65840526D01*
X164335151Y-65812358D01*
X164303717Y-65780924D01*
X164266755Y-65756227D01*
X164232431Y-65728058D01*
X164193271Y-65707126D01*
X164156310Y-65682430D01*
X164115242Y-65665419D01*
X164076081Y-65644487D01*
X164033588Y-65631597D01*
X163992520Y-65614586D01*
X163948923Y-65605914D01*
X163906430Y-65593024D01*
X163862233Y-65588671D01*
X163818642Y-65580000D01*
X163774203Y-65580000D01*
X163729999Y-65575646D01*
X163685795Y-65580000D01*
X163641358Y-65580000D01*
X163597768Y-65588671D01*
X163553569Y-65593024D01*
X163511074Y-65605915D01*
X163467480Y-65614586D01*
X163426413Y-65631597D01*
X163383919Y-65644487D01*
X163344756Y-65665420D01*
X163303690Y-65682430D01*
X163266732Y-65707124D01*
X163227568Y-65728058D01*
X163193239Y-65756231D01*
X163156283Y-65780924D01*
X163034855Y-65902352D01*
X163000526Y-65930525D01*
X162972348Y-65964860D01*
X162972345Y-65964863D01*
X162888057Y-66067569D01*
X162804487Y-66223919D01*
X162753023Y-66393570D01*
X162735646Y-66570000D01*
X162740000Y-66614206D01*
X162740000Y-66868909D01*
X162685312Y-66971224D01*
X162649991Y-67087660D01*
X162638065Y-67208750D01*
X156805856Y-67208750D01*
X155355389Y-65758283D01*
X155366048Y-65753868D01*
X155468414Y-65685469D01*
X155555469Y-65598414D01*
X155623868Y-65496048D01*
X155670981Y-65382306D01*
X155695000Y-65261557D01*
X155695000Y-65138443D01*
X155672107Y-65023357D01*
X155711063Y-64950476D01*
X155741618Y-64849751D01*
X155751935Y-64745000D01*
X155751935Y-64475000D01*
X155741618Y-64370249D01*
X155711063Y-64269524D01*
X155661445Y-64176695D01*
X155598503Y-64100000D01*
X155661445Y-64023305D01*
X155711063Y-63930476D01*
X155741618Y-63829751D01*
X155751935Y-63725000D01*
X155751935Y-63515000D01*
X156048065Y-63515000D01*
X156048065Y-63785000D01*
X156058382Y-63889751D01*
X156088937Y-63990476D01*
X156138555Y-64083305D01*
X156201497Y-64160000D01*
X156138555Y-64236695D01*
X156088937Y-64329524D01*
X156058382Y-64430249D01*
X156048065Y-64535000D01*
X156048065Y-64805000D01*
X156058382Y-64909751D01*
X156088937Y-65010476D01*
X156138555Y-65103305D01*
X156150414Y-65117756D01*
X156109019Y-65217694D01*
X156085000Y-65338443D01*
X156085000Y-65461557D01*
X156109019Y-65582306D01*
X156156132Y-65696048D01*
X156224531Y-65798414D01*
X156311586Y-65885469D01*
X156413952Y-65953868D01*
X156527694Y-66000981D01*
X156648443Y-66025000D01*
X156771557Y-66025000D01*
X156892306Y-66000981D01*
X157006048Y-65953868D01*
X157108414Y-65885469D01*
X157195469Y-65798414D01*
X157263868Y-65696048D01*
X157278014Y-65661897D01*
X157331586Y-65715469D01*
X157433952Y-65783868D01*
X157547694Y-65830981D01*
X157668443Y-65855000D01*
X157791557Y-65855000D01*
X157912306Y-65830981D01*
X158026048Y-65783868D01*
X158128414Y-65715469D01*
X158215469Y-65628414D01*
X158283868Y-65526048D01*
X158330981Y-65412306D01*
X158349836Y-65317519D01*
X158409751Y-65311618D01*
X158510476Y-65281063D01*
X158603305Y-65231445D01*
X158684670Y-65164670D01*
X158751445Y-65083305D01*
X158801063Y-64990476D01*
X158831618Y-64889751D01*
X158841935Y-64785000D01*
X158841935Y-64775000D01*
X158881557Y-64775000D01*
X159002306Y-64750981D01*
X159116048Y-64703868D01*
X159218414Y-64635469D01*
X159305469Y-64548414D01*
X159373868Y-64446048D01*
X159420981Y-64332306D01*
X159439898Y-64237208D01*
X161036187Y-62640920D01*
X161055264Y-62625264D01*
X161117746Y-62549129D01*
X161137775Y-62511657D01*
X161292097Y-62447735D01*
X161496828Y-62310938D01*
X161670938Y-62136828D01*
X161807735Y-61932097D01*
X161901963Y-61704611D01*
X161950000Y-61463114D01*
X161950000Y-61216886D01*
X161990000Y-61216886D01*
X161990000Y-61463114D01*
X162038037Y-61704611D01*
X162132265Y-61932097D01*
X162269062Y-62136828D01*
X162443172Y-62310938D01*
X162647903Y-62447735D01*
X162875389Y-62541963D01*
X163116886Y-62590000D01*
X163363114Y-62590000D01*
X163604611Y-62541963D01*
X163832097Y-62447735D01*
X164036828Y-62310938D01*
X164210938Y-62136828D01*
X164347735Y-61932097D01*
X164441963Y-61704611D01*
X164490000Y-61463114D01*
X164490000Y-61216886D01*
X164530000Y-61216886D01*
X164530000Y-61463114D01*
X164578037Y-61704611D01*
X164672265Y-61932097D01*
X164809062Y-62136828D01*
X164983172Y-62310938D01*
X165187903Y-62447735D01*
X165415389Y-62541963D01*
X165656886Y-62590000D01*
X165903114Y-62590000D01*
X166144611Y-62541963D01*
X166372097Y-62447735D01*
X166576828Y-62310938D01*
X166750938Y-62136828D01*
X166887735Y-61932097D01*
X166981963Y-61704611D01*
X167030000Y-61463114D01*
X167030000Y-61216886D01*
X166981963Y-60975389D01*
X166887735Y-60747903D01*
X166750938Y-60543172D01*
X166576828Y-60369062D01*
X166372097Y-60232265D01*
X166144611Y-60138037D01*
X165903114Y-60090000D01*
X165656886Y-60090000D01*
X165415389Y-60138037D01*
X165187903Y-60232265D01*
X164983172Y-60369062D01*
X164809062Y-60543172D01*
X164672265Y-60747903D01*
X164578037Y-60975389D01*
X164530000Y-61216886D01*
X164490000Y-61216886D01*
X164441963Y-60975389D01*
X164347735Y-60747903D01*
X164210938Y-60543172D01*
X164036828Y-60369062D01*
X163832097Y-60232265D01*
X163604611Y-60138037D01*
X163363114Y-60090000D01*
X163116886Y-60090000D01*
X162875389Y-60138037D01*
X162647903Y-60232265D01*
X162443172Y-60369062D01*
X162269062Y-60543172D01*
X162132265Y-60747903D01*
X162038037Y-60975389D01*
X161990000Y-61216886D01*
X161950000Y-61216886D01*
X161901963Y-60975389D01*
X161807735Y-60747903D01*
X161670938Y-60543172D01*
X161496828Y-60369062D01*
X161292097Y-60232265D01*
X161064611Y-60138037D01*
X160823114Y-60090000D01*
X160576886Y-60090000D01*
X160335389Y-60138037D01*
X160107903Y-60232265D01*
X159903172Y-60369062D01*
X159729062Y-60543172D01*
X159592265Y-60747903D01*
X159498037Y-60975389D01*
X159450000Y-61216886D01*
X159450000Y-61463114D01*
X159498037Y-61704611D01*
X159592265Y-61932097D01*
X159729062Y-62136828D01*
X159903172Y-62310938D01*
X159932416Y-62330478D01*
X158835297Y-63427598D01*
X158831618Y-63390249D01*
X158801063Y-63289524D01*
X158751445Y-63196695D01*
X158684670Y-63115330D01*
X158620000Y-63062256D01*
X158620000Y-62502451D01*
X158752097Y-62447735D01*
X158956828Y-62310938D01*
X159130938Y-62136828D01*
X159267735Y-61932097D01*
X159361963Y-61704611D01*
X159410000Y-61463114D01*
X159410000Y-61216886D01*
X159361963Y-60975389D01*
X159267735Y-60747903D01*
X159130938Y-60543172D01*
X158956828Y-60369062D01*
X158752097Y-60232265D01*
X158524611Y-60138037D01*
X158283114Y-60090000D01*
X158036886Y-60090000D01*
X157795389Y-60138037D01*
X157567903Y-60232265D01*
X157363172Y-60369062D01*
X157270000Y-60462234D01*
X157270000Y-60397105D01*
X157703291Y-59963815D01*
X157795389Y-60001963D01*
X158036886Y-60050000D01*
X158283114Y-60050000D01*
X158524611Y-60001963D01*
X158752097Y-59907735D01*
X158956828Y-59770938D01*
X159130938Y-59596828D01*
X159267735Y-59392097D01*
X159361963Y-59164611D01*
X159410000Y-58923114D01*
X159410000Y-58676886D01*
X159450000Y-58676886D01*
X159450000Y-58923114D01*
X159498037Y-59164611D01*
X159592265Y-59392097D01*
X159729062Y-59596828D01*
X159903172Y-59770938D01*
X160107903Y-59907735D01*
X160335389Y-60001963D01*
X160576886Y-60050000D01*
X160823114Y-60050000D01*
X161064611Y-60001963D01*
X161292097Y-59907735D01*
X161496828Y-59770938D01*
X161670938Y-59596828D01*
X161807735Y-59392097D01*
X161901963Y-59164611D01*
X161950000Y-58923114D01*
X161950000Y-58676886D01*
X161990000Y-58676886D01*
X161990000Y-58923114D01*
X162038037Y-59164611D01*
X162132265Y-59392097D01*
X162269062Y-59596828D01*
X162443172Y-59770938D01*
X162647903Y-59907735D01*
X162875389Y-60001963D01*
X163116886Y-60050000D01*
X163363114Y-60050000D01*
X163604611Y-60001963D01*
X163832097Y-59907735D01*
X164036828Y-59770938D01*
X164210938Y-59596828D01*
X164347735Y-59392097D01*
X164441963Y-59164611D01*
X164490000Y-58923114D01*
X164490000Y-58676886D01*
X164441963Y-58435389D01*
X164347735Y-58207903D01*
X164210938Y-58003172D01*
X164157766Y-57950000D01*
X164528065Y-57950000D01*
X164528065Y-59650000D01*
X164535788Y-59728414D01*
X164558660Y-59803814D01*
X164595803Y-59873303D01*
X164645789Y-59934211D01*
X164706697Y-59984197D01*
X164776186Y-60021340D01*
X164851586Y-60044212D01*
X164930000Y-60051935D01*
X166630000Y-60051935D01*
X166708414Y-60044212D01*
X166783814Y-60021340D01*
X166853303Y-59984197D01*
X166914211Y-59934211D01*
X166964197Y-59873303D01*
X167001340Y-59803814D01*
X167024212Y-59728414D01*
X167031935Y-59650000D01*
X167031935Y-57950000D01*
X167024212Y-57871586D01*
X167001340Y-57796186D01*
X166964197Y-57726697D01*
X166914211Y-57665789D01*
X166853303Y-57615803D01*
X166783814Y-57578660D01*
X166708414Y-57555788D01*
X166630000Y-57548065D01*
X164930000Y-57548065D01*
X164851586Y-57555788D01*
X164776186Y-57578660D01*
X164706697Y-57615803D01*
X164645789Y-57665789D01*
X164595803Y-57726697D01*
X164558660Y-57796186D01*
X164535788Y-57871586D01*
X164528065Y-57950000D01*
X164157766Y-57950000D01*
X164036828Y-57829062D01*
X163832097Y-57692265D01*
X163604611Y-57598037D01*
X163363114Y-57550000D01*
X163116886Y-57550000D01*
X162875389Y-57598037D01*
X162647903Y-57692265D01*
X162443172Y-57829062D01*
X162269062Y-58003172D01*
X162132265Y-58207903D01*
X162038037Y-58435389D01*
X161990000Y-58676886D01*
X161950000Y-58676886D01*
X161901963Y-58435389D01*
X161807735Y-58207903D01*
X161670938Y-58003172D01*
X161496828Y-57829062D01*
X161292097Y-57692265D01*
X161064611Y-57598037D01*
X160823114Y-57550000D01*
X160576886Y-57550000D01*
X160335389Y-57598037D01*
X160107903Y-57692265D01*
X159903172Y-57829062D01*
X159729062Y-58003172D01*
X159592265Y-58207903D01*
X159498037Y-58435389D01*
X159450000Y-58676886D01*
X159410000Y-58676886D01*
X159361963Y-58435389D01*
X159267735Y-58207903D01*
X159130938Y-58003172D01*
X158956828Y-57829062D01*
X158752097Y-57692265D01*
X158524611Y-57598037D01*
X158283114Y-57550000D01*
X158036886Y-57550000D01*
X157795389Y-57598037D01*
X157567903Y-57692265D01*
X157363172Y-57829062D01*
X157189062Y-58003172D01*
X157052265Y-58207903D01*
X156958037Y-58435389D01*
X156910000Y-58676886D01*
X156910000Y-58923114D01*
X156958037Y-59164611D01*
X156996185Y-59256709D01*
X156433819Y-59819076D01*
X156414737Y-59834736D01*
X156352255Y-59910871D01*
X156313061Y-59984197D01*
X156305826Y-59997733D01*
X156277235Y-60091983D01*
X156267581Y-60190000D01*
X156270001Y-60214570D01*
X156270000Y-63082256D01*
X156205330Y-63135330D01*
X156138555Y-63216695D01*
X156088937Y-63309524D01*
X156058382Y-63410249D01*
X156048065Y-63515000D01*
X155751935Y-63515000D01*
X155751935Y-63455000D01*
X155741618Y-63350249D01*
X155711063Y-63249524D01*
X155661445Y-63156695D01*
X155594670Y-63075330D01*
X155513305Y-63008555D01*
X155420476Y-62958937D01*
X155319751Y-62928382D01*
X155215000Y-62918065D01*
X155065171Y-62918065D01*
X155042999Y-62895893D01*
X155042999Y-60084106D01*
X155163291Y-59963815D01*
X155255389Y-60001963D01*
X155496886Y-60050000D01*
X155743114Y-60050000D01*
X155984611Y-60001963D01*
X156212097Y-59907735D01*
X156416828Y-59770938D01*
X156590938Y-59596828D01*
X156727735Y-59392097D01*
X156821963Y-59164611D01*
X156870000Y-58923114D01*
X156870000Y-58676886D01*
X156821963Y-58435389D01*
X156727735Y-58207903D01*
X156590938Y-58003172D01*
X156416828Y-57829062D01*
X156212097Y-57692265D01*
X155984611Y-57598037D01*
X155743114Y-57550000D01*
X155496886Y-57550000D01*
X155255389Y-57598037D01*
X155027903Y-57692265D01*
X154823172Y-57829062D01*
X154649062Y-58003172D01*
X154512265Y-58207903D01*
X154418037Y-58435389D01*
X154370000Y-58676886D01*
X154370000Y-58923114D01*
X154418037Y-59164611D01*
X154456185Y-59256709D01*
X154206818Y-59506077D01*
X154187736Y-59521737D01*
X154125254Y-59597872D01*
X154097391Y-59650000D01*
X154078825Y-59684734D01*
X154050234Y-59778984D01*
X154040580Y-59877001D01*
X154043000Y-59901571D01*
X154043000Y-60535234D01*
X153876828Y-60369062D01*
X153672097Y-60232265D01*
X153444611Y-60138037D01*
X153203114Y-60090000D01*
X152956886Y-60090000D01*
X152715389Y-60138037D01*
X152487903Y-60232265D01*
X152283172Y-60369062D01*
X152109062Y-60543172D01*
X151972265Y-60747903D01*
X151878037Y-60975389D01*
X151830000Y-61216886D01*
X151830000Y-61463114D01*
X151878037Y-61704611D01*
X151916359Y-61797129D01*
X151872255Y-61850871D01*
X151856488Y-61880369D01*
X151825826Y-61937733D01*
X151797235Y-62031983D01*
X151787581Y-62130000D01*
X151790001Y-62154570D01*
X151790000Y-63123290D01*
X151775330Y-63135330D01*
X151708555Y-63216695D01*
X151658937Y-63309524D01*
X151628382Y-63410249D01*
X151618065Y-63515000D01*
X151618065Y-63885000D01*
X151628382Y-63989751D01*
X151658937Y-64090476D01*
X151708555Y-64183305D01*
X151721259Y-64198785D01*
X151678414Y-64185788D01*
X151600000Y-64178065D01*
X151540000Y-64178065D01*
X151540000Y-63660707D01*
X151528424Y-63543173D01*
X151482679Y-63392372D01*
X151408393Y-63253394D01*
X151308422Y-63131578D01*
X151186605Y-63031607D01*
X151047627Y-62957321D01*
X150896826Y-62911576D01*
X150740000Y-62896130D01*
X150583173Y-62911576D01*
X150432372Y-62957321D01*
X150293394Y-63031607D01*
X150171578Y-63131578D01*
X150071607Y-63253395D01*
X149997321Y-63392373D01*
X149951576Y-63543174D01*
X149940000Y-63660708D01*
X149940000Y-64275919D01*
X149915789Y-64295789D01*
X149865803Y-64356697D01*
X149828660Y-64426186D01*
X149805788Y-64501586D01*
X149798065Y-64580000D01*
X149798065Y-65780000D01*
X149800527Y-65805000D01*
X149798443Y-65805000D01*
X149677694Y-65829019D01*
X149563952Y-65876132D01*
X149461586Y-65944531D01*
X149374531Y-66031586D01*
X149306132Y-66133952D01*
X149259019Y-66247694D01*
X149235000Y-66368443D01*
X149235000Y-66491557D01*
X149259019Y-66612306D01*
X149306132Y-66726048D01*
X149374531Y-66828414D01*
X149461586Y-66915469D01*
X149542286Y-66969391D01*
X149798065Y-67225171D01*
X149798065Y-67680000D01*
X149805788Y-67758414D01*
X149828660Y-67833814D01*
X149865803Y-67903303D01*
X149915789Y-67964211D01*
X149976697Y-68014197D01*
X150046186Y-68051340D01*
X150121586Y-68074212D01*
X150195086Y-68081451D01*
X150104649Y-68108885D01*
X150000583Y-68164509D01*
X149909368Y-68239368D01*
X149834509Y-68330583D01*
X149778885Y-68434649D01*
X149744631Y-68547568D01*
X149733065Y-68665000D01*
X149733065Y-69215000D01*
X149744631Y-69332432D01*
X149778885Y-69445351D01*
X149834509Y-69549417D01*
X149909368Y-69640632D01*
X150000583Y-69715491D01*
X150010000Y-69720525D01*
X150010001Y-70313065D01*
X149520000Y-70313065D01*
X149441586Y-70320788D01*
X149366186Y-70343660D01*
X149296697Y-70380803D01*
X149235789Y-70430789D01*
X149185803Y-70491697D01*
X149148660Y-70561186D01*
X149125788Y-70636586D01*
X149118065Y-70715000D01*
X149118065Y-71715000D01*
X149125788Y-71793414D01*
X149143711Y-71852500D01*
X149125788Y-71911586D01*
X149118065Y-71990000D01*
X149118065Y-73140000D01*
X149125788Y-73218414D01*
X149148660Y-73293814D01*
X149185803Y-73363303D01*
X149235789Y-73424211D01*
X149296697Y-73474197D01*
X149366186Y-73511340D01*
X149441586Y-73534212D01*
X149520000Y-73541935D01*
X149520001Y-75585430D01*
X149517581Y-75610000D01*
X149527235Y-75708017D01*
X149552445Y-75791120D01*
X149555826Y-75802267D01*
X149602255Y-75889129D01*
X149664737Y-75965264D01*
X149683819Y-75980924D01*
X151299079Y-77596186D01*
X151314736Y-77615264D01*
X151390871Y-77677746D01*
X151477733Y-77724175D01*
X151571983Y-77752765D01*
X151645440Y-77760000D01*
X151645449Y-77760000D01*
X151669999Y-77762418D01*
X151694549Y-77760000D01*
X154042895Y-77760000D01*
X154381027Y-78098132D01*
X154311586Y-78144531D01*
X154224531Y-78231586D01*
X154156132Y-78333952D01*
X154109019Y-78447694D01*
X154085000Y-78568443D01*
X154085000Y-78667298D01*
X154009368Y-78729368D01*
X153934509Y-78820583D01*
X153878885Y-78924649D01*
X153844631Y-79037568D01*
X153833065Y-79155000D01*
X153833065Y-79555000D01*
X153844631Y-79672432D01*
X153878885Y-79785351D01*
X153934509Y-79889417D01*
X154009368Y-79980632D01*
X154100583Y-80055491D01*
X154204649Y-80111115D01*
X154317568Y-80145369D01*
X154435000Y-80156935D01*
X154985000Y-80156935D01*
X155102432Y-80145369D01*
X155215351Y-80111115D01*
X155319417Y-80055491D01*
X155410632Y-79980632D01*
X155485491Y-79889417D01*
X155541115Y-79785351D01*
X155575369Y-79672432D01*
X155586935Y-79555000D01*
X155586935Y-79155000D01*
X155575369Y-79037568D01*
X155541115Y-78924649D01*
X155485491Y-78820583D01*
X155462094Y-78792074D01*
X155506048Y-78773868D01*
X155608414Y-78705469D01*
X155695469Y-78618414D01*
X155731730Y-78564146D01*
X155811418Y-78588320D01*
X155929039Y-78599904D01*
X155958515Y-78597001D01*
X156176473Y-78597001D01*
X157152002Y-79572531D01*
X157152001Y-88407001D01*
X157088149Y-88364336D01*
X156870000Y-88273976D01*
X156870000Y-81710524D01*
X156879417Y-81705491D01*
X156970632Y-81630632D01*
X157045491Y-81539417D01*
X157101115Y-81435351D01*
X157135369Y-81322432D01*
X157146935Y-81205000D01*
X157146935Y-80805000D01*
X157135369Y-80687568D01*
X157101115Y-80574649D01*
X157045491Y-80470583D01*
X156970632Y-80379368D01*
X156879417Y-80304509D01*
X156775351Y-80248885D01*
X156662432Y-80214631D01*
X156545000Y-80203065D01*
X155995000Y-80203065D01*
X155877568Y-80214631D01*
X155764649Y-80248885D01*
X155660583Y-80304509D01*
X155569368Y-80379368D01*
X155494509Y-80470583D01*
X155490000Y-80479019D01*
X155485491Y-80470583D01*
X155410632Y-80379368D01*
X155319417Y-80304509D01*
X155215351Y-80248885D01*
X155102432Y-80214631D01*
X154985000Y-80203065D01*
X154435000Y-80203065D01*
X154317568Y-80214631D01*
X154204649Y-80248885D01*
X154100583Y-80304509D01*
X154009368Y-80379368D01*
X153934509Y-80470583D01*
X153878885Y-80574649D01*
X153844631Y-80687568D01*
X153833065Y-80805000D01*
X153833065Y-81205000D01*
X153844631Y-81322432D01*
X153878885Y-81435351D01*
X153934509Y-81539417D01*
X154009368Y-81630632D01*
X154100583Y-81705491D01*
X154110000Y-81710525D01*
X154110001Y-86015323D01*
X154109019Y-86017694D01*
X154085000Y-86138443D01*
X154085000Y-86261557D01*
X154109019Y-86382306D01*
X154110000Y-86384674D01*
X154110001Y-98580516D01*
X154107097Y-98610000D01*
X154118682Y-98727620D01*
X154152991Y-98840721D01*
X154208705Y-98944955D01*
X154283684Y-99036317D01*
X154306582Y-99055109D01*
X155104958Y-99853486D01*
X155078801Y-99916635D01*
X155025000Y-100187112D01*
X155025000Y-100462888D01*
X155078801Y-100733365D01*
X155184336Y-100988149D01*
X155337549Y-101217448D01*
X155532552Y-101412451D01*
X155761851Y-101565664D01*
X155832674Y-101595000D01*
X155761851Y-101624336D01*
X155532552Y-101777549D01*
X155337549Y-101972552D01*
X155184336Y-102201851D01*
X155078801Y-102456635D01*
X155025000Y-102727112D01*
X155025000Y-103002888D01*
X155078801Y-103273365D01*
X155184336Y-103528149D01*
X155337549Y-103757448D01*
X155532552Y-103952451D01*
X155761851Y-104105664D01*
X156016635Y-104211199D01*
X156287112Y-104265000D01*
X156562888Y-104265000D01*
X156833365Y-104211199D01*
X157088149Y-104105664D01*
X157317448Y-103952451D01*
X157512451Y-103757448D01*
X157665664Y-103528149D01*
X157771199Y-103273365D01*
X157825000Y-103002888D01*
X157825000Y-102727112D01*
X157771199Y-102456635D01*
X157665664Y-102201851D01*
X157512451Y-101972552D01*
X157317448Y-101777549D01*
X157288217Y-101758017D01*
X158485000Y-101758017D01*
X158485000Y-102151983D01*
X158561859Y-102538378D01*
X158712623Y-102902355D01*
X158931499Y-103229926D01*
X159210074Y-103508501D01*
X159537645Y-103727377D01*
X159901622Y-103878141D01*
X160288017Y-103955000D01*
X160681983Y-103955000D01*
X161068378Y-103878141D01*
X161432355Y-103727377D01*
X161759926Y-103508501D01*
X162038501Y-103229926D01*
X162257377Y-102902355D01*
X162408141Y-102538378D01*
X162485000Y-102151983D01*
X162485000Y-101758017D01*
X162408141Y-101371622D01*
X162257377Y-101007645D01*
X162038501Y-100680074D01*
X161759926Y-100401499D01*
X161432355Y-100182623D01*
X161068378Y-100031859D01*
X160681983Y-99955000D01*
X160288017Y-99955000D01*
X159901622Y-100031859D01*
X159537645Y-100182623D01*
X159210074Y-100401499D01*
X158931499Y-100680074D01*
X158712623Y-101007645D01*
X158561859Y-101371622D01*
X158485000Y-101758017D01*
X157288217Y-101758017D01*
X157088149Y-101624336D01*
X157017326Y-101595000D01*
X157088149Y-101565664D01*
X157317448Y-101412451D01*
X157512451Y-101217448D01*
X157665664Y-100988149D01*
X157771199Y-100733365D01*
X157825000Y-100462888D01*
X157825000Y-100187112D01*
X157771199Y-99916635D01*
X157665664Y-99661851D01*
X157512451Y-99432552D01*
X157317448Y-99237549D01*
X157088149Y-99084336D01*
X156833365Y-98978801D01*
X156562888Y-98925000D01*
X156287112Y-98925000D01*
X156016635Y-98978801D01*
X155953486Y-99004958D01*
X155310000Y-98361473D01*
X155310000Y-92996218D01*
X155337549Y-93037448D01*
X155532552Y-93232451D01*
X155761851Y-93385664D01*
X156016635Y-93491199D01*
X156287112Y-93545000D01*
X156562888Y-93545000D01*
X156833365Y-93491199D01*
X157088149Y-93385664D01*
X157317448Y-93232451D01*
X157512451Y-93037448D01*
X157665664Y-92808149D01*
X157771199Y-92553365D01*
X157825000Y-92282888D01*
X157825000Y-92007112D01*
X157771199Y-91736635D01*
X157745042Y-91673486D01*
X158155421Y-91263107D01*
X158178318Y-91244316D01*
X158253297Y-91152954D01*
X158304292Y-91057549D01*
X158309011Y-91048721D01*
X158343319Y-90935620D01*
X158354904Y-90817999D01*
X158352001Y-90788525D01*
X158352001Y-90328017D01*
X158485000Y-90328017D01*
X158485000Y-90721983D01*
X158561859Y-91108378D01*
X158712623Y-91472355D01*
X158931499Y-91799926D01*
X159210074Y-92078501D01*
X159537645Y-92297377D01*
X159901622Y-92448141D01*
X160288017Y-92525000D01*
X160681983Y-92525000D01*
X161068378Y-92448141D01*
X161432355Y-92297377D01*
X161759926Y-92078501D01*
X162038501Y-91799926D01*
X162257377Y-91472355D01*
X162408141Y-91108378D01*
X162485000Y-90721983D01*
X162485000Y-90328017D01*
X162408141Y-89941622D01*
X162257377Y-89577645D01*
X162038501Y-89250074D01*
X161759926Y-88971499D01*
X161432355Y-88752623D01*
X161068378Y-88601859D01*
X160681983Y-88525000D01*
X160288017Y-88525000D01*
X159901622Y-88601859D01*
X159537645Y-88752623D01*
X159210074Y-88971499D01*
X158931499Y-89250074D01*
X158712623Y-89577645D01*
X158561859Y-89941622D01*
X158485000Y-90328017D01*
X158352001Y-90328017D01*
X158352001Y-79353476D01*
X158354904Y-79324002D01*
X158343319Y-79206381D01*
X158309011Y-79093280D01*
X158274339Y-79028414D01*
X158253297Y-78989047D01*
X158178318Y-78897685D01*
X158155420Y-78878893D01*
X156870113Y-77593587D01*
X156851317Y-77570684D01*
X156759955Y-77495705D01*
X156655721Y-77439991D01*
X156542621Y-77405683D01*
X156454474Y-77397001D01*
X156425000Y-77394098D01*
X156395526Y-77397001D01*
X156177567Y-77397001D01*
X155970000Y-77189435D01*
X155970000Y-77058263D01*
X156005818Y-77073099D01*
X156141056Y-77100000D01*
X156278944Y-77100000D01*
X156414182Y-77073099D01*
X156464410Y-77052294D01*
X156499524Y-77071063D01*
X156600249Y-77101618D01*
X156705000Y-77111935D01*
X156975000Y-77111935D01*
X157079751Y-77101618D01*
X157180476Y-77071063D01*
X157190115Y-77065911D01*
X157178478Y-77104274D01*
X157168065Y-77210000D01*
X157168065Y-77550000D01*
X157178478Y-77655726D01*
X157209317Y-77757390D01*
X157259398Y-77851083D01*
X157326794Y-77933206D01*
X157408917Y-78000602D01*
X157502610Y-78050683D01*
X157604274Y-78081522D01*
X157710000Y-78091935D01*
X157990000Y-78091935D01*
X158095726Y-78081522D01*
X158177441Y-78056734D01*
X158187694Y-78060981D01*
X158308443Y-78085000D01*
X158431557Y-78085000D01*
X158552306Y-78060981D01*
X158666048Y-78013868D01*
X158768414Y-77945469D01*
X158855469Y-77858414D01*
X158923868Y-77756048D01*
X158970981Y-77642306D01*
X158995000Y-77521557D01*
X158995000Y-77398443D01*
X158970981Y-77277694D01*
X158923868Y-77163952D01*
X158855469Y-77061586D01*
X158768414Y-76974531D01*
X158666048Y-76906132D01*
X158552306Y-76859019D01*
X158459001Y-76840459D01*
X158491063Y-76780476D01*
X158521618Y-76679751D01*
X158531935Y-76575000D01*
X158531935Y-76205000D01*
X158521618Y-76100249D01*
X158491063Y-75999524D01*
X158461919Y-75945000D01*
X158491557Y-75945000D01*
X158612306Y-75920981D01*
X158726048Y-75873868D01*
X158731698Y-75870093D01*
X158758826Y-75888219D01*
X158872568Y-75935332D01*
X158993317Y-75959351D01*
X159116431Y-75959351D01*
X159237180Y-75935332D01*
X159350922Y-75888219D01*
X159453288Y-75819820D01*
X159540343Y-75732765D01*
X159608742Y-75630399D01*
X159655855Y-75516657D01*
X159679874Y-75395908D01*
X159679874Y-75383756D01*
X159745526Y-75348664D01*
X159805943Y-75299081D01*
X159867855Y-75391738D01*
X159954910Y-75478793D01*
X160057276Y-75547192D01*
X160171018Y-75594305D01*
X160291767Y-75618324D01*
X160414881Y-75618324D01*
X160535630Y-75594305D01*
X160649372Y-75547192D01*
X160751738Y-75478793D01*
X160838793Y-75391738D01*
X160907192Y-75289372D01*
X160954305Y-75175630D01*
X160978324Y-75054881D01*
X160978324Y-74931767D01*
X160954305Y-74811018D01*
X160907192Y-74697276D01*
X160838793Y-74594910D01*
X160751738Y-74507855D01*
X160665152Y-74450000D01*
X161143065Y-74450000D01*
X161143065Y-74630000D01*
X161155111Y-74752309D01*
X161190788Y-74869918D01*
X161248723Y-74978306D01*
X161326690Y-75073310D01*
X161395001Y-75129371D01*
X161395001Y-75155852D01*
X161359317Y-75222610D01*
X161328478Y-75324274D01*
X161325267Y-75356879D01*
X161291058Y-75371049D01*
X161160030Y-75458599D01*
X161048599Y-75570030D01*
X160961049Y-75701058D01*
X160900743Y-75846649D01*
X160870000Y-76001207D01*
X160870000Y-76158793D01*
X160900743Y-76313351D01*
X160961049Y-76458942D01*
X161048599Y-76589970D01*
X161160030Y-76701401D01*
X161291058Y-76788951D01*
X161436649Y-76849257D01*
X161591207Y-76880000D01*
X161748793Y-76880000D01*
X161903351Y-76849257D01*
X162048942Y-76788951D01*
X162179970Y-76701401D01*
X162291401Y-76589970D01*
X162378951Y-76458942D01*
X162439257Y-76313351D01*
X162460948Y-76204299D01*
X162523206Y-76153206D01*
X162590602Y-76071083D01*
X162640683Y-75977390D01*
X162671522Y-75875726D01*
X162681935Y-75770000D01*
X162681935Y-75430000D01*
X162671522Y-75324274D01*
X162640683Y-75222610D01*
X162595000Y-75137145D01*
X162595000Y-75129370D01*
X162663310Y-75073310D01*
X162741277Y-74978306D01*
X162799212Y-74869918D01*
X162834889Y-74752309D01*
X162846935Y-74630000D01*
X162846935Y-74130000D01*
X162834889Y-74007691D01*
X162813661Y-73937712D01*
X164259073Y-73937712D01*
X165562288Y-75240928D01*
X165562288Y-75622931D01*
X165509524Y-75638937D01*
X165416695Y-75688555D01*
X165340000Y-75751497D01*
X165263305Y-75688555D01*
X165170476Y-75638937D01*
X165069751Y-75608382D01*
X164965000Y-75598065D01*
X164695000Y-75598065D01*
X164590249Y-75608382D01*
X164489524Y-75638937D01*
X164396695Y-75688555D01*
X164315330Y-75755330D01*
X164248555Y-75836695D01*
X164198937Y-75929524D01*
X164168382Y-76030249D01*
X164158065Y-76135000D01*
X164158065Y-76505000D01*
X164168382Y-76609751D01*
X164198937Y-76710476D01*
X164248555Y-76803305D01*
X164254876Y-76811008D01*
X164272990Y-76870721D01*
X164328705Y-76974955D01*
X164380000Y-77037458D01*
X164380000Y-77068793D01*
X164410743Y-77223351D01*
X164471049Y-77368942D01*
X164558599Y-77499970D01*
X164670030Y-77611401D01*
X164801058Y-77698951D01*
X164946649Y-77759257D01*
X165101207Y-77790000D01*
X165258793Y-77790000D01*
X165413351Y-77759257D01*
X165558942Y-77698951D01*
X165567845Y-77693002D01*
X165567844Y-88853516D01*
X164511117Y-89910244D01*
X164490869Y-89926861D01*
X164424568Y-90007649D01*
X164375303Y-90099820D01*
X164363286Y-90139434D01*
X164344965Y-90199829D01*
X164334721Y-90303836D01*
X164337288Y-90329899D01*
X164337289Y-93992226D01*
X164342845Y-94048635D01*
X164342844Y-94882063D01*
X164340305Y-94907844D01*
X164342844Y-94933624D01*
X164342844Y-94933631D01*
X164350441Y-95010761D01*
X164380461Y-95109724D01*
X164429211Y-95200930D01*
X164494817Y-95280871D01*
X164514854Y-95297315D01*
X165622561Y-96405023D01*
X165584958Y-96495804D01*
X165535000Y-96746961D01*
X165535000Y-97003039D01*
X165584958Y-97254196D01*
X165682955Y-97490781D01*
X165825224Y-97703702D01*
X166006298Y-97884776D01*
X166219219Y-98027045D01*
X166455804Y-98125042D01*
X166556140Y-98145000D01*
X166455804Y-98164958D01*
X166219219Y-98262955D01*
X166006298Y-98405224D01*
X165825224Y-98586298D01*
X165682955Y-98799219D01*
X165584958Y-99035804D01*
X165535000Y-99286961D01*
X165535000Y-99543039D01*
X165584958Y-99794196D01*
X165682955Y-100030781D01*
X165825224Y-100243702D01*
X166006298Y-100424776D01*
X166219219Y-100567045D01*
X166455804Y-100665042D01*
X166556140Y-100685000D01*
X166455804Y-100704958D01*
X166219219Y-100802955D01*
X166006298Y-100945224D01*
X165825224Y-101126298D01*
X165682955Y-101339219D01*
X165584958Y-101575804D01*
X165535000Y-101826961D01*
X165535000Y-102083039D01*
X165584958Y-102334196D01*
X165682955Y-102570781D01*
X165825224Y-102783702D01*
X166006298Y-102964776D01*
X166219219Y-103107045D01*
X166450001Y-103202638D01*
X166450000Y-105446269D01*
X166376186Y-105468660D01*
X166306697Y-105505803D01*
X166245789Y-105555789D01*
X166195803Y-105616697D01*
X166158660Y-105686186D01*
X166135788Y-105761586D01*
X166128065Y-105840000D01*
X166128065Y-107540000D01*
X166135788Y-107618414D01*
X166158660Y-107693814D01*
X166195803Y-107763303D01*
X166245789Y-107824211D01*
X166306697Y-107874197D01*
X166376186Y-107911340D01*
X166451586Y-107934212D01*
X166530000Y-107941935D01*
X168230000Y-107941935D01*
X168308414Y-107934212D01*
X168383814Y-107911340D01*
X168453303Y-107874197D01*
X168514211Y-107824211D01*
X168564197Y-107763303D01*
X168601340Y-107693814D01*
X168624212Y-107618414D01*
X168631935Y-107540000D01*
X168631935Y-106638249D01*
X168670000Y-106684632D01*
X168670000Y-106813114D01*
X168718037Y-107054611D01*
X168812265Y-107282097D01*
X168949062Y-107486828D01*
X169123172Y-107660938D01*
X169327903Y-107797735D01*
X169555389Y-107891963D01*
X169796886Y-107940000D01*
X170043114Y-107940000D01*
X170284611Y-107891963D01*
X170512097Y-107797735D01*
X170716828Y-107660938D01*
X170890938Y-107486828D01*
X171027735Y-107282097D01*
X171121963Y-107054611D01*
X171170000Y-106813114D01*
X171170000Y-106566886D01*
X171121963Y-106325389D01*
X171027735Y-106097903D01*
X170890938Y-105893172D01*
X170716828Y-105719062D01*
X170512097Y-105582265D01*
X170284611Y-105488037D01*
X170275000Y-105486125D01*
X170275000Y-101623478D01*
X170384776Y-101513702D01*
X170527045Y-101300781D01*
X170625042Y-101064196D01*
X170675000Y-100813039D01*
X170675000Y-100556961D01*
X170625042Y-100305804D01*
X170527045Y-100069219D01*
X170384776Y-99856298D01*
X170203702Y-99675224D01*
X169990781Y-99532955D01*
X169754196Y-99434958D01*
X169503039Y-99385000D01*
X169246961Y-99385000D01*
X168995804Y-99434958D01*
X168759219Y-99532955D01*
X168546298Y-99675224D01*
X168365224Y-99856298D01*
X168222955Y-100069219D01*
X168124958Y-100305804D01*
X168075000Y-100556961D01*
X168075000Y-100813039D01*
X168124958Y-101064196D01*
X168222955Y-101300781D01*
X168365224Y-101513702D01*
X168475001Y-101623479D01*
X168475000Y-105523609D01*
X168453303Y-105505803D01*
X168383814Y-105468660D01*
X168308414Y-105445788D01*
X168250000Y-105440035D01*
X168250000Y-102514206D01*
X168254354Y-102470000D01*
X168236977Y-102293569D01*
X168185514Y-102123919D01*
X168135000Y-102029414D01*
X168135000Y-101826961D01*
X168085042Y-101575804D01*
X167987045Y-101339219D01*
X167844776Y-101126298D01*
X167663702Y-100945224D01*
X167450781Y-100802955D01*
X167214196Y-100704958D01*
X167113860Y-100685000D01*
X167214196Y-100665042D01*
X167450781Y-100567045D01*
X167663702Y-100424776D01*
X167844776Y-100243702D01*
X167987045Y-100030781D01*
X168085042Y-99794196D01*
X168135000Y-99543039D01*
X168135000Y-99286961D01*
X168085042Y-99035804D01*
X167987045Y-98799219D01*
X167844776Y-98586298D01*
X167663702Y-98405224D01*
X167450781Y-98262955D01*
X167214196Y-98164958D01*
X167113860Y-98145000D01*
X167214196Y-98125042D01*
X167450781Y-98027045D01*
X167663702Y-97884776D01*
X167844776Y-97703702D01*
X167987045Y-97490781D01*
X168085042Y-97254196D01*
X168135000Y-97003039D01*
X168135000Y-96746961D01*
X168085042Y-96495804D01*
X167987045Y-96259219D01*
X167900704Y-96130000D01*
X168185352Y-96130000D01*
X168222955Y-96220781D01*
X168365224Y-96433702D01*
X168546298Y-96614776D01*
X168759219Y-96757045D01*
X168995804Y-96855042D01*
X169246961Y-96905000D01*
X169503039Y-96905000D01*
X169754196Y-96855042D01*
X169990781Y-96757045D01*
X170203702Y-96614776D01*
X170384776Y-96433702D01*
X170527045Y-96220781D01*
X170625042Y-95984196D01*
X170675000Y-95733039D01*
X170675000Y-95476961D01*
X170625042Y-95225804D01*
X170527045Y-94989219D01*
X170384776Y-94776298D01*
X170203702Y-94595224D01*
X169990781Y-94452955D01*
X169754196Y-94354958D01*
X169653860Y-94335000D01*
X169754196Y-94315042D01*
X169990781Y-94217045D01*
X170203702Y-94074776D01*
X170384776Y-93893702D01*
X170527045Y-93680781D01*
X170625042Y-93444196D01*
X170675000Y-93193039D01*
X170675000Y-92936961D01*
X170625042Y-92685804D01*
X170618505Y-92670022D01*
X171343420Y-91945108D01*
X171366317Y-91926317D01*
X171441296Y-91834955D01*
X171497010Y-91730721D01*
X171531318Y-91617621D01*
X171540000Y-91529474D01*
X171540000Y-91529473D01*
X171542903Y-91500001D01*
X171540000Y-91470527D01*
X171540000Y-88489476D01*
X171542903Y-88460000D01*
X171531319Y-88342379D01*
X171497010Y-88229279D01*
X171441296Y-88125045D01*
X171366317Y-88033683D01*
X171343419Y-88014891D01*
X170471935Y-87143408D01*
X170471935Y-86830000D01*
X170461522Y-86724274D01*
X170430683Y-86622610D01*
X170390000Y-86546499D01*
X170390000Y-86460533D01*
X170442432Y-86455369D01*
X170555351Y-86421115D01*
X170659417Y-86365491D01*
X170750632Y-86290632D01*
X170825491Y-86199417D01*
X170881115Y-86095351D01*
X170915369Y-85982432D01*
X170926935Y-85865000D01*
X170926935Y-85465000D01*
X170915369Y-85347568D01*
X170881115Y-85234649D01*
X170825491Y-85130583D01*
X170750632Y-85039368D01*
X170659417Y-84964509D01*
X170555351Y-84908885D01*
X170442432Y-84874631D01*
X170325000Y-84863065D01*
X169775000Y-84863065D01*
X169657568Y-84874631D01*
X169544649Y-84908885D01*
X169497156Y-84934270D01*
X169497156Y-84745730D01*
X169544649Y-84771115D01*
X169657568Y-84805369D01*
X169775000Y-84816935D01*
X170325000Y-84816935D01*
X170442432Y-84805369D01*
X170555351Y-84771115D01*
X170659417Y-84715491D01*
X170750632Y-84640632D01*
X170825491Y-84549417D01*
X170881115Y-84445351D01*
X170915369Y-84332432D01*
X170926935Y-84215000D01*
X170926935Y-83815000D01*
X170915870Y-83702650D01*
X170948942Y-83688951D01*
X171079970Y-83601401D01*
X171191401Y-83489970D01*
X171278951Y-83358942D01*
X171339257Y-83213351D01*
X171370000Y-83058793D01*
X171370000Y-82901207D01*
X171339257Y-82746649D01*
X171278951Y-82601058D01*
X171191401Y-82470030D01*
X171079970Y-82358599D01*
X170948942Y-82271049D01*
X170803351Y-82210743D01*
X170648793Y-82180000D01*
X170491207Y-82180000D01*
X170336649Y-82210743D01*
X170191058Y-82271049D01*
X170060030Y-82358599D01*
X169948599Y-82470030D01*
X169861049Y-82601058D01*
X169800743Y-82746649D01*
X169770000Y-82901207D01*
X169770000Y-82931473D01*
X169646581Y-83054892D01*
X169623684Y-83073683D01*
X169548705Y-83165045D01*
X169497156Y-83261485D01*
X169497156Y-76025104D01*
X169510476Y-76021063D01*
X169603305Y-75971445D01*
X169680000Y-75908503D01*
X169756695Y-75971445D01*
X169849524Y-76021063D01*
X169950249Y-76051618D01*
X170055000Y-76061935D01*
X170325000Y-76061935D01*
X170429751Y-76051618D01*
X170464368Y-76041117D01*
X170491058Y-76058951D01*
X170636649Y-76119257D01*
X170791207Y-76150000D01*
X170948793Y-76150000D01*
X171103351Y-76119257D01*
X171248942Y-76058951D01*
X171379970Y-75971401D01*
X171491401Y-75859970D01*
X171567507Y-75746070D01*
X171574903Y-108075000D01*
X164979126Y-108075000D01*
X164978385Y-108075073D01*
X164970599Y-108075100D01*
X164952129Y-108076976D01*
X164933556Y-108076846D01*
X164927651Y-108077425D01*
X164151263Y-108159027D01*
X164113561Y-108166766D01*
X164075692Y-108173990D01*
X164070014Y-108175705D01*
X164070008Y-108175707D01*
X163324262Y-108406554D01*
X163288758Y-108421478D01*
X163253037Y-108435910D01*
X163247806Y-108438692D01*
X163247797Y-108438696D01*
X163247790Y-108438701D01*
X162561088Y-108809999D01*
X162529170Y-108831528D01*
X162496921Y-108852631D01*
X162492328Y-108856378D01*
X162492322Y-108856382D01*
X162492317Y-108856387D01*
X161890812Y-109353995D01*
X161863711Y-109381285D01*
X161836147Y-109408278D01*
X161832365Y-109412851D01*
X161338964Y-110017822D01*
X161317667Y-110049877D01*
X161295885Y-110081688D01*
X161293063Y-110086908D01*
X160926563Y-110776193D01*
X160911888Y-110811798D01*
X160896710Y-110847211D01*
X160894955Y-110852880D01*
X160669318Y-111600224D01*
X160661836Y-111638010D01*
X160653827Y-111675689D01*
X160653207Y-111681590D01*
X160614655Y-112074776D01*
X157449938Y-112074864D01*
X157813136Y-111924422D01*
X158353627Y-111563277D01*
X158813277Y-111103627D01*
X159174422Y-110563136D01*
X159423183Y-109962574D01*
X159550000Y-109325022D01*
X159550000Y-108674978D01*
X159423183Y-108037426D01*
X159174422Y-107436864D01*
X158813277Y-106896373D01*
X158353627Y-106436723D01*
X157813136Y-106075578D01*
X157212574Y-105826817D01*
X156575022Y-105700000D01*
X155924978Y-105700000D01*
X155287426Y-105826817D01*
X154686864Y-106075578D01*
X154146373Y-106436723D01*
X153686723Y-106896373D01*
X153325578Y-107436864D01*
X153076817Y-108037426D01*
X152950000Y-108674978D01*
X152950000Y-109325022D01*
X153076817Y-109962574D01*
X153325578Y-110563136D01*
X153686723Y-111103627D01*
X154146373Y-111563277D01*
X154686864Y-111924422D01*
X155050222Y-112074930D01*
X152885509Y-112074990D01*
X152840973Y-111651263D01*
X152833234Y-111613561D01*
X152826010Y-111575692D01*
X152824294Y-111570012D01*
X152593446Y-110824262D01*
X152578522Y-110788758D01*
X152564090Y-110753037D01*
X152561304Y-110747798D01*
X152561304Y-110747797D01*
X152561299Y-110747790D01*
X152190001Y-110061088D01*
X152168472Y-110029170D01*
X152147369Y-109996921D01*
X152143622Y-109992328D01*
X152143618Y-109992322D01*
X152143613Y-109992317D01*
X151646005Y-109390812D01*
X151618715Y-109363711D01*
X151591722Y-109336147D01*
X151587149Y-109332365D01*
X150982178Y-108838964D01*
X150950123Y-108817667D01*
X150918312Y-108795885D01*
X150913095Y-108793064D01*
X150913087Y-108793060D01*
X150223807Y-108426563D01*
X150188202Y-108411888D01*
X150152789Y-108396710D01*
X150147120Y-108394955D01*
X149399776Y-108169318D01*
X149361990Y-108161836D01*
X149324311Y-108153827D01*
X149318410Y-108153207D01*
X148925000Y-108114633D01*
X148925000Y-58676886D01*
X149290000Y-58676886D01*
X149290000Y-58923114D01*
X149338037Y-59164611D01*
X149432265Y-59392097D01*
X149569062Y-59596828D01*
X149743172Y-59770938D01*
X149947903Y-59907735D01*
X150175389Y-60001963D01*
X150416886Y-60050000D01*
X150663114Y-60050000D01*
X150904611Y-60001963D01*
X151132097Y-59907735D01*
X151336828Y-59770938D01*
X151510938Y-59596828D01*
X151647735Y-59392097D01*
X151741963Y-59164611D01*
X151790000Y-58923114D01*
X151790000Y-58676886D01*
X151741963Y-58435389D01*
X151647735Y-58207903D01*
X151510938Y-58003172D01*
X151336828Y-57829062D01*
X151132097Y-57692265D01*
X150904611Y-57598037D01*
X150663114Y-57550000D01*
X150416886Y-57550000D01*
X150175389Y-57598037D01*
X149947903Y-57692265D01*
X149743172Y-57829062D01*
X149569062Y-58003172D01*
X149432265Y-58207903D01*
X149338037Y-58435389D01*
X149290000Y-58676886D01*
X148925000Y-58676886D01*
X148925000Y-57425000D01*
X169096689Y-57425000D01*
X169122145Y-57910734D01*
G37*
%TD.AperFunction*%
D25*
X167130030Y-77541401D02*
X167261058Y-77628951D01*
X167406649Y-77689257D01*
X167561207Y-77720000D01*
X167718793Y-77720000D01*
X167873351Y-77689257D01*
X167982845Y-77643903D01*
X167982844Y-88903234D01*
X167860717Y-89025361D01*
X167840468Y-89041979D01*
X167774167Y-89122767D01*
X167724902Y-89214938D01*
X167714244Y-89250074D01*
X167694564Y-89314947D01*
X167684320Y-89418954D01*
X167686887Y-89445017D01*
X167686888Y-90192792D01*
X167299421Y-90580259D01*
X167214196Y-90544958D01*
X166963039Y-90495000D01*
X166706961Y-90495000D01*
X166455804Y-90544958D01*
X166219219Y-90642955D01*
X166006298Y-90785224D01*
X165862712Y-90928810D01*
X165862712Y-90715927D01*
X166950745Y-89627895D01*
X167000431Y-89567351D01*
X167049697Y-89475182D01*
X167080035Y-89375172D01*
X167090279Y-89271164D01*
X167082156Y-89188691D01*
X167082156Y-77493527D01*
X167130030Y-77541401D01*
%TA.AperFunction,Conductor*%
D31*
G36*
X167130030Y-77541401D02*
G01*
X167261058Y-77628951D01*
X167406649Y-77689257D01*
X167561207Y-77720000D01*
X167718793Y-77720000D01*
X167873351Y-77689257D01*
X167982845Y-77643903D01*
X167982844Y-88903234D01*
X167860717Y-89025361D01*
X167840468Y-89041979D01*
X167774167Y-89122767D01*
X167724902Y-89214938D01*
X167714244Y-89250074D01*
X167694564Y-89314947D01*
X167684320Y-89418954D01*
X167686887Y-89445017D01*
X167686888Y-90192792D01*
X167299421Y-90580259D01*
X167214196Y-90544958D01*
X166963039Y-90495000D01*
X166706961Y-90495000D01*
X166455804Y-90544958D01*
X166219219Y-90642955D01*
X166006298Y-90785224D01*
X165862712Y-90928810D01*
X165862712Y-90715927D01*
X166950745Y-89627895D01*
X167000431Y-89567351D01*
X167049697Y-89475182D01*
X167080035Y-89375172D01*
X167090279Y-89271164D01*
X167082156Y-89188691D01*
X167082156Y-77493527D01*
X167130030Y-77541401D01*
G37*
%TD.AperFunction*%
D25*
X152205788Y-65858414D02*
X152228660Y-65933814D01*
X152265803Y-66003303D01*
X152315789Y-66064211D01*
X152376697Y-66114197D01*
X152446186Y-66151340D01*
X152521586Y-66174212D01*
X152600000Y-66181935D01*
X154000000Y-66181935D01*
X154078414Y-66174212D01*
X154153814Y-66151340D01*
X154223303Y-66114197D01*
X154263831Y-66080936D01*
X156119767Y-67936872D01*
X156058917Y-67969398D01*
X155976794Y-68036794D01*
X155909398Y-68118917D01*
X155859317Y-68212610D01*
X155828478Y-68314274D01*
X155818065Y-68420000D01*
X155818065Y-68760000D01*
X155828478Y-68865726D01*
X155859317Y-68967390D01*
X155900001Y-69043502D01*
X155900000Y-69116498D01*
X155859317Y-69192610D01*
X155828478Y-69294274D01*
X155818065Y-69400000D01*
X155818065Y-69740000D01*
X155828478Y-69845726D01*
X155859317Y-69947390D01*
X155900000Y-70023501D01*
X155900000Y-70137500D01*
X154952112Y-70137500D01*
X154868306Y-70068723D01*
X154759918Y-70010788D01*
X154642309Y-69975111D01*
X154520000Y-69963065D01*
X154020000Y-69963065D01*
X153897691Y-69975111D01*
X153780082Y-70010788D01*
X153671694Y-70068723D01*
X153576690Y-70146690D01*
X153498723Y-70241694D01*
X153440788Y-70350082D01*
X153405111Y-70467691D01*
X153393065Y-70590000D01*
X153393065Y-71040000D01*
X153405111Y-71162309D01*
X153440788Y-71279918D01*
X153498723Y-71388306D01*
X153576690Y-71483310D01*
X153671694Y-71561277D01*
X153780082Y-71619212D01*
X153897691Y-71654889D01*
X154020000Y-71666935D01*
X154029940Y-71666935D01*
X154014274Y-71668478D01*
X153912610Y-71699317D01*
X153818917Y-71749398D01*
X153736794Y-71816794D01*
X153669398Y-71898917D01*
X153619317Y-71992610D01*
X153588478Y-72094274D01*
X153578065Y-72200000D01*
X153578065Y-72425000D01*
X152676935Y-72425000D01*
X152676935Y-72395000D01*
X152665369Y-72277568D01*
X152631115Y-72164649D01*
X152575491Y-72060583D01*
X152500632Y-71969368D01*
X152409417Y-71894509D01*
X152305351Y-71838885D01*
X152192432Y-71804631D01*
X152075000Y-71793065D01*
X151525000Y-71793065D01*
X151407568Y-71804631D01*
X151294649Y-71838885D01*
X151190583Y-71894509D01*
X151099368Y-71969368D01*
X151024509Y-72060583D01*
X150968885Y-72164649D01*
X150934631Y-72277568D01*
X150923065Y-72395000D01*
X150923065Y-72795000D01*
X150934631Y-72912432D01*
X150968885Y-73025351D01*
X151024509Y-73129417D01*
X151099368Y-73220632D01*
X151190583Y-73295491D01*
X151294649Y-73351115D01*
X151343810Y-73366028D01*
X151310030Y-73388599D01*
X151198599Y-73500030D01*
X151111049Y-73631058D01*
X151050743Y-73776649D01*
X151020000Y-73931207D01*
X151020000Y-74088793D01*
X151050743Y-74243351D01*
X151111049Y-74388942D01*
X151198599Y-74519970D01*
X151250258Y-74571629D01*
X151248209Y-74572998D01*
X151213394Y-74591607D01*
X151182881Y-74616649D01*
X151150030Y-74638599D01*
X151122090Y-74666539D01*
X151091579Y-74691579D01*
X151066539Y-74722090D01*
X151038599Y-74750030D01*
X151016649Y-74782881D01*
X150991607Y-74813394D01*
X150972998Y-74848209D01*
X150951049Y-74881058D01*
X150935930Y-74917557D01*
X150917321Y-74952373D01*
X150905862Y-74990148D01*
X150890743Y-75026649D01*
X150883035Y-75065401D01*
X150871577Y-75103173D01*
X150867708Y-75142458D01*
X150860000Y-75181207D01*
X150860000Y-75220709D01*
X150856130Y-75260000D01*
X150860000Y-75299291D01*
X150860000Y-75338793D01*
X150867708Y-75377542D01*
X150871577Y-75416827D01*
X150883035Y-75454599D01*
X150890743Y-75493351D01*
X150905862Y-75529852D01*
X150917321Y-75567627D01*
X150935930Y-75602443D01*
X150951049Y-75638942D01*
X150972998Y-75671791D01*
X150991607Y-75706606D01*
X151016650Y-75737121D01*
X151038599Y-75769970D01*
X151096531Y-75827902D01*
X151121578Y-75858422D01*
X151243394Y-75958393D01*
X151382372Y-76032679D01*
X151533173Y-76078424D01*
X151650707Y-76090000D01*
X151650716Y-76090000D01*
X151689999Y-76093869D01*
X151729282Y-76090000D01*
X152389293Y-76090000D01*
X152506827Y-76078424D01*
X152657628Y-76032679D01*
X152796606Y-75958393D01*
X152918422Y-75858422D01*
X153018393Y-75736606D01*
X153092679Y-75597628D01*
X153138424Y-75446827D01*
X153153870Y-75290000D01*
X153138424Y-75133173D01*
X153092679Y-74982372D01*
X153022862Y-74851755D01*
X153109417Y-74805491D01*
X153200632Y-74730632D01*
X153275491Y-74639417D01*
X153331115Y-74535351D01*
X153365369Y-74422432D01*
X153376935Y-74305000D01*
X153376935Y-73755000D01*
X153365369Y-73637568D01*
X153331115Y-73524649D01*
X153277852Y-73425000D01*
X153522148Y-73425000D01*
X153468885Y-73524649D01*
X153434631Y-73637568D01*
X153423065Y-73755000D01*
X153423065Y-74305000D01*
X153434631Y-74422432D01*
X153468885Y-74535351D01*
X153524509Y-74639417D01*
X153599368Y-74730632D01*
X153690583Y-74805491D01*
X153794649Y-74861115D01*
X153907568Y-74895369D01*
X154025000Y-74906935D01*
X154425000Y-74906935D01*
X154542432Y-74895369D01*
X154655351Y-74861115D01*
X154759417Y-74805491D01*
X154850632Y-74730632D01*
X154925491Y-74639417D01*
X154981115Y-74535351D01*
X154992933Y-74496392D01*
X155078952Y-74553868D01*
X155162853Y-74588620D01*
X154966582Y-74784891D01*
X154943684Y-74803683D01*
X154868705Y-74895045D01*
X154824201Y-74978306D01*
X154812991Y-74999279D01*
X154778682Y-75112380D01*
X154767097Y-75230000D01*
X154770001Y-75259483D01*
X154770000Y-77072895D01*
X154620929Y-76923824D01*
X154605264Y-76904736D01*
X154529129Y-76842254D01*
X154442267Y-76795825D01*
X154348017Y-76767235D01*
X154274560Y-76760000D01*
X154250000Y-76757581D01*
X154225440Y-76760000D01*
X151877107Y-76760000D01*
X150520000Y-75402895D01*
X150520000Y-73541935D01*
X150598414Y-73534212D01*
X150673814Y-73511340D01*
X150743303Y-73474197D01*
X150804211Y-73424211D01*
X150854197Y-73363303D01*
X150891340Y-73293814D01*
X150914212Y-73218414D01*
X150921935Y-73140000D01*
X150921935Y-71990000D01*
X150914212Y-71911586D01*
X150896289Y-71852500D01*
X150914212Y-71793414D01*
X150921935Y-71715000D01*
X150921935Y-71056080D01*
X150923065Y-71054703D01*
X150923065Y-71145000D01*
X150934631Y-71262432D01*
X150968885Y-71375351D01*
X151024509Y-71479417D01*
X151099368Y-71570632D01*
X151190583Y-71645491D01*
X151294649Y-71701115D01*
X151407568Y-71735369D01*
X151525000Y-71746935D01*
X152075000Y-71746935D01*
X152192432Y-71735369D01*
X152305351Y-71701115D01*
X152409417Y-71645491D01*
X152500632Y-71570632D01*
X152575491Y-71479417D01*
X152631115Y-71375351D01*
X152665369Y-71262432D01*
X152676935Y-71145000D01*
X152676935Y-71084635D01*
X152738942Y-71058951D01*
X152869970Y-70971401D01*
X152981401Y-70859970D01*
X153068951Y-70728942D01*
X153129257Y-70583351D01*
X153160000Y-70428793D01*
X153160000Y-70271207D01*
X153129257Y-70116649D01*
X153068951Y-69971058D01*
X152981401Y-69840030D01*
X152869970Y-69728599D01*
X152738942Y-69641049D01*
X152593351Y-69580743D01*
X152438793Y-69550000D01*
X152281207Y-69550000D01*
X152126649Y-69580743D01*
X151981058Y-69641049D01*
X151850030Y-69728599D01*
X151738599Y-69840030D01*
X151651049Y-69971058D01*
X151590743Y-70116649D01*
X151587600Y-70132451D01*
X151576986Y-70143065D01*
X151525000Y-70143065D01*
X151407568Y-70154631D01*
X151294649Y-70188885D01*
X151190583Y-70244509D01*
X151099368Y-70319368D01*
X151060000Y-70367338D01*
X151060000Y-69720524D01*
X151069417Y-69715491D01*
X151160632Y-69640632D01*
X151235491Y-69549417D01*
X151291115Y-69445351D01*
X151325369Y-69332432D01*
X151336935Y-69215000D01*
X151336935Y-68870155D01*
X151338633Y-68868086D01*
X151387383Y-68776881D01*
X151417403Y-68677918D01*
X151425000Y-68600788D01*
X151425000Y-68600780D01*
X151427539Y-68575000D01*
X151425000Y-68549220D01*
X151425000Y-68081935D01*
X151600000Y-68081935D01*
X151678414Y-68074212D01*
X151753814Y-68051340D01*
X151823303Y-68014197D01*
X151884211Y-67964211D01*
X151934197Y-67903303D01*
X151971340Y-67833814D01*
X151994212Y-67758414D01*
X152001935Y-67680000D01*
X152001935Y-66480000D01*
X151994212Y-66401586D01*
X151971340Y-66326186D01*
X151934197Y-66256697D01*
X151884211Y-66195789D01*
X151823303Y-66145803D01*
X151793738Y-66130000D01*
X151823303Y-66114197D01*
X151884211Y-66064211D01*
X151934197Y-66003303D01*
X151967878Y-65940291D01*
X152023351Y-65929257D01*
X152168942Y-65868951D01*
X152204487Y-65845201D01*
X152205788Y-65858414D01*
%TA.AperFunction,Conductor*%
D31*
G36*
X152205788Y-65858414D02*
G01*
X152228660Y-65933814D01*
X152265803Y-66003303D01*
X152315789Y-66064211D01*
X152376697Y-66114197D01*
X152446186Y-66151340D01*
X152521586Y-66174212D01*
X152600000Y-66181935D01*
X154000000Y-66181935D01*
X154078414Y-66174212D01*
X154153814Y-66151340D01*
X154223303Y-66114197D01*
X154263831Y-66080936D01*
X156119767Y-67936872D01*
X156058917Y-67969398D01*
X155976794Y-68036794D01*
X155909398Y-68118917D01*
X155859317Y-68212610D01*
X155828478Y-68314274D01*
X155818065Y-68420000D01*
X155818065Y-68760000D01*
X155828478Y-68865726D01*
X155859317Y-68967390D01*
X155900001Y-69043502D01*
X155900000Y-69116498D01*
X155859317Y-69192610D01*
X155828478Y-69294274D01*
X155818065Y-69400000D01*
X155818065Y-69740000D01*
X155828478Y-69845726D01*
X155859317Y-69947390D01*
X155900000Y-70023501D01*
X155900000Y-70137500D01*
X154952112Y-70137500D01*
X154868306Y-70068723D01*
X154759918Y-70010788D01*
X154642309Y-69975111D01*
X154520000Y-69963065D01*
X154020000Y-69963065D01*
X153897691Y-69975111D01*
X153780082Y-70010788D01*
X153671694Y-70068723D01*
X153576690Y-70146690D01*
X153498723Y-70241694D01*
X153440788Y-70350082D01*
X153405111Y-70467691D01*
X153393065Y-70590000D01*
X153393065Y-71040000D01*
X153405111Y-71162309D01*
X153440788Y-71279918D01*
X153498723Y-71388306D01*
X153576690Y-71483310D01*
X153671694Y-71561277D01*
X153780082Y-71619212D01*
X153897691Y-71654889D01*
X154020000Y-71666935D01*
X154029940Y-71666935D01*
X154014274Y-71668478D01*
X153912610Y-71699317D01*
X153818917Y-71749398D01*
X153736794Y-71816794D01*
X153669398Y-71898917D01*
X153619317Y-71992610D01*
X153588478Y-72094274D01*
X153578065Y-72200000D01*
X153578065Y-72425000D01*
X152676935Y-72425000D01*
X152676935Y-72395000D01*
X152665369Y-72277568D01*
X152631115Y-72164649D01*
X152575491Y-72060583D01*
X152500632Y-71969368D01*
X152409417Y-71894509D01*
X152305351Y-71838885D01*
X152192432Y-71804631D01*
X152075000Y-71793065D01*
X151525000Y-71793065D01*
X151407568Y-71804631D01*
X151294649Y-71838885D01*
X151190583Y-71894509D01*
X151099368Y-71969368D01*
X151024509Y-72060583D01*
X150968885Y-72164649D01*
X150934631Y-72277568D01*
X150923065Y-72395000D01*
X150923065Y-72795000D01*
X150934631Y-72912432D01*
X150968885Y-73025351D01*
X151024509Y-73129417D01*
X151099368Y-73220632D01*
X151190583Y-73295491D01*
X151294649Y-73351115D01*
X151343810Y-73366028D01*
X151310030Y-73388599D01*
X151198599Y-73500030D01*
X151111049Y-73631058D01*
X151050743Y-73776649D01*
X151020000Y-73931207D01*
X151020000Y-74088793D01*
X151050743Y-74243351D01*
X151111049Y-74388942D01*
X151198599Y-74519970D01*
X151250258Y-74571629D01*
X151248209Y-74572998D01*
X151213394Y-74591607D01*
X151182881Y-74616649D01*
X151150030Y-74638599D01*
X151122090Y-74666539D01*
X151091579Y-74691579D01*
X151066539Y-74722090D01*
X151038599Y-74750030D01*
X151016649Y-74782881D01*
X150991607Y-74813394D01*
X150972998Y-74848209D01*
X150951049Y-74881058D01*
X150935930Y-74917557D01*
X150917321Y-74952373D01*
X150905862Y-74990148D01*
X150890743Y-75026649D01*
X150883035Y-75065401D01*
X150871577Y-75103173D01*
X150867708Y-75142458D01*
X150860000Y-75181207D01*
X150860000Y-75220709D01*
X150856130Y-75260000D01*
X150860000Y-75299291D01*
X150860000Y-75338793D01*
X150867708Y-75377542D01*
X150871577Y-75416827D01*
X150883035Y-75454599D01*
X150890743Y-75493351D01*
X150905862Y-75529852D01*
X150917321Y-75567627D01*
X150935930Y-75602443D01*
X150951049Y-75638942D01*
X150972998Y-75671791D01*
X150991607Y-75706606D01*
X151016650Y-75737121D01*
X151038599Y-75769970D01*
X151096531Y-75827902D01*
X151121578Y-75858422D01*
X151243394Y-75958393D01*
X151382372Y-76032679D01*
X151533173Y-76078424D01*
X151650707Y-76090000D01*
X151650716Y-76090000D01*
X151689999Y-76093869D01*
X151729282Y-76090000D01*
X152389293Y-76090000D01*
X152506827Y-76078424D01*
X152657628Y-76032679D01*
X152796606Y-75958393D01*
X152918422Y-75858422D01*
X153018393Y-75736606D01*
X153092679Y-75597628D01*
X153138424Y-75446827D01*
X153153870Y-75290000D01*
X153138424Y-75133173D01*
X153092679Y-74982372D01*
X153022862Y-74851755D01*
X153109417Y-74805491D01*
X153200632Y-74730632D01*
X153275491Y-74639417D01*
X153331115Y-74535351D01*
X153365369Y-74422432D01*
X153376935Y-74305000D01*
X153376935Y-73755000D01*
X153365369Y-73637568D01*
X153331115Y-73524649D01*
X153277852Y-73425000D01*
X153522148Y-73425000D01*
X153468885Y-73524649D01*
X153434631Y-73637568D01*
X153423065Y-73755000D01*
X153423065Y-74305000D01*
X153434631Y-74422432D01*
X153468885Y-74535351D01*
X153524509Y-74639417D01*
X153599368Y-74730632D01*
X153690583Y-74805491D01*
X153794649Y-74861115D01*
X153907568Y-74895369D01*
X154025000Y-74906935D01*
X154425000Y-74906935D01*
X154542432Y-74895369D01*
X154655351Y-74861115D01*
X154759417Y-74805491D01*
X154850632Y-74730632D01*
X154925491Y-74639417D01*
X154981115Y-74535351D01*
X154992933Y-74496392D01*
X155078952Y-74553868D01*
X155162853Y-74588620D01*
X154966582Y-74784891D01*
X154943684Y-74803683D01*
X154868705Y-74895045D01*
X154824201Y-74978306D01*
X154812991Y-74999279D01*
X154778682Y-75112380D01*
X154767097Y-75230000D01*
X154770001Y-75259483D01*
X154770000Y-77072895D01*
X154620929Y-76923824D01*
X154605264Y-76904736D01*
X154529129Y-76842254D01*
X154442267Y-76795825D01*
X154348017Y-76767235D01*
X154274560Y-76760000D01*
X154250000Y-76757581D01*
X154225440Y-76760000D01*
X151877107Y-76760000D01*
X150520000Y-75402895D01*
X150520000Y-73541935D01*
X150598414Y-73534212D01*
X150673814Y-73511340D01*
X150743303Y-73474197D01*
X150804211Y-73424211D01*
X150854197Y-73363303D01*
X150891340Y-73293814D01*
X150914212Y-73218414D01*
X150921935Y-73140000D01*
X150921935Y-71990000D01*
X150914212Y-71911586D01*
X150896289Y-71852500D01*
X150914212Y-71793414D01*
X150921935Y-71715000D01*
X150921935Y-71056080D01*
X150923065Y-71054703D01*
X150923065Y-71145000D01*
X150934631Y-71262432D01*
X150968885Y-71375351D01*
X151024509Y-71479417D01*
X151099368Y-71570632D01*
X151190583Y-71645491D01*
X151294649Y-71701115D01*
X151407568Y-71735369D01*
X151525000Y-71746935D01*
X152075000Y-71746935D01*
X152192432Y-71735369D01*
X152305351Y-71701115D01*
X152409417Y-71645491D01*
X152500632Y-71570632D01*
X152575491Y-71479417D01*
X152631115Y-71375351D01*
X152665369Y-71262432D01*
X152676935Y-71145000D01*
X152676935Y-71084635D01*
X152738942Y-71058951D01*
X152869970Y-70971401D01*
X152981401Y-70859970D01*
X153068951Y-70728942D01*
X153129257Y-70583351D01*
X153160000Y-70428793D01*
X153160000Y-70271207D01*
X153129257Y-70116649D01*
X153068951Y-69971058D01*
X152981401Y-69840030D01*
X152869970Y-69728599D01*
X152738942Y-69641049D01*
X152593351Y-69580743D01*
X152438793Y-69550000D01*
X152281207Y-69550000D01*
X152126649Y-69580743D01*
X151981058Y-69641049D01*
X151850030Y-69728599D01*
X151738599Y-69840030D01*
X151651049Y-69971058D01*
X151590743Y-70116649D01*
X151587600Y-70132451D01*
X151576986Y-70143065D01*
X151525000Y-70143065D01*
X151407568Y-70154631D01*
X151294649Y-70188885D01*
X151190583Y-70244509D01*
X151099368Y-70319368D01*
X151060000Y-70367338D01*
X151060000Y-69720524D01*
X151069417Y-69715491D01*
X151160632Y-69640632D01*
X151235491Y-69549417D01*
X151291115Y-69445351D01*
X151325369Y-69332432D01*
X151336935Y-69215000D01*
X151336935Y-68870155D01*
X151338633Y-68868086D01*
X151387383Y-68776881D01*
X151417403Y-68677918D01*
X151425000Y-68600788D01*
X151425000Y-68600780D01*
X151427539Y-68575000D01*
X151425000Y-68549220D01*
X151425000Y-68081935D01*
X151600000Y-68081935D01*
X151678414Y-68074212D01*
X151753814Y-68051340D01*
X151823303Y-68014197D01*
X151884211Y-67964211D01*
X151934197Y-67903303D01*
X151971340Y-67833814D01*
X151994212Y-67758414D01*
X152001935Y-67680000D01*
X152001935Y-66480000D01*
X151994212Y-66401586D01*
X151971340Y-66326186D01*
X151934197Y-66256697D01*
X151884211Y-66195789D01*
X151823303Y-66145803D01*
X151793738Y-66130000D01*
X151823303Y-66114197D01*
X151884211Y-66064211D01*
X151934197Y-66003303D01*
X151967878Y-65940291D01*
X152023351Y-65929257D01*
X152168942Y-65868951D01*
X152204487Y-65845201D01*
X152205788Y-65858414D01*
G37*
%TD.AperFunction*%
D25*
X159184768Y-71516582D02*
X159271893Y-71543011D01*
X159303842Y-71546158D01*
X159306989Y-71578107D01*
X159333418Y-71665232D01*
X159338639Y-71675000D01*
X159333418Y-71684768D01*
X159306989Y-71771893D01*
X159298065Y-71862500D01*
X159298065Y-71987500D01*
X159306989Y-72078107D01*
X159333418Y-72165232D01*
X159338639Y-72175000D01*
X159333418Y-72184768D01*
X159306989Y-72271893D01*
X159298065Y-72362500D01*
X159298065Y-72487500D01*
X159306989Y-72578107D01*
X159333418Y-72665232D01*
X159338639Y-72675000D01*
X159333418Y-72684768D01*
X159306989Y-72771893D01*
X159298065Y-72862500D01*
X159298065Y-72987500D01*
X159306989Y-73078107D01*
X159333418Y-73165232D01*
X159338639Y-73175000D01*
X159333418Y-73184768D01*
X159306989Y-73271893D01*
X159298065Y-73362500D01*
X159298065Y-73487500D01*
X159306989Y-73578107D01*
X159333418Y-73665232D01*
X159338639Y-73675000D01*
X159333418Y-73684768D01*
X159306989Y-73771893D01*
X159303842Y-73803842D01*
X159271893Y-73806989D01*
X159184768Y-73833418D01*
X159175000Y-73838639D01*
X159165232Y-73833418D01*
X159078107Y-73806989D01*
X158987500Y-73798065D01*
X158862500Y-73798065D01*
X158771893Y-73806989D01*
X158684768Y-73833418D01*
X158675000Y-73838639D01*
X158665232Y-73833418D01*
X158578107Y-73806989D01*
X158487500Y-73798065D01*
X158362500Y-73798065D01*
X158271893Y-73806989D01*
X158184768Y-73833418D01*
X158175000Y-73838639D01*
X158165232Y-73833418D01*
X158078107Y-73806989D01*
X157987500Y-73798065D01*
X157862500Y-73798065D01*
X157771893Y-73806989D01*
X157684768Y-73833418D01*
X157675000Y-73838639D01*
X157665232Y-73833418D01*
X157578107Y-73806989D01*
X157487500Y-73798065D01*
X157362500Y-73798065D01*
X157271893Y-73806989D01*
X157184768Y-73833418D01*
X157175000Y-73838639D01*
X157165232Y-73833418D01*
X157078107Y-73806989D01*
X157046158Y-73803842D01*
X157043011Y-73771893D01*
X157016582Y-73684768D01*
X157011361Y-73675000D01*
X157016582Y-73665232D01*
X157043011Y-73578107D01*
X157051935Y-73487500D01*
X157051935Y-73362500D01*
X157043011Y-73271893D01*
X157016582Y-73184768D01*
X157011361Y-73175000D01*
X157016582Y-73165232D01*
X157043011Y-73078107D01*
X157051935Y-72987500D01*
X157051935Y-72862500D01*
X157043011Y-72771893D01*
X157016582Y-72684768D01*
X157011361Y-72675000D01*
X157016582Y-72665232D01*
X157043011Y-72578107D01*
X157051935Y-72487500D01*
X157051935Y-72362500D01*
X157043011Y-72271893D01*
X157016582Y-72184768D01*
X157011361Y-72175000D01*
X157016582Y-72165232D01*
X157043011Y-72078107D01*
X157051935Y-71987500D01*
X157051935Y-71862500D01*
X157043011Y-71771893D01*
X157016582Y-71684768D01*
X157011361Y-71675000D01*
X157016582Y-71665232D01*
X157043011Y-71578107D01*
X157046158Y-71546158D01*
X157078107Y-71543011D01*
X157165232Y-71516582D01*
X157175000Y-71511361D01*
X157184768Y-71516582D01*
X157271893Y-71543011D01*
X157362500Y-71551935D01*
X157487500Y-71551935D01*
X157578107Y-71543011D01*
X157665232Y-71516582D01*
X157675000Y-71511361D01*
X157684768Y-71516582D01*
X157771893Y-71543011D01*
X157862500Y-71551935D01*
X157987500Y-71551935D01*
X158078107Y-71543011D01*
X158165232Y-71516582D01*
X158175000Y-71511361D01*
X158184768Y-71516582D01*
X158271893Y-71543011D01*
X158362500Y-71551935D01*
X158487500Y-71551935D01*
X158578107Y-71543011D01*
X158665232Y-71516582D01*
X158675000Y-71511361D01*
X158684768Y-71516582D01*
X158771893Y-71543011D01*
X158862500Y-71551935D01*
X158987500Y-71551935D01*
X159078107Y-71543011D01*
X159165232Y-71516582D01*
X159175000Y-71511361D01*
X159184768Y-71516582D01*
%TA.AperFunction,Conductor*%
D31*
G36*
X159184768Y-71516582D02*
G01*
X159271893Y-71543011D01*
X159303842Y-71546158D01*
X159306989Y-71578107D01*
X159333418Y-71665232D01*
X159338639Y-71675000D01*
X159333418Y-71684768D01*
X159306989Y-71771893D01*
X159298065Y-71862500D01*
X159298065Y-71987500D01*
X159306989Y-72078107D01*
X159333418Y-72165232D01*
X159338639Y-72175000D01*
X159333418Y-72184768D01*
X159306989Y-72271893D01*
X159298065Y-72362500D01*
X159298065Y-72487500D01*
X159306989Y-72578107D01*
X159333418Y-72665232D01*
X159338639Y-72675000D01*
X159333418Y-72684768D01*
X159306989Y-72771893D01*
X159298065Y-72862500D01*
X159298065Y-72987500D01*
X159306989Y-73078107D01*
X159333418Y-73165232D01*
X159338639Y-73175000D01*
X159333418Y-73184768D01*
X159306989Y-73271893D01*
X159298065Y-73362500D01*
X159298065Y-73487500D01*
X159306989Y-73578107D01*
X159333418Y-73665232D01*
X159338639Y-73675000D01*
X159333418Y-73684768D01*
X159306989Y-73771893D01*
X159303842Y-73803842D01*
X159271893Y-73806989D01*
X159184768Y-73833418D01*
X159175000Y-73838639D01*
X159165232Y-73833418D01*
X159078107Y-73806989D01*
X158987500Y-73798065D01*
X158862500Y-73798065D01*
X158771893Y-73806989D01*
X158684768Y-73833418D01*
X158675000Y-73838639D01*
X158665232Y-73833418D01*
X158578107Y-73806989D01*
X158487500Y-73798065D01*
X158362500Y-73798065D01*
X158271893Y-73806989D01*
X158184768Y-73833418D01*
X158175000Y-73838639D01*
X158165232Y-73833418D01*
X158078107Y-73806989D01*
X157987500Y-73798065D01*
X157862500Y-73798065D01*
X157771893Y-73806989D01*
X157684768Y-73833418D01*
X157675000Y-73838639D01*
X157665232Y-73833418D01*
X157578107Y-73806989D01*
X157487500Y-73798065D01*
X157362500Y-73798065D01*
X157271893Y-73806989D01*
X157184768Y-73833418D01*
X157175000Y-73838639D01*
X157165232Y-73833418D01*
X157078107Y-73806989D01*
X157046158Y-73803842D01*
X157043011Y-73771893D01*
X157016582Y-73684768D01*
X157011361Y-73675000D01*
X157016582Y-73665232D01*
X157043011Y-73578107D01*
X157051935Y-73487500D01*
X157051935Y-73362500D01*
X157043011Y-73271893D01*
X157016582Y-73184768D01*
X157011361Y-73175000D01*
X157016582Y-73165232D01*
X157043011Y-73078107D01*
X157051935Y-72987500D01*
X157051935Y-72862500D01*
X157043011Y-72771893D01*
X157016582Y-72684768D01*
X157011361Y-72675000D01*
X157016582Y-72665232D01*
X157043011Y-72578107D01*
X157051935Y-72487500D01*
X157051935Y-72362500D01*
X157043011Y-72271893D01*
X157016582Y-72184768D01*
X157011361Y-72175000D01*
X157016582Y-72165232D01*
X157043011Y-72078107D01*
X157051935Y-71987500D01*
X157051935Y-71862500D01*
X157043011Y-71771893D01*
X157016582Y-71684768D01*
X157011361Y-71675000D01*
X157016582Y-71665232D01*
X157043011Y-71578107D01*
X157046158Y-71546158D01*
X157078107Y-71543011D01*
X157165232Y-71516582D01*
X157175000Y-71511361D01*
X157184768Y-71516582D01*
X157271893Y-71543011D01*
X157362500Y-71551935D01*
X157487500Y-71551935D01*
X157578107Y-71543011D01*
X157665232Y-71516582D01*
X157675000Y-71511361D01*
X157684768Y-71516582D01*
X157771893Y-71543011D01*
X157862500Y-71551935D01*
X157987500Y-71551935D01*
X158078107Y-71543011D01*
X158165232Y-71516582D01*
X158175000Y-71511361D01*
X158184768Y-71516582D01*
X158271893Y-71543011D01*
X158362500Y-71551935D01*
X158487500Y-71551935D01*
X158578107Y-71543011D01*
X158665232Y-71516582D01*
X158675000Y-71511361D01*
X158684768Y-71516582D01*
X158771893Y-71543011D01*
X158862500Y-71551935D01*
X158987500Y-71551935D01*
X159078107Y-71543011D01*
X159165232Y-71516582D01*
X159175000Y-71511361D01*
X159184768Y-71516582D01*
G37*
%TD.AperFunction*%
%TD*%
M02*
