%TF.GenerationSoftware,KiCad,Pcbnew,(5.1.8-0-10_14)*%
%TF.CreationDate,2020-11-27T10:39:21+01:00*%
%TF.ProjectId,SH-ESP32-Ethernet,53482d45-5350-4333-922d-45746865726e,0.1.0*%
%TF.SameCoordinates,Original*%
%TF.FileFunction,Soldermask,Top*%
%TF.FilePolarity,Negative*%
%FSLAX46Y46*%
G04 Gerber Fmt 4.6, Leading zero omitted, Abs format (unit mm)*
G04 Created by KiCad (PCBNEW (5.1.8-0-10_14)) date 2020-11-27 10:39:21*
%MOMM*%
%LPD*%
G01*
G04 APERTURE LIST*
%TA.AperFunction,Profile*%
%ADD10C,0.050000*%
%TD*%
%ADD11C,1.900000*%
%ADD12C,3.100000*%
%ADD13C,3.300000*%
%ADD14C,2.100000*%
%ADD15O,1.800000X1.800000*%
%ADD16C,0.100000*%
%ADD17C,6.400000*%
G04 APERTURE END LIST*
D10*
X165000000Y-108500000D02*
X172000000Y-108500000D01*
X161000000Y-112500000D02*
G75*
G02*
X165000000Y-108500000I4000000J0D01*
G01*
X148500000Y-108500000D02*
G75*
G02*
X152500000Y-112500000I0J-4000000D01*
G01*
X169500000Y-57000000D02*
X148500000Y-57000000D01*
X152500000Y-112500000D02*
X161000000Y-112499765D01*
X148500000Y-57000000D02*
X148500000Y-108500000D01*
X171989592Y-63010408D02*
X172000000Y-108500000D01*
X153000000Y-112500000D02*
X153000000Y-112500000D01*
X171989592Y-63010408D02*
G75*
G02*
X169500000Y-57000000I6010408J6010408D01*
G01*
D11*
%TO.C,J301*%
X166835000Y-99415000D03*
D12*
X163535000Y-103985000D03*
X163535000Y-88485000D03*
D13*
X160485000Y-101955000D03*
X160485000Y-90525000D03*
D14*
X156425000Y-102865000D03*
X156425000Y-100325000D03*
X156425000Y-92145000D03*
D11*
X166835000Y-101955000D03*
X169375000Y-100685000D03*
X169375000Y-98145000D03*
X166835000Y-96875000D03*
X169375000Y-95605000D03*
X166835000Y-94335000D03*
X169375000Y-93065000D03*
X166835000Y-91795000D03*
D14*
X156425000Y-89605000D03*
G36*
G01*
X168475000Y-89575000D02*
X170275000Y-89575000D01*
G75*
G02*
X170325000Y-89625000I0J-50000D01*
G01*
X170325000Y-91425000D01*
G75*
G02*
X170275000Y-91475000I-50000J0D01*
G01*
X168475000Y-91475000D01*
G75*
G02*
X168425000Y-91425000I0J50000D01*
G01*
X168425000Y-89625000D01*
G75*
G02*
X168475000Y-89575000I50000J0D01*
G01*
G37*
%TD*%
D15*
%TO.C,J303*%
X169920000Y-106690000D03*
G36*
G01*
X168230000Y-107590000D02*
X166530000Y-107590000D01*
G75*
G02*
X166480000Y-107540000I0J50000D01*
G01*
X166480000Y-105840000D01*
G75*
G02*
X166530000Y-105790000I50000J0D01*
G01*
X168230000Y-105790000D01*
G75*
G02*
X168280000Y-105840000I0J-50000D01*
G01*
X168280000Y-107540000D01*
G75*
G02*
X168230000Y-107590000I-50000J0D01*
G01*
G37*
%TD*%
%TO.C,C305*%
G36*
G01*
X161640000Y-70125000D02*
X161640000Y-70515000D01*
G75*
G02*
X161475000Y-70680000I-165000J0D01*
G01*
X161145000Y-70680000D01*
G75*
G02*
X160980000Y-70515000I0J165000D01*
G01*
X160980000Y-70125000D01*
G75*
G02*
X161145000Y-69960000I165000J0D01*
G01*
X161475000Y-69960000D01*
G75*
G02*
X161640000Y-70125000I0J-165000D01*
G01*
G37*
G36*
G01*
X162600000Y-70125000D02*
X162600000Y-70515000D01*
G75*
G02*
X162435000Y-70680000I-165000J0D01*
G01*
X162105000Y-70680000D01*
G75*
G02*
X161940000Y-70515000I0J165000D01*
G01*
X161940000Y-70125000D01*
G75*
G02*
X162105000Y-69960000I165000J0D01*
G01*
X162435000Y-69960000D01*
G75*
G02*
X162600000Y-70125000I0J-165000D01*
G01*
G37*
%TD*%
%TO.C,X301*%
G36*
G01*
X150150000Y-65780000D02*
X150150000Y-64580000D01*
G75*
G02*
X150200000Y-64530000I50000J0D01*
G01*
X151600000Y-64530000D01*
G75*
G02*
X151650000Y-64580000I0J-50000D01*
G01*
X151650000Y-65780000D01*
G75*
G02*
X151600000Y-65830000I-50000J0D01*
G01*
X150200000Y-65830000D01*
G75*
G02*
X150150000Y-65780000I0J50000D01*
G01*
G37*
G36*
G01*
X152550000Y-65780000D02*
X152550000Y-64580000D01*
G75*
G02*
X152600000Y-64530000I50000J0D01*
G01*
X154000000Y-64530000D01*
G75*
G02*
X154050000Y-64580000I0J-50000D01*
G01*
X154050000Y-65780000D01*
G75*
G02*
X154000000Y-65830000I-50000J0D01*
G01*
X152600000Y-65830000D01*
G75*
G02*
X152550000Y-65780000I0J50000D01*
G01*
G37*
G36*
G01*
X152550000Y-67680000D02*
X152550000Y-66480000D01*
G75*
G02*
X152600000Y-66430000I50000J0D01*
G01*
X154000000Y-66430000D01*
G75*
G02*
X154050000Y-66480000I0J-50000D01*
G01*
X154050000Y-67680000D01*
G75*
G02*
X154000000Y-67730000I-50000J0D01*
G01*
X152600000Y-67730000D01*
G75*
G02*
X152550000Y-67680000I0J50000D01*
G01*
G37*
G36*
G01*
X150150000Y-67680000D02*
X150150000Y-66480000D01*
G75*
G02*
X150200000Y-66430000I50000J0D01*
G01*
X151600000Y-66430000D01*
G75*
G02*
X151650000Y-66480000I0J-50000D01*
G01*
X151650000Y-67680000D01*
G75*
G02*
X151600000Y-67730000I-50000J0D01*
G01*
X150200000Y-67730000D01*
G75*
G02*
X150150000Y-67680000I0J50000D01*
G01*
G37*
%TD*%
%TO.C,R306*%
G36*
G01*
X155240000Y-63910000D02*
X154820000Y-63910000D01*
G75*
G02*
X154660000Y-63750000I0J160000D01*
G01*
X154660000Y-63430000D01*
G75*
G02*
X154820000Y-63270000I160000J0D01*
G01*
X155240000Y-63270000D01*
G75*
G02*
X155400000Y-63430000I0J-160000D01*
G01*
X155400000Y-63750000D01*
G75*
G02*
X155240000Y-63910000I-160000J0D01*
G01*
G37*
G36*
G01*
X155240000Y-64930000D02*
X154820000Y-64930000D01*
G75*
G02*
X154660000Y-64770000I0J160000D01*
G01*
X154660000Y-64450000D01*
G75*
G02*
X154820000Y-64290000I160000J0D01*
G01*
X155240000Y-64290000D01*
G75*
G02*
X155400000Y-64450000I0J-160000D01*
G01*
X155400000Y-64770000D01*
G75*
G02*
X155240000Y-64930000I-160000J0D01*
G01*
G37*
%TD*%
%TO.C,R308*%
G36*
G01*
X152990000Y-63910000D02*
X152990000Y-63490000D01*
G75*
G02*
X153150000Y-63330000I160000J0D01*
G01*
X153470000Y-63330000D01*
G75*
G02*
X153630000Y-63490000I0J-160000D01*
G01*
X153630000Y-63910000D01*
G75*
G02*
X153470000Y-64070000I-160000J0D01*
G01*
X153150000Y-64070000D01*
G75*
G02*
X152990000Y-63910000I0J160000D01*
G01*
G37*
G36*
G01*
X151970000Y-63910000D02*
X151970000Y-63490000D01*
G75*
G02*
X152130000Y-63330000I160000J0D01*
G01*
X152450000Y-63330000D01*
G75*
G02*
X152610000Y-63490000I0J-160000D01*
G01*
X152610000Y-63910000D01*
G75*
G02*
X152450000Y-64070000I-160000J0D01*
G01*
X152130000Y-64070000D01*
G75*
G02*
X151970000Y-63910000I0J160000D01*
G01*
G37*
%TD*%
%TO.C,R307*%
G36*
G01*
X157680000Y-68900000D02*
X157260000Y-68900000D01*
G75*
G02*
X157100000Y-68740000I0J160000D01*
G01*
X157100000Y-68420000D01*
G75*
G02*
X157260000Y-68260000I160000J0D01*
G01*
X157680000Y-68260000D01*
G75*
G02*
X157840000Y-68420000I0J-160000D01*
G01*
X157840000Y-68740000D01*
G75*
G02*
X157680000Y-68900000I-160000J0D01*
G01*
G37*
G36*
G01*
X157680000Y-69920000D02*
X157260000Y-69920000D01*
G75*
G02*
X157100000Y-69760000I0J160000D01*
G01*
X157100000Y-69440000D01*
G75*
G02*
X157260000Y-69280000I160000J0D01*
G01*
X157680000Y-69280000D01*
G75*
G02*
X157840000Y-69440000I0J-160000D01*
G01*
X157840000Y-69760000D01*
G75*
G02*
X157680000Y-69920000I-160000J0D01*
G01*
G37*
%TD*%
%TO.C,R305*%
G36*
G01*
X156980000Y-63970000D02*
X156560000Y-63970000D01*
G75*
G02*
X156400000Y-63810000I0J160000D01*
G01*
X156400000Y-63490000D01*
G75*
G02*
X156560000Y-63330000I160000J0D01*
G01*
X156980000Y-63330000D01*
G75*
G02*
X157140000Y-63490000I0J-160000D01*
G01*
X157140000Y-63810000D01*
G75*
G02*
X156980000Y-63970000I-160000J0D01*
G01*
G37*
G36*
G01*
X156980000Y-64990000D02*
X156560000Y-64990000D01*
G75*
G02*
X156400000Y-64830000I0J160000D01*
G01*
X156400000Y-64510000D01*
G75*
G02*
X156560000Y-64350000I160000J0D01*
G01*
X156980000Y-64350000D01*
G75*
G02*
X157140000Y-64510000I0J-160000D01*
G01*
X157140000Y-64830000D01*
G75*
G02*
X156980000Y-64990000I-160000J0D01*
G01*
G37*
%TD*%
%TO.C,R304*%
G36*
G01*
X158330000Y-63950000D02*
X157910000Y-63950000D01*
G75*
G02*
X157750000Y-63790000I0J160000D01*
G01*
X157750000Y-63470000D01*
G75*
G02*
X157910000Y-63310000I160000J0D01*
G01*
X158330000Y-63310000D01*
G75*
G02*
X158490000Y-63470000I0J-160000D01*
G01*
X158490000Y-63790000D01*
G75*
G02*
X158330000Y-63950000I-160000J0D01*
G01*
G37*
G36*
G01*
X158330000Y-64970000D02*
X157910000Y-64970000D01*
G75*
G02*
X157750000Y-64810000I0J160000D01*
G01*
X157750000Y-64490000D01*
G75*
G02*
X157910000Y-64330000I160000J0D01*
G01*
X158330000Y-64330000D01*
G75*
G02*
X158490000Y-64490000I0J-160000D01*
G01*
X158490000Y-64810000D01*
G75*
G02*
X158330000Y-64970000I-160000J0D01*
G01*
G37*
%TD*%
%TO.C,C307*%
G36*
G01*
X162330000Y-75405000D02*
X162330000Y-75795000D01*
G75*
G02*
X162165000Y-75960000I-165000J0D01*
G01*
X161835000Y-75960000D01*
G75*
G02*
X161670000Y-75795000I0J165000D01*
G01*
X161670000Y-75405000D01*
G75*
G02*
X161835000Y-75240000I165000J0D01*
G01*
X162165000Y-75240000D01*
G75*
G02*
X162330000Y-75405000I0J-165000D01*
G01*
G37*
G36*
G01*
X163290000Y-75405000D02*
X163290000Y-75795000D01*
G75*
G02*
X163125000Y-75960000I-165000J0D01*
G01*
X162795000Y-75960000D01*
G75*
G02*
X162630000Y-75795000I0J165000D01*
G01*
X162630000Y-75405000D01*
G75*
G02*
X162795000Y-75240000I165000J0D01*
G01*
X163125000Y-75240000D01*
G75*
G02*
X163290000Y-75405000I0J-165000D01*
G01*
G37*
%TD*%
D16*
%TO.C,JP301*%
G36*
X150569039Y-73149755D02*
G01*
X150566194Y-73159134D01*
X150561573Y-73167779D01*
X150555355Y-73175355D01*
X150547779Y-73181573D01*
X150539134Y-73186194D01*
X150529755Y-73189039D01*
X150520000Y-73190000D01*
X149520000Y-73190000D01*
X149510245Y-73189039D01*
X149500866Y-73186194D01*
X149492221Y-73181573D01*
X149484645Y-73175355D01*
X149478427Y-73167779D01*
X149473806Y-73159134D01*
X149470961Y-73149755D01*
X149470000Y-73140000D01*
X149470000Y-71990000D01*
X149470961Y-71980245D01*
X149473806Y-71970866D01*
X149478427Y-71962221D01*
X149484645Y-71954645D01*
X149492221Y-71948427D01*
X149500866Y-71943806D01*
X149510245Y-71940961D01*
X149520000Y-71940000D01*
X149529755Y-71940961D01*
X149539134Y-71943806D01*
X149547779Y-71948427D01*
X149555355Y-71954645D01*
X150020000Y-72419290D01*
X150484645Y-71954645D01*
X150492221Y-71948427D01*
X150500866Y-71943806D01*
X150510245Y-71940961D01*
X150520000Y-71940000D01*
X150529755Y-71940961D01*
X150539134Y-71943806D01*
X150547779Y-71948427D01*
X150555355Y-71954645D01*
X150561573Y-71962221D01*
X150566194Y-71970866D01*
X150569039Y-71980245D01*
X150570000Y-71990000D01*
X150570000Y-73140000D01*
X150569039Y-73149755D01*
G37*
G36*
X150569039Y-71724755D02*
G01*
X150566194Y-71734134D01*
X150561573Y-71742779D01*
X150555355Y-71750355D01*
X150055355Y-72250355D01*
X150047779Y-72256573D01*
X150039134Y-72261194D01*
X150029755Y-72264039D01*
X150020000Y-72265000D01*
X150010245Y-72264039D01*
X150000866Y-72261194D01*
X149992221Y-72256573D01*
X149984645Y-72250355D01*
X149484645Y-71750355D01*
X149478427Y-71742779D01*
X149473806Y-71734134D01*
X149470961Y-71724755D01*
X149470000Y-71715000D01*
X149470000Y-70715000D01*
X149470961Y-70705245D01*
X149473806Y-70695866D01*
X149478427Y-70687221D01*
X149484645Y-70679645D01*
X149492221Y-70673427D01*
X149500866Y-70668806D01*
X149510245Y-70665961D01*
X149520000Y-70665000D01*
X150520000Y-70665000D01*
X150529755Y-70665961D01*
X150539134Y-70668806D01*
X150547779Y-70673427D01*
X150555355Y-70679645D01*
X150561573Y-70687221D01*
X150566194Y-70695866D01*
X150569039Y-70705245D01*
X150570000Y-70715000D01*
X150570000Y-71715000D01*
X150569039Y-71724755D01*
G37*
%TD*%
%TO.C,R317*%
G36*
G01*
X155010000Y-79805000D02*
X154410000Y-79805000D01*
G75*
G02*
X154185000Y-79580000I0J225000D01*
G01*
X154185000Y-79130000D01*
G75*
G02*
X154410000Y-78905000I225000J0D01*
G01*
X155010000Y-78905000D01*
G75*
G02*
X155235000Y-79130000I0J-225000D01*
G01*
X155235000Y-79580000D01*
G75*
G02*
X155010000Y-79805000I-225000J0D01*
G01*
G37*
G36*
G01*
X155010000Y-81455000D02*
X154410000Y-81455000D01*
G75*
G02*
X154185000Y-81230000I0J225000D01*
G01*
X154185000Y-80780000D01*
G75*
G02*
X154410000Y-80555000I225000J0D01*
G01*
X155010000Y-80555000D01*
G75*
G02*
X155235000Y-80780000I0J-225000D01*
G01*
X155235000Y-81230000D01*
G75*
G02*
X155010000Y-81455000I-225000J0D01*
G01*
G37*
%TD*%
%TO.C,R316*%
G36*
G01*
X156570000Y-79805000D02*
X155970000Y-79805000D01*
G75*
G02*
X155745000Y-79580000I0J225000D01*
G01*
X155745000Y-79130000D01*
G75*
G02*
X155970000Y-78905000I225000J0D01*
G01*
X156570000Y-78905000D01*
G75*
G02*
X156795000Y-79130000I0J-225000D01*
G01*
X156795000Y-79580000D01*
G75*
G02*
X156570000Y-79805000I-225000J0D01*
G01*
G37*
G36*
G01*
X156570000Y-81455000D02*
X155970000Y-81455000D01*
G75*
G02*
X155745000Y-81230000I0J225000D01*
G01*
X155745000Y-80780000D01*
G75*
G02*
X155970000Y-80555000I225000J0D01*
G01*
X156570000Y-80555000D01*
G75*
G02*
X156795000Y-80780000I0J-225000D01*
G01*
X156795000Y-81230000D01*
G75*
G02*
X156570000Y-81455000I-225000J0D01*
G01*
G37*
%TD*%
%TO.C,R315*%
G36*
G01*
X170350000Y-84465000D02*
X169750000Y-84465000D01*
G75*
G02*
X169525000Y-84240000I0J225000D01*
G01*
X169525000Y-83790000D01*
G75*
G02*
X169750000Y-83565000I225000J0D01*
G01*
X170350000Y-83565000D01*
G75*
G02*
X170575000Y-83790000I0J-225000D01*
G01*
X170575000Y-84240000D01*
G75*
G02*
X170350000Y-84465000I-225000J0D01*
G01*
G37*
G36*
G01*
X170350000Y-86115000D02*
X169750000Y-86115000D01*
G75*
G02*
X169525000Y-85890000I0J225000D01*
G01*
X169525000Y-85440000D01*
G75*
G02*
X169750000Y-85215000I225000J0D01*
G01*
X170350000Y-85215000D01*
G75*
G02*
X170575000Y-85440000I0J-225000D01*
G01*
X170575000Y-85890000D01*
G75*
G02*
X170350000Y-86115000I-225000J0D01*
G01*
G37*
%TD*%
%TO.C,R314*%
G36*
G01*
X167950000Y-75550000D02*
X167950000Y-75130000D01*
G75*
G02*
X168110000Y-74970000I160000J0D01*
G01*
X168430000Y-74970000D01*
G75*
G02*
X168590000Y-75130000I0J-160000D01*
G01*
X168590000Y-75550000D01*
G75*
G02*
X168430000Y-75710000I-160000J0D01*
G01*
X168110000Y-75710000D01*
G75*
G02*
X167950000Y-75550000I0J160000D01*
G01*
G37*
G36*
G01*
X166930000Y-75550000D02*
X166930000Y-75130000D01*
G75*
G02*
X167090000Y-74970000I160000J0D01*
G01*
X167410000Y-74970000D01*
G75*
G02*
X167570000Y-75130000I0J-160000D01*
G01*
X167570000Y-75550000D01*
G75*
G02*
X167410000Y-75710000I-160000J0D01*
G01*
X167090000Y-75710000D01*
G75*
G02*
X166930000Y-75550000I0J160000D01*
G01*
G37*
%TD*%
%TO.C,R313*%
G36*
G01*
X162000000Y-71520000D02*
X162000000Y-71100000D01*
G75*
G02*
X162160000Y-70940000I160000J0D01*
G01*
X162480000Y-70940000D01*
G75*
G02*
X162640000Y-71100000I0J-160000D01*
G01*
X162640000Y-71520000D01*
G75*
G02*
X162480000Y-71680000I-160000J0D01*
G01*
X162160000Y-71680000D01*
G75*
G02*
X162000000Y-71520000I0J160000D01*
G01*
G37*
G36*
G01*
X160980000Y-71520000D02*
X160980000Y-71100000D01*
G75*
G02*
X161140000Y-70940000I160000J0D01*
G01*
X161460000Y-70940000D01*
G75*
G02*
X161620000Y-71100000I0J-160000D01*
G01*
X161620000Y-71520000D01*
G75*
G02*
X161460000Y-71680000I-160000J0D01*
G01*
X161140000Y-71680000D01*
G75*
G02*
X160980000Y-71520000I0J160000D01*
G01*
G37*
%TD*%
%TO.C,R312*%
G36*
G01*
X169490000Y-75130000D02*
X169490000Y-75550000D01*
G75*
G02*
X169330000Y-75710000I-160000J0D01*
G01*
X169010000Y-75710000D01*
G75*
G02*
X168850000Y-75550000I0J160000D01*
G01*
X168850000Y-75130000D01*
G75*
G02*
X169010000Y-74970000I160000J0D01*
G01*
X169330000Y-74970000D01*
G75*
G02*
X169490000Y-75130000I0J-160000D01*
G01*
G37*
G36*
G01*
X170510000Y-75130000D02*
X170510000Y-75550000D01*
G75*
G02*
X170350000Y-75710000I-160000J0D01*
G01*
X170030000Y-75710000D01*
G75*
G02*
X169870000Y-75550000I0J160000D01*
G01*
X169870000Y-75130000D01*
G75*
G02*
X170030000Y-74970000I160000J0D01*
G01*
X170350000Y-74970000D01*
G75*
G02*
X170510000Y-75130000I0J-160000D01*
G01*
G37*
%TD*%
%TO.C,R311*%
G36*
G01*
X165530000Y-76530000D02*
X165530000Y-76110000D01*
G75*
G02*
X165690000Y-75950000I160000J0D01*
G01*
X166010000Y-75950000D01*
G75*
G02*
X166170000Y-76110000I0J-160000D01*
G01*
X166170000Y-76530000D01*
G75*
G02*
X166010000Y-76690000I-160000J0D01*
G01*
X165690000Y-76690000D01*
G75*
G02*
X165530000Y-76530000I0J160000D01*
G01*
G37*
G36*
G01*
X164510000Y-76530000D02*
X164510000Y-76110000D01*
G75*
G02*
X164670000Y-75950000I160000J0D01*
G01*
X164990000Y-75950000D01*
G75*
G02*
X165150000Y-76110000I0J-160000D01*
G01*
X165150000Y-76530000D01*
G75*
G02*
X164990000Y-76690000I-160000J0D01*
G01*
X164670000Y-76690000D01*
G75*
G02*
X164510000Y-76530000I0J160000D01*
G01*
G37*
%TD*%
%TO.C,R310*%
G36*
G01*
X167110000Y-76120000D02*
X167110000Y-76540000D01*
G75*
G02*
X166950000Y-76700000I-160000J0D01*
G01*
X166630000Y-76700000D01*
G75*
G02*
X166470000Y-76540000I0J160000D01*
G01*
X166470000Y-76120000D01*
G75*
G02*
X166630000Y-75960000I160000J0D01*
G01*
X166950000Y-75960000D01*
G75*
G02*
X167110000Y-76120000I0J-160000D01*
G01*
G37*
G36*
G01*
X168130000Y-76120000D02*
X168130000Y-76540000D01*
G75*
G02*
X167970000Y-76700000I-160000J0D01*
G01*
X167650000Y-76700000D01*
G75*
G02*
X167490000Y-76540000I0J160000D01*
G01*
X167490000Y-76120000D01*
G75*
G02*
X167650000Y-75960000I160000J0D01*
G01*
X167970000Y-75960000D01*
G75*
G02*
X168130000Y-76120000I0J-160000D01*
G01*
G37*
%TD*%
%TO.C,R309*%
G36*
G01*
X157160000Y-76180000D02*
X157160000Y-76600000D01*
G75*
G02*
X157000000Y-76760000I-160000J0D01*
G01*
X156680000Y-76760000D01*
G75*
G02*
X156520000Y-76600000I0J160000D01*
G01*
X156520000Y-76180000D01*
G75*
G02*
X156680000Y-76020000I160000J0D01*
G01*
X157000000Y-76020000D01*
G75*
G02*
X157160000Y-76180000I0J-160000D01*
G01*
G37*
G36*
G01*
X158180000Y-76180000D02*
X158180000Y-76600000D01*
G75*
G02*
X158020000Y-76760000I-160000J0D01*
G01*
X157700000Y-76760000D01*
G75*
G02*
X157540000Y-76600000I0J160000D01*
G01*
X157540000Y-76180000D01*
G75*
G02*
X157700000Y-76020000I160000J0D01*
G01*
X158020000Y-76020000D01*
G75*
G02*
X158180000Y-76180000I0J-160000D01*
G01*
G37*
%TD*%
%TO.C,R303*%
G36*
G01*
X151735000Y-69240000D02*
X151735000Y-68640000D01*
G75*
G02*
X151960000Y-68415000I225000J0D01*
G01*
X152410000Y-68415000D01*
G75*
G02*
X152635000Y-68640000I0J-225000D01*
G01*
X152635000Y-69240000D01*
G75*
G02*
X152410000Y-69465000I-225000J0D01*
G01*
X151960000Y-69465000D01*
G75*
G02*
X151735000Y-69240000I0J225000D01*
G01*
G37*
G36*
G01*
X150085000Y-69240000D02*
X150085000Y-68640000D01*
G75*
G02*
X150310000Y-68415000I225000J0D01*
G01*
X150760000Y-68415000D01*
G75*
G02*
X150985000Y-68640000I0J-225000D01*
G01*
X150985000Y-69240000D01*
G75*
G02*
X150760000Y-69465000I-225000J0D01*
G01*
X150310000Y-69465000D01*
G75*
G02*
X150085000Y-69240000I0J225000D01*
G01*
G37*
%TD*%
%TO.C,R302*%
G36*
G01*
X151500000Y-72145000D02*
X152100000Y-72145000D01*
G75*
G02*
X152325000Y-72370000I0J-225000D01*
G01*
X152325000Y-72820000D01*
G75*
G02*
X152100000Y-73045000I-225000J0D01*
G01*
X151500000Y-73045000D01*
G75*
G02*
X151275000Y-72820000I0J225000D01*
G01*
X151275000Y-72370000D01*
G75*
G02*
X151500000Y-72145000I225000J0D01*
G01*
G37*
G36*
G01*
X151500000Y-70495000D02*
X152100000Y-70495000D01*
G75*
G02*
X152325000Y-70720000I0J-225000D01*
G01*
X152325000Y-71170000D01*
G75*
G02*
X152100000Y-71395000I-225000J0D01*
G01*
X151500000Y-71395000D01*
G75*
G02*
X151275000Y-71170000I0J225000D01*
G01*
X151275000Y-70720000D01*
G75*
G02*
X151500000Y-70495000I225000J0D01*
G01*
G37*
%TD*%
%TO.C,R301*%
G36*
G01*
X153775000Y-74330000D02*
X153775000Y-73730000D01*
G75*
G02*
X154000000Y-73505000I225000J0D01*
G01*
X154450000Y-73505000D01*
G75*
G02*
X154675000Y-73730000I0J-225000D01*
G01*
X154675000Y-74330000D01*
G75*
G02*
X154450000Y-74555000I-225000J0D01*
G01*
X154000000Y-74555000D01*
G75*
G02*
X153775000Y-74330000I0J225000D01*
G01*
G37*
G36*
G01*
X152125000Y-74330000D02*
X152125000Y-73730000D01*
G75*
G02*
X152350000Y-73505000I225000J0D01*
G01*
X152800000Y-73505000D01*
G75*
G02*
X153025000Y-73730000I0J-225000D01*
G01*
X153025000Y-74330000D01*
G75*
G02*
X152800000Y-74555000I-225000J0D01*
G01*
X152350000Y-74555000D01*
G75*
G02*
X152125000Y-74330000I0J225000D01*
G01*
G37*
%TD*%
D15*
%TO.C,J302*%
X150540000Y-61340000D03*
X150540000Y-58800000D03*
X153080000Y-61340000D03*
X153080000Y-58800000D03*
X155620000Y-61340000D03*
X155620000Y-58800000D03*
X158160000Y-61340000D03*
X158160000Y-58800000D03*
X160700000Y-61340000D03*
X160700000Y-58800000D03*
X163240000Y-61340000D03*
X163240000Y-58800000D03*
X165780000Y-61340000D03*
G36*
G01*
X164930000Y-57900000D02*
X166630000Y-57900000D01*
G75*
G02*
X166680000Y-57950000I0J-50000D01*
G01*
X166680000Y-59650000D01*
G75*
G02*
X166630000Y-59700000I-50000J0D01*
G01*
X164930000Y-59700000D01*
G75*
G02*
X164880000Y-59650000I0J50000D01*
G01*
X164880000Y-57950000D01*
G75*
G02*
X164930000Y-57900000I50000J0D01*
G01*
G37*
%TD*%
%TO.C,FB301*%
G36*
G01*
X164046250Y-67915000D02*
X163233750Y-67915000D01*
G75*
G02*
X162990000Y-67671250I0J243750D01*
G01*
X162990000Y-67183750D01*
G75*
G02*
X163233750Y-66940000I243750J0D01*
G01*
X164046250Y-66940000D01*
G75*
G02*
X164290000Y-67183750I0J-243750D01*
G01*
X164290000Y-67671250D01*
G75*
G02*
X164046250Y-67915000I-243750J0D01*
G01*
G37*
G36*
G01*
X164046250Y-70040000D02*
X163233750Y-70040000D01*
G75*
G02*
X162990000Y-69796250I0J243750D01*
G01*
X162990000Y-69308750D01*
G75*
G02*
X163233750Y-69065000I243750J0D01*
G01*
X164046250Y-69065000D01*
G75*
G02*
X164290000Y-69308750I0J-243750D01*
G01*
X164290000Y-69796250D01*
G75*
G02*
X164046250Y-70040000I-243750J0D01*
G01*
G37*
%TD*%
%TO.C,C308*%
G36*
G01*
X170120000Y-86805000D02*
X170120000Y-87195000D01*
G75*
G02*
X169955000Y-87360000I-165000J0D01*
G01*
X169625000Y-87360000D01*
G75*
G02*
X169460000Y-87195000I0J165000D01*
G01*
X169460000Y-86805000D01*
G75*
G02*
X169625000Y-86640000I165000J0D01*
G01*
X169955000Y-86640000D01*
G75*
G02*
X170120000Y-86805000I0J-165000D01*
G01*
G37*
G36*
G01*
X171080000Y-86805000D02*
X171080000Y-87195000D01*
G75*
G02*
X170915000Y-87360000I-165000J0D01*
G01*
X170585000Y-87360000D01*
G75*
G02*
X170420000Y-87195000I0J165000D01*
G01*
X170420000Y-86805000D01*
G75*
G02*
X170585000Y-86640000I165000J0D01*
G01*
X170915000Y-86640000D01*
G75*
G02*
X171080000Y-86805000I0J-165000D01*
G01*
G37*
%TD*%
%TO.C,C306*%
G36*
G01*
X157220000Y-77185000D02*
X157220000Y-77575000D01*
G75*
G02*
X157055000Y-77740000I-165000J0D01*
G01*
X156725000Y-77740000D01*
G75*
G02*
X156560000Y-77575000I0J165000D01*
G01*
X156560000Y-77185000D01*
G75*
G02*
X156725000Y-77020000I165000J0D01*
G01*
X157055000Y-77020000D01*
G75*
G02*
X157220000Y-77185000I0J-165000D01*
G01*
G37*
G36*
G01*
X158180000Y-77185000D02*
X158180000Y-77575000D01*
G75*
G02*
X158015000Y-77740000I-165000J0D01*
G01*
X157685000Y-77740000D01*
G75*
G02*
X157520000Y-77575000I0J165000D01*
G01*
X157520000Y-77185000D01*
G75*
G02*
X157685000Y-77020000I165000J0D01*
G01*
X158015000Y-77020000D01*
G75*
G02*
X158180000Y-77185000I0J-165000D01*
G01*
G37*
%TD*%
%TO.C,C304*%
G36*
G01*
X162495000Y-74105000D02*
X162495000Y-74655000D01*
G75*
G02*
X162245000Y-74905000I-250000J0D01*
G01*
X161745000Y-74905000D01*
G75*
G02*
X161495000Y-74655000I0J250000D01*
G01*
X161495000Y-74105000D01*
G75*
G02*
X161745000Y-73855000I250000J0D01*
G01*
X162245000Y-73855000D01*
G75*
G02*
X162495000Y-74105000I0J-250000D01*
G01*
G37*
G36*
G01*
X164045000Y-74105000D02*
X164045000Y-74655000D01*
G75*
G02*
X163795000Y-74905000I-250000J0D01*
G01*
X163295000Y-74905000D01*
G75*
G02*
X163045000Y-74655000I0J250000D01*
G01*
X163045000Y-74105000D01*
G75*
G02*
X163295000Y-73855000I250000J0D01*
G01*
X163795000Y-73855000D01*
G75*
G02*
X164045000Y-74105000I0J-250000D01*
G01*
G37*
%TD*%
%TO.C,C303*%
G36*
G01*
X153995000Y-70315000D02*
X154545000Y-70315000D01*
G75*
G02*
X154795000Y-70565000I0J-250000D01*
G01*
X154795000Y-71065000D01*
G75*
G02*
X154545000Y-71315000I-250000J0D01*
G01*
X153995000Y-71315000D01*
G75*
G02*
X153745000Y-71065000I0J250000D01*
G01*
X153745000Y-70565000D01*
G75*
G02*
X153995000Y-70315000I250000J0D01*
G01*
G37*
G36*
G01*
X153995000Y-68765000D02*
X154545000Y-68765000D01*
G75*
G02*
X154795000Y-69015000I0J-250000D01*
G01*
X154795000Y-69515000D01*
G75*
G02*
X154545000Y-69765000I-250000J0D01*
G01*
X153995000Y-69765000D01*
G75*
G02*
X153745000Y-69515000I0J250000D01*
G01*
X153745000Y-69015000D01*
G75*
G02*
X153995000Y-68765000I250000J0D01*
G01*
G37*
%TD*%
%TO.C,C302*%
G36*
G01*
X155870000Y-69375000D02*
X155870000Y-69765000D01*
G75*
G02*
X155705000Y-69930000I-165000J0D01*
G01*
X155375000Y-69930000D01*
G75*
G02*
X155210000Y-69765000I0J165000D01*
G01*
X155210000Y-69375000D01*
G75*
G02*
X155375000Y-69210000I165000J0D01*
G01*
X155705000Y-69210000D01*
G75*
G02*
X155870000Y-69375000I0J-165000D01*
G01*
G37*
G36*
G01*
X156830000Y-69375000D02*
X156830000Y-69765000D01*
G75*
G02*
X156665000Y-69930000I-165000J0D01*
G01*
X156335000Y-69930000D01*
G75*
G02*
X156170000Y-69765000I0J165000D01*
G01*
X156170000Y-69375000D01*
G75*
G02*
X156335000Y-69210000I165000J0D01*
G01*
X156665000Y-69210000D01*
G75*
G02*
X156830000Y-69375000I0J-165000D01*
G01*
G37*
%TD*%
%TO.C,C301*%
G36*
G01*
X155870000Y-68395000D02*
X155870000Y-68785000D01*
G75*
G02*
X155705000Y-68950000I-165000J0D01*
G01*
X155375000Y-68950000D01*
G75*
G02*
X155210000Y-68785000I0J165000D01*
G01*
X155210000Y-68395000D01*
G75*
G02*
X155375000Y-68230000I165000J0D01*
G01*
X155705000Y-68230000D01*
G75*
G02*
X155870000Y-68395000I0J-165000D01*
G01*
G37*
G36*
G01*
X156830000Y-68395000D02*
X156830000Y-68785000D01*
G75*
G02*
X156665000Y-68950000I-165000J0D01*
G01*
X156335000Y-68950000D01*
G75*
G02*
X156170000Y-68785000I0J165000D01*
G01*
X156170000Y-68395000D01*
G75*
G02*
X156335000Y-68230000I165000J0D01*
G01*
X156665000Y-68230000D01*
G75*
G02*
X156830000Y-68395000I0J-165000D01*
G01*
G37*
%TD*%
%TO.C,U301*%
G36*
G01*
X156875000Y-71325000D02*
X159475000Y-71325000D01*
G75*
G02*
X159525000Y-71375000I0J-50000D01*
G01*
X159525000Y-73975000D01*
G75*
G02*
X159475000Y-74025000I-50000J0D01*
G01*
X156875000Y-74025000D01*
G75*
G02*
X156825000Y-73975000I0J50000D01*
G01*
X156825000Y-71375000D01*
G75*
G02*
X156875000Y-71325000I50000J0D01*
G01*
G37*
G36*
G01*
X159737500Y-71250000D02*
X160487500Y-71250000D01*
G75*
G02*
X160575000Y-71337500I0J-87500D01*
G01*
X160575000Y-71512500D01*
G75*
G02*
X160487500Y-71600000I-87500J0D01*
G01*
X159737500Y-71600000D01*
G75*
G02*
X159650000Y-71512500I0J87500D01*
G01*
X159650000Y-71337500D01*
G75*
G02*
X159737500Y-71250000I87500J0D01*
G01*
G37*
G36*
G01*
X159737500Y-71750000D02*
X160487500Y-71750000D01*
G75*
G02*
X160575000Y-71837500I0J-87500D01*
G01*
X160575000Y-72012500D01*
G75*
G02*
X160487500Y-72100000I-87500J0D01*
G01*
X159737500Y-72100000D01*
G75*
G02*
X159650000Y-72012500I0J87500D01*
G01*
X159650000Y-71837500D01*
G75*
G02*
X159737500Y-71750000I87500J0D01*
G01*
G37*
G36*
G01*
X159737500Y-72250000D02*
X160487500Y-72250000D01*
G75*
G02*
X160575000Y-72337500I0J-87500D01*
G01*
X160575000Y-72512500D01*
G75*
G02*
X160487500Y-72600000I-87500J0D01*
G01*
X159737500Y-72600000D01*
G75*
G02*
X159650000Y-72512500I0J87500D01*
G01*
X159650000Y-72337500D01*
G75*
G02*
X159737500Y-72250000I87500J0D01*
G01*
G37*
G36*
G01*
X159737500Y-72750000D02*
X160487500Y-72750000D01*
G75*
G02*
X160575000Y-72837500I0J-87500D01*
G01*
X160575000Y-73012500D01*
G75*
G02*
X160487500Y-73100000I-87500J0D01*
G01*
X159737500Y-73100000D01*
G75*
G02*
X159650000Y-73012500I0J87500D01*
G01*
X159650000Y-72837500D01*
G75*
G02*
X159737500Y-72750000I87500J0D01*
G01*
G37*
G36*
G01*
X159737500Y-73250000D02*
X160487500Y-73250000D01*
G75*
G02*
X160575000Y-73337500I0J-87500D01*
G01*
X160575000Y-73512500D01*
G75*
G02*
X160487500Y-73600000I-87500J0D01*
G01*
X159737500Y-73600000D01*
G75*
G02*
X159650000Y-73512500I0J87500D01*
G01*
X159650000Y-73337500D01*
G75*
G02*
X159737500Y-73250000I87500J0D01*
G01*
G37*
G36*
G01*
X159737500Y-73750000D02*
X160487500Y-73750000D01*
G75*
G02*
X160575000Y-73837500I0J-87500D01*
G01*
X160575000Y-74012500D01*
G75*
G02*
X160487500Y-74100000I-87500J0D01*
G01*
X159737500Y-74100000D01*
G75*
G02*
X159650000Y-74012500I0J87500D01*
G01*
X159650000Y-73837500D01*
G75*
G02*
X159737500Y-73750000I87500J0D01*
G01*
G37*
G36*
G01*
X159337500Y-74150000D02*
X159512500Y-74150000D01*
G75*
G02*
X159600000Y-74237500I0J-87500D01*
G01*
X159600000Y-74987500D01*
G75*
G02*
X159512500Y-75075000I-87500J0D01*
G01*
X159337500Y-75075000D01*
G75*
G02*
X159250000Y-74987500I0J87500D01*
G01*
X159250000Y-74237500D01*
G75*
G02*
X159337500Y-74150000I87500J0D01*
G01*
G37*
G36*
G01*
X158837500Y-74150000D02*
X159012500Y-74150000D01*
G75*
G02*
X159100000Y-74237500I0J-87500D01*
G01*
X159100000Y-74987500D01*
G75*
G02*
X159012500Y-75075000I-87500J0D01*
G01*
X158837500Y-75075000D01*
G75*
G02*
X158750000Y-74987500I0J87500D01*
G01*
X158750000Y-74237500D01*
G75*
G02*
X158837500Y-74150000I87500J0D01*
G01*
G37*
G36*
G01*
X158337500Y-74150000D02*
X158512500Y-74150000D01*
G75*
G02*
X158600000Y-74237500I0J-87500D01*
G01*
X158600000Y-74987500D01*
G75*
G02*
X158512500Y-75075000I-87500J0D01*
G01*
X158337500Y-75075000D01*
G75*
G02*
X158250000Y-74987500I0J87500D01*
G01*
X158250000Y-74237500D01*
G75*
G02*
X158337500Y-74150000I87500J0D01*
G01*
G37*
G36*
G01*
X157837500Y-74150000D02*
X158012500Y-74150000D01*
G75*
G02*
X158100000Y-74237500I0J-87500D01*
G01*
X158100000Y-74987500D01*
G75*
G02*
X158012500Y-75075000I-87500J0D01*
G01*
X157837500Y-75075000D01*
G75*
G02*
X157750000Y-74987500I0J87500D01*
G01*
X157750000Y-74237500D01*
G75*
G02*
X157837500Y-74150000I87500J0D01*
G01*
G37*
G36*
G01*
X157337500Y-74150000D02*
X157512500Y-74150000D01*
G75*
G02*
X157600000Y-74237500I0J-87500D01*
G01*
X157600000Y-74987500D01*
G75*
G02*
X157512500Y-75075000I-87500J0D01*
G01*
X157337500Y-75075000D01*
G75*
G02*
X157250000Y-74987500I0J87500D01*
G01*
X157250000Y-74237500D01*
G75*
G02*
X157337500Y-74150000I87500J0D01*
G01*
G37*
G36*
G01*
X156837500Y-74150000D02*
X157012500Y-74150000D01*
G75*
G02*
X157100000Y-74237500I0J-87500D01*
G01*
X157100000Y-74987500D01*
G75*
G02*
X157012500Y-75075000I-87500J0D01*
G01*
X156837500Y-75075000D01*
G75*
G02*
X156750000Y-74987500I0J87500D01*
G01*
X156750000Y-74237500D01*
G75*
G02*
X156837500Y-74150000I87500J0D01*
G01*
G37*
G36*
G01*
X155862500Y-73750000D02*
X156612500Y-73750000D01*
G75*
G02*
X156700000Y-73837500I0J-87500D01*
G01*
X156700000Y-74012500D01*
G75*
G02*
X156612500Y-74100000I-87500J0D01*
G01*
X155862500Y-74100000D01*
G75*
G02*
X155775000Y-74012500I0J87500D01*
G01*
X155775000Y-73837500D01*
G75*
G02*
X155862500Y-73750000I87500J0D01*
G01*
G37*
G36*
G01*
X155862500Y-73250000D02*
X156612500Y-73250000D01*
G75*
G02*
X156700000Y-73337500I0J-87500D01*
G01*
X156700000Y-73512500D01*
G75*
G02*
X156612500Y-73600000I-87500J0D01*
G01*
X155862500Y-73600000D01*
G75*
G02*
X155775000Y-73512500I0J87500D01*
G01*
X155775000Y-73337500D01*
G75*
G02*
X155862500Y-73250000I87500J0D01*
G01*
G37*
G36*
G01*
X155862500Y-72750000D02*
X156612500Y-72750000D01*
G75*
G02*
X156700000Y-72837500I0J-87500D01*
G01*
X156700000Y-73012500D01*
G75*
G02*
X156612500Y-73100000I-87500J0D01*
G01*
X155862500Y-73100000D01*
G75*
G02*
X155775000Y-73012500I0J87500D01*
G01*
X155775000Y-72837500D01*
G75*
G02*
X155862500Y-72750000I87500J0D01*
G01*
G37*
G36*
G01*
X155862500Y-72250000D02*
X156612500Y-72250000D01*
G75*
G02*
X156700000Y-72337500I0J-87500D01*
G01*
X156700000Y-72512500D01*
G75*
G02*
X156612500Y-72600000I-87500J0D01*
G01*
X155862500Y-72600000D01*
G75*
G02*
X155775000Y-72512500I0J87500D01*
G01*
X155775000Y-72337500D01*
G75*
G02*
X155862500Y-72250000I87500J0D01*
G01*
G37*
G36*
G01*
X155862500Y-71750000D02*
X156612500Y-71750000D01*
G75*
G02*
X156700000Y-71837500I0J-87500D01*
G01*
X156700000Y-72012500D01*
G75*
G02*
X156612500Y-72100000I-87500J0D01*
G01*
X155862500Y-72100000D01*
G75*
G02*
X155775000Y-72012500I0J87500D01*
G01*
X155775000Y-71837500D01*
G75*
G02*
X155862500Y-71750000I87500J0D01*
G01*
G37*
G36*
G01*
X155862500Y-71250000D02*
X156612500Y-71250000D01*
G75*
G02*
X156700000Y-71337500I0J-87500D01*
G01*
X156700000Y-71512500D01*
G75*
G02*
X156612500Y-71600000I-87500J0D01*
G01*
X155862500Y-71600000D01*
G75*
G02*
X155775000Y-71512500I0J87500D01*
G01*
X155775000Y-71337500D01*
G75*
G02*
X155862500Y-71250000I87500J0D01*
G01*
G37*
G36*
G01*
X156837500Y-70275000D02*
X157012500Y-70275000D01*
G75*
G02*
X157100000Y-70362500I0J-87500D01*
G01*
X157100000Y-71112500D01*
G75*
G02*
X157012500Y-71200000I-87500J0D01*
G01*
X156837500Y-71200000D01*
G75*
G02*
X156750000Y-71112500I0J87500D01*
G01*
X156750000Y-70362500D01*
G75*
G02*
X156837500Y-70275000I87500J0D01*
G01*
G37*
G36*
G01*
X157337500Y-70275000D02*
X157512500Y-70275000D01*
G75*
G02*
X157600000Y-70362500I0J-87500D01*
G01*
X157600000Y-71112500D01*
G75*
G02*
X157512500Y-71200000I-87500J0D01*
G01*
X157337500Y-71200000D01*
G75*
G02*
X157250000Y-71112500I0J87500D01*
G01*
X157250000Y-70362500D01*
G75*
G02*
X157337500Y-70275000I87500J0D01*
G01*
G37*
G36*
G01*
X157837500Y-70275000D02*
X158012500Y-70275000D01*
G75*
G02*
X158100000Y-70362500I0J-87500D01*
G01*
X158100000Y-71112500D01*
G75*
G02*
X158012500Y-71200000I-87500J0D01*
G01*
X157837500Y-71200000D01*
G75*
G02*
X157750000Y-71112500I0J87500D01*
G01*
X157750000Y-70362500D01*
G75*
G02*
X157837500Y-70275000I87500J0D01*
G01*
G37*
G36*
G01*
X158337500Y-70275000D02*
X158512500Y-70275000D01*
G75*
G02*
X158600000Y-70362500I0J-87500D01*
G01*
X158600000Y-71112500D01*
G75*
G02*
X158512500Y-71200000I-87500J0D01*
G01*
X158337500Y-71200000D01*
G75*
G02*
X158250000Y-71112500I0J87500D01*
G01*
X158250000Y-70362500D01*
G75*
G02*
X158337500Y-70275000I87500J0D01*
G01*
G37*
G36*
G01*
X158837500Y-70275000D02*
X159012500Y-70275000D01*
G75*
G02*
X159100000Y-70362500I0J-87500D01*
G01*
X159100000Y-71112500D01*
G75*
G02*
X159012500Y-71200000I-87500J0D01*
G01*
X158837500Y-71200000D01*
G75*
G02*
X158750000Y-71112500I0J87500D01*
G01*
X158750000Y-70362500D01*
G75*
G02*
X158837500Y-70275000I87500J0D01*
G01*
G37*
G36*
G01*
X159337500Y-70275000D02*
X159512500Y-70275000D01*
G75*
G02*
X159600000Y-70362500I0J-87500D01*
G01*
X159600000Y-71112500D01*
G75*
G02*
X159512500Y-71200000I-87500J0D01*
G01*
X159337500Y-71200000D01*
G75*
G02*
X159250000Y-71112500I0J87500D01*
G01*
X159250000Y-70362500D01*
G75*
G02*
X159337500Y-70275000I87500J0D01*
G01*
G37*
%TD*%
%TO.C,C1004*%
G36*
G01*
X150410000Y-63895000D02*
X150410000Y-63505000D01*
G75*
G02*
X150575000Y-63340000I165000J0D01*
G01*
X150905000Y-63340000D01*
G75*
G02*
X151070000Y-63505000I0J-165000D01*
G01*
X151070000Y-63895000D01*
G75*
G02*
X150905000Y-64060000I-165000J0D01*
G01*
X150575000Y-64060000D01*
G75*
G02*
X150410000Y-63895000I0J165000D01*
G01*
G37*
G36*
G01*
X149450000Y-63895000D02*
X149450000Y-63505000D01*
G75*
G02*
X149615000Y-63340000I165000J0D01*
G01*
X149945000Y-63340000D01*
G75*
G02*
X150110000Y-63505000I0J-165000D01*
G01*
X150110000Y-63895000D01*
G75*
G02*
X149945000Y-64060000I-165000J0D01*
G01*
X149615000Y-64060000D01*
G75*
G02*
X149450000Y-63895000I0J165000D01*
G01*
G37*
%TD*%
%TO.C,C1003*%
G36*
G01*
X152680000Y-75095000D02*
X152680000Y-75485000D01*
G75*
G02*
X152515000Y-75650000I-165000J0D01*
G01*
X152185000Y-75650000D01*
G75*
G02*
X152020000Y-75485000I0J165000D01*
G01*
X152020000Y-75095000D01*
G75*
G02*
X152185000Y-74930000I165000J0D01*
G01*
X152515000Y-74930000D01*
G75*
G02*
X152680000Y-75095000I0J-165000D01*
G01*
G37*
G36*
G01*
X153640000Y-75095000D02*
X153640000Y-75485000D01*
G75*
G02*
X153475000Y-75650000I-165000J0D01*
G01*
X153145000Y-75650000D01*
G75*
G02*
X152980000Y-75485000I0J165000D01*
G01*
X152980000Y-75095000D01*
G75*
G02*
X153145000Y-74930000I165000J0D01*
G01*
X153475000Y-74930000D01*
G75*
G02*
X153640000Y-75095000I0J-165000D01*
G01*
G37*
%TD*%
%TO.C,C1002*%
G36*
G01*
X158955000Y-67950000D02*
X159345000Y-67950000D01*
G75*
G02*
X159510000Y-68115000I0J-165000D01*
G01*
X159510000Y-68445000D01*
G75*
G02*
X159345000Y-68610000I-165000J0D01*
G01*
X158955000Y-68610000D01*
G75*
G02*
X158790000Y-68445000I0J165000D01*
G01*
X158790000Y-68115000D01*
G75*
G02*
X158955000Y-67950000I165000J0D01*
G01*
G37*
G36*
G01*
X158955000Y-66990000D02*
X159345000Y-66990000D01*
G75*
G02*
X159510000Y-67155000I0J-165000D01*
G01*
X159510000Y-67485000D01*
G75*
G02*
X159345000Y-67650000I-165000J0D01*
G01*
X158955000Y-67650000D01*
G75*
G02*
X158790000Y-67485000I0J165000D01*
G01*
X158790000Y-67155000D01*
G75*
G02*
X158955000Y-66990000I165000J0D01*
G01*
G37*
%TD*%
%TO.C,C1001*%
G36*
G01*
X153930000Y-72565000D02*
X153930000Y-72175000D01*
G75*
G02*
X154095000Y-72010000I165000J0D01*
G01*
X154425000Y-72010000D01*
G75*
G02*
X154590000Y-72175000I0J-165000D01*
G01*
X154590000Y-72565000D01*
G75*
G02*
X154425000Y-72730000I-165000J0D01*
G01*
X154095000Y-72730000D01*
G75*
G02*
X153930000Y-72565000I0J165000D01*
G01*
G37*
G36*
G01*
X152970000Y-72565000D02*
X152970000Y-72175000D01*
G75*
G02*
X153135000Y-72010000I165000J0D01*
G01*
X153465000Y-72010000D01*
G75*
G02*
X153630000Y-72175000I0J-165000D01*
G01*
X153630000Y-72565000D01*
G75*
G02*
X153465000Y-72730000I-165000J0D01*
G01*
X153135000Y-72730000D01*
G75*
G02*
X152970000Y-72565000I0J165000D01*
G01*
G37*
%TD*%
D17*
%TO.C,H1002*%
X156250000Y-109000000D03*
%TD*%
M02*
