%TF.GenerationSoftware,KiCad,Pcbnew,(5.1.8-0-10_14)*%
%TF.CreationDate,2020-11-27T10:39:21+01:00*%
%TF.ProjectId,SH-ESP32-Ethernet,53482d45-5350-4333-922d-45746865726e,0.1.0*%
%TF.SameCoordinates,Original*%
%TF.FileFunction,Legend,Top*%
%TF.FilePolarity,Positive*%
%FSLAX46Y46*%
G04 Gerber Fmt 4.6, Leading zero omitted, Abs format (unit mm)*
G04 Created by KiCad (PCBNEW (5.1.8-0-10_14)) date 2020-11-27 10:39:21*
%MOMM*%
%LPD*%
G01*
G04 APERTURE LIST*
%ADD10C,0.160000*%
%ADD11C,0.300000*%
%TA.AperFunction,Profile*%
%ADD12C,0.050000*%
%TD*%
%ADD13C,0.120000*%
%ADD14C,0.150000*%
G04 APERTURE END LIST*
D10*
X167571428Y-80547619D02*
X167904761Y-81023809D01*
X168142857Y-80547619D02*
X168142857Y-81547619D01*
X167761904Y-81547619D01*
X167666666Y-81500000D01*
X167619047Y-81452380D01*
X167571428Y-81357142D01*
X167571428Y-81214285D01*
X167619047Y-81119047D01*
X167666666Y-81071428D01*
X167761904Y-81023809D01*
X168142857Y-81023809D01*
X166761904Y-80595238D02*
X166857142Y-80547619D01*
X167047619Y-80547619D01*
X167142857Y-80595238D01*
X167190476Y-80690476D01*
X167190476Y-81071428D01*
X167142857Y-81166666D01*
X167047619Y-81214285D01*
X166857142Y-81214285D01*
X166761904Y-81166666D01*
X166714285Y-81071428D01*
X166714285Y-80976190D01*
X167190476Y-80880952D01*
X166380952Y-81214285D02*
X166142857Y-80547619D01*
X165904761Y-81214285D01*
X165523809Y-80547619D02*
X165523809Y-81214285D01*
X165523809Y-81547619D02*
X165571428Y-81500000D01*
X165523809Y-81452380D01*
X165476190Y-81500000D01*
X165523809Y-81547619D01*
X165523809Y-81452380D01*
X165095238Y-80595238D02*
X165000000Y-80547619D01*
X164809523Y-80547619D01*
X164714285Y-80595238D01*
X164666666Y-80690476D01*
X164666666Y-80738095D01*
X164714285Y-80833333D01*
X164809523Y-80880952D01*
X164952380Y-80880952D01*
X165047619Y-80928571D01*
X165095238Y-81023809D01*
X165095238Y-81071428D01*
X165047619Y-81166666D01*
X164952380Y-81214285D01*
X164809523Y-81214285D01*
X164714285Y-81166666D01*
X164238095Y-80547619D02*
X164238095Y-81214285D01*
X164238095Y-81547619D02*
X164285714Y-81500000D01*
X164238095Y-81452380D01*
X164190476Y-81500000D01*
X164238095Y-81547619D01*
X164238095Y-81452380D01*
X163619047Y-80547619D02*
X163714285Y-80595238D01*
X163761904Y-80642857D01*
X163809523Y-80738095D01*
X163809523Y-81023809D01*
X163761904Y-81119047D01*
X163714285Y-81166666D01*
X163619047Y-81214285D01*
X163476190Y-81214285D01*
X163380952Y-81166666D01*
X163333333Y-81119047D01*
X163285714Y-81023809D01*
X163285714Y-80738095D01*
X163333333Y-80642857D01*
X163380952Y-80595238D01*
X163476190Y-80547619D01*
X163619047Y-80547619D01*
X162857142Y-81214285D02*
X162857142Y-80547619D01*
X162857142Y-81119047D02*
X162809523Y-81166666D01*
X162714285Y-81214285D01*
X162571428Y-81214285D01*
X162476190Y-81166666D01*
X162428571Y-81071428D01*
X162428571Y-80547619D01*
X161000000Y-81547619D02*
X160904761Y-81547619D01*
X160809523Y-81500000D01*
X160761904Y-81452380D01*
X160714285Y-81357142D01*
X160666666Y-81166666D01*
X160666666Y-80928571D01*
X160714285Y-80738095D01*
X160761904Y-80642857D01*
X160809523Y-80595238D01*
X160904761Y-80547619D01*
X161000000Y-80547619D01*
X161095238Y-80595238D01*
X161142857Y-80642857D01*
X161190476Y-80738095D01*
X161238095Y-80928571D01*
X161238095Y-81166666D01*
X161190476Y-81357142D01*
X161142857Y-81452380D01*
X161095238Y-81500000D01*
X161000000Y-81547619D01*
X160238095Y-80642857D02*
X160190476Y-80595238D01*
X160238095Y-80547619D01*
X160285714Y-80595238D01*
X160238095Y-80642857D01*
X160238095Y-80547619D01*
X159238095Y-80547619D02*
X159809523Y-80547619D01*
X159523809Y-80547619D02*
X159523809Y-81547619D01*
X159619047Y-81404761D01*
X159714285Y-81309523D01*
X159809523Y-81261904D01*
X158809523Y-80642857D02*
X158761904Y-80595238D01*
X158809523Y-80547619D01*
X158857142Y-80595238D01*
X158809523Y-80642857D01*
X158809523Y-80547619D01*
X158142857Y-81547619D02*
X158047619Y-81547619D01*
X157952380Y-81500000D01*
X157904761Y-81452380D01*
X157857142Y-81357142D01*
X157809523Y-81166666D01*
X157809523Y-80928571D01*
X157857142Y-80738095D01*
X157904761Y-80642857D01*
X157952380Y-80595238D01*
X158047619Y-80547619D01*
X158142857Y-80547619D01*
X158238095Y-80595238D01*
X158285714Y-80642857D01*
X158333333Y-80738095D01*
X158380952Y-80928571D01*
X158380952Y-81166666D01*
X158333333Y-81357142D01*
X158285714Y-81452380D01*
X158238095Y-81500000D01*
X158142857Y-81547619D01*
D11*
X168133333Y-85300000D02*
X167666666Y-85300000D01*
X167466666Y-84566666D02*
X168133333Y-84566666D01*
X168133333Y-85966666D01*
X167466666Y-85966666D01*
X167066666Y-85500000D02*
X166533333Y-85500000D01*
X166866666Y-85966666D02*
X166866666Y-84766666D01*
X166800000Y-84633333D01*
X166666666Y-84566666D01*
X166533333Y-84566666D01*
X166066666Y-84566666D02*
X166066666Y-85966666D01*
X165466666Y-84566666D02*
X165466666Y-85300000D01*
X165533333Y-85433333D01*
X165666666Y-85500000D01*
X165866666Y-85500000D01*
X166000000Y-85433333D01*
X166066666Y-85366666D01*
X164266666Y-84633333D02*
X164400000Y-84566666D01*
X164666666Y-84566666D01*
X164800000Y-84633333D01*
X164866666Y-84766666D01*
X164866666Y-85300000D01*
X164800000Y-85433333D01*
X164666666Y-85500000D01*
X164400000Y-85500000D01*
X164266666Y-85433333D01*
X164200000Y-85300000D01*
X164200000Y-85166666D01*
X164866666Y-85033333D01*
X163600000Y-84566666D02*
X163600000Y-85500000D01*
X163600000Y-85233333D02*
X163533333Y-85366666D01*
X163466666Y-85433333D01*
X163333333Y-85500000D01*
X163200000Y-85500000D01*
X162733333Y-85500000D02*
X162733333Y-84566666D01*
X162733333Y-85366666D02*
X162666666Y-85433333D01*
X162533333Y-85500000D01*
X162333333Y-85500000D01*
X162200000Y-85433333D01*
X162133333Y-85300000D01*
X162133333Y-84566666D01*
X160933333Y-84633333D02*
X161066666Y-84566666D01*
X161333333Y-84566666D01*
X161466666Y-84633333D01*
X161533333Y-84766666D01*
X161533333Y-85300000D01*
X161466666Y-85433333D01*
X161333333Y-85500000D01*
X161066666Y-85500000D01*
X160933333Y-85433333D01*
X160866666Y-85300000D01*
X160866666Y-85166666D01*
X161533333Y-85033333D01*
X160466666Y-85500000D02*
X159933333Y-85500000D01*
X160266666Y-85966666D02*
X160266666Y-84766666D01*
X160200000Y-84633333D01*
X160066666Y-84566666D01*
X159933333Y-84566666D01*
X158600000Y-85966666D02*
X157800000Y-85966666D01*
X158200000Y-84566666D02*
X158200000Y-85966666D01*
X157133333Y-84566666D02*
X157266666Y-84633333D01*
X157333333Y-84700000D01*
X157400000Y-84833333D01*
X157400000Y-85233333D01*
X157333333Y-85366666D01*
X157266666Y-85433333D01*
X157133333Y-85500000D01*
X156933333Y-85500000D01*
X156800000Y-85433333D01*
X156733333Y-85366666D01*
X156666666Y-85233333D01*
X156666666Y-84833333D01*
X156733333Y-84700000D01*
X156800000Y-84633333D01*
X156933333Y-84566666D01*
X157133333Y-84566666D01*
X156066666Y-85500000D02*
X156066666Y-84100000D01*
X156066666Y-85433333D02*
X155933333Y-85500000D01*
X155666666Y-85500000D01*
X155533333Y-85433333D01*
X155466666Y-85366666D01*
X155400000Y-85233333D01*
X155400000Y-84833333D01*
X155466666Y-84700000D01*
X155533333Y-84633333D01*
X155666666Y-84566666D01*
X155933333Y-84566666D01*
X156066666Y-84633333D01*
X154800000Y-84566666D02*
X154800000Y-85966666D01*
X154800000Y-85300000D02*
X154000000Y-85300000D01*
X154000000Y-84566666D02*
X154000000Y-85966666D01*
X152733333Y-84566666D02*
X152733333Y-85300000D01*
X152800000Y-85433333D01*
X152933333Y-85500000D01*
X153200000Y-85500000D01*
X153333333Y-85433333D01*
X152733333Y-84633333D02*
X152866666Y-84566666D01*
X153200000Y-84566666D01*
X153333333Y-84633333D01*
X153400000Y-84766666D01*
X153400000Y-84900000D01*
X153333333Y-85033333D01*
X153200000Y-85100000D01*
X152866666Y-85100000D01*
X152733333Y-85166666D01*
X152266666Y-85500000D02*
X151733333Y-85500000D01*
X152066666Y-85966666D02*
X152066666Y-84766666D01*
X152000000Y-84633333D01*
X151866666Y-84566666D01*
X151733333Y-84566666D01*
X165633333Y-83100000D02*
X165100000Y-83100000D01*
X165433333Y-82166666D02*
X165433333Y-83366666D01*
X165366666Y-83500000D01*
X165233333Y-83566666D01*
X165100000Y-83566666D01*
X164433333Y-82166666D02*
X164566666Y-82233333D01*
X164633333Y-82300000D01*
X164700000Y-82433333D01*
X164700000Y-82833333D01*
X164633333Y-82966666D01*
X164566666Y-83033333D01*
X164433333Y-83100000D01*
X164233333Y-83100000D01*
X164100000Y-83033333D01*
X164033333Y-82966666D01*
X163966666Y-82833333D01*
X163966666Y-82433333D01*
X164033333Y-82300000D01*
X164100000Y-82233333D01*
X164233333Y-82166666D01*
X164433333Y-82166666D01*
X163366666Y-82166666D02*
X163366666Y-83100000D01*
X163366666Y-82833333D02*
X163300000Y-82966666D01*
X163233333Y-83033333D01*
X163100000Y-83100000D01*
X162966666Y-83100000D01*
X161500000Y-82233333D02*
X161300000Y-82166666D01*
X160966666Y-82166666D01*
X160833333Y-82233333D01*
X160766666Y-82300000D01*
X160700000Y-82433333D01*
X160700000Y-82566666D01*
X160766666Y-82700000D01*
X160833333Y-82766666D01*
X160966666Y-82833333D01*
X161233333Y-82900000D01*
X161366666Y-82966666D01*
X161433333Y-83033333D01*
X161500000Y-83166666D01*
X161500000Y-83300000D01*
X161433333Y-83433333D01*
X161366666Y-83500000D01*
X161233333Y-83566666D01*
X160900000Y-83566666D01*
X160700000Y-83500000D01*
X160100000Y-82166666D02*
X160100000Y-83566666D01*
X160100000Y-82900000D02*
X159300000Y-82900000D01*
X159300000Y-82166666D02*
X159300000Y-83566666D01*
X158633333Y-82700000D02*
X157566666Y-82700000D01*
X156900000Y-82900000D02*
X156433333Y-82900000D01*
X156233333Y-82166666D02*
X156900000Y-82166666D01*
X156900000Y-83566666D01*
X156233333Y-83566666D01*
X155700000Y-82233333D02*
X155500000Y-82166666D01*
X155166666Y-82166666D01*
X155033333Y-82233333D01*
X154966666Y-82300000D01*
X154900000Y-82433333D01*
X154900000Y-82566666D01*
X154966666Y-82700000D01*
X155033333Y-82766666D01*
X155166666Y-82833333D01*
X155433333Y-82900000D01*
X155566666Y-82966666D01*
X155633333Y-83033333D01*
X155700000Y-83166666D01*
X155700000Y-83300000D01*
X155633333Y-83433333D01*
X155566666Y-83500000D01*
X155433333Y-83566666D01*
X155100000Y-83566666D01*
X154900000Y-83500000D01*
X154300000Y-82166666D02*
X154300000Y-83566666D01*
X153766666Y-83566666D01*
X153633333Y-83500000D01*
X153566666Y-83433333D01*
X153500000Y-83300000D01*
X153500000Y-83100000D01*
X153566666Y-82966666D01*
X153633333Y-82900000D01*
X153766666Y-82833333D01*
X154300000Y-82833333D01*
D12*
X165000000Y-108500000D02*
X172000000Y-108500000D01*
X161000000Y-112500000D02*
G75*
G02*
X165000000Y-108500000I4000000J0D01*
G01*
X148500000Y-108500000D02*
G75*
G02*
X152500000Y-112500000I0J-4000000D01*
G01*
X169500000Y-57000000D02*
X148500000Y-57000000D01*
X152500000Y-112500000D02*
X161000000Y-112499765D01*
X148500000Y-57000000D02*
X148500000Y-108500000D01*
X171989592Y-63010408D02*
X172000000Y-108500000D01*
X153000000Y-112500000D02*
X153000000Y-112500000D01*
X171989592Y-63010408D02*
G75*
G02*
X169500000Y-57000000I6010408J6010408D01*
G01*
D11*
X152831428Y-89331428D02*
X151760000Y-89331428D01*
X151545714Y-89260000D01*
X151402857Y-89117142D01*
X151331428Y-88902857D01*
X151331428Y-88760000D01*
X151331428Y-90760000D02*
X151331428Y-90045714D01*
X152831428Y-90045714D01*
X151474285Y-92117142D02*
X151402857Y-92045714D01*
X151331428Y-91831428D01*
X151331428Y-91688571D01*
X151402857Y-91474285D01*
X151545714Y-91331428D01*
X151688571Y-91260000D01*
X151974285Y-91188571D01*
X152188571Y-91188571D01*
X152474285Y-91260000D01*
X152617142Y-91331428D01*
X152760000Y-91474285D01*
X152831428Y-91688571D01*
X152831428Y-91831428D01*
X152760000Y-92045714D01*
X152688571Y-92117142D01*
X152831428Y-93188571D02*
X151760000Y-93188571D01*
X151545714Y-93117142D01*
X151402857Y-92974285D01*
X151331428Y-92760000D01*
X151331428Y-92617142D01*
X151331428Y-94617142D02*
X151331428Y-93902857D01*
X152831428Y-93902857D01*
X151474285Y-95974285D02*
X151402857Y-95902857D01*
X151331428Y-95688571D01*
X151331428Y-95545714D01*
X151402857Y-95331428D01*
X151545714Y-95188571D01*
X151688571Y-95117142D01*
X151974285Y-95045714D01*
X152188571Y-95045714D01*
X152474285Y-95117142D01*
X152617142Y-95188571D01*
X152760000Y-95331428D01*
X152831428Y-95545714D01*
X152831428Y-95688571D01*
X152760000Y-95902857D01*
X152688571Y-95974285D01*
X152831428Y-97045714D02*
X151760000Y-97045714D01*
X151545714Y-96974285D01*
X151402857Y-96831428D01*
X151331428Y-96617142D01*
X151331428Y-96474285D01*
X151331428Y-98474285D02*
X151331428Y-97760000D01*
X152831428Y-97760000D01*
X151474285Y-99831428D02*
X151402857Y-99760000D01*
X151331428Y-99545714D01*
X151331428Y-99402857D01*
X151402857Y-99188571D01*
X151545714Y-99045714D01*
X151688571Y-98974285D01*
X151974285Y-98902857D01*
X152188571Y-98902857D01*
X152474285Y-98974285D01*
X152617142Y-99045714D01*
X152760000Y-99188571D01*
X152831428Y-99402857D01*
X152831428Y-99545714D01*
X152760000Y-99760000D01*
X152688571Y-99831428D01*
X152831428Y-100902857D02*
X151760000Y-100902857D01*
X151545714Y-100831428D01*
X151402857Y-100688571D01*
X151331428Y-100474285D01*
X151331428Y-100331428D01*
X151331428Y-102331428D02*
X151331428Y-101617142D01*
X152831428Y-101617142D01*
X151474285Y-103688571D02*
X151402857Y-103617142D01*
X151331428Y-103402857D01*
X151331428Y-103260000D01*
X151402857Y-103045714D01*
X151545714Y-102902857D01*
X151688571Y-102831428D01*
X151974285Y-102760000D01*
X152188571Y-102760000D01*
X152474285Y-102831428D01*
X152617142Y-102902857D01*
X152760000Y-103045714D01*
X152831428Y-103260000D01*
X152831428Y-103402857D01*
X152760000Y-103617142D01*
X152688571Y-103688571D01*
D13*
%TO.C,J301*%
X171295000Y-87985000D02*
X165165000Y-87985000D01*
X171295000Y-87985000D02*
X171295000Y-104485000D01*
X168875000Y-87285000D02*
X169375000Y-87785000D01*
X169375000Y-87785000D02*
X169875000Y-87285000D01*
X169875000Y-87285000D02*
X168875000Y-87285000D01*
X161865000Y-87985000D02*
X149465000Y-87985000D01*
X171295000Y-104485000D02*
X165165000Y-104485000D01*
X149465000Y-87985000D02*
X149465000Y-104485000D01*
X161865000Y-104485000D02*
X149465000Y-104485000D01*
%TO.C,J303*%
X166050000Y-108020000D02*
X166050000Y-106690000D01*
X167380000Y-108020000D02*
X166050000Y-108020000D01*
X168650000Y-108020000D02*
X168650000Y-105360000D01*
X168650000Y-105360000D02*
X171250000Y-105360000D01*
X168650000Y-108020000D02*
X171250000Y-108020000D01*
X171250000Y-108020000D02*
X171250000Y-105360000D01*
%TO.C,C305*%
X161897836Y-70680000D02*
X161682164Y-70680000D01*
X161897836Y-69960000D02*
X161682164Y-69960000D01*
%TO.C,X301*%
X150000000Y-64380000D02*
X150000000Y-67880000D01*
X150000000Y-67880000D02*
X154200000Y-67880000D01*
%TO.C,R306*%
X154650000Y-64253641D02*
X154650000Y-63946359D01*
X155410000Y-64253641D02*
X155410000Y-63946359D01*
%TO.C,R308*%
X152646359Y-63320000D02*
X152953641Y-63320000D01*
X152646359Y-64080000D02*
X152953641Y-64080000D01*
%TO.C,R307*%
X157090000Y-69243641D02*
X157090000Y-68936359D01*
X157850000Y-69243641D02*
X157850000Y-68936359D01*
%TO.C,R305*%
X156390000Y-64313641D02*
X156390000Y-64006359D01*
X157150000Y-64313641D02*
X157150000Y-64006359D01*
%TO.C,R304*%
X157740000Y-64293641D02*
X157740000Y-63986359D01*
X158500000Y-64293641D02*
X158500000Y-63986359D01*
%TO.C,C307*%
X162587836Y-75960000D02*
X162372164Y-75960000D01*
X162587836Y-75240000D02*
X162372164Y-75240000D01*
%TO.C,JP301*%
X150695000Y-70540000D02*
X150695000Y-73340000D01*
X150695000Y-73340000D02*
X149345000Y-73340000D01*
X149345000Y-73340000D02*
X149345000Y-70540000D01*
X149345000Y-70540000D02*
X150695000Y-70540000D01*
%TO.C,R317*%
X154187500Y-80417258D02*
X154187500Y-79942742D01*
X155232500Y-80417258D02*
X155232500Y-79942742D01*
%TO.C,R316*%
X155747500Y-80417258D02*
X155747500Y-79942742D01*
X156792500Y-80417258D02*
X156792500Y-79942742D01*
%TO.C,R315*%
X169527500Y-85077258D02*
X169527500Y-84602742D01*
X170572500Y-85077258D02*
X170572500Y-84602742D01*
%TO.C,R314*%
X167606359Y-74960000D02*
X167913641Y-74960000D01*
X167606359Y-75720000D02*
X167913641Y-75720000D01*
%TO.C,R313*%
X161656359Y-70930000D02*
X161963641Y-70930000D01*
X161656359Y-71690000D02*
X161963641Y-71690000D01*
%TO.C,R312*%
X169833641Y-75720000D02*
X169526359Y-75720000D01*
X169833641Y-74960000D02*
X169526359Y-74960000D01*
%TO.C,R311*%
X165186359Y-75940000D02*
X165493641Y-75940000D01*
X165186359Y-76700000D02*
X165493641Y-76700000D01*
%TO.C,R310*%
X167453641Y-76710000D02*
X167146359Y-76710000D01*
X167453641Y-75950000D02*
X167146359Y-75950000D01*
%TO.C,R309*%
X157503641Y-76770000D02*
X157196359Y-76770000D01*
X157503641Y-76010000D02*
X157196359Y-76010000D01*
%TO.C,R303*%
X151122742Y-68417500D02*
X151597258Y-68417500D01*
X151122742Y-69462500D02*
X151597258Y-69462500D01*
%TO.C,R302*%
X152322500Y-71532742D02*
X152322500Y-72007258D01*
X151277500Y-71532742D02*
X151277500Y-72007258D01*
%TO.C,R301*%
X153162742Y-73507500D02*
X153637258Y-73507500D01*
X153162742Y-74552500D02*
X153637258Y-74552500D01*
%TO.C,J302*%
X149210000Y-57470000D02*
X149210000Y-62670000D01*
X164510000Y-57470000D02*
X149210000Y-57470000D01*
X167110000Y-62670000D02*
X149210000Y-62670000D01*
X164510000Y-57470000D02*
X164510000Y-60070000D01*
X164510000Y-60070000D02*
X167110000Y-60070000D01*
X167110000Y-60070000D02*
X167110000Y-62670000D01*
X165780000Y-57470000D02*
X167110000Y-57470000D01*
X167110000Y-57470000D02*
X167110000Y-58800000D01*
%TO.C,FB301*%
X163080000Y-68889622D02*
X163080000Y-68090378D01*
X164200000Y-68889622D02*
X164200000Y-68090378D01*
%TO.C,C308*%
X170377836Y-87360000D02*
X170162164Y-87360000D01*
X170377836Y-86640000D02*
X170162164Y-86640000D01*
%TO.C,C306*%
X157477836Y-77740000D02*
X157262164Y-77740000D01*
X157477836Y-77020000D02*
X157262164Y-77020000D01*
%TO.C,C304*%
X162910580Y-74890000D02*
X162629420Y-74890000D01*
X162910580Y-73870000D02*
X162629420Y-73870000D01*
%TO.C,C303*%
X154780000Y-69899420D02*
X154780000Y-70180580D01*
X153760000Y-69899420D02*
X153760000Y-70180580D01*
%TO.C,C302*%
X156127836Y-69930000D02*
X155912164Y-69930000D01*
X156127836Y-69210000D02*
X155912164Y-69210000D01*
%TO.C,C301*%
X156127836Y-68950000D02*
X155912164Y-68950000D01*
X156127836Y-68230000D02*
X155912164Y-68230000D01*
%TO.C,U301*%
X160285000Y-74310000D02*
X160285000Y-74785000D01*
X160285000Y-74785000D02*
X159810000Y-74785000D01*
X156065000Y-71040000D02*
X156065000Y-70565000D01*
X156065000Y-70565000D02*
X156540000Y-70565000D01*
X156065000Y-74310000D02*
X156065000Y-74785000D01*
X156065000Y-74785000D02*
X156540000Y-74785000D01*
X160285000Y-71040000D02*
X160285000Y-70565000D01*
%TO.C,C1004*%
X150152164Y-63340000D02*
X150367836Y-63340000D01*
X150152164Y-64060000D02*
X150367836Y-64060000D01*
%TO.C,C1003*%
X152937836Y-75650000D02*
X152722164Y-75650000D01*
X152937836Y-74930000D02*
X152722164Y-74930000D01*
%TO.C,C1002*%
X159510000Y-67692164D02*
X159510000Y-67907836D01*
X158790000Y-67692164D02*
X158790000Y-67907836D01*
%TO.C,C1001*%
X153672164Y-72010000D02*
X153887836Y-72010000D01*
X153672164Y-72730000D02*
X153887836Y-72730000D01*
%TD*%
%TO.C,J303*%
D14*
X164502380Y-107975714D02*
X165216666Y-107975714D01*
X165359523Y-108023333D01*
X165454761Y-108118571D01*
X165502380Y-108261428D01*
X165502380Y-108356666D01*
X164502380Y-107594761D02*
X164502380Y-106975714D01*
X164883333Y-107309047D01*
X164883333Y-107166190D01*
X164930952Y-107070952D01*
X164978571Y-107023333D01*
X165073809Y-106975714D01*
X165311904Y-106975714D01*
X165407142Y-107023333D01*
X165454761Y-107070952D01*
X165502380Y-107166190D01*
X165502380Y-107451904D01*
X165454761Y-107547142D01*
X165407142Y-107594761D01*
X164502380Y-106356666D02*
X164502380Y-106261428D01*
X164550000Y-106166190D01*
X164597619Y-106118571D01*
X164692857Y-106070952D01*
X164883333Y-106023333D01*
X165121428Y-106023333D01*
X165311904Y-106070952D01*
X165407142Y-106118571D01*
X165454761Y-106166190D01*
X165502380Y-106261428D01*
X165502380Y-106356666D01*
X165454761Y-106451904D01*
X165407142Y-106499523D01*
X165311904Y-106547142D01*
X165121428Y-106594761D01*
X164883333Y-106594761D01*
X164692857Y-106547142D01*
X164597619Y-106499523D01*
X164550000Y-106451904D01*
X164502380Y-106356666D01*
X164502380Y-105690000D02*
X164502380Y-105070952D01*
X164883333Y-105404285D01*
X164883333Y-105261428D01*
X164930952Y-105166190D01*
X164978571Y-105118571D01*
X165073809Y-105070952D01*
X165311904Y-105070952D01*
X165407142Y-105118571D01*
X165454761Y-105166190D01*
X165502380Y-105261428D01*
X165502380Y-105547142D01*
X165454761Y-105642380D01*
X165407142Y-105690000D01*
%TD*%
M02*
