M48
; DRILL file {KiCad (5.1.8-0-10_14)} date Friday, November 27, 2020 at 10:39:26 AM
; FORMAT={-:-/ absolute / inch / decimal}
; #@! TF.CreationDate,2020-11-27T10:39:26+01:00
; #@! TF.GenerationSoftware,Kicad,Pcbnew,(5.1.8-0-10_14)
FMAT,2
INCH
T1C0.0079
T2C0.0157
T3C0.0236
T4C0.0354
T5C0.0394
T6C0.0669
T7C0.1260
%
G90
G05
T1
X5.9Y-2.6154
X5.9039Y-3.8705
X5.9039Y-4.2205
X5.9071Y-3.102
X5.9071Y-3.6406
X5.9071Y-4.0563
X5.9134Y-3.4295
X5.9669Y-4.2583
X6.0039Y-2.6398
X6.0339Y-2.6665
X6.0358Y-2.6142
X6.0583Y-3.1583
X6.0602Y-3.0705
X6.0626Y-3.0217
X6.0673Y-2.6661
X6.0909Y-3.0957
X6.0909Y-3.1892
X6.0909Y-3.3937
X6.0992Y-2.8299
X6.1051Y-2.5669
X6.1106Y-3.0795
X6.1146Y-2.8087
X6.1171Y-2.9134
X6.1181Y-2.8514
X6.1213Y-2.8894
X6.1311Y-2.587
X6.1315Y-2.9472
X6.1331Y-2.5445
X6.1366Y-2.4917
X6.1598Y-3.7283
X6.1697Y-2.5748
X6.1843Y-3.8547
X6.1874Y-2.9689
X6.2098Y-2.5681
X6.235Y-3.0496
X6.2374Y-2.9654
X6.2437Y-2.7551
X6.2461Y-3.6539
X6.2528Y-2.5256
X6.2563Y-3.4693
X6.262Y-2.9659
X6.2705Y-2.7531
X6.2882Y-4.3748
X6.3131Y-2.9525
X6.328Y-3.3031
X6.3343Y-2.4878
X6.3343Y-3.1323
X6.3354Y-3.7961
X6.3386Y-4.2677
X6.4476Y-3.9705
X6.4488Y-3.765
X6.4571Y-3.5898
X6.4571Y-3.685
X6.4811Y-3.8008
X6.4843Y-3.1665
X6.4976Y-3.3476
X6.5035Y-3.2441
X6.5067Y-3.4343
X6.5091Y-3.085
X6.515Y-2.976
X6.5567Y-3.5445
X6.5791Y-3.1528
X6.5803Y-3.4232
X6.5815Y-3.2898
X6.5835Y-3.0638
X6.6012Y-3.55
X6.6114Y-3.0717
X6.6126Y-3.4579
X6.6134Y-3.35
X6.6146Y-3.2173
X6.637Y-2.3563
X6.6583Y-2.7543
X6.6618Y-2.5969
X6.7197Y-4.0563
X6.7283Y-3.8228
X6.7319Y-3.6988
T2
X5.9709Y-2.963
X5.976Y-2.5654
X5.9772Y-2.9138
X5.9984Y-2.7697
X6.0173Y-2.715
X6.0264Y-2.8205
X6.0657Y-2.965
X6.1016Y-2.722
X6.15Y-3.0079
X6.1508Y-3.0461
X6.1862Y-2.8201
X6.187Y-2.9
X6.2154Y-2.8528
X6.2272Y-2.8807
X6.2445Y-2.8539
X6.2519Y-2.7087
X6.2654Y-2.6276
X6.2673Y-2.9012
X6.2685Y-2.822
X6.3552Y-2.7437
X6.365Y-2.9953
X6.3886Y-2.7449
X6.4122Y-2.8075
X6.4394Y-2.987
X6.4709Y-2.9398
X6.5031Y-3.0311
X6.5846Y-2.9441
X6.6Y-3.0283
X6.7154Y-3.2669
X6.7272Y-2.9665
X6.735Y-3.3965
T3
X6.4421Y-2.772
X6.4461Y-2.6173
T4
X6.5683Y-3.614
X6.5683Y-3.714
X6.5683Y-3.814
X6.5683Y-3.914
X6.5683Y-4.014
X6.6683Y-3.564
X6.6683Y-3.664
X6.6683Y-3.764
X6.6683Y-3.864
X6.6683Y-3.964
T5
X6.5898Y-4.2004
X6.6898Y-4.2004
X6.1585Y-3.5278
X6.1585Y-3.6278
X6.1585Y-3.9498
X6.1585Y-4.0498
X5.9268Y-2.315
X5.9268Y-2.415
X6.0268Y-2.315
X6.0268Y-2.415
X6.1268Y-2.315
X6.1268Y-2.415
X6.2268Y-2.315
X6.2268Y-2.415
X6.3268Y-2.315
X6.3268Y-2.415
X6.4268Y-2.315
X6.4268Y-2.415
X6.5268Y-2.315
X6.5268Y-2.415
T6
X6.4384Y-3.4837
X6.4384Y-4.0939
T7
X6.1516Y-4.2913
X6.3183Y-3.564
X6.3183Y-4.014
T0
M30
