%TF.GenerationSoftware,KiCad,Pcbnew,(5.1.8-0-10_14)*%
%TF.CreationDate,2020-11-27T10:39:21+01:00*%
%TF.ProjectId,SH-ESP32-Ethernet,53482d45-5350-4333-922d-45746865726e,0.1.0*%
%TF.SameCoordinates,Original*%
%TF.FileFunction,Copper,L2,Inr*%
%TF.FilePolarity,Positive*%
%FSLAX46Y46*%
G04 Gerber Fmt 4.6, Leading zero omitted, Abs format (unit mm)*
G04 Created by KiCad (PCBNEW (5.1.8-0-10_14)) date 2020-11-27 10:39:21*
%MOMM*%
%LPD*%
G01*
G04 APERTURE LIST*
%TA.AperFunction,Profile*%
%ADD10C,0.050000*%
%TD*%
%TA.AperFunction,ComponentPad*%
%ADD11C,1.800000*%
%TD*%
%TA.AperFunction,ComponentPad*%
%ADD12C,3.000000*%
%TD*%
%TA.AperFunction,ComponentPad*%
%ADD13C,2.000000*%
%TD*%
%TA.AperFunction,ComponentPad*%
%ADD14R,1.800000X1.800000*%
%TD*%
%TA.AperFunction,ComponentPad*%
%ADD15O,1.700000X1.700000*%
%TD*%
%TA.AperFunction,ComponentPad*%
%ADD16R,1.700000X1.700000*%
%TD*%
%TA.AperFunction,ViaPad*%
%ADD17C,0.600000*%
%TD*%
%TA.AperFunction,ViaPad*%
%ADD18C,0.800000*%
%TD*%
%TA.AperFunction,ViaPad*%
%ADD19C,0.450000*%
%TD*%
%TA.AperFunction,ViaPad*%
%ADD20C,1.000000*%
%TD*%
%TA.AperFunction,Conductor*%
%ADD21C,0.200000*%
%TD*%
%TA.AperFunction,Conductor*%
%ADD22C,0.100000*%
%TD*%
G04 APERTURE END LIST*
D10*
X165000000Y-108500000D02*
X172000000Y-108500000D01*
X161000000Y-112500000D02*
G75*
G02*
X165000000Y-108500000I4000000J0D01*
G01*
X148500000Y-108500000D02*
G75*
G02*
X152500000Y-112500000I0J-4000000D01*
G01*
X169500000Y-57000000D02*
X148500000Y-57000000D01*
X152500000Y-112500000D02*
X161000000Y-112499765D01*
X148500000Y-57000000D02*
X148500000Y-108500000D01*
X171989592Y-63010408D02*
X172000000Y-108500000D01*
X153000000Y-112500000D02*
X153000000Y-112500000D01*
X171989592Y-63010408D02*
G75*
G02*
X169500000Y-57000000I6010408J6010408D01*
G01*
D11*
%TO.N,N/C*%
%TO.C,J301*%
X166835000Y-99415000D03*
D12*
%TO.N,GND*%
X163535000Y-103985000D03*
X163535000Y-88485000D03*
D13*
%TO.N,VDDA*%
X156425000Y-102865000D03*
%TO.N,/IOHeader/LED_R_AN*%
X156425000Y-100325000D03*
%TO.N,/IOHeader/LED_Y_CA*%
X156425000Y-92145000D03*
D11*
%TO.N,Net-(J301-Pad10)*%
X166835000Y-101955000D03*
%TO.N,Net-(J301-Pad9)*%
X169375000Y-100685000D03*
%TO.N,GND*%
X169375000Y-98145000D03*
%TO.N,/IOHeader/TX-*%
X166835000Y-96875000D03*
%TO.N,/IOHeader/TX+*%
X169375000Y-95605000D03*
%TO.N,Net-(C308-Pad2)*%
X166835000Y-94335000D03*
X169375000Y-93065000D03*
%TO.N,/IOHeader/RX-*%
X166835000Y-91795000D03*
D13*
%TO.N,/IOHeader/LED_Y_AN*%
X156425000Y-89605000D03*
D14*
%TO.N,/IOHeader/RX+*%
X169375000Y-90525000D03*
%TD*%
D15*
%TO.N,Net-(J301-Pad9)*%
%TO.C,J303*%
X169920000Y-106690000D03*
D16*
%TO.N,Net-(J301-Pad10)*%
X167380000Y-106690000D03*
%TD*%
D15*
%TO.N,GND*%
%TO.C,J302*%
X150540000Y-61340000D03*
%TO.N,+3V3*%
X150540000Y-58800000D03*
%TO.N,/IOHeader/PHY_CLK*%
X153080000Y-61340000D03*
%TO.N,GND*%
X153080000Y-58800000D03*
X155620000Y-61340000D03*
%TO.N,/IOHeader/RMI_CRS_DV*%
X155620000Y-58800000D03*
%TO.N,/IOHeader/RMII_RXD0*%
X158160000Y-61340000D03*
%TO.N,/IOHeader/RMII_RXD1*%
X158160000Y-58800000D03*
%TO.N,/IOHeader/PHY_RESET_N*%
X160700000Y-61340000D03*
%TO.N,/IOHeader/PHY_MDIO*%
X160700000Y-58800000D03*
%TO.N,/IOHeader/RMII_TXD0*%
X163240000Y-61340000D03*
%TO.N,/IOHeader/RMII_EN*%
X163240000Y-58800000D03*
%TO.N,/IOHeader/RMII_TXD1*%
X165780000Y-61340000D03*
D16*
%TO.N,/IOHeader/PHY_MDC*%
X165780000Y-58800000D03*
%TD*%
D17*
%TO.N,GND*%
X158610000Y-72490000D03*
X159190000Y-73690000D03*
X159220000Y-71680000D03*
X157150000Y-73660000D03*
X157130000Y-71630000D03*
D18*
X154980000Y-69140000D03*
X164360000Y-74670000D03*
X163560000Y-75870000D03*
X171070000Y-86270000D03*
D17*
X158170000Y-73170000D03*
X156230000Y-77370000D03*
D19*
X154110000Y-67720000D03*
X152500000Y-67050000D03*
X153260000Y-67730000D03*
X153310000Y-66400000D03*
D17*
X157870000Y-72460000D03*
D18*
X154070000Y-75310000D03*
X152840000Y-68960000D03*
X153070000Y-71640000D03*
D19*
X160890000Y-63190000D03*
X150040000Y-78790000D03*
X150200000Y-87110000D03*
X150040000Y-92470000D03*
X149960000Y-98310000D03*
X150040000Y-103030000D03*
X149960000Y-107200000D03*
X151560000Y-108160000D03*
X159720000Y-111120000D03*
X161000000Y-108400000D03*
X170680000Y-103030000D03*
X170900000Y-97100000D03*
X170990000Y-93950000D03*
X160890000Y-79560000D03*
X160730000Y-83900000D03*
X164700000Y-80430000D03*
X169120000Y-69960000D03*
X169210000Y-65960000D03*
X168580000Y-59850000D03*
X155870000Y-63290000D03*
X155780000Y-64630000D03*
X155730000Y-65710000D03*
X153990000Y-76750000D03*
X153930000Y-77990000D03*
X153880000Y-80220000D03*
X165330000Y-78360000D03*
X165190000Y-82400000D03*
X165040000Y-85030000D03*
X165270000Y-87230000D03*
X166540000Y-90030000D03*
X167670000Y-90170000D03*
X167220000Y-77820000D03*
X167930000Y-78020000D03*
X168010000Y-81720000D03*
X167110000Y-80080000D03*
X167170000Y-83560000D03*
X167980000Y-85090000D03*
X167140000Y-86950000D03*
X167960000Y-87830000D03*
X164010000Y-91180000D03*
X164010000Y-93600000D03*
X163800000Y-95630000D03*
X164620000Y-96540000D03*
X163770000Y-100850000D03*
X157080000Y-97910000D03*
X156460000Y-94700000D03*
X158650000Y-92810000D03*
X160920000Y-96420000D03*
X158910000Y-88120000D03*
X165480000Y-75590000D03*
D17*
X159140000Y-66740000D03*
X162270000Y-69720000D03*
X162870000Y-71310000D03*
D19*
%TO.N,+3V3*%
X155400000Y-72425000D03*
D17*
X156210000Y-76400000D03*
D18*
X151790000Y-65160000D03*
X151660000Y-75260000D03*
X152360000Y-70350000D03*
X151820000Y-74010000D03*
D17*
X158799010Y-68800000D03*
D20*
X163730000Y-66480000D03*
D19*
%TO.N,/IOHeader/PHY_RESET_N*%
X149860000Y-66430000D03*
X158820000Y-64150000D03*
%TO.N,/IOHeader/PHY_MDIO*%
X155375000Y-74000000D03*
%TO.N,/IOHeader/RMII_TXD0*%
X159054874Y-75334351D03*
%TO.N,/IOHeader/RMII_EN*%
X158430000Y-75320000D03*
%TO.N,/IOHeader/RMII_TXD1*%
X160353324Y-74993324D03*
%TO.N,/IOHeader/PHY_MDC*%
X157160000Y-75410000D03*
D18*
%TO.N,VDDA*%
X161670000Y-76080000D03*
X165180000Y-76990000D03*
X167640000Y-76920000D03*
X167250000Y-74780000D03*
X170870000Y-75350000D03*
X170570000Y-82980000D03*
D17*
X161422000Y-69690000D03*
D20*
X163630000Y-70410000D03*
D19*
%TO.N,/IOHeader/nRST*%
X158370000Y-77460000D03*
X155210000Y-78220000D03*
%TO.N,/IOHeader/LED_R_AN*%
X154710000Y-86200000D03*
X154710000Y-81005000D03*
%TO.N,/IOHeader/LED_Y_CA*%
X158590000Y-69980000D03*
X155740000Y-74860000D03*
%TO.N,Net-(R304-Pad1)*%
X154920000Y-71880000D03*
X157730000Y-65230000D03*
%TO.N,Net-(R305-Pad1)*%
X155310000Y-71340000D03*
X156710000Y-65400000D03*
%TO.N,Net-(R306-Pad1)*%
X155480000Y-73390000D03*
X155070000Y-65200000D03*
%TO.N,/IOHeader/nINTSEL-LED2*%
X159270000Y-69930000D03*
X154710000Y-78630000D03*
%TD*%
D21*
%TO.N,GND*%
X169122145Y-57910734D02*
X169124950Y-57933909D01*
X169127149Y-57957173D01*
X169127892Y-57961562D01*
X169326687Y-59100605D01*
X169333042Y-59126480D01*
X169339146Y-59152502D01*
X169340477Y-59156749D01*
X169692018Y-60258273D01*
X169701839Y-60283079D01*
X169711405Y-60307999D01*
X169713300Y-60312026D01*
X170211083Y-61355649D01*
X170224165Y-61378866D01*
X170237039Y-61402284D01*
X170239464Y-61406017D01*
X170874277Y-62372427D01*
X170890384Y-62393647D01*
X170906322Y-62415108D01*
X170909231Y-62418478D01*
X171564629Y-63169775D01*
X171567325Y-74953659D01*
X171491401Y-74840030D01*
X171379970Y-74728599D01*
X171248942Y-74641049D01*
X171103351Y-74580743D01*
X170948793Y-74550000D01*
X170791207Y-74550000D01*
X170636649Y-74580743D01*
X170491058Y-74641049D01*
X170360030Y-74728599D01*
X170248599Y-74840030D01*
X170161049Y-74971058D01*
X170100743Y-75116649D01*
X170070000Y-75271207D01*
X170070000Y-75428793D01*
X170100743Y-75583351D01*
X170161049Y-75728942D01*
X170248599Y-75859970D01*
X170360030Y-75971401D01*
X170491058Y-76058951D01*
X170636649Y-76119257D01*
X170791207Y-76150000D01*
X170948793Y-76150000D01*
X171103351Y-76119257D01*
X171248942Y-76058951D01*
X171379970Y-75971401D01*
X171491401Y-75859970D01*
X171567507Y-75746070D01*
X171574903Y-108075000D01*
X164979126Y-108075000D01*
X164978385Y-108075073D01*
X164970599Y-108075100D01*
X164952129Y-108076976D01*
X164933556Y-108076846D01*
X164927651Y-108077425D01*
X164151263Y-108159027D01*
X164113561Y-108166766D01*
X164075692Y-108173990D01*
X164070014Y-108175705D01*
X164070008Y-108175707D01*
X163324262Y-108406554D01*
X163288758Y-108421478D01*
X163253037Y-108435910D01*
X163247806Y-108438692D01*
X163247797Y-108438696D01*
X163247790Y-108438701D01*
X162561088Y-108809999D01*
X162529170Y-108831528D01*
X162496921Y-108852631D01*
X162492328Y-108856378D01*
X162492322Y-108856382D01*
X162492317Y-108856387D01*
X161890812Y-109353995D01*
X161863711Y-109381285D01*
X161836147Y-109408278D01*
X161832365Y-109412851D01*
X161338964Y-110017822D01*
X161317667Y-110049877D01*
X161295885Y-110081688D01*
X161293063Y-110086908D01*
X160926563Y-110776193D01*
X160911888Y-110811798D01*
X160896710Y-110847211D01*
X160894955Y-110852880D01*
X160669318Y-111600224D01*
X160661836Y-111638010D01*
X160653827Y-111675689D01*
X160653207Y-111681590D01*
X160614655Y-112074776D01*
X157449938Y-112074864D01*
X157813136Y-111924422D01*
X158353627Y-111563277D01*
X158813277Y-111103627D01*
X159174422Y-110563136D01*
X159423183Y-109962574D01*
X159550000Y-109325022D01*
X159550000Y-108674978D01*
X159423183Y-108037426D01*
X159174422Y-107436864D01*
X158813277Y-106896373D01*
X158353627Y-106436723D01*
X157813136Y-106075578D01*
X157244401Y-105840000D01*
X166128065Y-105840000D01*
X166128065Y-107540000D01*
X166135788Y-107618414D01*
X166158660Y-107693814D01*
X166195803Y-107763303D01*
X166245789Y-107824211D01*
X166306697Y-107874197D01*
X166376186Y-107911340D01*
X166451586Y-107934212D01*
X166530000Y-107941935D01*
X168230000Y-107941935D01*
X168308414Y-107934212D01*
X168383814Y-107911340D01*
X168453303Y-107874197D01*
X168514211Y-107824211D01*
X168564197Y-107763303D01*
X168601340Y-107693814D01*
X168624212Y-107618414D01*
X168631935Y-107540000D01*
X168631935Y-106566886D01*
X168670000Y-106566886D01*
X168670000Y-106813114D01*
X168718037Y-107054611D01*
X168812265Y-107282097D01*
X168949062Y-107486828D01*
X169123172Y-107660938D01*
X169327903Y-107797735D01*
X169555389Y-107891963D01*
X169796886Y-107940000D01*
X170043114Y-107940000D01*
X170284611Y-107891963D01*
X170512097Y-107797735D01*
X170716828Y-107660938D01*
X170890938Y-107486828D01*
X171027735Y-107282097D01*
X171121963Y-107054611D01*
X171170000Y-106813114D01*
X171170000Y-106566886D01*
X171121963Y-106325389D01*
X171027735Y-106097903D01*
X170890938Y-105893172D01*
X170716828Y-105719062D01*
X170512097Y-105582265D01*
X170284611Y-105488037D01*
X170043114Y-105440000D01*
X169796886Y-105440000D01*
X169555389Y-105488037D01*
X169327903Y-105582265D01*
X169123172Y-105719062D01*
X168949062Y-105893172D01*
X168812265Y-106097903D01*
X168718037Y-106325389D01*
X168670000Y-106566886D01*
X168631935Y-106566886D01*
X168631935Y-105840000D01*
X168624212Y-105761586D01*
X168601340Y-105686186D01*
X168564197Y-105616697D01*
X168514211Y-105555789D01*
X168453303Y-105505803D01*
X168383814Y-105468660D01*
X168308414Y-105445788D01*
X168230000Y-105438065D01*
X166530000Y-105438065D01*
X166451586Y-105445788D01*
X166376186Y-105468660D01*
X166306697Y-105505803D01*
X166245789Y-105555789D01*
X166195803Y-105616697D01*
X166158660Y-105686186D01*
X166135788Y-105761586D01*
X166128065Y-105840000D01*
X157244401Y-105840000D01*
X157212574Y-105826817D01*
X156575022Y-105700000D01*
X155924978Y-105700000D01*
X155287426Y-105826817D01*
X154686864Y-106075578D01*
X154146373Y-106436723D01*
X153686723Y-106896373D01*
X153325578Y-107436864D01*
X153076817Y-108037426D01*
X152950000Y-108674978D01*
X152950000Y-109325022D01*
X153076817Y-109962574D01*
X153325578Y-110563136D01*
X153686723Y-111103627D01*
X154146373Y-111563277D01*
X154686864Y-111924422D01*
X155050222Y-112074930D01*
X152885509Y-112074990D01*
X152840973Y-111651263D01*
X152833234Y-111613561D01*
X152826010Y-111575692D01*
X152824294Y-111570012D01*
X152593446Y-110824262D01*
X152578522Y-110788758D01*
X152564090Y-110753037D01*
X152561304Y-110747798D01*
X152561304Y-110747797D01*
X152561299Y-110747790D01*
X152190001Y-110061088D01*
X152168472Y-110029170D01*
X152147369Y-109996921D01*
X152143622Y-109992328D01*
X152143618Y-109992322D01*
X152143613Y-109992317D01*
X151646005Y-109390812D01*
X151618715Y-109363711D01*
X151591722Y-109336147D01*
X151587149Y-109332365D01*
X150982178Y-108838964D01*
X150950123Y-108817667D01*
X150918312Y-108795885D01*
X150913095Y-108793064D01*
X150913087Y-108793060D01*
X150223807Y-108426563D01*
X150188202Y-108411888D01*
X150152789Y-108396710D01*
X150147120Y-108394955D01*
X149399776Y-108169318D01*
X149361990Y-108161836D01*
X149324311Y-108153827D01*
X149318410Y-108153207D01*
X148925000Y-108114633D01*
X148925000Y-100187112D01*
X155025000Y-100187112D01*
X155025000Y-100462888D01*
X155078801Y-100733365D01*
X155184336Y-100988149D01*
X155337549Y-101217448D01*
X155532552Y-101412451D01*
X155761851Y-101565664D01*
X155832674Y-101595000D01*
X155761851Y-101624336D01*
X155532552Y-101777549D01*
X155337549Y-101972552D01*
X155184336Y-102201851D01*
X155078801Y-102456635D01*
X155025000Y-102727112D01*
X155025000Y-103002888D01*
X155078801Y-103273365D01*
X155184336Y-103528149D01*
X155337549Y-103757448D01*
X155532552Y-103952451D01*
X155761851Y-104105664D01*
X156016635Y-104211199D01*
X156287112Y-104265000D01*
X156562888Y-104265000D01*
X156833365Y-104211199D01*
X157088149Y-104105664D01*
X157317448Y-103952451D01*
X157512451Y-103757448D01*
X157665664Y-103528149D01*
X157771199Y-103273365D01*
X157825000Y-103002888D01*
X157825000Y-102727112D01*
X157771199Y-102456635D01*
X157665664Y-102201851D01*
X157512451Y-101972552D01*
X157317448Y-101777549D01*
X157288217Y-101758017D01*
X158485000Y-101758017D01*
X158485000Y-102151983D01*
X158561859Y-102538378D01*
X158712623Y-102902355D01*
X158931499Y-103229926D01*
X159210074Y-103508501D01*
X159537645Y-103727377D01*
X159901622Y-103878141D01*
X160288017Y-103955000D01*
X160681983Y-103955000D01*
X161068378Y-103878141D01*
X161432355Y-103727377D01*
X161759926Y-103508501D01*
X162038501Y-103229926D01*
X162257377Y-102902355D01*
X162408141Y-102538378D01*
X162485000Y-102151983D01*
X162485000Y-101758017D01*
X162408141Y-101371622D01*
X162257377Y-101007645D01*
X162038501Y-100680074D01*
X161759926Y-100401499D01*
X161432355Y-100182623D01*
X161068378Y-100031859D01*
X160681983Y-99955000D01*
X160288017Y-99955000D01*
X159901622Y-100031859D01*
X159537645Y-100182623D01*
X159210074Y-100401499D01*
X158931499Y-100680074D01*
X158712623Y-101007645D01*
X158561859Y-101371622D01*
X158485000Y-101758017D01*
X157288217Y-101758017D01*
X157088149Y-101624336D01*
X157017326Y-101595000D01*
X157088149Y-101565664D01*
X157317448Y-101412451D01*
X157512451Y-101217448D01*
X157665664Y-100988149D01*
X157771199Y-100733365D01*
X157825000Y-100462888D01*
X157825000Y-100187112D01*
X157771199Y-99916635D01*
X157665664Y-99661851D01*
X157512451Y-99432552D01*
X157317448Y-99237549D01*
X157088149Y-99084336D01*
X156833365Y-98978801D01*
X156562888Y-98925000D01*
X156287112Y-98925000D01*
X156016635Y-98978801D01*
X155761851Y-99084336D01*
X155532552Y-99237549D01*
X155337549Y-99432552D01*
X155184336Y-99661851D01*
X155078801Y-99916635D01*
X155025000Y-100187112D01*
X148925000Y-100187112D01*
X148925000Y-89467112D01*
X155025000Y-89467112D01*
X155025000Y-89742888D01*
X155078801Y-90013365D01*
X155184336Y-90268149D01*
X155337549Y-90497448D01*
X155532552Y-90692451D01*
X155761851Y-90845664D01*
X155832674Y-90875000D01*
X155761851Y-90904336D01*
X155532552Y-91057549D01*
X155337549Y-91252552D01*
X155184336Y-91481851D01*
X155078801Y-91736635D01*
X155025000Y-92007112D01*
X155025000Y-92282888D01*
X155078801Y-92553365D01*
X155184336Y-92808149D01*
X155337549Y-93037448D01*
X155532552Y-93232451D01*
X155761851Y-93385664D01*
X156016635Y-93491199D01*
X156287112Y-93545000D01*
X156562888Y-93545000D01*
X156833365Y-93491199D01*
X157088149Y-93385664D01*
X157317448Y-93232451D01*
X157512451Y-93037448D01*
X157665664Y-92808149D01*
X157771199Y-92553365D01*
X157825000Y-92282888D01*
X157825000Y-92007112D01*
X157771199Y-91736635D01*
X157665664Y-91481851D01*
X157512451Y-91252552D01*
X157317448Y-91057549D01*
X157088149Y-90904336D01*
X157017326Y-90875000D01*
X157088149Y-90845664D01*
X157317448Y-90692451D01*
X157512451Y-90497448D01*
X157625661Y-90328017D01*
X158485000Y-90328017D01*
X158485000Y-90721983D01*
X158561859Y-91108378D01*
X158712623Y-91472355D01*
X158931499Y-91799926D01*
X159210074Y-92078501D01*
X159537645Y-92297377D01*
X159901622Y-92448141D01*
X160288017Y-92525000D01*
X160681983Y-92525000D01*
X161068378Y-92448141D01*
X161432355Y-92297377D01*
X161759926Y-92078501D01*
X162038501Y-91799926D01*
X162127345Y-91666961D01*
X165535000Y-91666961D01*
X165535000Y-91923039D01*
X165584958Y-92174196D01*
X165682955Y-92410781D01*
X165825224Y-92623702D01*
X166006298Y-92804776D01*
X166219219Y-92947045D01*
X166455804Y-93045042D01*
X166556140Y-93065000D01*
X166455804Y-93084958D01*
X166219219Y-93182955D01*
X166006298Y-93325224D01*
X165825224Y-93506298D01*
X165682955Y-93719219D01*
X165584958Y-93955804D01*
X165535000Y-94206961D01*
X165535000Y-94463039D01*
X165584958Y-94714196D01*
X165682955Y-94950781D01*
X165825224Y-95163702D01*
X166006298Y-95344776D01*
X166219219Y-95487045D01*
X166455804Y-95585042D01*
X166556140Y-95605000D01*
X166455804Y-95624958D01*
X166219219Y-95722955D01*
X166006298Y-95865224D01*
X165825224Y-96046298D01*
X165682955Y-96259219D01*
X165584958Y-96495804D01*
X165535000Y-96746961D01*
X165535000Y-97003039D01*
X165584958Y-97254196D01*
X165682955Y-97490781D01*
X165825224Y-97703702D01*
X166006298Y-97884776D01*
X166219219Y-98027045D01*
X166455804Y-98125042D01*
X166556140Y-98145000D01*
X166455804Y-98164958D01*
X166219219Y-98262955D01*
X166006298Y-98405224D01*
X165825224Y-98586298D01*
X165682955Y-98799219D01*
X165584958Y-99035804D01*
X165535000Y-99286961D01*
X165535000Y-99543039D01*
X165584958Y-99794196D01*
X165682955Y-100030781D01*
X165825224Y-100243702D01*
X166006298Y-100424776D01*
X166219219Y-100567045D01*
X166455804Y-100665042D01*
X166556140Y-100685000D01*
X166455804Y-100704958D01*
X166219219Y-100802955D01*
X166006298Y-100945224D01*
X165825224Y-101126298D01*
X165682955Y-101339219D01*
X165584958Y-101575804D01*
X165535000Y-101826961D01*
X165535000Y-102083039D01*
X165584958Y-102334196D01*
X165682955Y-102570781D01*
X165825224Y-102783702D01*
X166006298Y-102964776D01*
X166219219Y-103107045D01*
X166455804Y-103205042D01*
X166706961Y-103255000D01*
X166963039Y-103255000D01*
X167214196Y-103205042D01*
X167450781Y-103107045D01*
X167663702Y-102964776D01*
X167844776Y-102783702D01*
X167987045Y-102570781D01*
X168085042Y-102334196D01*
X168135000Y-102083039D01*
X168135000Y-101826961D01*
X168085042Y-101575804D01*
X167987045Y-101339219D01*
X167844776Y-101126298D01*
X167663702Y-100945224D01*
X167450781Y-100802955D01*
X167214196Y-100704958D01*
X167113860Y-100685000D01*
X167214196Y-100665042D01*
X167450781Y-100567045D01*
X167465872Y-100556961D01*
X168075000Y-100556961D01*
X168075000Y-100813039D01*
X168124958Y-101064196D01*
X168222955Y-101300781D01*
X168365224Y-101513702D01*
X168546298Y-101694776D01*
X168759219Y-101837045D01*
X168995804Y-101935042D01*
X169246961Y-101985000D01*
X169503039Y-101985000D01*
X169754196Y-101935042D01*
X169990781Y-101837045D01*
X170203702Y-101694776D01*
X170384776Y-101513702D01*
X170527045Y-101300781D01*
X170625042Y-101064196D01*
X170675000Y-100813039D01*
X170675000Y-100556961D01*
X170625042Y-100305804D01*
X170527045Y-100069219D01*
X170384776Y-99856298D01*
X170203702Y-99675224D01*
X169990781Y-99532955D01*
X169754196Y-99434958D01*
X169503039Y-99385000D01*
X169246961Y-99385000D01*
X168995804Y-99434958D01*
X168759219Y-99532955D01*
X168546298Y-99675224D01*
X168365224Y-99856298D01*
X168222955Y-100069219D01*
X168124958Y-100305804D01*
X168075000Y-100556961D01*
X167465872Y-100556961D01*
X167663702Y-100424776D01*
X167844776Y-100243702D01*
X167987045Y-100030781D01*
X168085042Y-99794196D01*
X168135000Y-99543039D01*
X168135000Y-99286961D01*
X168085042Y-99035804D01*
X167987045Y-98799219D01*
X167844776Y-98586298D01*
X167663702Y-98405224D01*
X167450781Y-98262955D01*
X167214196Y-98164958D01*
X167113860Y-98145000D01*
X167214196Y-98125042D01*
X167450781Y-98027045D01*
X167663702Y-97884776D01*
X167844776Y-97703702D01*
X167987045Y-97490781D01*
X168085042Y-97254196D01*
X168135000Y-97003039D01*
X168135000Y-96746961D01*
X168085042Y-96495804D01*
X167987045Y-96259219D01*
X167844776Y-96046298D01*
X167663702Y-95865224D01*
X167450781Y-95722955D01*
X167214196Y-95624958D01*
X167113860Y-95605000D01*
X167214196Y-95585042D01*
X167450781Y-95487045D01*
X167663702Y-95344776D01*
X167844776Y-95163702D01*
X167987045Y-94950781D01*
X168085042Y-94714196D01*
X168135000Y-94463039D01*
X168135000Y-94206961D01*
X168085042Y-93955804D01*
X167987045Y-93719219D01*
X167844776Y-93506298D01*
X167663702Y-93325224D01*
X167450781Y-93182955D01*
X167214196Y-93084958D01*
X167113860Y-93065000D01*
X167214196Y-93045042D01*
X167450781Y-92947045D01*
X167663702Y-92804776D01*
X167844776Y-92623702D01*
X167987045Y-92410781D01*
X168085042Y-92174196D01*
X168135000Y-91923039D01*
X168135000Y-91666961D01*
X168125650Y-91619953D01*
X168140803Y-91648303D01*
X168190789Y-91709211D01*
X168251697Y-91759197D01*
X168321186Y-91796340D01*
X168396586Y-91819212D01*
X168475000Y-91826935D01*
X168966889Y-91826935D01*
X168759219Y-91912955D01*
X168546298Y-92055224D01*
X168365224Y-92236298D01*
X168222955Y-92449219D01*
X168124958Y-92685804D01*
X168075000Y-92936961D01*
X168075000Y-93193039D01*
X168124958Y-93444196D01*
X168222955Y-93680781D01*
X168365224Y-93893702D01*
X168546298Y-94074776D01*
X168759219Y-94217045D01*
X168995804Y-94315042D01*
X169096140Y-94335000D01*
X168995804Y-94354958D01*
X168759219Y-94452955D01*
X168546298Y-94595224D01*
X168365224Y-94776298D01*
X168222955Y-94989219D01*
X168124958Y-95225804D01*
X168075000Y-95476961D01*
X168075000Y-95733039D01*
X168124958Y-95984196D01*
X168222955Y-96220781D01*
X168365224Y-96433702D01*
X168546298Y-96614776D01*
X168759219Y-96757045D01*
X168995804Y-96855042D01*
X169246961Y-96905000D01*
X169503039Y-96905000D01*
X169754196Y-96855042D01*
X169990781Y-96757045D01*
X170203702Y-96614776D01*
X170384776Y-96433702D01*
X170527045Y-96220781D01*
X170625042Y-95984196D01*
X170675000Y-95733039D01*
X170675000Y-95476961D01*
X170625042Y-95225804D01*
X170527045Y-94989219D01*
X170384776Y-94776298D01*
X170203702Y-94595224D01*
X169990781Y-94452955D01*
X169754196Y-94354958D01*
X169653860Y-94335000D01*
X169754196Y-94315042D01*
X169990781Y-94217045D01*
X170203702Y-94074776D01*
X170384776Y-93893702D01*
X170527045Y-93680781D01*
X170625042Y-93444196D01*
X170675000Y-93193039D01*
X170675000Y-92936961D01*
X170625042Y-92685804D01*
X170527045Y-92449219D01*
X170384776Y-92236298D01*
X170203702Y-92055224D01*
X169990781Y-91912955D01*
X169783111Y-91826935D01*
X170275000Y-91826935D01*
X170353414Y-91819212D01*
X170428814Y-91796340D01*
X170498303Y-91759197D01*
X170559211Y-91709211D01*
X170609197Y-91648303D01*
X170646340Y-91578814D01*
X170669212Y-91503414D01*
X170676935Y-91425000D01*
X170676935Y-89625000D01*
X170669212Y-89546586D01*
X170646340Y-89471186D01*
X170609197Y-89401697D01*
X170559211Y-89340789D01*
X170498303Y-89290803D01*
X170428814Y-89253660D01*
X170353414Y-89230788D01*
X170275000Y-89223065D01*
X168475000Y-89223065D01*
X168396586Y-89230788D01*
X168321186Y-89253660D01*
X168251697Y-89290803D01*
X168190789Y-89340789D01*
X168140803Y-89401697D01*
X168103660Y-89471186D01*
X168080788Y-89546586D01*
X168073065Y-89625000D01*
X168073065Y-91386889D01*
X167987045Y-91179219D01*
X167844776Y-90966298D01*
X167663702Y-90785224D01*
X167450781Y-90642955D01*
X167214196Y-90544958D01*
X166963039Y-90495000D01*
X166706961Y-90495000D01*
X166455804Y-90544958D01*
X166219219Y-90642955D01*
X166006298Y-90785224D01*
X165825224Y-90966298D01*
X165682955Y-91179219D01*
X165584958Y-91415804D01*
X165535000Y-91666961D01*
X162127345Y-91666961D01*
X162257377Y-91472355D01*
X162408141Y-91108378D01*
X162485000Y-90721983D01*
X162485000Y-90328017D01*
X162408141Y-89941622D01*
X162257377Y-89577645D01*
X162038501Y-89250074D01*
X161759926Y-88971499D01*
X161432355Y-88752623D01*
X161068378Y-88601859D01*
X160681983Y-88525000D01*
X160288017Y-88525000D01*
X159901622Y-88601859D01*
X159537645Y-88752623D01*
X159210074Y-88971499D01*
X158931499Y-89250074D01*
X158712623Y-89577645D01*
X158561859Y-89941622D01*
X158485000Y-90328017D01*
X157625661Y-90328017D01*
X157665664Y-90268149D01*
X157771199Y-90013365D01*
X157825000Y-89742888D01*
X157825000Y-89467112D01*
X157771199Y-89196635D01*
X157665664Y-88941851D01*
X157512451Y-88712552D01*
X157317448Y-88517549D01*
X157088149Y-88364336D01*
X156833365Y-88258801D01*
X156562888Y-88205000D01*
X156287112Y-88205000D01*
X156016635Y-88258801D01*
X155761851Y-88364336D01*
X155532552Y-88517549D01*
X155337549Y-88712552D01*
X155184336Y-88941851D01*
X155078801Y-89196635D01*
X155025000Y-89467112D01*
X148925000Y-89467112D01*
X148925000Y-86138443D01*
X154085000Y-86138443D01*
X154085000Y-86261557D01*
X154109019Y-86382306D01*
X154156132Y-86496048D01*
X154224531Y-86598414D01*
X154311586Y-86685469D01*
X154413952Y-86753868D01*
X154527694Y-86800981D01*
X154648443Y-86825000D01*
X154771557Y-86825000D01*
X154892306Y-86800981D01*
X155006048Y-86753868D01*
X155108414Y-86685469D01*
X155195469Y-86598414D01*
X155263868Y-86496048D01*
X155310981Y-86382306D01*
X155335000Y-86261557D01*
X155335000Y-86138443D01*
X155310981Y-86017694D01*
X155263868Y-85903952D01*
X155195469Y-85801586D01*
X155108414Y-85714531D01*
X155006048Y-85646132D01*
X154892306Y-85599019D01*
X154771557Y-85575000D01*
X154648443Y-85575000D01*
X154527694Y-85599019D01*
X154413952Y-85646132D01*
X154311586Y-85714531D01*
X154224531Y-85801586D01*
X154156132Y-85903952D01*
X154109019Y-86017694D01*
X154085000Y-86138443D01*
X148925000Y-86138443D01*
X148925000Y-82901207D01*
X169770000Y-82901207D01*
X169770000Y-83058793D01*
X169800743Y-83213351D01*
X169861049Y-83358942D01*
X169948599Y-83489970D01*
X170060030Y-83601401D01*
X170191058Y-83688951D01*
X170336649Y-83749257D01*
X170491207Y-83780000D01*
X170648793Y-83780000D01*
X170803351Y-83749257D01*
X170948942Y-83688951D01*
X171079970Y-83601401D01*
X171191401Y-83489970D01*
X171278951Y-83358942D01*
X171339257Y-83213351D01*
X171370000Y-83058793D01*
X171370000Y-82901207D01*
X171339257Y-82746649D01*
X171278951Y-82601058D01*
X171191401Y-82470030D01*
X171079970Y-82358599D01*
X170948942Y-82271049D01*
X170803351Y-82210743D01*
X170648793Y-82180000D01*
X170491207Y-82180000D01*
X170336649Y-82210743D01*
X170191058Y-82271049D01*
X170060030Y-82358599D01*
X169948599Y-82470030D01*
X169861049Y-82601058D01*
X169800743Y-82746649D01*
X169770000Y-82901207D01*
X148925000Y-82901207D01*
X148925000Y-80943443D01*
X154085000Y-80943443D01*
X154085000Y-81066557D01*
X154109019Y-81187306D01*
X154156132Y-81301048D01*
X154224531Y-81403414D01*
X154311586Y-81490469D01*
X154413952Y-81558868D01*
X154527694Y-81605981D01*
X154648443Y-81630000D01*
X154771557Y-81630000D01*
X154892306Y-81605981D01*
X155006048Y-81558868D01*
X155108414Y-81490469D01*
X155195469Y-81403414D01*
X155263868Y-81301048D01*
X155310981Y-81187306D01*
X155335000Y-81066557D01*
X155335000Y-80943443D01*
X155310981Y-80822694D01*
X155263868Y-80708952D01*
X155195469Y-80606586D01*
X155108414Y-80519531D01*
X155006048Y-80451132D01*
X154892306Y-80404019D01*
X154771557Y-80380000D01*
X154648443Y-80380000D01*
X154527694Y-80404019D01*
X154413952Y-80451132D01*
X154311586Y-80519531D01*
X154224531Y-80606586D01*
X154156132Y-80708952D01*
X154109019Y-80822694D01*
X154085000Y-80943443D01*
X148925000Y-80943443D01*
X148925000Y-78568443D01*
X154085000Y-78568443D01*
X154085000Y-78691557D01*
X154109019Y-78812306D01*
X154156132Y-78926048D01*
X154224531Y-79028414D01*
X154311586Y-79115469D01*
X154413952Y-79183868D01*
X154527694Y-79230981D01*
X154648443Y-79255000D01*
X154771557Y-79255000D01*
X154892306Y-79230981D01*
X155006048Y-79183868D01*
X155108414Y-79115469D01*
X155195469Y-79028414D01*
X155263868Y-78926048D01*
X155299763Y-78839389D01*
X155392306Y-78820981D01*
X155506048Y-78773868D01*
X155608414Y-78705469D01*
X155695469Y-78618414D01*
X155763868Y-78516048D01*
X155810981Y-78402306D01*
X155835000Y-78281557D01*
X155835000Y-78158443D01*
X155810981Y-78037694D01*
X155763868Y-77923952D01*
X155695469Y-77821586D01*
X155608414Y-77734531D01*
X155506048Y-77666132D01*
X155392306Y-77619019D01*
X155271557Y-77595000D01*
X155148443Y-77595000D01*
X155027694Y-77619019D01*
X154913952Y-77666132D01*
X154811586Y-77734531D01*
X154724531Y-77821586D01*
X154656132Y-77923952D01*
X154620237Y-78010611D01*
X154527694Y-78029019D01*
X154413952Y-78076132D01*
X154311586Y-78144531D01*
X154224531Y-78231586D01*
X154156132Y-78333952D01*
X154109019Y-78447694D01*
X154085000Y-78568443D01*
X148925000Y-78568443D01*
X148925000Y-77398443D01*
X157745000Y-77398443D01*
X157745000Y-77521557D01*
X157769019Y-77642306D01*
X157816132Y-77756048D01*
X157884531Y-77858414D01*
X157971586Y-77945469D01*
X158073952Y-78013868D01*
X158187694Y-78060981D01*
X158308443Y-78085000D01*
X158431557Y-78085000D01*
X158552306Y-78060981D01*
X158666048Y-78013868D01*
X158768414Y-77945469D01*
X158855469Y-77858414D01*
X158923868Y-77756048D01*
X158970981Y-77642306D01*
X158995000Y-77521557D01*
X158995000Y-77398443D01*
X158970981Y-77277694D01*
X158923868Y-77163952D01*
X158855469Y-77061586D01*
X158768414Y-76974531D01*
X158673644Y-76911207D01*
X164380000Y-76911207D01*
X164380000Y-77068793D01*
X164410743Y-77223351D01*
X164471049Y-77368942D01*
X164558599Y-77499970D01*
X164670030Y-77611401D01*
X164801058Y-77698951D01*
X164946649Y-77759257D01*
X165101207Y-77790000D01*
X165258793Y-77790000D01*
X165413351Y-77759257D01*
X165558942Y-77698951D01*
X165689970Y-77611401D01*
X165801401Y-77499970D01*
X165888951Y-77368942D01*
X165949257Y-77223351D01*
X165980000Y-77068793D01*
X165980000Y-76911207D01*
X165966077Y-76841207D01*
X166840000Y-76841207D01*
X166840000Y-76998793D01*
X166870743Y-77153351D01*
X166931049Y-77298942D01*
X167018599Y-77429970D01*
X167130030Y-77541401D01*
X167261058Y-77628951D01*
X167406649Y-77689257D01*
X167561207Y-77720000D01*
X167718793Y-77720000D01*
X167873351Y-77689257D01*
X168018942Y-77628951D01*
X168149970Y-77541401D01*
X168261401Y-77429970D01*
X168348951Y-77298942D01*
X168409257Y-77153351D01*
X168440000Y-76998793D01*
X168440000Y-76841207D01*
X168409257Y-76686649D01*
X168348951Y-76541058D01*
X168261401Y-76410030D01*
X168149970Y-76298599D01*
X168018942Y-76211049D01*
X167873351Y-76150743D01*
X167718793Y-76120000D01*
X167561207Y-76120000D01*
X167406649Y-76150743D01*
X167261058Y-76211049D01*
X167130030Y-76298599D01*
X167018599Y-76410030D01*
X166931049Y-76541058D01*
X166870743Y-76686649D01*
X166840000Y-76841207D01*
X165966077Y-76841207D01*
X165949257Y-76756649D01*
X165888951Y-76611058D01*
X165801401Y-76480030D01*
X165689970Y-76368599D01*
X165558942Y-76281049D01*
X165413351Y-76220743D01*
X165258793Y-76190000D01*
X165101207Y-76190000D01*
X164946649Y-76220743D01*
X164801058Y-76281049D01*
X164670030Y-76368599D01*
X164558599Y-76480030D01*
X164471049Y-76611058D01*
X164410743Y-76756649D01*
X164380000Y-76911207D01*
X158673644Y-76911207D01*
X158666048Y-76906132D01*
X158552306Y-76859019D01*
X158431557Y-76835000D01*
X158308443Y-76835000D01*
X158187694Y-76859019D01*
X158073952Y-76906132D01*
X157971586Y-76974531D01*
X157884531Y-77061586D01*
X157816132Y-77163952D01*
X157769019Y-77277694D01*
X157745000Y-77398443D01*
X148925000Y-77398443D01*
X148925000Y-76331056D01*
X155510000Y-76331056D01*
X155510000Y-76468944D01*
X155536901Y-76604182D01*
X155589668Y-76731574D01*
X155666274Y-76846224D01*
X155763776Y-76943726D01*
X155878426Y-77020332D01*
X156005818Y-77073099D01*
X156141056Y-77100000D01*
X156278944Y-77100000D01*
X156414182Y-77073099D01*
X156541574Y-77020332D01*
X156656224Y-76943726D01*
X156753726Y-76846224D01*
X156830332Y-76731574D01*
X156883099Y-76604182D01*
X156910000Y-76468944D01*
X156910000Y-76331056D01*
X156883099Y-76195818D01*
X156830332Y-76068426D01*
X156753726Y-75953776D01*
X156656224Y-75856274D01*
X156541574Y-75779668D01*
X156414182Y-75726901D01*
X156278944Y-75700000D01*
X156141056Y-75700000D01*
X156005818Y-75726901D01*
X155878426Y-75779668D01*
X155763776Y-75856274D01*
X155666274Y-75953776D01*
X155589668Y-76068426D01*
X155536901Y-76195818D01*
X155510000Y-76331056D01*
X148925000Y-76331056D01*
X148925000Y-75181207D01*
X150860000Y-75181207D01*
X150860000Y-75338793D01*
X150890743Y-75493351D01*
X150951049Y-75638942D01*
X151038599Y-75769970D01*
X151150030Y-75881401D01*
X151281058Y-75968951D01*
X151426649Y-76029257D01*
X151581207Y-76060000D01*
X151738793Y-76060000D01*
X151893351Y-76029257D01*
X152038942Y-75968951D01*
X152169970Y-75881401D01*
X152281401Y-75769970D01*
X152368951Y-75638942D01*
X152429257Y-75493351D01*
X152460000Y-75338793D01*
X152460000Y-75181207D01*
X152429257Y-75026649D01*
X152368951Y-74881058D01*
X152281401Y-74750030D01*
X152229742Y-74698371D01*
X152329970Y-74631401D01*
X152441401Y-74519970D01*
X152528951Y-74388942D01*
X152589257Y-74243351D01*
X152620000Y-74088793D01*
X152620000Y-73931207D01*
X152589257Y-73776649D01*
X152528951Y-73631058D01*
X152441401Y-73500030D01*
X152329970Y-73388599D01*
X152198942Y-73301049D01*
X152053351Y-73240743D01*
X151898793Y-73210000D01*
X151741207Y-73210000D01*
X151586649Y-73240743D01*
X151441058Y-73301049D01*
X151310030Y-73388599D01*
X151198599Y-73500030D01*
X151111049Y-73631058D01*
X151050743Y-73776649D01*
X151020000Y-73931207D01*
X151020000Y-74088793D01*
X151050743Y-74243351D01*
X151111049Y-74388942D01*
X151198599Y-74519970D01*
X151250258Y-74571629D01*
X151150030Y-74638599D01*
X151038599Y-74750030D01*
X150951049Y-74881058D01*
X150890743Y-75026649D01*
X150860000Y-75181207D01*
X148925000Y-75181207D01*
X148925000Y-71818443D01*
X154295000Y-71818443D01*
X154295000Y-71941557D01*
X154319019Y-72062306D01*
X154366132Y-72176048D01*
X154434531Y-72278414D01*
X154521586Y-72365469D01*
X154623952Y-72433868D01*
X154737694Y-72480981D01*
X154775382Y-72488478D01*
X154799019Y-72607306D01*
X154846132Y-72721048D01*
X154914531Y-72823414D01*
X155001586Y-72910469D01*
X155045983Y-72940134D01*
X154994531Y-72991586D01*
X154926132Y-73093952D01*
X154879019Y-73207694D01*
X154855000Y-73328443D01*
X154855000Y-73451557D01*
X154879019Y-73572306D01*
X154890674Y-73600443D01*
X154889531Y-73601586D01*
X154821132Y-73703952D01*
X154774019Y-73817694D01*
X154750000Y-73938443D01*
X154750000Y-74061557D01*
X154774019Y-74182306D01*
X154821132Y-74296048D01*
X154889531Y-74398414D01*
X154976586Y-74485469D01*
X155078952Y-74553868D01*
X155174001Y-74593238D01*
X155139019Y-74677694D01*
X155115000Y-74798443D01*
X155115000Y-74921557D01*
X155139019Y-75042306D01*
X155186132Y-75156048D01*
X155254531Y-75258414D01*
X155341586Y-75345469D01*
X155443952Y-75413868D01*
X155557694Y-75460981D01*
X155678443Y-75485000D01*
X155801557Y-75485000D01*
X155922306Y-75460981D01*
X156036048Y-75413868D01*
X156133963Y-75348443D01*
X156535000Y-75348443D01*
X156535000Y-75471557D01*
X156559019Y-75592306D01*
X156606132Y-75706048D01*
X156674531Y-75808414D01*
X156761586Y-75895469D01*
X156863952Y-75963868D01*
X156977694Y-76010981D01*
X157098443Y-76035000D01*
X157221557Y-76035000D01*
X157342306Y-76010981D01*
X157365902Y-76001207D01*
X160870000Y-76001207D01*
X160870000Y-76158793D01*
X160900743Y-76313351D01*
X160961049Y-76458942D01*
X161048599Y-76589970D01*
X161160030Y-76701401D01*
X161291058Y-76788951D01*
X161436649Y-76849257D01*
X161591207Y-76880000D01*
X161748793Y-76880000D01*
X161903351Y-76849257D01*
X162048942Y-76788951D01*
X162179970Y-76701401D01*
X162291401Y-76589970D01*
X162378951Y-76458942D01*
X162439257Y-76313351D01*
X162470000Y-76158793D01*
X162470000Y-76001207D01*
X162439257Y-75846649D01*
X162378951Y-75701058D01*
X162291401Y-75570030D01*
X162179970Y-75458599D01*
X162048942Y-75371049D01*
X161903351Y-75310743D01*
X161748793Y-75280000D01*
X161591207Y-75280000D01*
X161436649Y-75310743D01*
X161291058Y-75371049D01*
X161160030Y-75458599D01*
X161048599Y-75570030D01*
X160961049Y-75701058D01*
X160900743Y-75846649D01*
X160870000Y-76001207D01*
X157365902Y-76001207D01*
X157456048Y-75963868D01*
X157558414Y-75895469D01*
X157645469Y-75808414D01*
X157713868Y-75706048D01*
X157760981Y-75592306D01*
X157785000Y-75471557D01*
X157785000Y-75348443D01*
X157767098Y-75258443D01*
X157805000Y-75258443D01*
X157805000Y-75381557D01*
X157829019Y-75502306D01*
X157876132Y-75616048D01*
X157944531Y-75718414D01*
X158031586Y-75805469D01*
X158133952Y-75873868D01*
X158247694Y-75920981D01*
X158368443Y-75945000D01*
X158491557Y-75945000D01*
X158612306Y-75920981D01*
X158726048Y-75873868D01*
X158731698Y-75870093D01*
X158758826Y-75888219D01*
X158872568Y-75935332D01*
X158993317Y-75959351D01*
X159116431Y-75959351D01*
X159237180Y-75935332D01*
X159350922Y-75888219D01*
X159453288Y-75819820D01*
X159540343Y-75732765D01*
X159608742Y-75630399D01*
X159655855Y-75516657D01*
X159679874Y-75395908D01*
X159679874Y-75272794D01*
X159655855Y-75152045D01*
X159608742Y-75038303D01*
X159540343Y-74935937D01*
X159536173Y-74931767D01*
X159728324Y-74931767D01*
X159728324Y-75054881D01*
X159752343Y-75175630D01*
X159799456Y-75289372D01*
X159867855Y-75391738D01*
X159954910Y-75478793D01*
X160057276Y-75547192D01*
X160171018Y-75594305D01*
X160291767Y-75618324D01*
X160414881Y-75618324D01*
X160535630Y-75594305D01*
X160649372Y-75547192D01*
X160751738Y-75478793D01*
X160838793Y-75391738D01*
X160907192Y-75289372D01*
X160954305Y-75175630D01*
X160978324Y-75054881D01*
X160978324Y-74931767D01*
X160954305Y-74811018D01*
X160908821Y-74701207D01*
X166450000Y-74701207D01*
X166450000Y-74858793D01*
X166480743Y-75013351D01*
X166541049Y-75158942D01*
X166628599Y-75289970D01*
X166740030Y-75401401D01*
X166871058Y-75488951D01*
X167016649Y-75549257D01*
X167171207Y-75580000D01*
X167328793Y-75580000D01*
X167483351Y-75549257D01*
X167628942Y-75488951D01*
X167759970Y-75401401D01*
X167871401Y-75289970D01*
X167958951Y-75158942D01*
X168019257Y-75013351D01*
X168050000Y-74858793D01*
X168050000Y-74701207D01*
X168019257Y-74546649D01*
X167958951Y-74401058D01*
X167871401Y-74270030D01*
X167759970Y-74158599D01*
X167628942Y-74071049D01*
X167483351Y-74010743D01*
X167328793Y-73980000D01*
X167171207Y-73980000D01*
X167016649Y-74010743D01*
X166871058Y-74071049D01*
X166740030Y-74158599D01*
X166628599Y-74270030D01*
X166541049Y-74401058D01*
X166480743Y-74546649D01*
X166450000Y-74701207D01*
X160908821Y-74701207D01*
X160907192Y-74697276D01*
X160838793Y-74594910D01*
X160751738Y-74507855D01*
X160649372Y-74439456D01*
X160535630Y-74392343D01*
X160414881Y-74368324D01*
X160291767Y-74368324D01*
X160171018Y-74392343D01*
X160057276Y-74439456D01*
X159954910Y-74507855D01*
X159867855Y-74594910D01*
X159799456Y-74697276D01*
X159752343Y-74811018D01*
X159728324Y-74931767D01*
X159536173Y-74931767D01*
X159453288Y-74848882D01*
X159350922Y-74780483D01*
X159237180Y-74733370D01*
X159116431Y-74709351D01*
X158993317Y-74709351D01*
X158872568Y-74733370D01*
X158758826Y-74780483D01*
X158753176Y-74784258D01*
X158726048Y-74766132D01*
X158612306Y-74719019D01*
X158491557Y-74695000D01*
X158368443Y-74695000D01*
X158247694Y-74719019D01*
X158133952Y-74766132D01*
X158031586Y-74834531D01*
X157944531Y-74921586D01*
X157876132Y-75023952D01*
X157829019Y-75137694D01*
X157805000Y-75258443D01*
X157767098Y-75258443D01*
X157760981Y-75227694D01*
X157713868Y-75113952D01*
X157645469Y-75011586D01*
X157558414Y-74924531D01*
X157456048Y-74856132D01*
X157342306Y-74809019D01*
X157221557Y-74785000D01*
X157098443Y-74785000D01*
X156977694Y-74809019D01*
X156863952Y-74856132D01*
X156761586Y-74924531D01*
X156674531Y-75011586D01*
X156606132Y-75113952D01*
X156559019Y-75227694D01*
X156535000Y-75348443D01*
X156133963Y-75348443D01*
X156138414Y-75345469D01*
X156225469Y-75258414D01*
X156293868Y-75156048D01*
X156340981Y-75042306D01*
X156365000Y-74921557D01*
X156365000Y-74798443D01*
X156340981Y-74677694D01*
X156293868Y-74563952D01*
X156225469Y-74461586D01*
X156138414Y-74374531D01*
X156036048Y-74306132D01*
X155940999Y-74266762D01*
X155975981Y-74182306D01*
X156000000Y-74061557D01*
X156000000Y-73938443D01*
X155975981Y-73817694D01*
X155964326Y-73789557D01*
X155965469Y-73788414D01*
X156033868Y-73686048D01*
X156080981Y-73572306D01*
X156105000Y-73451557D01*
X156105000Y-73328443D01*
X156080981Y-73207694D01*
X156033868Y-73093952D01*
X155965469Y-72991586D01*
X155878414Y-72904531D01*
X155834017Y-72874866D01*
X155885469Y-72823414D01*
X155953868Y-72721048D01*
X156000981Y-72607306D01*
X156025000Y-72486557D01*
X156025000Y-72363443D01*
X156000981Y-72242694D01*
X155953868Y-72128952D01*
X155885469Y-72026586D01*
X155798414Y-71939531D01*
X155696048Y-71871132D01*
X155661495Y-71856820D01*
X155708414Y-71825469D01*
X155795469Y-71738414D01*
X155863868Y-71636048D01*
X155910981Y-71522306D01*
X155935000Y-71401557D01*
X155935000Y-71278443D01*
X155910981Y-71157694D01*
X155863868Y-71043952D01*
X155795469Y-70941586D01*
X155708414Y-70854531D01*
X155606048Y-70786132D01*
X155492306Y-70739019D01*
X155371557Y-70715000D01*
X155248443Y-70715000D01*
X155127694Y-70739019D01*
X155013952Y-70786132D01*
X154911586Y-70854531D01*
X154824531Y-70941586D01*
X154756132Y-71043952D01*
X154709019Y-71157694D01*
X154685000Y-71278443D01*
X154685000Y-71300845D01*
X154623952Y-71326132D01*
X154521586Y-71394531D01*
X154434531Y-71481586D01*
X154366132Y-71583952D01*
X154319019Y-71697694D01*
X154295000Y-71818443D01*
X148925000Y-71818443D01*
X148925000Y-70271207D01*
X151560000Y-70271207D01*
X151560000Y-70428793D01*
X151590743Y-70583351D01*
X151651049Y-70728942D01*
X151738599Y-70859970D01*
X151850030Y-70971401D01*
X151981058Y-71058951D01*
X152126649Y-71119257D01*
X152281207Y-71150000D01*
X152438793Y-71150000D01*
X152593351Y-71119257D01*
X152738942Y-71058951D01*
X152869970Y-70971401D01*
X152981401Y-70859970D01*
X153068951Y-70728942D01*
X153129257Y-70583351D01*
X153160000Y-70428793D01*
X153160000Y-70271207D01*
X153129257Y-70116649D01*
X153068951Y-69971058D01*
X153033795Y-69918443D01*
X157965000Y-69918443D01*
X157965000Y-70041557D01*
X157989019Y-70162306D01*
X158036132Y-70276048D01*
X158104531Y-70378414D01*
X158191586Y-70465469D01*
X158293952Y-70533868D01*
X158407694Y-70580981D01*
X158528443Y-70605000D01*
X158651557Y-70605000D01*
X158772306Y-70580981D01*
X158886048Y-70533868D01*
X158967415Y-70479500D01*
X158973952Y-70483868D01*
X159087694Y-70530981D01*
X159208443Y-70555000D01*
X159331557Y-70555000D01*
X159452306Y-70530981D01*
X159566048Y-70483868D01*
X159668414Y-70415469D01*
X159755469Y-70328414D01*
X159823868Y-70226048D01*
X159870981Y-70112306D01*
X159895000Y-69991557D01*
X159895000Y-69868443D01*
X159870981Y-69747694D01*
X159823868Y-69633952D01*
X159815252Y-69621056D01*
X160722000Y-69621056D01*
X160722000Y-69758944D01*
X160748901Y-69894182D01*
X160801668Y-70021574D01*
X160878274Y-70136224D01*
X160975776Y-70233726D01*
X161090426Y-70310332D01*
X161217818Y-70363099D01*
X161353056Y-70390000D01*
X161490944Y-70390000D01*
X161626182Y-70363099D01*
X161726954Y-70321358D01*
X162730000Y-70321358D01*
X162730000Y-70498642D01*
X162764586Y-70672520D01*
X162832430Y-70836310D01*
X162930924Y-70983717D01*
X163056283Y-71109076D01*
X163203690Y-71207570D01*
X163367480Y-71275414D01*
X163541358Y-71310000D01*
X163718642Y-71310000D01*
X163892520Y-71275414D01*
X164056310Y-71207570D01*
X164203717Y-71109076D01*
X164329076Y-70983717D01*
X164427570Y-70836310D01*
X164495414Y-70672520D01*
X164530000Y-70498642D01*
X164530000Y-70321358D01*
X164495414Y-70147480D01*
X164427570Y-69983690D01*
X164329076Y-69836283D01*
X164203717Y-69710924D01*
X164056310Y-69612430D01*
X163892520Y-69544586D01*
X163718642Y-69510000D01*
X163541358Y-69510000D01*
X163367480Y-69544586D01*
X163203690Y-69612430D01*
X163056283Y-69710924D01*
X162930924Y-69836283D01*
X162832430Y-69983690D01*
X162764586Y-70147480D01*
X162730000Y-70321358D01*
X161726954Y-70321358D01*
X161753574Y-70310332D01*
X161868224Y-70233726D01*
X161965726Y-70136224D01*
X162042332Y-70021574D01*
X162095099Y-69894182D01*
X162122000Y-69758944D01*
X162122000Y-69621056D01*
X162095099Y-69485818D01*
X162042332Y-69358426D01*
X161965726Y-69243776D01*
X161868224Y-69146274D01*
X161753574Y-69069668D01*
X161626182Y-69016901D01*
X161490944Y-68990000D01*
X161353056Y-68990000D01*
X161217818Y-69016901D01*
X161090426Y-69069668D01*
X160975776Y-69146274D01*
X160878274Y-69243776D01*
X160801668Y-69358426D01*
X160748901Y-69485818D01*
X160722000Y-69621056D01*
X159815252Y-69621056D01*
X159755469Y-69531586D01*
X159668414Y-69444531D01*
X159566048Y-69376132D01*
X159452306Y-69329019D01*
X159331557Y-69305000D01*
X159283960Y-69305000D01*
X159342736Y-69246224D01*
X159419342Y-69131574D01*
X159472109Y-69004182D01*
X159499010Y-68868944D01*
X159499010Y-68731056D01*
X159472109Y-68595818D01*
X159419342Y-68468426D01*
X159342736Y-68353776D01*
X159245234Y-68256274D01*
X159130584Y-68179668D01*
X159003192Y-68126901D01*
X158867954Y-68100000D01*
X158730066Y-68100000D01*
X158594828Y-68126901D01*
X158467436Y-68179668D01*
X158352786Y-68256274D01*
X158255284Y-68353776D01*
X158178678Y-68468426D01*
X158125911Y-68595818D01*
X158099010Y-68731056D01*
X158099010Y-68868944D01*
X158125911Y-69004182D01*
X158178678Y-69131574D01*
X158255284Y-69246224D01*
X158352786Y-69343726D01*
X158406405Y-69379553D01*
X158293952Y-69426132D01*
X158191586Y-69494531D01*
X158104531Y-69581586D01*
X158036132Y-69683952D01*
X157989019Y-69797694D01*
X157965000Y-69918443D01*
X153033795Y-69918443D01*
X152981401Y-69840030D01*
X152869970Y-69728599D01*
X152738942Y-69641049D01*
X152593351Y-69580743D01*
X152438793Y-69550000D01*
X152281207Y-69550000D01*
X152126649Y-69580743D01*
X151981058Y-69641049D01*
X151850030Y-69728599D01*
X151738599Y-69840030D01*
X151651049Y-69971058D01*
X151590743Y-70116649D01*
X151560000Y-70271207D01*
X148925000Y-70271207D01*
X148925000Y-66368443D01*
X149235000Y-66368443D01*
X149235000Y-66491557D01*
X149259019Y-66612306D01*
X149306132Y-66726048D01*
X149374531Y-66828414D01*
X149461586Y-66915469D01*
X149563952Y-66983868D01*
X149677694Y-67030981D01*
X149798443Y-67055000D01*
X149921557Y-67055000D01*
X150042306Y-67030981D01*
X150156048Y-66983868D01*
X150258414Y-66915469D01*
X150345469Y-66828414D01*
X150413868Y-66726048D01*
X150460981Y-66612306D01*
X150485000Y-66491557D01*
X150485000Y-66391358D01*
X162830000Y-66391358D01*
X162830000Y-66568642D01*
X162864586Y-66742520D01*
X162932430Y-66906310D01*
X163030924Y-67053717D01*
X163156283Y-67179076D01*
X163303690Y-67277570D01*
X163467480Y-67345414D01*
X163641358Y-67380000D01*
X163818642Y-67380000D01*
X163992520Y-67345414D01*
X164156310Y-67277570D01*
X164303717Y-67179076D01*
X164429076Y-67053717D01*
X164527570Y-66906310D01*
X164595414Y-66742520D01*
X164630000Y-66568642D01*
X164630000Y-66391358D01*
X164595414Y-66217480D01*
X164527570Y-66053690D01*
X164429076Y-65906283D01*
X164303717Y-65780924D01*
X164156310Y-65682430D01*
X163992520Y-65614586D01*
X163818642Y-65580000D01*
X163641358Y-65580000D01*
X163467480Y-65614586D01*
X163303690Y-65682430D01*
X163156283Y-65780924D01*
X163030924Y-65906283D01*
X162932430Y-66053690D01*
X162864586Y-66217480D01*
X162830000Y-66391358D01*
X150485000Y-66391358D01*
X150485000Y-66368443D01*
X150460981Y-66247694D01*
X150413868Y-66133952D01*
X150345469Y-66031586D01*
X150258414Y-65944531D01*
X150156048Y-65876132D01*
X150042306Y-65829019D01*
X149921557Y-65805000D01*
X149798443Y-65805000D01*
X149677694Y-65829019D01*
X149563952Y-65876132D01*
X149461586Y-65944531D01*
X149374531Y-66031586D01*
X149306132Y-66133952D01*
X149259019Y-66247694D01*
X149235000Y-66368443D01*
X148925000Y-66368443D01*
X148925000Y-65081207D01*
X150990000Y-65081207D01*
X150990000Y-65238793D01*
X151020743Y-65393351D01*
X151081049Y-65538942D01*
X151168599Y-65669970D01*
X151280030Y-65781401D01*
X151411058Y-65868951D01*
X151556649Y-65929257D01*
X151711207Y-65960000D01*
X151868793Y-65960000D01*
X152023351Y-65929257D01*
X152168942Y-65868951D01*
X152299970Y-65781401D01*
X152411401Y-65669970D01*
X152498951Y-65538942D01*
X152559257Y-65393351D01*
X152590000Y-65238793D01*
X152590000Y-65138443D01*
X154445000Y-65138443D01*
X154445000Y-65261557D01*
X154469019Y-65382306D01*
X154516132Y-65496048D01*
X154584531Y-65598414D01*
X154671586Y-65685469D01*
X154773952Y-65753868D01*
X154887694Y-65800981D01*
X155008443Y-65825000D01*
X155131557Y-65825000D01*
X155252306Y-65800981D01*
X155366048Y-65753868D01*
X155468414Y-65685469D01*
X155555469Y-65598414D01*
X155623868Y-65496048D01*
X155670981Y-65382306D01*
X155679706Y-65338443D01*
X156085000Y-65338443D01*
X156085000Y-65461557D01*
X156109019Y-65582306D01*
X156156132Y-65696048D01*
X156224531Y-65798414D01*
X156311586Y-65885469D01*
X156413952Y-65953868D01*
X156527694Y-66000981D01*
X156648443Y-66025000D01*
X156771557Y-66025000D01*
X156892306Y-66000981D01*
X157006048Y-65953868D01*
X157108414Y-65885469D01*
X157195469Y-65798414D01*
X157263868Y-65696048D01*
X157278014Y-65661897D01*
X157331586Y-65715469D01*
X157433952Y-65783868D01*
X157547694Y-65830981D01*
X157668443Y-65855000D01*
X157791557Y-65855000D01*
X157912306Y-65830981D01*
X158026048Y-65783868D01*
X158128414Y-65715469D01*
X158215469Y-65628414D01*
X158283868Y-65526048D01*
X158330981Y-65412306D01*
X158355000Y-65291557D01*
X158355000Y-65168443D01*
X158330981Y-65047694D01*
X158283868Y-64933952D01*
X158215469Y-64831586D01*
X158128414Y-64744531D01*
X158026048Y-64676132D01*
X157912306Y-64629019D01*
X157791557Y-64605000D01*
X157668443Y-64605000D01*
X157547694Y-64629019D01*
X157433952Y-64676132D01*
X157331586Y-64744531D01*
X157244531Y-64831586D01*
X157176132Y-64933952D01*
X157161986Y-64968103D01*
X157108414Y-64914531D01*
X157006048Y-64846132D01*
X156892306Y-64799019D01*
X156771557Y-64775000D01*
X156648443Y-64775000D01*
X156527694Y-64799019D01*
X156413952Y-64846132D01*
X156311586Y-64914531D01*
X156224531Y-65001586D01*
X156156132Y-65103952D01*
X156109019Y-65217694D01*
X156085000Y-65338443D01*
X155679706Y-65338443D01*
X155695000Y-65261557D01*
X155695000Y-65138443D01*
X155670981Y-65017694D01*
X155623868Y-64903952D01*
X155555469Y-64801586D01*
X155468414Y-64714531D01*
X155366048Y-64646132D01*
X155252306Y-64599019D01*
X155131557Y-64575000D01*
X155008443Y-64575000D01*
X154887694Y-64599019D01*
X154773952Y-64646132D01*
X154671586Y-64714531D01*
X154584531Y-64801586D01*
X154516132Y-64903952D01*
X154469019Y-65017694D01*
X154445000Y-65138443D01*
X152590000Y-65138443D01*
X152590000Y-65081207D01*
X152559257Y-64926649D01*
X152498951Y-64781058D01*
X152411401Y-64650030D01*
X152299970Y-64538599D01*
X152168942Y-64451049D01*
X152023351Y-64390743D01*
X151868793Y-64360000D01*
X151711207Y-64360000D01*
X151556649Y-64390743D01*
X151411058Y-64451049D01*
X151280030Y-64538599D01*
X151168599Y-64650030D01*
X151081049Y-64781058D01*
X151020743Y-64926649D01*
X150990000Y-65081207D01*
X148925000Y-65081207D01*
X148925000Y-64088443D01*
X158195000Y-64088443D01*
X158195000Y-64211557D01*
X158219019Y-64332306D01*
X158266132Y-64446048D01*
X158334531Y-64548414D01*
X158421586Y-64635469D01*
X158523952Y-64703868D01*
X158637694Y-64750981D01*
X158758443Y-64775000D01*
X158881557Y-64775000D01*
X159002306Y-64750981D01*
X159116048Y-64703868D01*
X159218414Y-64635469D01*
X159305469Y-64548414D01*
X159373868Y-64446048D01*
X159420981Y-64332306D01*
X159445000Y-64211557D01*
X159445000Y-64088443D01*
X159420981Y-63967694D01*
X159373868Y-63853952D01*
X159305469Y-63751586D01*
X159218414Y-63664531D01*
X159116048Y-63596132D01*
X159002306Y-63549019D01*
X158881557Y-63525000D01*
X158758443Y-63525000D01*
X158637694Y-63549019D01*
X158523952Y-63596132D01*
X158421586Y-63664531D01*
X158334531Y-63751586D01*
X158266132Y-63853952D01*
X158219019Y-63967694D01*
X158195000Y-64088443D01*
X148925000Y-64088443D01*
X148925000Y-61216886D01*
X151830000Y-61216886D01*
X151830000Y-61463114D01*
X151878037Y-61704611D01*
X151972265Y-61932097D01*
X152109062Y-62136828D01*
X152283172Y-62310938D01*
X152487903Y-62447735D01*
X152715389Y-62541963D01*
X152956886Y-62590000D01*
X153203114Y-62590000D01*
X153444611Y-62541963D01*
X153672097Y-62447735D01*
X153876828Y-62310938D01*
X154050938Y-62136828D01*
X154187735Y-61932097D01*
X154281963Y-61704611D01*
X154330000Y-61463114D01*
X154330000Y-61216886D01*
X156910000Y-61216886D01*
X156910000Y-61463114D01*
X156958037Y-61704611D01*
X157052265Y-61932097D01*
X157189062Y-62136828D01*
X157363172Y-62310938D01*
X157567903Y-62447735D01*
X157795389Y-62541963D01*
X158036886Y-62590000D01*
X158283114Y-62590000D01*
X158524611Y-62541963D01*
X158752097Y-62447735D01*
X158956828Y-62310938D01*
X159130938Y-62136828D01*
X159267735Y-61932097D01*
X159361963Y-61704611D01*
X159410000Y-61463114D01*
X159410000Y-61216886D01*
X159450000Y-61216886D01*
X159450000Y-61463114D01*
X159498037Y-61704611D01*
X159592265Y-61932097D01*
X159729062Y-62136828D01*
X159903172Y-62310938D01*
X160107903Y-62447735D01*
X160335389Y-62541963D01*
X160576886Y-62590000D01*
X160823114Y-62590000D01*
X161064611Y-62541963D01*
X161292097Y-62447735D01*
X161496828Y-62310938D01*
X161670938Y-62136828D01*
X161807735Y-61932097D01*
X161901963Y-61704611D01*
X161950000Y-61463114D01*
X161950000Y-61216886D01*
X161990000Y-61216886D01*
X161990000Y-61463114D01*
X162038037Y-61704611D01*
X162132265Y-61932097D01*
X162269062Y-62136828D01*
X162443172Y-62310938D01*
X162647903Y-62447735D01*
X162875389Y-62541963D01*
X163116886Y-62590000D01*
X163363114Y-62590000D01*
X163604611Y-62541963D01*
X163832097Y-62447735D01*
X164036828Y-62310938D01*
X164210938Y-62136828D01*
X164347735Y-61932097D01*
X164441963Y-61704611D01*
X164490000Y-61463114D01*
X164490000Y-61216886D01*
X164530000Y-61216886D01*
X164530000Y-61463114D01*
X164578037Y-61704611D01*
X164672265Y-61932097D01*
X164809062Y-62136828D01*
X164983172Y-62310938D01*
X165187903Y-62447735D01*
X165415389Y-62541963D01*
X165656886Y-62590000D01*
X165903114Y-62590000D01*
X166144611Y-62541963D01*
X166372097Y-62447735D01*
X166576828Y-62310938D01*
X166750938Y-62136828D01*
X166887735Y-61932097D01*
X166981963Y-61704611D01*
X167030000Y-61463114D01*
X167030000Y-61216886D01*
X166981963Y-60975389D01*
X166887735Y-60747903D01*
X166750938Y-60543172D01*
X166576828Y-60369062D01*
X166372097Y-60232265D01*
X166144611Y-60138037D01*
X165903114Y-60090000D01*
X165656886Y-60090000D01*
X165415389Y-60138037D01*
X165187903Y-60232265D01*
X164983172Y-60369062D01*
X164809062Y-60543172D01*
X164672265Y-60747903D01*
X164578037Y-60975389D01*
X164530000Y-61216886D01*
X164490000Y-61216886D01*
X164441963Y-60975389D01*
X164347735Y-60747903D01*
X164210938Y-60543172D01*
X164036828Y-60369062D01*
X163832097Y-60232265D01*
X163604611Y-60138037D01*
X163363114Y-60090000D01*
X163116886Y-60090000D01*
X162875389Y-60138037D01*
X162647903Y-60232265D01*
X162443172Y-60369062D01*
X162269062Y-60543172D01*
X162132265Y-60747903D01*
X162038037Y-60975389D01*
X161990000Y-61216886D01*
X161950000Y-61216886D01*
X161901963Y-60975389D01*
X161807735Y-60747903D01*
X161670938Y-60543172D01*
X161496828Y-60369062D01*
X161292097Y-60232265D01*
X161064611Y-60138037D01*
X160823114Y-60090000D01*
X160576886Y-60090000D01*
X160335389Y-60138037D01*
X160107903Y-60232265D01*
X159903172Y-60369062D01*
X159729062Y-60543172D01*
X159592265Y-60747903D01*
X159498037Y-60975389D01*
X159450000Y-61216886D01*
X159410000Y-61216886D01*
X159361963Y-60975389D01*
X159267735Y-60747903D01*
X159130938Y-60543172D01*
X158956828Y-60369062D01*
X158752097Y-60232265D01*
X158524611Y-60138037D01*
X158283114Y-60090000D01*
X158036886Y-60090000D01*
X157795389Y-60138037D01*
X157567903Y-60232265D01*
X157363172Y-60369062D01*
X157189062Y-60543172D01*
X157052265Y-60747903D01*
X156958037Y-60975389D01*
X156910000Y-61216886D01*
X154330000Y-61216886D01*
X154281963Y-60975389D01*
X154187735Y-60747903D01*
X154050938Y-60543172D01*
X153876828Y-60369062D01*
X153672097Y-60232265D01*
X153444611Y-60138037D01*
X153203114Y-60090000D01*
X152956886Y-60090000D01*
X152715389Y-60138037D01*
X152487903Y-60232265D01*
X152283172Y-60369062D01*
X152109062Y-60543172D01*
X151972265Y-60747903D01*
X151878037Y-60975389D01*
X151830000Y-61216886D01*
X148925000Y-61216886D01*
X148925000Y-58676886D01*
X149290000Y-58676886D01*
X149290000Y-58923114D01*
X149338037Y-59164611D01*
X149432265Y-59392097D01*
X149569062Y-59596828D01*
X149743172Y-59770938D01*
X149947903Y-59907735D01*
X150175389Y-60001963D01*
X150416886Y-60050000D01*
X150663114Y-60050000D01*
X150904611Y-60001963D01*
X151132097Y-59907735D01*
X151336828Y-59770938D01*
X151510938Y-59596828D01*
X151647735Y-59392097D01*
X151741963Y-59164611D01*
X151790000Y-58923114D01*
X151790000Y-58676886D01*
X154370000Y-58676886D01*
X154370000Y-58923114D01*
X154418037Y-59164611D01*
X154512265Y-59392097D01*
X154649062Y-59596828D01*
X154823172Y-59770938D01*
X155027903Y-59907735D01*
X155255389Y-60001963D01*
X155496886Y-60050000D01*
X155743114Y-60050000D01*
X155984611Y-60001963D01*
X156212097Y-59907735D01*
X156416828Y-59770938D01*
X156590938Y-59596828D01*
X156727735Y-59392097D01*
X156821963Y-59164611D01*
X156870000Y-58923114D01*
X156870000Y-58676886D01*
X156910000Y-58676886D01*
X156910000Y-58923114D01*
X156958037Y-59164611D01*
X157052265Y-59392097D01*
X157189062Y-59596828D01*
X157363172Y-59770938D01*
X157567903Y-59907735D01*
X157795389Y-60001963D01*
X158036886Y-60050000D01*
X158283114Y-60050000D01*
X158524611Y-60001963D01*
X158752097Y-59907735D01*
X158956828Y-59770938D01*
X159130938Y-59596828D01*
X159267735Y-59392097D01*
X159361963Y-59164611D01*
X159410000Y-58923114D01*
X159410000Y-58676886D01*
X159450000Y-58676886D01*
X159450000Y-58923114D01*
X159498037Y-59164611D01*
X159592265Y-59392097D01*
X159729062Y-59596828D01*
X159903172Y-59770938D01*
X160107903Y-59907735D01*
X160335389Y-60001963D01*
X160576886Y-60050000D01*
X160823114Y-60050000D01*
X161064611Y-60001963D01*
X161292097Y-59907735D01*
X161496828Y-59770938D01*
X161670938Y-59596828D01*
X161807735Y-59392097D01*
X161901963Y-59164611D01*
X161950000Y-58923114D01*
X161950000Y-58676886D01*
X161990000Y-58676886D01*
X161990000Y-58923114D01*
X162038037Y-59164611D01*
X162132265Y-59392097D01*
X162269062Y-59596828D01*
X162443172Y-59770938D01*
X162647903Y-59907735D01*
X162875389Y-60001963D01*
X163116886Y-60050000D01*
X163363114Y-60050000D01*
X163604611Y-60001963D01*
X163832097Y-59907735D01*
X164036828Y-59770938D01*
X164210938Y-59596828D01*
X164347735Y-59392097D01*
X164441963Y-59164611D01*
X164490000Y-58923114D01*
X164490000Y-58676886D01*
X164441963Y-58435389D01*
X164347735Y-58207903D01*
X164210938Y-58003172D01*
X164157766Y-57950000D01*
X164528065Y-57950000D01*
X164528065Y-59650000D01*
X164535788Y-59728414D01*
X164558660Y-59803814D01*
X164595803Y-59873303D01*
X164645789Y-59934211D01*
X164706697Y-59984197D01*
X164776186Y-60021340D01*
X164851586Y-60044212D01*
X164930000Y-60051935D01*
X166630000Y-60051935D01*
X166708414Y-60044212D01*
X166783814Y-60021340D01*
X166853303Y-59984197D01*
X166914211Y-59934211D01*
X166964197Y-59873303D01*
X167001340Y-59803814D01*
X167024212Y-59728414D01*
X167031935Y-59650000D01*
X167031935Y-57950000D01*
X167024212Y-57871586D01*
X167001340Y-57796186D01*
X166964197Y-57726697D01*
X166914211Y-57665789D01*
X166853303Y-57615803D01*
X166783814Y-57578660D01*
X166708414Y-57555788D01*
X166630000Y-57548065D01*
X164930000Y-57548065D01*
X164851586Y-57555788D01*
X164776186Y-57578660D01*
X164706697Y-57615803D01*
X164645789Y-57665789D01*
X164595803Y-57726697D01*
X164558660Y-57796186D01*
X164535788Y-57871586D01*
X164528065Y-57950000D01*
X164157766Y-57950000D01*
X164036828Y-57829062D01*
X163832097Y-57692265D01*
X163604611Y-57598037D01*
X163363114Y-57550000D01*
X163116886Y-57550000D01*
X162875389Y-57598037D01*
X162647903Y-57692265D01*
X162443172Y-57829062D01*
X162269062Y-58003172D01*
X162132265Y-58207903D01*
X162038037Y-58435389D01*
X161990000Y-58676886D01*
X161950000Y-58676886D01*
X161901963Y-58435389D01*
X161807735Y-58207903D01*
X161670938Y-58003172D01*
X161496828Y-57829062D01*
X161292097Y-57692265D01*
X161064611Y-57598037D01*
X160823114Y-57550000D01*
X160576886Y-57550000D01*
X160335389Y-57598037D01*
X160107903Y-57692265D01*
X159903172Y-57829062D01*
X159729062Y-58003172D01*
X159592265Y-58207903D01*
X159498037Y-58435389D01*
X159450000Y-58676886D01*
X159410000Y-58676886D01*
X159361963Y-58435389D01*
X159267735Y-58207903D01*
X159130938Y-58003172D01*
X158956828Y-57829062D01*
X158752097Y-57692265D01*
X158524611Y-57598037D01*
X158283114Y-57550000D01*
X158036886Y-57550000D01*
X157795389Y-57598037D01*
X157567903Y-57692265D01*
X157363172Y-57829062D01*
X157189062Y-58003172D01*
X157052265Y-58207903D01*
X156958037Y-58435389D01*
X156910000Y-58676886D01*
X156870000Y-58676886D01*
X156821963Y-58435389D01*
X156727735Y-58207903D01*
X156590938Y-58003172D01*
X156416828Y-57829062D01*
X156212097Y-57692265D01*
X155984611Y-57598037D01*
X155743114Y-57550000D01*
X155496886Y-57550000D01*
X155255389Y-57598037D01*
X155027903Y-57692265D01*
X154823172Y-57829062D01*
X154649062Y-58003172D01*
X154512265Y-58207903D01*
X154418037Y-58435389D01*
X154370000Y-58676886D01*
X151790000Y-58676886D01*
X151741963Y-58435389D01*
X151647735Y-58207903D01*
X151510938Y-58003172D01*
X151336828Y-57829062D01*
X151132097Y-57692265D01*
X150904611Y-57598037D01*
X150663114Y-57550000D01*
X150416886Y-57550000D01*
X150175389Y-57598037D01*
X149947903Y-57692265D01*
X149743172Y-57829062D01*
X149569062Y-58003172D01*
X149432265Y-58207903D01*
X149338037Y-58435389D01*
X149290000Y-58676886D01*
X148925000Y-58676886D01*
X148925000Y-57425000D01*
X169096689Y-57425000D01*
X169122145Y-57910734D01*
%TA.AperFunction,Conductor*%
D22*
G36*
X169122145Y-57910734D02*
G01*
X169124950Y-57933909D01*
X169127149Y-57957173D01*
X169127892Y-57961562D01*
X169326687Y-59100605D01*
X169333042Y-59126480D01*
X169339146Y-59152502D01*
X169340477Y-59156749D01*
X169692018Y-60258273D01*
X169701839Y-60283079D01*
X169711405Y-60307999D01*
X169713300Y-60312026D01*
X170211083Y-61355649D01*
X170224165Y-61378866D01*
X170237039Y-61402284D01*
X170239464Y-61406017D01*
X170874277Y-62372427D01*
X170890384Y-62393647D01*
X170906322Y-62415108D01*
X170909231Y-62418478D01*
X171564629Y-63169775D01*
X171567325Y-74953659D01*
X171491401Y-74840030D01*
X171379970Y-74728599D01*
X171248942Y-74641049D01*
X171103351Y-74580743D01*
X170948793Y-74550000D01*
X170791207Y-74550000D01*
X170636649Y-74580743D01*
X170491058Y-74641049D01*
X170360030Y-74728599D01*
X170248599Y-74840030D01*
X170161049Y-74971058D01*
X170100743Y-75116649D01*
X170070000Y-75271207D01*
X170070000Y-75428793D01*
X170100743Y-75583351D01*
X170161049Y-75728942D01*
X170248599Y-75859970D01*
X170360030Y-75971401D01*
X170491058Y-76058951D01*
X170636649Y-76119257D01*
X170791207Y-76150000D01*
X170948793Y-76150000D01*
X171103351Y-76119257D01*
X171248942Y-76058951D01*
X171379970Y-75971401D01*
X171491401Y-75859970D01*
X171567507Y-75746070D01*
X171574903Y-108075000D01*
X164979126Y-108075000D01*
X164978385Y-108075073D01*
X164970599Y-108075100D01*
X164952129Y-108076976D01*
X164933556Y-108076846D01*
X164927651Y-108077425D01*
X164151263Y-108159027D01*
X164113561Y-108166766D01*
X164075692Y-108173990D01*
X164070014Y-108175705D01*
X164070008Y-108175707D01*
X163324262Y-108406554D01*
X163288758Y-108421478D01*
X163253037Y-108435910D01*
X163247806Y-108438692D01*
X163247797Y-108438696D01*
X163247790Y-108438701D01*
X162561088Y-108809999D01*
X162529170Y-108831528D01*
X162496921Y-108852631D01*
X162492328Y-108856378D01*
X162492322Y-108856382D01*
X162492317Y-108856387D01*
X161890812Y-109353995D01*
X161863711Y-109381285D01*
X161836147Y-109408278D01*
X161832365Y-109412851D01*
X161338964Y-110017822D01*
X161317667Y-110049877D01*
X161295885Y-110081688D01*
X161293063Y-110086908D01*
X160926563Y-110776193D01*
X160911888Y-110811798D01*
X160896710Y-110847211D01*
X160894955Y-110852880D01*
X160669318Y-111600224D01*
X160661836Y-111638010D01*
X160653827Y-111675689D01*
X160653207Y-111681590D01*
X160614655Y-112074776D01*
X157449938Y-112074864D01*
X157813136Y-111924422D01*
X158353627Y-111563277D01*
X158813277Y-111103627D01*
X159174422Y-110563136D01*
X159423183Y-109962574D01*
X159550000Y-109325022D01*
X159550000Y-108674978D01*
X159423183Y-108037426D01*
X159174422Y-107436864D01*
X158813277Y-106896373D01*
X158353627Y-106436723D01*
X157813136Y-106075578D01*
X157244401Y-105840000D01*
X166128065Y-105840000D01*
X166128065Y-107540000D01*
X166135788Y-107618414D01*
X166158660Y-107693814D01*
X166195803Y-107763303D01*
X166245789Y-107824211D01*
X166306697Y-107874197D01*
X166376186Y-107911340D01*
X166451586Y-107934212D01*
X166530000Y-107941935D01*
X168230000Y-107941935D01*
X168308414Y-107934212D01*
X168383814Y-107911340D01*
X168453303Y-107874197D01*
X168514211Y-107824211D01*
X168564197Y-107763303D01*
X168601340Y-107693814D01*
X168624212Y-107618414D01*
X168631935Y-107540000D01*
X168631935Y-106566886D01*
X168670000Y-106566886D01*
X168670000Y-106813114D01*
X168718037Y-107054611D01*
X168812265Y-107282097D01*
X168949062Y-107486828D01*
X169123172Y-107660938D01*
X169327903Y-107797735D01*
X169555389Y-107891963D01*
X169796886Y-107940000D01*
X170043114Y-107940000D01*
X170284611Y-107891963D01*
X170512097Y-107797735D01*
X170716828Y-107660938D01*
X170890938Y-107486828D01*
X171027735Y-107282097D01*
X171121963Y-107054611D01*
X171170000Y-106813114D01*
X171170000Y-106566886D01*
X171121963Y-106325389D01*
X171027735Y-106097903D01*
X170890938Y-105893172D01*
X170716828Y-105719062D01*
X170512097Y-105582265D01*
X170284611Y-105488037D01*
X170043114Y-105440000D01*
X169796886Y-105440000D01*
X169555389Y-105488037D01*
X169327903Y-105582265D01*
X169123172Y-105719062D01*
X168949062Y-105893172D01*
X168812265Y-106097903D01*
X168718037Y-106325389D01*
X168670000Y-106566886D01*
X168631935Y-106566886D01*
X168631935Y-105840000D01*
X168624212Y-105761586D01*
X168601340Y-105686186D01*
X168564197Y-105616697D01*
X168514211Y-105555789D01*
X168453303Y-105505803D01*
X168383814Y-105468660D01*
X168308414Y-105445788D01*
X168230000Y-105438065D01*
X166530000Y-105438065D01*
X166451586Y-105445788D01*
X166376186Y-105468660D01*
X166306697Y-105505803D01*
X166245789Y-105555789D01*
X166195803Y-105616697D01*
X166158660Y-105686186D01*
X166135788Y-105761586D01*
X166128065Y-105840000D01*
X157244401Y-105840000D01*
X157212574Y-105826817D01*
X156575022Y-105700000D01*
X155924978Y-105700000D01*
X155287426Y-105826817D01*
X154686864Y-106075578D01*
X154146373Y-106436723D01*
X153686723Y-106896373D01*
X153325578Y-107436864D01*
X153076817Y-108037426D01*
X152950000Y-108674978D01*
X152950000Y-109325022D01*
X153076817Y-109962574D01*
X153325578Y-110563136D01*
X153686723Y-111103627D01*
X154146373Y-111563277D01*
X154686864Y-111924422D01*
X155050222Y-112074930D01*
X152885509Y-112074990D01*
X152840973Y-111651263D01*
X152833234Y-111613561D01*
X152826010Y-111575692D01*
X152824294Y-111570012D01*
X152593446Y-110824262D01*
X152578522Y-110788758D01*
X152564090Y-110753037D01*
X152561304Y-110747798D01*
X152561304Y-110747797D01*
X152561299Y-110747790D01*
X152190001Y-110061088D01*
X152168472Y-110029170D01*
X152147369Y-109996921D01*
X152143622Y-109992328D01*
X152143618Y-109992322D01*
X152143613Y-109992317D01*
X151646005Y-109390812D01*
X151618715Y-109363711D01*
X151591722Y-109336147D01*
X151587149Y-109332365D01*
X150982178Y-108838964D01*
X150950123Y-108817667D01*
X150918312Y-108795885D01*
X150913095Y-108793064D01*
X150913087Y-108793060D01*
X150223807Y-108426563D01*
X150188202Y-108411888D01*
X150152789Y-108396710D01*
X150147120Y-108394955D01*
X149399776Y-108169318D01*
X149361990Y-108161836D01*
X149324311Y-108153827D01*
X149318410Y-108153207D01*
X148925000Y-108114633D01*
X148925000Y-100187112D01*
X155025000Y-100187112D01*
X155025000Y-100462888D01*
X155078801Y-100733365D01*
X155184336Y-100988149D01*
X155337549Y-101217448D01*
X155532552Y-101412451D01*
X155761851Y-101565664D01*
X155832674Y-101595000D01*
X155761851Y-101624336D01*
X155532552Y-101777549D01*
X155337549Y-101972552D01*
X155184336Y-102201851D01*
X155078801Y-102456635D01*
X155025000Y-102727112D01*
X155025000Y-103002888D01*
X155078801Y-103273365D01*
X155184336Y-103528149D01*
X155337549Y-103757448D01*
X155532552Y-103952451D01*
X155761851Y-104105664D01*
X156016635Y-104211199D01*
X156287112Y-104265000D01*
X156562888Y-104265000D01*
X156833365Y-104211199D01*
X157088149Y-104105664D01*
X157317448Y-103952451D01*
X157512451Y-103757448D01*
X157665664Y-103528149D01*
X157771199Y-103273365D01*
X157825000Y-103002888D01*
X157825000Y-102727112D01*
X157771199Y-102456635D01*
X157665664Y-102201851D01*
X157512451Y-101972552D01*
X157317448Y-101777549D01*
X157288217Y-101758017D01*
X158485000Y-101758017D01*
X158485000Y-102151983D01*
X158561859Y-102538378D01*
X158712623Y-102902355D01*
X158931499Y-103229926D01*
X159210074Y-103508501D01*
X159537645Y-103727377D01*
X159901622Y-103878141D01*
X160288017Y-103955000D01*
X160681983Y-103955000D01*
X161068378Y-103878141D01*
X161432355Y-103727377D01*
X161759926Y-103508501D01*
X162038501Y-103229926D01*
X162257377Y-102902355D01*
X162408141Y-102538378D01*
X162485000Y-102151983D01*
X162485000Y-101758017D01*
X162408141Y-101371622D01*
X162257377Y-101007645D01*
X162038501Y-100680074D01*
X161759926Y-100401499D01*
X161432355Y-100182623D01*
X161068378Y-100031859D01*
X160681983Y-99955000D01*
X160288017Y-99955000D01*
X159901622Y-100031859D01*
X159537645Y-100182623D01*
X159210074Y-100401499D01*
X158931499Y-100680074D01*
X158712623Y-101007645D01*
X158561859Y-101371622D01*
X158485000Y-101758017D01*
X157288217Y-101758017D01*
X157088149Y-101624336D01*
X157017326Y-101595000D01*
X157088149Y-101565664D01*
X157317448Y-101412451D01*
X157512451Y-101217448D01*
X157665664Y-100988149D01*
X157771199Y-100733365D01*
X157825000Y-100462888D01*
X157825000Y-100187112D01*
X157771199Y-99916635D01*
X157665664Y-99661851D01*
X157512451Y-99432552D01*
X157317448Y-99237549D01*
X157088149Y-99084336D01*
X156833365Y-98978801D01*
X156562888Y-98925000D01*
X156287112Y-98925000D01*
X156016635Y-98978801D01*
X155761851Y-99084336D01*
X155532552Y-99237549D01*
X155337549Y-99432552D01*
X155184336Y-99661851D01*
X155078801Y-99916635D01*
X155025000Y-100187112D01*
X148925000Y-100187112D01*
X148925000Y-89467112D01*
X155025000Y-89467112D01*
X155025000Y-89742888D01*
X155078801Y-90013365D01*
X155184336Y-90268149D01*
X155337549Y-90497448D01*
X155532552Y-90692451D01*
X155761851Y-90845664D01*
X155832674Y-90875000D01*
X155761851Y-90904336D01*
X155532552Y-91057549D01*
X155337549Y-91252552D01*
X155184336Y-91481851D01*
X155078801Y-91736635D01*
X155025000Y-92007112D01*
X155025000Y-92282888D01*
X155078801Y-92553365D01*
X155184336Y-92808149D01*
X155337549Y-93037448D01*
X155532552Y-93232451D01*
X155761851Y-93385664D01*
X156016635Y-93491199D01*
X156287112Y-93545000D01*
X156562888Y-93545000D01*
X156833365Y-93491199D01*
X157088149Y-93385664D01*
X157317448Y-93232451D01*
X157512451Y-93037448D01*
X157665664Y-92808149D01*
X157771199Y-92553365D01*
X157825000Y-92282888D01*
X157825000Y-92007112D01*
X157771199Y-91736635D01*
X157665664Y-91481851D01*
X157512451Y-91252552D01*
X157317448Y-91057549D01*
X157088149Y-90904336D01*
X157017326Y-90875000D01*
X157088149Y-90845664D01*
X157317448Y-90692451D01*
X157512451Y-90497448D01*
X157625661Y-90328017D01*
X158485000Y-90328017D01*
X158485000Y-90721983D01*
X158561859Y-91108378D01*
X158712623Y-91472355D01*
X158931499Y-91799926D01*
X159210074Y-92078501D01*
X159537645Y-92297377D01*
X159901622Y-92448141D01*
X160288017Y-92525000D01*
X160681983Y-92525000D01*
X161068378Y-92448141D01*
X161432355Y-92297377D01*
X161759926Y-92078501D01*
X162038501Y-91799926D01*
X162127345Y-91666961D01*
X165535000Y-91666961D01*
X165535000Y-91923039D01*
X165584958Y-92174196D01*
X165682955Y-92410781D01*
X165825224Y-92623702D01*
X166006298Y-92804776D01*
X166219219Y-92947045D01*
X166455804Y-93045042D01*
X166556140Y-93065000D01*
X166455804Y-93084958D01*
X166219219Y-93182955D01*
X166006298Y-93325224D01*
X165825224Y-93506298D01*
X165682955Y-93719219D01*
X165584958Y-93955804D01*
X165535000Y-94206961D01*
X165535000Y-94463039D01*
X165584958Y-94714196D01*
X165682955Y-94950781D01*
X165825224Y-95163702D01*
X166006298Y-95344776D01*
X166219219Y-95487045D01*
X166455804Y-95585042D01*
X166556140Y-95605000D01*
X166455804Y-95624958D01*
X166219219Y-95722955D01*
X166006298Y-95865224D01*
X165825224Y-96046298D01*
X165682955Y-96259219D01*
X165584958Y-96495804D01*
X165535000Y-96746961D01*
X165535000Y-97003039D01*
X165584958Y-97254196D01*
X165682955Y-97490781D01*
X165825224Y-97703702D01*
X166006298Y-97884776D01*
X166219219Y-98027045D01*
X166455804Y-98125042D01*
X166556140Y-98145000D01*
X166455804Y-98164958D01*
X166219219Y-98262955D01*
X166006298Y-98405224D01*
X165825224Y-98586298D01*
X165682955Y-98799219D01*
X165584958Y-99035804D01*
X165535000Y-99286961D01*
X165535000Y-99543039D01*
X165584958Y-99794196D01*
X165682955Y-100030781D01*
X165825224Y-100243702D01*
X166006298Y-100424776D01*
X166219219Y-100567045D01*
X166455804Y-100665042D01*
X166556140Y-100685000D01*
X166455804Y-100704958D01*
X166219219Y-100802955D01*
X166006298Y-100945224D01*
X165825224Y-101126298D01*
X165682955Y-101339219D01*
X165584958Y-101575804D01*
X165535000Y-101826961D01*
X165535000Y-102083039D01*
X165584958Y-102334196D01*
X165682955Y-102570781D01*
X165825224Y-102783702D01*
X166006298Y-102964776D01*
X166219219Y-103107045D01*
X166455804Y-103205042D01*
X166706961Y-103255000D01*
X166963039Y-103255000D01*
X167214196Y-103205042D01*
X167450781Y-103107045D01*
X167663702Y-102964776D01*
X167844776Y-102783702D01*
X167987045Y-102570781D01*
X168085042Y-102334196D01*
X168135000Y-102083039D01*
X168135000Y-101826961D01*
X168085042Y-101575804D01*
X167987045Y-101339219D01*
X167844776Y-101126298D01*
X167663702Y-100945224D01*
X167450781Y-100802955D01*
X167214196Y-100704958D01*
X167113860Y-100685000D01*
X167214196Y-100665042D01*
X167450781Y-100567045D01*
X167465872Y-100556961D01*
X168075000Y-100556961D01*
X168075000Y-100813039D01*
X168124958Y-101064196D01*
X168222955Y-101300781D01*
X168365224Y-101513702D01*
X168546298Y-101694776D01*
X168759219Y-101837045D01*
X168995804Y-101935042D01*
X169246961Y-101985000D01*
X169503039Y-101985000D01*
X169754196Y-101935042D01*
X169990781Y-101837045D01*
X170203702Y-101694776D01*
X170384776Y-101513702D01*
X170527045Y-101300781D01*
X170625042Y-101064196D01*
X170675000Y-100813039D01*
X170675000Y-100556961D01*
X170625042Y-100305804D01*
X170527045Y-100069219D01*
X170384776Y-99856298D01*
X170203702Y-99675224D01*
X169990781Y-99532955D01*
X169754196Y-99434958D01*
X169503039Y-99385000D01*
X169246961Y-99385000D01*
X168995804Y-99434958D01*
X168759219Y-99532955D01*
X168546298Y-99675224D01*
X168365224Y-99856298D01*
X168222955Y-100069219D01*
X168124958Y-100305804D01*
X168075000Y-100556961D01*
X167465872Y-100556961D01*
X167663702Y-100424776D01*
X167844776Y-100243702D01*
X167987045Y-100030781D01*
X168085042Y-99794196D01*
X168135000Y-99543039D01*
X168135000Y-99286961D01*
X168085042Y-99035804D01*
X167987045Y-98799219D01*
X167844776Y-98586298D01*
X167663702Y-98405224D01*
X167450781Y-98262955D01*
X167214196Y-98164958D01*
X167113860Y-98145000D01*
X167214196Y-98125042D01*
X167450781Y-98027045D01*
X167663702Y-97884776D01*
X167844776Y-97703702D01*
X167987045Y-97490781D01*
X168085042Y-97254196D01*
X168135000Y-97003039D01*
X168135000Y-96746961D01*
X168085042Y-96495804D01*
X167987045Y-96259219D01*
X167844776Y-96046298D01*
X167663702Y-95865224D01*
X167450781Y-95722955D01*
X167214196Y-95624958D01*
X167113860Y-95605000D01*
X167214196Y-95585042D01*
X167450781Y-95487045D01*
X167663702Y-95344776D01*
X167844776Y-95163702D01*
X167987045Y-94950781D01*
X168085042Y-94714196D01*
X168135000Y-94463039D01*
X168135000Y-94206961D01*
X168085042Y-93955804D01*
X167987045Y-93719219D01*
X167844776Y-93506298D01*
X167663702Y-93325224D01*
X167450781Y-93182955D01*
X167214196Y-93084958D01*
X167113860Y-93065000D01*
X167214196Y-93045042D01*
X167450781Y-92947045D01*
X167663702Y-92804776D01*
X167844776Y-92623702D01*
X167987045Y-92410781D01*
X168085042Y-92174196D01*
X168135000Y-91923039D01*
X168135000Y-91666961D01*
X168125650Y-91619953D01*
X168140803Y-91648303D01*
X168190789Y-91709211D01*
X168251697Y-91759197D01*
X168321186Y-91796340D01*
X168396586Y-91819212D01*
X168475000Y-91826935D01*
X168966889Y-91826935D01*
X168759219Y-91912955D01*
X168546298Y-92055224D01*
X168365224Y-92236298D01*
X168222955Y-92449219D01*
X168124958Y-92685804D01*
X168075000Y-92936961D01*
X168075000Y-93193039D01*
X168124958Y-93444196D01*
X168222955Y-93680781D01*
X168365224Y-93893702D01*
X168546298Y-94074776D01*
X168759219Y-94217045D01*
X168995804Y-94315042D01*
X169096140Y-94335000D01*
X168995804Y-94354958D01*
X168759219Y-94452955D01*
X168546298Y-94595224D01*
X168365224Y-94776298D01*
X168222955Y-94989219D01*
X168124958Y-95225804D01*
X168075000Y-95476961D01*
X168075000Y-95733039D01*
X168124958Y-95984196D01*
X168222955Y-96220781D01*
X168365224Y-96433702D01*
X168546298Y-96614776D01*
X168759219Y-96757045D01*
X168995804Y-96855042D01*
X169246961Y-96905000D01*
X169503039Y-96905000D01*
X169754196Y-96855042D01*
X169990781Y-96757045D01*
X170203702Y-96614776D01*
X170384776Y-96433702D01*
X170527045Y-96220781D01*
X170625042Y-95984196D01*
X170675000Y-95733039D01*
X170675000Y-95476961D01*
X170625042Y-95225804D01*
X170527045Y-94989219D01*
X170384776Y-94776298D01*
X170203702Y-94595224D01*
X169990781Y-94452955D01*
X169754196Y-94354958D01*
X169653860Y-94335000D01*
X169754196Y-94315042D01*
X169990781Y-94217045D01*
X170203702Y-94074776D01*
X170384776Y-93893702D01*
X170527045Y-93680781D01*
X170625042Y-93444196D01*
X170675000Y-93193039D01*
X170675000Y-92936961D01*
X170625042Y-92685804D01*
X170527045Y-92449219D01*
X170384776Y-92236298D01*
X170203702Y-92055224D01*
X169990781Y-91912955D01*
X169783111Y-91826935D01*
X170275000Y-91826935D01*
X170353414Y-91819212D01*
X170428814Y-91796340D01*
X170498303Y-91759197D01*
X170559211Y-91709211D01*
X170609197Y-91648303D01*
X170646340Y-91578814D01*
X170669212Y-91503414D01*
X170676935Y-91425000D01*
X170676935Y-89625000D01*
X170669212Y-89546586D01*
X170646340Y-89471186D01*
X170609197Y-89401697D01*
X170559211Y-89340789D01*
X170498303Y-89290803D01*
X170428814Y-89253660D01*
X170353414Y-89230788D01*
X170275000Y-89223065D01*
X168475000Y-89223065D01*
X168396586Y-89230788D01*
X168321186Y-89253660D01*
X168251697Y-89290803D01*
X168190789Y-89340789D01*
X168140803Y-89401697D01*
X168103660Y-89471186D01*
X168080788Y-89546586D01*
X168073065Y-89625000D01*
X168073065Y-91386889D01*
X167987045Y-91179219D01*
X167844776Y-90966298D01*
X167663702Y-90785224D01*
X167450781Y-90642955D01*
X167214196Y-90544958D01*
X166963039Y-90495000D01*
X166706961Y-90495000D01*
X166455804Y-90544958D01*
X166219219Y-90642955D01*
X166006298Y-90785224D01*
X165825224Y-90966298D01*
X165682955Y-91179219D01*
X165584958Y-91415804D01*
X165535000Y-91666961D01*
X162127345Y-91666961D01*
X162257377Y-91472355D01*
X162408141Y-91108378D01*
X162485000Y-90721983D01*
X162485000Y-90328017D01*
X162408141Y-89941622D01*
X162257377Y-89577645D01*
X162038501Y-89250074D01*
X161759926Y-88971499D01*
X161432355Y-88752623D01*
X161068378Y-88601859D01*
X160681983Y-88525000D01*
X160288017Y-88525000D01*
X159901622Y-88601859D01*
X159537645Y-88752623D01*
X159210074Y-88971499D01*
X158931499Y-89250074D01*
X158712623Y-89577645D01*
X158561859Y-89941622D01*
X158485000Y-90328017D01*
X157625661Y-90328017D01*
X157665664Y-90268149D01*
X157771199Y-90013365D01*
X157825000Y-89742888D01*
X157825000Y-89467112D01*
X157771199Y-89196635D01*
X157665664Y-88941851D01*
X157512451Y-88712552D01*
X157317448Y-88517549D01*
X157088149Y-88364336D01*
X156833365Y-88258801D01*
X156562888Y-88205000D01*
X156287112Y-88205000D01*
X156016635Y-88258801D01*
X155761851Y-88364336D01*
X155532552Y-88517549D01*
X155337549Y-88712552D01*
X155184336Y-88941851D01*
X155078801Y-89196635D01*
X155025000Y-89467112D01*
X148925000Y-89467112D01*
X148925000Y-86138443D01*
X154085000Y-86138443D01*
X154085000Y-86261557D01*
X154109019Y-86382306D01*
X154156132Y-86496048D01*
X154224531Y-86598414D01*
X154311586Y-86685469D01*
X154413952Y-86753868D01*
X154527694Y-86800981D01*
X154648443Y-86825000D01*
X154771557Y-86825000D01*
X154892306Y-86800981D01*
X155006048Y-86753868D01*
X155108414Y-86685469D01*
X155195469Y-86598414D01*
X155263868Y-86496048D01*
X155310981Y-86382306D01*
X155335000Y-86261557D01*
X155335000Y-86138443D01*
X155310981Y-86017694D01*
X155263868Y-85903952D01*
X155195469Y-85801586D01*
X155108414Y-85714531D01*
X155006048Y-85646132D01*
X154892306Y-85599019D01*
X154771557Y-85575000D01*
X154648443Y-85575000D01*
X154527694Y-85599019D01*
X154413952Y-85646132D01*
X154311586Y-85714531D01*
X154224531Y-85801586D01*
X154156132Y-85903952D01*
X154109019Y-86017694D01*
X154085000Y-86138443D01*
X148925000Y-86138443D01*
X148925000Y-82901207D01*
X169770000Y-82901207D01*
X169770000Y-83058793D01*
X169800743Y-83213351D01*
X169861049Y-83358942D01*
X169948599Y-83489970D01*
X170060030Y-83601401D01*
X170191058Y-83688951D01*
X170336649Y-83749257D01*
X170491207Y-83780000D01*
X170648793Y-83780000D01*
X170803351Y-83749257D01*
X170948942Y-83688951D01*
X171079970Y-83601401D01*
X171191401Y-83489970D01*
X171278951Y-83358942D01*
X171339257Y-83213351D01*
X171370000Y-83058793D01*
X171370000Y-82901207D01*
X171339257Y-82746649D01*
X171278951Y-82601058D01*
X171191401Y-82470030D01*
X171079970Y-82358599D01*
X170948942Y-82271049D01*
X170803351Y-82210743D01*
X170648793Y-82180000D01*
X170491207Y-82180000D01*
X170336649Y-82210743D01*
X170191058Y-82271049D01*
X170060030Y-82358599D01*
X169948599Y-82470030D01*
X169861049Y-82601058D01*
X169800743Y-82746649D01*
X169770000Y-82901207D01*
X148925000Y-82901207D01*
X148925000Y-80943443D01*
X154085000Y-80943443D01*
X154085000Y-81066557D01*
X154109019Y-81187306D01*
X154156132Y-81301048D01*
X154224531Y-81403414D01*
X154311586Y-81490469D01*
X154413952Y-81558868D01*
X154527694Y-81605981D01*
X154648443Y-81630000D01*
X154771557Y-81630000D01*
X154892306Y-81605981D01*
X155006048Y-81558868D01*
X155108414Y-81490469D01*
X155195469Y-81403414D01*
X155263868Y-81301048D01*
X155310981Y-81187306D01*
X155335000Y-81066557D01*
X155335000Y-80943443D01*
X155310981Y-80822694D01*
X155263868Y-80708952D01*
X155195469Y-80606586D01*
X155108414Y-80519531D01*
X155006048Y-80451132D01*
X154892306Y-80404019D01*
X154771557Y-80380000D01*
X154648443Y-80380000D01*
X154527694Y-80404019D01*
X154413952Y-80451132D01*
X154311586Y-80519531D01*
X154224531Y-80606586D01*
X154156132Y-80708952D01*
X154109019Y-80822694D01*
X154085000Y-80943443D01*
X148925000Y-80943443D01*
X148925000Y-78568443D01*
X154085000Y-78568443D01*
X154085000Y-78691557D01*
X154109019Y-78812306D01*
X154156132Y-78926048D01*
X154224531Y-79028414D01*
X154311586Y-79115469D01*
X154413952Y-79183868D01*
X154527694Y-79230981D01*
X154648443Y-79255000D01*
X154771557Y-79255000D01*
X154892306Y-79230981D01*
X155006048Y-79183868D01*
X155108414Y-79115469D01*
X155195469Y-79028414D01*
X155263868Y-78926048D01*
X155299763Y-78839389D01*
X155392306Y-78820981D01*
X155506048Y-78773868D01*
X155608414Y-78705469D01*
X155695469Y-78618414D01*
X155763868Y-78516048D01*
X155810981Y-78402306D01*
X155835000Y-78281557D01*
X155835000Y-78158443D01*
X155810981Y-78037694D01*
X155763868Y-77923952D01*
X155695469Y-77821586D01*
X155608414Y-77734531D01*
X155506048Y-77666132D01*
X155392306Y-77619019D01*
X155271557Y-77595000D01*
X155148443Y-77595000D01*
X155027694Y-77619019D01*
X154913952Y-77666132D01*
X154811586Y-77734531D01*
X154724531Y-77821586D01*
X154656132Y-77923952D01*
X154620237Y-78010611D01*
X154527694Y-78029019D01*
X154413952Y-78076132D01*
X154311586Y-78144531D01*
X154224531Y-78231586D01*
X154156132Y-78333952D01*
X154109019Y-78447694D01*
X154085000Y-78568443D01*
X148925000Y-78568443D01*
X148925000Y-77398443D01*
X157745000Y-77398443D01*
X157745000Y-77521557D01*
X157769019Y-77642306D01*
X157816132Y-77756048D01*
X157884531Y-77858414D01*
X157971586Y-77945469D01*
X158073952Y-78013868D01*
X158187694Y-78060981D01*
X158308443Y-78085000D01*
X158431557Y-78085000D01*
X158552306Y-78060981D01*
X158666048Y-78013868D01*
X158768414Y-77945469D01*
X158855469Y-77858414D01*
X158923868Y-77756048D01*
X158970981Y-77642306D01*
X158995000Y-77521557D01*
X158995000Y-77398443D01*
X158970981Y-77277694D01*
X158923868Y-77163952D01*
X158855469Y-77061586D01*
X158768414Y-76974531D01*
X158673644Y-76911207D01*
X164380000Y-76911207D01*
X164380000Y-77068793D01*
X164410743Y-77223351D01*
X164471049Y-77368942D01*
X164558599Y-77499970D01*
X164670030Y-77611401D01*
X164801058Y-77698951D01*
X164946649Y-77759257D01*
X165101207Y-77790000D01*
X165258793Y-77790000D01*
X165413351Y-77759257D01*
X165558942Y-77698951D01*
X165689970Y-77611401D01*
X165801401Y-77499970D01*
X165888951Y-77368942D01*
X165949257Y-77223351D01*
X165980000Y-77068793D01*
X165980000Y-76911207D01*
X165966077Y-76841207D01*
X166840000Y-76841207D01*
X166840000Y-76998793D01*
X166870743Y-77153351D01*
X166931049Y-77298942D01*
X167018599Y-77429970D01*
X167130030Y-77541401D01*
X167261058Y-77628951D01*
X167406649Y-77689257D01*
X167561207Y-77720000D01*
X167718793Y-77720000D01*
X167873351Y-77689257D01*
X168018942Y-77628951D01*
X168149970Y-77541401D01*
X168261401Y-77429970D01*
X168348951Y-77298942D01*
X168409257Y-77153351D01*
X168440000Y-76998793D01*
X168440000Y-76841207D01*
X168409257Y-76686649D01*
X168348951Y-76541058D01*
X168261401Y-76410030D01*
X168149970Y-76298599D01*
X168018942Y-76211049D01*
X167873351Y-76150743D01*
X167718793Y-76120000D01*
X167561207Y-76120000D01*
X167406649Y-76150743D01*
X167261058Y-76211049D01*
X167130030Y-76298599D01*
X167018599Y-76410030D01*
X166931049Y-76541058D01*
X166870743Y-76686649D01*
X166840000Y-76841207D01*
X165966077Y-76841207D01*
X165949257Y-76756649D01*
X165888951Y-76611058D01*
X165801401Y-76480030D01*
X165689970Y-76368599D01*
X165558942Y-76281049D01*
X165413351Y-76220743D01*
X165258793Y-76190000D01*
X165101207Y-76190000D01*
X164946649Y-76220743D01*
X164801058Y-76281049D01*
X164670030Y-76368599D01*
X164558599Y-76480030D01*
X164471049Y-76611058D01*
X164410743Y-76756649D01*
X164380000Y-76911207D01*
X158673644Y-76911207D01*
X158666048Y-76906132D01*
X158552306Y-76859019D01*
X158431557Y-76835000D01*
X158308443Y-76835000D01*
X158187694Y-76859019D01*
X158073952Y-76906132D01*
X157971586Y-76974531D01*
X157884531Y-77061586D01*
X157816132Y-77163952D01*
X157769019Y-77277694D01*
X157745000Y-77398443D01*
X148925000Y-77398443D01*
X148925000Y-76331056D01*
X155510000Y-76331056D01*
X155510000Y-76468944D01*
X155536901Y-76604182D01*
X155589668Y-76731574D01*
X155666274Y-76846224D01*
X155763776Y-76943726D01*
X155878426Y-77020332D01*
X156005818Y-77073099D01*
X156141056Y-77100000D01*
X156278944Y-77100000D01*
X156414182Y-77073099D01*
X156541574Y-77020332D01*
X156656224Y-76943726D01*
X156753726Y-76846224D01*
X156830332Y-76731574D01*
X156883099Y-76604182D01*
X156910000Y-76468944D01*
X156910000Y-76331056D01*
X156883099Y-76195818D01*
X156830332Y-76068426D01*
X156753726Y-75953776D01*
X156656224Y-75856274D01*
X156541574Y-75779668D01*
X156414182Y-75726901D01*
X156278944Y-75700000D01*
X156141056Y-75700000D01*
X156005818Y-75726901D01*
X155878426Y-75779668D01*
X155763776Y-75856274D01*
X155666274Y-75953776D01*
X155589668Y-76068426D01*
X155536901Y-76195818D01*
X155510000Y-76331056D01*
X148925000Y-76331056D01*
X148925000Y-75181207D01*
X150860000Y-75181207D01*
X150860000Y-75338793D01*
X150890743Y-75493351D01*
X150951049Y-75638942D01*
X151038599Y-75769970D01*
X151150030Y-75881401D01*
X151281058Y-75968951D01*
X151426649Y-76029257D01*
X151581207Y-76060000D01*
X151738793Y-76060000D01*
X151893351Y-76029257D01*
X152038942Y-75968951D01*
X152169970Y-75881401D01*
X152281401Y-75769970D01*
X152368951Y-75638942D01*
X152429257Y-75493351D01*
X152460000Y-75338793D01*
X152460000Y-75181207D01*
X152429257Y-75026649D01*
X152368951Y-74881058D01*
X152281401Y-74750030D01*
X152229742Y-74698371D01*
X152329970Y-74631401D01*
X152441401Y-74519970D01*
X152528951Y-74388942D01*
X152589257Y-74243351D01*
X152620000Y-74088793D01*
X152620000Y-73931207D01*
X152589257Y-73776649D01*
X152528951Y-73631058D01*
X152441401Y-73500030D01*
X152329970Y-73388599D01*
X152198942Y-73301049D01*
X152053351Y-73240743D01*
X151898793Y-73210000D01*
X151741207Y-73210000D01*
X151586649Y-73240743D01*
X151441058Y-73301049D01*
X151310030Y-73388599D01*
X151198599Y-73500030D01*
X151111049Y-73631058D01*
X151050743Y-73776649D01*
X151020000Y-73931207D01*
X151020000Y-74088793D01*
X151050743Y-74243351D01*
X151111049Y-74388942D01*
X151198599Y-74519970D01*
X151250258Y-74571629D01*
X151150030Y-74638599D01*
X151038599Y-74750030D01*
X150951049Y-74881058D01*
X150890743Y-75026649D01*
X150860000Y-75181207D01*
X148925000Y-75181207D01*
X148925000Y-71818443D01*
X154295000Y-71818443D01*
X154295000Y-71941557D01*
X154319019Y-72062306D01*
X154366132Y-72176048D01*
X154434531Y-72278414D01*
X154521586Y-72365469D01*
X154623952Y-72433868D01*
X154737694Y-72480981D01*
X154775382Y-72488478D01*
X154799019Y-72607306D01*
X154846132Y-72721048D01*
X154914531Y-72823414D01*
X155001586Y-72910469D01*
X155045983Y-72940134D01*
X154994531Y-72991586D01*
X154926132Y-73093952D01*
X154879019Y-73207694D01*
X154855000Y-73328443D01*
X154855000Y-73451557D01*
X154879019Y-73572306D01*
X154890674Y-73600443D01*
X154889531Y-73601586D01*
X154821132Y-73703952D01*
X154774019Y-73817694D01*
X154750000Y-73938443D01*
X154750000Y-74061557D01*
X154774019Y-74182306D01*
X154821132Y-74296048D01*
X154889531Y-74398414D01*
X154976586Y-74485469D01*
X155078952Y-74553868D01*
X155174001Y-74593238D01*
X155139019Y-74677694D01*
X155115000Y-74798443D01*
X155115000Y-74921557D01*
X155139019Y-75042306D01*
X155186132Y-75156048D01*
X155254531Y-75258414D01*
X155341586Y-75345469D01*
X155443952Y-75413868D01*
X155557694Y-75460981D01*
X155678443Y-75485000D01*
X155801557Y-75485000D01*
X155922306Y-75460981D01*
X156036048Y-75413868D01*
X156133963Y-75348443D01*
X156535000Y-75348443D01*
X156535000Y-75471557D01*
X156559019Y-75592306D01*
X156606132Y-75706048D01*
X156674531Y-75808414D01*
X156761586Y-75895469D01*
X156863952Y-75963868D01*
X156977694Y-76010981D01*
X157098443Y-76035000D01*
X157221557Y-76035000D01*
X157342306Y-76010981D01*
X157365902Y-76001207D01*
X160870000Y-76001207D01*
X160870000Y-76158793D01*
X160900743Y-76313351D01*
X160961049Y-76458942D01*
X161048599Y-76589970D01*
X161160030Y-76701401D01*
X161291058Y-76788951D01*
X161436649Y-76849257D01*
X161591207Y-76880000D01*
X161748793Y-76880000D01*
X161903351Y-76849257D01*
X162048942Y-76788951D01*
X162179970Y-76701401D01*
X162291401Y-76589970D01*
X162378951Y-76458942D01*
X162439257Y-76313351D01*
X162470000Y-76158793D01*
X162470000Y-76001207D01*
X162439257Y-75846649D01*
X162378951Y-75701058D01*
X162291401Y-75570030D01*
X162179970Y-75458599D01*
X162048942Y-75371049D01*
X161903351Y-75310743D01*
X161748793Y-75280000D01*
X161591207Y-75280000D01*
X161436649Y-75310743D01*
X161291058Y-75371049D01*
X161160030Y-75458599D01*
X161048599Y-75570030D01*
X160961049Y-75701058D01*
X160900743Y-75846649D01*
X160870000Y-76001207D01*
X157365902Y-76001207D01*
X157456048Y-75963868D01*
X157558414Y-75895469D01*
X157645469Y-75808414D01*
X157713868Y-75706048D01*
X157760981Y-75592306D01*
X157785000Y-75471557D01*
X157785000Y-75348443D01*
X157767098Y-75258443D01*
X157805000Y-75258443D01*
X157805000Y-75381557D01*
X157829019Y-75502306D01*
X157876132Y-75616048D01*
X157944531Y-75718414D01*
X158031586Y-75805469D01*
X158133952Y-75873868D01*
X158247694Y-75920981D01*
X158368443Y-75945000D01*
X158491557Y-75945000D01*
X158612306Y-75920981D01*
X158726048Y-75873868D01*
X158731698Y-75870093D01*
X158758826Y-75888219D01*
X158872568Y-75935332D01*
X158993317Y-75959351D01*
X159116431Y-75959351D01*
X159237180Y-75935332D01*
X159350922Y-75888219D01*
X159453288Y-75819820D01*
X159540343Y-75732765D01*
X159608742Y-75630399D01*
X159655855Y-75516657D01*
X159679874Y-75395908D01*
X159679874Y-75272794D01*
X159655855Y-75152045D01*
X159608742Y-75038303D01*
X159540343Y-74935937D01*
X159536173Y-74931767D01*
X159728324Y-74931767D01*
X159728324Y-75054881D01*
X159752343Y-75175630D01*
X159799456Y-75289372D01*
X159867855Y-75391738D01*
X159954910Y-75478793D01*
X160057276Y-75547192D01*
X160171018Y-75594305D01*
X160291767Y-75618324D01*
X160414881Y-75618324D01*
X160535630Y-75594305D01*
X160649372Y-75547192D01*
X160751738Y-75478793D01*
X160838793Y-75391738D01*
X160907192Y-75289372D01*
X160954305Y-75175630D01*
X160978324Y-75054881D01*
X160978324Y-74931767D01*
X160954305Y-74811018D01*
X160908821Y-74701207D01*
X166450000Y-74701207D01*
X166450000Y-74858793D01*
X166480743Y-75013351D01*
X166541049Y-75158942D01*
X166628599Y-75289970D01*
X166740030Y-75401401D01*
X166871058Y-75488951D01*
X167016649Y-75549257D01*
X167171207Y-75580000D01*
X167328793Y-75580000D01*
X167483351Y-75549257D01*
X167628942Y-75488951D01*
X167759970Y-75401401D01*
X167871401Y-75289970D01*
X167958951Y-75158942D01*
X168019257Y-75013351D01*
X168050000Y-74858793D01*
X168050000Y-74701207D01*
X168019257Y-74546649D01*
X167958951Y-74401058D01*
X167871401Y-74270030D01*
X167759970Y-74158599D01*
X167628942Y-74071049D01*
X167483351Y-74010743D01*
X167328793Y-73980000D01*
X167171207Y-73980000D01*
X167016649Y-74010743D01*
X166871058Y-74071049D01*
X166740030Y-74158599D01*
X166628599Y-74270030D01*
X166541049Y-74401058D01*
X166480743Y-74546649D01*
X166450000Y-74701207D01*
X160908821Y-74701207D01*
X160907192Y-74697276D01*
X160838793Y-74594910D01*
X160751738Y-74507855D01*
X160649372Y-74439456D01*
X160535630Y-74392343D01*
X160414881Y-74368324D01*
X160291767Y-74368324D01*
X160171018Y-74392343D01*
X160057276Y-74439456D01*
X159954910Y-74507855D01*
X159867855Y-74594910D01*
X159799456Y-74697276D01*
X159752343Y-74811018D01*
X159728324Y-74931767D01*
X159536173Y-74931767D01*
X159453288Y-74848882D01*
X159350922Y-74780483D01*
X159237180Y-74733370D01*
X159116431Y-74709351D01*
X158993317Y-74709351D01*
X158872568Y-74733370D01*
X158758826Y-74780483D01*
X158753176Y-74784258D01*
X158726048Y-74766132D01*
X158612306Y-74719019D01*
X158491557Y-74695000D01*
X158368443Y-74695000D01*
X158247694Y-74719019D01*
X158133952Y-74766132D01*
X158031586Y-74834531D01*
X157944531Y-74921586D01*
X157876132Y-75023952D01*
X157829019Y-75137694D01*
X157805000Y-75258443D01*
X157767098Y-75258443D01*
X157760981Y-75227694D01*
X157713868Y-75113952D01*
X157645469Y-75011586D01*
X157558414Y-74924531D01*
X157456048Y-74856132D01*
X157342306Y-74809019D01*
X157221557Y-74785000D01*
X157098443Y-74785000D01*
X156977694Y-74809019D01*
X156863952Y-74856132D01*
X156761586Y-74924531D01*
X156674531Y-75011586D01*
X156606132Y-75113952D01*
X156559019Y-75227694D01*
X156535000Y-75348443D01*
X156133963Y-75348443D01*
X156138414Y-75345469D01*
X156225469Y-75258414D01*
X156293868Y-75156048D01*
X156340981Y-75042306D01*
X156365000Y-74921557D01*
X156365000Y-74798443D01*
X156340981Y-74677694D01*
X156293868Y-74563952D01*
X156225469Y-74461586D01*
X156138414Y-74374531D01*
X156036048Y-74306132D01*
X155940999Y-74266762D01*
X155975981Y-74182306D01*
X156000000Y-74061557D01*
X156000000Y-73938443D01*
X155975981Y-73817694D01*
X155964326Y-73789557D01*
X155965469Y-73788414D01*
X156033868Y-73686048D01*
X156080981Y-73572306D01*
X156105000Y-73451557D01*
X156105000Y-73328443D01*
X156080981Y-73207694D01*
X156033868Y-73093952D01*
X155965469Y-72991586D01*
X155878414Y-72904531D01*
X155834017Y-72874866D01*
X155885469Y-72823414D01*
X155953868Y-72721048D01*
X156000981Y-72607306D01*
X156025000Y-72486557D01*
X156025000Y-72363443D01*
X156000981Y-72242694D01*
X155953868Y-72128952D01*
X155885469Y-72026586D01*
X155798414Y-71939531D01*
X155696048Y-71871132D01*
X155661495Y-71856820D01*
X155708414Y-71825469D01*
X155795469Y-71738414D01*
X155863868Y-71636048D01*
X155910981Y-71522306D01*
X155935000Y-71401557D01*
X155935000Y-71278443D01*
X155910981Y-71157694D01*
X155863868Y-71043952D01*
X155795469Y-70941586D01*
X155708414Y-70854531D01*
X155606048Y-70786132D01*
X155492306Y-70739019D01*
X155371557Y-70715000D01*
X155248443Y-70715000D01*
X155127694Y-70739019D01*
X155013952Y-70786132D01*
X154911586Y-70854531D01*
X154824531Y-70941586D01*
X154756132Y-71043952D01*
X154709019Y-71157694D01*
X154685000Y-71278443D01*
X154685000Y-71300845D01*
X154623952Y-71326132D01*
X154521586Y-71394531D01*
X154434531Y-71481586D01*
X154366132Y-71583952D01*
X154319019Y-71697694D01*
X154295000Y-71818443D01*
X148925000Y-71818443D01*
X148925000Y-70271207D01*
X151560000Y-70271207D01*
X151560000Y-70428793D01*
X151590743Y-70583351D01*
X151651049Y-70728942D01*
X151738599Y-70859970D01*
X151850030Y-70971401D01*
X151981058Y-71058951D01*
X152126649Y-71119257D01*
X152281207Y-71150000D01*
X152438793Y-71150000D01*
X152593351Y-71119257D01*
X152738942Y-71058951D01*
X152869970Y-70971401D01*
X152981401Y-70859970D01*
X153068951Y-70728942D01*
X153129257Y-70583351D01*
X153160000Y-70428793D01*
X153160000Y-70271207D01*
X153129257Y-70116649D01*
X153068951Y-69971058D01*
X153033795Y-69918443D01*
X157965000Y-69918443D01*
X157965000Y-70041557D01*
X157989019Y-70162306D01*
X158036132Y-70276048D01*
X158104531Y-70378414D01*
X158191586Y-70465469D01*
X158293952Y-70533868D01*
X158407694Y-70580981D01*
X158528443Y-70605000D01*
X158651557Y-70605000D01*
X158772306Y-70580981D01*
X158886048Y-70533868D01*
X158967415Y-70479500D01*
X158973952Y-70483868D01*
X159087694Y-70530981D01*
X159208443Y-70555000D01*
X159331557Y-70555000D01*
X159452306Y-70530981D01*
X159566048Y-70483868D01*
X159668414Y-70415469D01*
X159755469Y-70328414D01*
X159823868Y-70226048D01*
X159870981Y-70112306D01*
X159895000Y-69991557D01*
X159895000Y-69868443D01*
X159870981Y-69747694D01*
X159823868Y-69633952D01*
X159815252Y-69621056D01*
X160722000Y-69621056D01*
X160722000Y-69758944D01*
X160748901Y-69894182D01*
X160801668Y-70021574D01*
X160878274Y-70136224D01*
X160975776Y-70233726D01*
X161090426Y-70310332D01*
X161217818Y-70363099D01*
X161353056Y-70390000D01*
X161490944Y-70390000D01*
X161626182Y-70363099D01*
X161726954Y-70321358D01*
X162730000Y-70321358D01*
X162730000Y-70498642D01*
X162764586Y-70672520D01*
X162832430Y-70836310D01*
X162930924Y-70983717D01*
X163056283Y-71109076D01*
X163203690Y-71207570D01*
X163367480Y-71275414D01*
X163541358Y-71310000D01*
X163718642Y-71310000D01*
X163892520Y-71275414D01*
X164056310Y-71207570D01*
X164203717Y-71109076D01*
X164329076Y-70983717D01*
X164427570Y-70836310D01*
X164495414Y-70672520D01*
X164530000Y-70498642D01*
X164530000Y-70321358D01*
X164495414Y-70147480D01*
X164427570Y-69983690D01*
X164329076Y-69836283D01*
X164203717Y-69710924D01*
X164056310Y-69612430D01*
X163892520Y-69544586D01*
X163718642Y-69510000D01*
X163541358Y-69510000D01*
X163367480Y-69544586D01*
X163203690Y-69612430D01*
X163056283Y-69710924D01*
X162930924Y-69836283D01*
X162832430Y-69983690D01*
X162764586Y-70147480D01*
X162730000Y-70321358D01*
X161726954Y-70321358D01*
X161753574Y-70310332D01*
X161868224Y-70233726D01*
X161965726Y-70136224D01*
X162042332Y-70021574D01*
X162095099Y-69894182D01*
X162122000Y-69758944D01*
X162122000Y-69621056D01*
X162095099Y-69485818D01*
X162042332Y-69358426D01*
X161965726Y-69243776D01*
X161868224Y-69146274D01*
X161753574Y-69069668D01*
X161626182Y-69016901D01*
X161490944Y-68990000D01*
X161353056Y-68990000D01*
X161217818Y-69016901D01*
X161090426Y-69069668D01*
X160975776Y-69146274D01*
X160878274Y-69243776D01*
X160801668Y-69358426D01*
X160748901Y-69485818D01*
X160722000Y-69621056D01*
X159815252Y-69621056D01*
X159755469Y-69531586D01*
X159668414Y-69444531D01*
X159566048Y-69376132D01*
X159452306Y-69329019D01*
X159331557Y-69305000D01*
X159283960Y-69305000D01*
X159342736Y-69246224D01*
X159419342Y-69131574D01*
X159472109Y-69004182D01*
X159499010Y-68868944D01*
X159499010Y-68731056D01*
X159472109Y-68595818D01*
X159419342Y-68468426D01*
X159342736Y-68353776D01*
X159245234Y-68256274D01*
X159130584Y-68179668D01*
X159003192Y-68126901D01*
X158867954Y-68100000D01*
X158730066Y-68100000D01*
X158594828Y-68126901D01*
X158467436Y-68179668D01*
X158352786Y-68256274D01*
X158255284Y-68353776D01*
X158178678Y-68468426D01*
X158125911Y-68595818D01*
X158099010Y-68731056D01*
X158099010Y-68868944D01*
X158125911Y-69004182D01*
X158178678Y-69131574D01*
X158255284Y-69246224D01*
X158352786Y-69343726D01*
X158406405Y-69379553D01*
X158293952Y-69426132D01*
X158191586Y-69494531D01*
X158104531Y-69581586D01*
X158036132Y-69683952D01*
X157989019Y-69797694D01*
X157965000Y-69918443D01*
X153033795Y-69918443D01*
X152981401Y-69840030D01*
X152869970Y-69728599D01*
X152738942Y-69641049D01*
X152593351Y-69580743D01*
X152438793Y-69550000D01*
X152281207Y-69550000D01*
X152126649Y-69580743D01*
X151981058Y-69641049D01*
X151850030Y-69728599D01*
X151738599Y-69840030D01*
X151651049Y-69971058D01*
X151590743Y-70116649D01*
X151560000Y-70271207D01*
X148925000Y-70271207D01*
X148925000Y-66368443D01*
X149235000Y-66368443D01*
X149235000Y-66491557D01*
X149259019Y-66612306D01*
X149306132Y-66726048D01*
X149374531Y-66828414D01*
X149461586Y-66915469D01*
X149563952Y-66983868D01*
X149677694Y-67030981D01*
X149798443Y-67055000D01*
X149921557Y-67055000D01*
X150042306Y-67030981D01*
X150156048Y-66983868D01*
X150258414Y-66915469D01*
X150345469Y-66828414D01*
X150413868Y-66726048D01*
X150460981Y-66612306D01*
X150485000Y-66491557D01*
X150485000Y-66391358D01*
X162830000Y-66391358D01*
X162830000Y-66568642D01*
X162864586Y-66742520D01*
X162932430Y-66906310D01*
X163030924Y-67053717D01*
X163156283Y-67179076D01*
X163303690Y-67277570D01*
X163467480Y-67345414D01*
X163641358Y-67380000D01*
X163818642Y-67380000D01*
X163992520Y-67345414D01*
X164156310Y-67277570D01*
X164303717Y-67179076D01*
X164429076Y-67053717D01*
X164527570Y-66906310D01*
X164595414Y-66742520D01*
X164630000Y-66568642D01*
X164630000Y-66391358D01*
X164595414Y-66217480D01*
X164527570Y-66053690D01*
X164429076Y-65906283D01*
X164303717Y-65780924D01*
X164156310Y-65682430D01*
X163992520Y-65614586D01*
X163818642Y-65580000D01*
X163641358Y-65580000D01*
X163467480Y-65614586D01*
X163303690Y-65682430D01*
X163156283Y-65780924D01*
X163030924Y-65906283D01*
X162932430Y-66053690D01*
X162864586Y-66217480D01*
X162830000Y-66391358D01*
X150485000Y-66391358D01*
X150485000Y-66368443D01*
X150460981Y-66247694D01*
X150413868Y-66133952D01*
X150345469Y-66031586D01*
X150258414Y-65944531D01*
X150156048Y-65876132D01*
X150042306Y-65829019D01*
X149921557Y-65805000D01*
X149798443Y-65805000D01*
X149677694Y-65829019D01*
X149563952Y-65876132D01*
X149461586Y-65944531D01*
X149374531Y-66031586D01*
X149306132Y-66133952D01*
X149259019Y-66247694D01*
X149235000Y-66368443D01*
X148925000Y-66368443D01*
X148925000Y-65081207D01*
X150990000Y-65081207D01*
X150990000Y-65238793D01*
X151020743Y-65393351D01*
X151081049Y-65538942D01*
X151168599Y-65669970D01*
X151280030Y-65781401D01*
X151411058Y-65868951D01*
X151556649Y-65929257D01*
X151711207Y-65960000D01*
X151868793Y-65960000D01*
X152023351Y-65929257D01*
X152168942Y-65868951D01*
X152299970Y-65781401D01*
X152411401Y-65669970D01*
X152498951Y-65538942D01*
X152559257Y-65393351D01*
X152590000Y-65238793D01*
X152590000Y-65138443D01*
X154445000Y-65138443D01*
X154445000Y-65261557D01*
X154469019Y-65382306D01*
X154516132Y-65496048D01*
X154584531Y-65598414D01*
X154671586Y-65685469D01*
X154773952Y-65753868D01*
X154887694Y-65800981D01*
X155008443Y-65825000D01*
X155131557Y-65825000D01*
X155252306Y-65800981D01*
X155366048Y-65753868D01*
X155468414Y-65685469D01*
X155555469Y-65598414D01*
X155623868Y-65496048D01*
X155670981Y-65382306D01*
X155679706Y-65338443D01*
X156085000Y-65338443D01*
X156085000Y-65461557D01*
X156109019Y-65582306D01*
X156156132Y-65696048D01*
X156224531Y-65798414D01*
X156311586Y-65885469D01*
X156413952Y-65953868D01*
X156527694Y-66000981D01*
X156648443Y-66025000D01*
X156771557Y-66025000D01*
X156892306Y-66000981D01*
X157006048Y-65953868D01*
X157108414Y-65885469D01*
X157195469Y-65798414D01*
X157263868Y-65696048D01*
X157278014Y-65661897D01*
X157331586Y-65715469D01*
X157433952Y-65783868D01*
X157547694Y-65830981D01*
X157668443Y-65855000D01*
X157791557Y-65855000D01*
X157912306Y-65830981D01*
X158026048Y-65783868D01*
X158128414Y-65715469D01*
X158215469Y-65628414D01*
X158283868Y-65526048D01*
X158330981Y-65412306D01*
X158355000Y-65291557D01*
X158355000Y-65168443D01*
X158330981Y-65047694D01*
X158283868Y-64933952D01*
X158215469Y-64831586D01*
X158128414Y-64744531D01*
X158026048Y-64676132D01*
X157912306Y-64629019D01*
X157791557Y-64605000D01*
X157668443Y-64605000D01*
X157547694Y-64629019D01*
X157433952Y-64676132D01*
X157331586Y-64744531D01*
X157244531Y-64831586D01*
X157176132Y-64933952D01*
X157161986Y-64968103D01*
X157108414Y-64914531D01*
X157006048Y-64846132D01*
X156892306Y-64799019D01*
X156771557Y-64775000D01*
X156648443Y-64775000D01*
X156527694Y-64799019D01*
X156413952Y-64846132D01*
X156311586Y-64914531D01*
X156224531Y-65001586D01*
X156156132Y-65103952D01*
X156109019Y-65217694D01*
X156085000Y-65338443D01*
X155679706Y-65338443D01*
X155695000Y-65261557D01*
X155695000Y-65138443D01*
X155670981Y-65017694D01*
X155623868Y-64903952D01*
X155555469Y-64801586D01*
X155468414Y-64714531D01*
X155366048Y-64646132D01*
X155252306Y-64599019D01*
X155131557Y-64575000D01*
X155008443Y-64575000D01*
X154887694Y-64599019D01*
X154773952Y-64646132D01*
X154671586Y-64714531D01*
X154584531Y-64801586D01*
X154516132Y-64903952D01*
X154469019Y-65017694D01*
X154445000Y-65138443D01*
X152590000Y-65138443D01*
X152590000Y-65081207D01*
X152559257Y-64926649D01*
X152498951Y-64781058D01*
X152411401Y-64650030D01*
X152299970Y-64538599D01*
X152168942Y-64451049D01*
X152023351Y-64390743D01*
X151868793Y-64360000D01*
X151711207Y-64360000D01*
X151556649Y-64390743D01*
X151411058Y-64451049D01*
X151280030Y-64538599D01*
X151168599Y-64650030D01*
X151081049Y-64781058D01*
X151020743Y-64926649D01*
X150990000Y-65081207D01*
X148925000Y-65081207D01*
X148925000Y-64088443D01*
X158195000Y-64088443D01*
X158195000Y-64211557D01*
X158219019Y-64332306D01*
X158266132Y-64446048D01*
X158334531Y-64548414D01*
X158421586Y-64635469D01*
X158523952Y-64703868D01*
X158637694Y-64750981D01*
X158758443Y-64775000D01*
X158881557Y-64775000D01*
X159002306Y-64750981D01*
X159116048Y-64703868D01*
X159218414Y-64635469D01*
X159305469Y-64548414D01*
X159373868Y-64446048D01*
X159420981Y-64332306D01*
X159445000Y-64211557D01*
X159445000Y-64088443D01*
X159420981Y-63967694D01*
X159373868Y-63853952D01*
X159305469Y-63751586D01*
X159218414Y-63664531D01*
X159116048Y-63596132D01*
X159002306Y-63549019D01*
X158881557Y-63525000D01*
X158758443Y-63525000D01*
X158637694Y-63549019D01*
X158523952Y-63596132D01*
X158421586Y-63664531D01*
X158334531Y-63751586D01*
X158266132Y-63853952D01*
X158219019Y-63967694D01*
X158195000Y-64088443D01*
X148925000Y-64088443D01*
X148925000Y-61216886D01*
X151830000Y-61216886D01*
X151830000Y-61463114D01*
X151878037Y-61704611D01*
X151972265Y-61932097D01*
X152109062Y-62136828D01*
X152283172Y-62310938D01*
X152487903Y-62447735D01*
X152715389Y-62541963D01*
X152956886Y-62590000D01*
X153203114Y-62590000D01*
X153444611Y-62541963D01*
X153672097Y-62447735D01*
X153876828Y-62310938D01*
X154050938Y-62136828D01*
X154187735Y-61932097D01*
X154281963Y-61704611D01*
X154330000Y-61463114D01*
X154330000Y-61216886D01*
X156910000Y-61216886D01*
X156910000Y-61463114D01*
X156958037Y-61704611D01*
X157052265Y-61932097D01*
X157189062Y-62136828D01*
X157363172Y-62310938D01*
X157567903Y-62447735D01*
X157795389Y-62541963D01*
X158036886Y-62590000D01*
X158283114Y-62590000D01*
X158524611Y-62541963D01*
X158752097Y-62447735D01*
X158956828Y-62310938D01*
X159130938Y-62136828D01*
X159267735Y-61932097D01*
X159361963Y-61704611D01*
X159410000Y-61463114D01*
X159410000Y-61216886D01*
X159450000Y-61216886D01*
X159450000Y-61463114D01*
X159498037Y-61704611D01*
X159592265Y-61932097D01*
X159729062Y-62136828D01*
X159903172Y-62310938D01*
X160107903Y-62447735D01*
X160335389Y-62541963D01*
X160576886Y-62590000D01*
X160823114Y-62590000D01*
X161064611Y-62541963D01*
X161292097Y-62447735D01*
X161496828Y-62310938D01*
X161670938Y-62136828D01*
X161807735Y-61932097D01*
X161901963Y-61704611D01*
X161950000Y-61463114D01*
X161950000Y-61216886D01*
X161990000Y-61216886D01*
X161990000Y-61463114D01*
X162038037Y-61704611D01*
X162132265Y-61932097D01*
X162269062Y-62136828D01*
X162443172Y-62310938D01*
X162647903Y-62447735D01*
X162875389Y-62541963D01*
X163116886Y-62590000D01*
X163363114Y-62590000D01*
X163604611Y-62541963D01*
X163832097Y-62447735D01*
X164036828Y-62310938D01*
X164210938Y-62136828D01*
X164347735Y-61932097D01*
X164441963Y-61704611D01*
X164490000Y-61463114D01*
X164490000Y-61216886D01*
X164530000Y-61216886D01*
X164530000Y-61463114D01*
X164578037Y-61704611D01*
X164672265Y-61932097D01*
X164809062Y-62136828D01*
X164983172Y-62310938D01*
X165187903Y-62447735D01*
X165415389Y-62541963D01*
X165656886Y-62590000D01*
X165903114Y-62590000D01*
X166144611Y-62541963D01*
X166372097Y-62447735D01*
X166576828Y-62310938D01*
X166750938Y-62136828D01*
X166887735Y-61932097D01*
X166981963Y-61704611D01*
X167030000Y-61463114D01*
X167030000Y-61216886D01*
X166981963Y-60975389D01*
X166887735Y-60747903D01*
X166750938Y-60543172D01*
X166576828Y-60369062D01*
X166372097Y-60232265D01*
X166144611Y-60138037D01*
X165903114Y-60090000D01*
X165656886Y-60090000D01*
X165415389Y-60138037D01*
X165187903Y-60232265D01*
X164983172Y-60369062D01*
X164809062Y-60543172D01*
X164672265Y-60747903D01*
X164578037Y-60975389D01*
X164530000Y-61216886D01*
X164490000Y-61216886D01*
X164441963Y-60975389D01*
X164347735Y-60747903D01*
X164210938Y-60543172D01*
X164036828Y-60369062D01*
X163832097Y-60232265D01*
X163604611Y-60138037D01*
X163363114Y-60090000D01*
X163116886Y-60090000D01*
X162875389Y-60138037D01*
X162647903Y-60232265D01*
X162443172Y-60369062D01*
X162269062Y-60543172D01*
X162132265Y-60747903D01*
X162038037Y-60975389D01*
X161990000Y-61216886D01*
X161950000Y-61216886D01*
X161901963Y-60975389D01*
X161807735Y-60747903D01*
X161670938Y-60543172D01*
X161496828Y-60369062D01*
X161292097Y-60232265D01*
X161064611Y-60138037D01*
X160823114Y-60090000D01*
X160576886Y-60090000D01*
X160335389Y-60138037D01*
X160107903Y-60232265D01*
X159903172Y-60369062D01*
X159729062Y-60543172D01*
X159592265Y-60747903D01*
X159498037Y-60975389D01*
X159450000Y-61216886D01*
X159410000Y-61216886D01*
X159361963Y-60975389D01*
X159267735Y-60747903D01*
X159130938Y-60543172D01*
X158956828Y-60369062D01*
X158752097Y-60232265D01*
X158524611Y-60138037D01*
X158283114Y-60090000D01*
X158036886Y-60090000D01*
X157795389Y-60138037D01*
X157567903Y-60232265D01*
X157363172Y-60369062D01*
X157189062Y-60543172D01*
X157052265Y-60747903D01*
X156958037Y-60975389D01*
X156910000Y-61216886D01*
X154330000Y-61216886D01*
X154281963Y-60975389D01*
X154187735Y-60747903D01*
X154050938Y-60543172D01*
X153876828Y-60369062D01*
X153672097Y-60232265D01*
X153444611Y-60138037D01*
X153203114Y-60090000D01*
X152956886Y-60090000D01*
X152715389Y-60138037D01*
X152487903Y-60232265D01*
X152283172Y-60369062D01*
X152109062Y-60543172D01*
X151972265Y-60747903D01*
X151878037Y-60975389D01*
X151830000Y-61216886D01*
X148925000Y-61216886D01*
X148925000Y-58676886D01*
X149290000Y-58676886D01*
X149290000Y-58923114D01*
X149338037Y-59164611D01*
X149432265Y-59392097D01*
X149569062Y-59596828D01*
X149743172Y-59770938D01*
X149947903Y-59907735D01*
X150175389Y-60001963D01*
X150416886Y-60050000D01*
X150663114Y-60050000D01*
X150904611Y-60001963D01*
X151132097Y-59907735D01*
X151336828Y-59770938D01*
X151510938Y-59596828D01*
X151647735Y-59392097D01*
X151741963Y-59164611D01*
X151790000Y-58923114D01*
X151790000Y-58676886D01*
X154370000Y-58676886D01*
X154370000Y-58923114D01*
X154418037Y-59164611D01*
X154512265Y-59392097D01*
X154649062Y-59596828D01*
X154823172Y-59770938D01*
X155027903Y-59907735D01*
X155255389Y-60001963D01*
X155496886Y-60050000D01*
X155743114Y-60050000D01*
X155984611Y-60001963D01*
X156212097Y-59907735D01*
X156416828Y-59770938D01*
X156590938Y-59596828D01*
X156727735Y-59392097D01*
X156821963Y-59164611D01*
X156870000Y-58923114D01*
X156870000Y-58676886D01*
X156910000Y-58676886D01*
X156910000Y-58923114D01*
X156958037Y-59164611D01*
X157052265Y-59392097D01*
X157189062Y-59596828D01*
X157363172Y-59770938D01*
X157567903Y-59907735D01*
X157795389Y-60001963D01*
X158036886Y-60050000D01*
X158283114Y-60050000D01*
X158524611Y-60001963D01*
X158752097Y-59907735D01*
X158956828Y-59770938D01*
X159130938Y-59596828D01*
X159267735Y-59392097D01*
X159361963Y-59164611D01*
X159410000Y-58923114D01*
X159410000Y-58676886D01*
X159450000Y-58676886D01*
X159450000Y-58923114D01*
X159498037Y-59164611D01*
X159592265Y-59392097D01*
X159729062Y-59596828D01*
X159903172Y-59770938D01*
X160107903Y-59907735D01*
X160335389Y-60001963D01*
X160576886Y-60050000D01*
X160823114Y-60050000D01*
X161064611Y-60001963D01*
X161292097Y-59907735D01*
X161496828Y-59770938D01*
X161670938Y-59596828D01*
X161807735Y-59392097D01*
X161901963Y-59164611D01*
X161950000Y-58923114D01*
X161950000Y-58676886D01*
X161990000Y-58676886D01*
X161990000Y-58923114D01*
X162038037Y-59164611D01*
X162132265Y-59392097D01*
X162269062Y-59596828D01*
X162443172Y-59770938D01*
X162647903Y-59907735D01*
X162875389Y-60001963D01*
X163116886Y-60050000D01*
X163363114Y-60050000D01*
X163604611Y-60001963D01*
X163832097Y-59907735D01*
X164036828Y-59770938D01*
X164210938Y-59596828D01*
X164347735Y-59392097D01*
X164441963Y-59164611D01*
X164490000Y-58923114D01*
X164490000Y-58676886D01*
X164441963Y-58435389D01*
X164347735Y-58207903D01*
X164210938Y-58003172D01*
X164157766Y-57950000D01*
X164528065Y-57950000D01*
X164528065Y-59650000D01*
X164535788Y-59728414D01*
X164558660Y-59803814D01*
X164595803Y-59873303D01*
X164645789Y-59934211D01*
X164706697Y-59984197D01*
X164776186Y-60021340D01*
X164851586Y-60044212D01*
X164930000Y-60051935D01*
X166630000Y-60051935D01*
X166708414Y-60044212D01*
X166783814Y-60021340D01*
X166853303Y-59984197D01*
X166914211Y-59934211D01*
X166964197Y-59873303D01*
X167001340Y-59803814D01*
X167024212Y-59728414D01*
X167031935Y-59650000D01*
X167031935Y-57950000D01*
X167024212Y-57871586D01*
X167001340Y-57796186D01*
X166964197Y-57726697D01*
X166914211Y-57665789D01*
X166853303Y-57615803D01*
X166783814Y-57578660D01*
X166708414Y-57555788D01*
X166630000Y-57548065D01*
X164930000Y-57548065D01*
X164851586Y-57555788D01*
X164776186Y-57578660D01*
X164706697Y-57615803D01*
X164645789Y-57665789D01*
X164595803Y-57726697D01*
X164558660Y-57796186D01*
X164535788Y-57871586D01*
X164528065Y-57950000D01*
X164157766Y-57950000D01*
X164036828Y-57829062D01*
X163832097Y-57692265D01*
X163604611Y-57598037D01*
X163363114Y-57550000D01*
X163116886Y-57550000D01*
X162875389Y-57598037D01*
X162647903Y-57692265D01*
X162443172Y-57829062D01*
X162269062Y-58003172D01*
X162132265Y-58207903D01*
X162038037Y-58435389D01*
X161990000Y-58676886D01*
X161950000Y-58676886D01*
X161901963Y-58435389D01*
X161807735Y-58207903D01*
X161670938Y-58003172D01*
X161496828Y-57829062D01*
X161292097Y-57692265D01*
X161064611Y-57598037D01*
X160823114Y-57550000D01*
X160576886Y-57550000D01*
X160335389Y-57598037D01*
X160107903Y-57692265D01*
X159903172Y-57829062D01*
X159729062Y-58003172D01*
X159592265Y-58207903D01*
X159498037Y-58435389D01*
X159450000Y-58676886D01*
X159410000Y-58676886D01*
X159361963Y-58435389D01*
X159267735Y-58207903D01*
X159130938Y-58003172D01*
X158956828Y-57829062D01*
X158752097Y-57692265D01*
X158524611Y-57598037D01*
X158283114Y-57550000D01*
X158036886Y-57550000D01*
X157795389Y-57598037D01*
X157567903Y-57692265D01*
X157363172Y-57829062D01*
X157189062Y-58003172D01*
X157052265Y-58207903D01*
X156958037Y-58435389D01*
X156910000Y-58676886D01*
X156870000Y-58676886D01*
X156821963Y-58435389D01*
X156727735Y-58207903D01*
X156590938Y-58003172D01*
X156416828Y-57829062D01*
X156212097Y-57692265D01*
X155984611Y-57598037D01*
X155743114Y-57550000D01*
X155496886Y-57550000D01*
X155255389Y-57598037D01*
X155027903Y-57692265D01*
X154823172Y-57829062D01*
X154649062Y-58003172D01*
X154512265Y-58207903D01*
X154418037Y-58435389D01*
X154370000Y-58676886D01*
X151790000Y-58676886D01*
X151741963Y-58435389D01*
X151647735Y-58207903D01*
X151510938Y-58003172D01*
X151336828Y-57829062D01*
X151132097Y-57692265D01*
X150904611Y-57598037D01*
X150663114Y-57550000D01*
X150416886Y-57550000D01*
X150175389Y-57598037D01*
X149947903Y-57692265D01*
X149743172Y-57829062D01*
X149569062Y-58003172D01*
X149432265Y-58207903D01*
X149338037Y-58435389D01*
X149290000Y-58676886D01*
X148925000Y-58676886D01*
X148925000Y-57425000D01*
X169096689Y-57425000D01*
X169122145Y-57910734D01*
G37*
%TD.AperFunction*%
%TD*%
M02*
